<?xml version="1.0" standalone="no"?>
<!DOCTYPE svg PUBLIC "-//W3C//DTD SVG 20010904//EN"
 "http://www.w3.org/TR/2001/REC-SVG-20010904/DTD/svg10.dtd">
<svg version="1.0" xmlns="http://www.w3.org/2000/svg"
 width="1238.000000pt" height="614.000000pt" viewBox="0 0 1238.000000 614.000000"
 preserveAspectRatio="xMidYMid meet">

<g transform="translate(0.000000,614.000000) scale(0.100000,-0.100000)"
fill="#000000" stroke="none">
<path d="M5860 5595 c-43 -16 -116 -57 -595 -327 -82 -47 -181 -102 -220 -123
-38 -21 -137 -76 -220 -123 -141 -80 -169 -96 -280 -157 -25 -13 -80 -44 -122
-68 -85 -48 -104 -59 -236 -132 -93 -52 -138 -90 -165 -139 -16 -28 -17 -117
-20 -1021 -2 -695 0 -1005 8 -1041 14 -67 62 -122 142 -167 35 -19 137 -76
228 -127 91 -51 185 -104 210 -118 25 -14 135 -76 246 -138 110 -62 227 -127
260 -145 32 -17 64 -35 69 -39 6 -4 89 -52 185 -105 96 -54 207 -116 245 -138
259 -146 268 -150 332 -155 70 -5 90 3 248 94 90 51 141 80 750 422 404 226
388 217 530 297 66 37 165 93 220 123 115 63 148 91 178 147 l22 40 3 1003 2
1002 -21 51 c-24 56 -82 111 -156 149 -26 13 -70 38 -98 54 -59 34 -203 114
-295 164 -36 19 -70 38 -75 43 -6 4 -35 21 -65 37 -30 16 -91 49 -135 74 -44
24 -183 102 -310 173 -126 71 -266 149 -310 174 -44 25 -110 61 -146 81 -37
19 -97 53 -135 75 -131 76 -196 90 -274 60z m300 -710 c103 -15 248 -54 314
-84 22 -11 68 -31 101 -46 145 -63 364 -240 480 -385 88 -111 119 -162 109
-177 -5 -8 -47 -35 -94 -60 -47 -24 -105 -57 -130 -73 -25 -15 -70 -41 -100
-58 -30 -16 -107 -59 -170 -96 -63 -36 -118 -66 -122 -66 -4 0 -15 14 -23 30
-26 51 -151 167 -228 212 -157 92 -344 120 -514 79 -173 -42 -300 -127 -415
-276 -55 -72 -70 -100 -105 -202 -24 -70 -27 -93 -27 -213 0 -126 2 -141 32
-224 38 -107 80 -180 147 -254 135 -149 321 -232 519 -232 124 0 214 21 321
74 121 60 198 130 301 275 2 2 31 -13 66 -32 80 -44 143 -79 238 -130 41 -22
98 -53 125 -69 28 -15 85 -47 127 -70 l77 -41 -36 -56 c-66 -104 -116 -166
-212 -261 -192 -191 -441 -323 -721 -385 -41 -9 -145 -19 -230 -22 -130 -4
-175 -2 -279 16 -418 71 -755 294 -983 651 -145 228 -205 430 -215 720 -4 153
-2 189 17 290 29 155 88 326 148 431 11 20 26 47 34 60 39 70 157 215 239 294
172 166 392 290 620 351 168 44 412 56 589 29z m702 -1201 l3 -106 100 -2 100
-1 0 -105 0 -105 -103 -3 -103 -3 2 -97 2 -97 -107 -3 -106 -3 0 101 0 100
-99 0 -100 0 -3 106 c-2 58 -1 108 1 110 2 2 49 4 103 4 l98 0 0 100 0 99 98
4 c53 1 100 4 104 5 4 1 9 -46 10 -104z m718 -4 l0 -100 100 0 100 0 0 -110 0
-110 -100 0 -100 0 0 -100 0 -100 -105 0 -104 0 -3 98 -3 97 -100 5 -100 5 0
105 0 105 103 3 103 3 -1 92 c-1 51 -1 95 -1 100 1 4 48 7 106 7 l105 0 0
-100z"/>
<path d="M3100 1040 l0 -400 65 0 65 0 0 149 c0 173 -9 161 121 161 133 0 200
40 234 139 18 53 20 164 4 212 -17 51 -55 97 -99 119 -35 18 -59 20 -215 20
l-175 0 0 -400z m313 259 c48 -22 71 -100 47 -163 -15 -40 -58 -56 -150 -56
l-80 0 0 115 0 115 80 0 c43 0 90 -5 103 -11z"/>
<path d="M7736 1424 c-3 -9 -6 -38 -6 -64 0 -48 1 -49 33 -55 19 -4 47 -5 63
-3 28 3 29 4 32 71 l3 67 -59 0 c-45 0 -61 -4 -66 -16z"/>
<path d="M3878 1203 c-14 -16 -30 -37 -36 -48 -10 -17 -11 -14 -12 23 l0 43
-57 -3 -57 -3 2 -280 c1 -154 2 -283 2 -287 0 -5 27 -8 60 -8 l60 0 0 168 c1
92 5 187 9 212 14 70 58 94 122 66 12 -5 18 3 26 36 6 24 14 52 18 64 5 15 0
23 -20 32 -45 21 -89 15 -117 -15z"/>
<path d="M4190 1205 c-112 -65 -162 -212 -126 -369 23 -96 62 -148 141 -186
78 -38 182 -19 249 46 74 70 107 235 71 345 -43 128 -106 182 -219 187 -61 2
-77 -1 -116 -23z m153 -106 c44 -20 71 -84 71 -169 -1 -115 -42 -179 -116
-180 -75 0 -118 66 -118 180 0 77 16 125 51 154 33 28 73 33 112 15z"/>
<path d="M4750 1219 c-43 -17 -95 -83 -114 -144 -27 -83 -19 -242 13 -309 64
-131 177 -162 269 -73 l42 41 0 -59 c0 -126 -26 -159 -119 -153 -37 2 -48 8
-58 28 -13 27 -42 37 -112 39 l-43 1 7 -37 c20 -112 138 -173 276 -144 71 16
114 46 141 101 22 43 23 57 26 378 l4 332 -60 0 c-55 0 -60 -2 -55 -20 3 -11
2 -27 -1 -37 -6 -14 -11 -12 -36 15 -16 18 -41 37 -55 42 -33 12 -92 12 -125
-1z m160 -127 c36 -37 54 -101 47 -177 -6 -77 -28 -121 -73 -142 -67 -33 -126
19 -139 122 -21 169 77 285 165 197z"/>
<path d="M5368 1203 c-14 -16 -30 -37 -36 -48 -10 -17 -11 -14 -12 23 l0 42
-60 0 -60 0 0 -290 0 -291 63 3 62 3 5 195 c4 165 8 200 23 223 20 32 59 44
92 29 20 -9 24 -8 33 16 17 45 32 95 30 97 -43 34 -107 33 -140 -2z"/>
<path d="M5652 1213 c-36 -18 -75 -62 -91 -105 -12 -32 -1 -41 61 -52 34 -6
38 -4 52 22 17 33 34 42 80 42 49 0 76 -24 76 -69 l0 -39 -102 -28 c-148 -41
-188 -82 -188 -192 0 -49 5 -66 29 -99 36 -50 76 -67 141 -61 37 4 61 14 90
37 21 17 41 31 43 31 3 0 7 -13 11 -30 5 -29 7 -30 67 -30 54 0 60 2 54 18
-17 42 -25 139 -25 292 0 191 -9 220 -75 257 -50 29 -171 32 -223 6z m180
-349 c-4 -66 -17 -97 -51 -117 -40 -23 -68 -21 -96 8 -30 29 -33 73 -7 104 16
20 125 62 147 57 5 -1 8 -25 7 -52z"/>
<path d="M6252 1200 c-23 -17 -42 -35 -42 -40 0 -6 -4 -10 -10 -10 -5 0 -10
16 -10 35 l0 35 -55 0 -55 0 0 -290 0 -290 60 0 60 0 0 170 c0 197 10 261 47
290 33 26 75 26 99 -1 17 -19 19 -41 22 -240 l4 -219 58 0 58 0 4 198 c4 213
10 244 59 271 32 18 74 8 91 -22 9 -15 14 -88 16 -234 l4 -213 59 0 59 0 0
220 c0 172 -3 229 -16 265 -24 73 -65 105 -134 105 -49 0 -84 -17 -124 -59
l-29 -31 -18 30 c-41 66 -138 80 -207 30z"/>
<path d="M7105 1220 c-11 -4 -33 -22 -50 -39 -39 -39 -45 -39 -45 4 l0 35 -55
0 -55 0 0 -290 0 -290 59 0 58 0 5 193 c4 138 10 202 21 228 26 63 116 78 137
23 6 -14 10 -120 10 -235 l0 -209 59 0 58 0 5 193 c6 204 16 255 56 276 32 17
67 13 88 -10 17 -19 19 -41 22 -240 l3 -219 60 0 59 0 0 233 c0 207 -2 237
-20 274 -23 53 -70 83 -127 83 -52 0 -80 -12 -118 -53 l-30 -32 -41 43 c-37
39 -45 42 -90 41 -27 0 -58 -4 -69 -9z"/>
<path d="M8172 1200 c-22 -16 -45 -37 -51 -47 -8 -15 -10 -10 -11 25 l0 42
-60 0 -60 0 0 -290 0 -291 63 3 62 3 5 208 5 209 33 29 c45 41 100 39 125 -5
8 -14 14 -92 17 -231 l5 -210 60 0 60 0 0 230 c-1 208 -3 234 -20 270 -44 88
-152 114 -233 55z"/>
<path d="M8646 1207 c-82 -51 -122 -155 -114 -302 9 -155 90 -265 195 -265 33
0 89 32 120 69 l23 26 0 -66 c0 -76 -14 -125 -40 -139 -24 -13 -96 -13 -121 0
-10 6 -19 19 -19 29 0 14 -10 20 -46 25 -88 12 -94 10 -94 -28 0 -36 31 -89
70 -118 39 -29 134 -43 200 -29 77 16 113 41 141 98 24 47 24 53 27 381 l3
332 -55 0 -56 0 0 -42 -1 -43 -23 28 c-58 71 -137 87 -210 44z m165 -104 c39
-23 59 -79 59 -163 0 -76 -11 -114 -42 -147 -47 -50 -127 -32 -154 34 -18 42
-21 175 -5 218 14 38 59 75 89 75 13 0 37 -8 53 -17z"/>
<path d="M7740 1213 c0 -5 -1 -134 -1 -288 l-1 -280 58 0 59 0 3 288 2 287
-60 0 c-33 0 -60 -3 -60 -7z"/>
</g>
</svg>
