<?xml version="1.0" encoding="UTF-8"?>
<svg version="1.1" xmlns="http://www.w3.org/2000/svg" width="1800" height="1013">
<path d="M0 0 C8.27968743 7.53107193 12.98575488 16.82616949 14 28 C14.13707685 31.96780525 14.12642691 35.93227981 14.11352539 39.90209961 C14.11367142 41.08330383 14.11381744 42.26450806 14.1139679 43.48150635 C14.11339282 46.7020811 14.10839606 49.92261174 14.10139394 53.14317775 C14.09511989 56.51574303 14.0945534 59.88830929 14.09336853 63.26087952 C14.09026712 69.63907038 14.08206985 76.017244 14.07201904 82.39542729 C14.06082085 89.66026157 14.05533813 96.9250967 14.05032361 104.18993747 C14.03988619 119.12663616 14.02155558 134.06331245 14 149 C5.09 149 -3.82 149 -13 149 C-13.66 145.04 -14.32 141.08 -15 137 C-15.33 136.01 -15.66 135.02 -16 134 C-16.556875 134.44730469 -17.11375 134.89460937 -17.6875 135.35546875 C-32.49034748 147.08272461 -48.4366473 153.93569236 -67.6875 152.9375 C-79.90009596 151.45905207 -90.91552137 148.74336185 -100 140 C-100.33 139.01 -100.66 138.02 -101 137 C-101.66 137 -102.32 137 -103 137 C-103.79686606 135.46101439 -104.58723141 133.91866216 -105.375 132.375 C-106.03628906 131.08722656 -106.03628906 131.08722656 -106.7109375 129.7734375 C-109.26001556 124.28905743 -110.38082297 119.27123635 -110.6875 113.25 C-110.74284912 112.18894043 -110.74284912 112.18894043 -110.79931641 111.10644531 C-111.40094232 97.59917227 -108.67997455 86.54839634 -99.8125 75.9609375 C-86.51490992 61.57432065 -66.09875961 55.29975338 -46.96484375 54.1171875 C-37.97932328 53.85160561 -28.98821232 53.92512703 -20 54 C-20.05234536 50.33221462 -20.14752842 46.6667003 -20.25 43 C-20.26417969 41.97003906 -20.27835938 40.94007813 -20.29296875 39.87890625 C-20.50767204 33.13722301 -21.58791954 28.81905195 -25 23 C-25.33 22.01 -25.66 21.02 -26 20 C-28.16621868 18.8974827 -28.16621868 18.8974827 -31 18 C-32.33366122 17.48000684 -33.66697381 16.95911894 -35 16.4375 C-51.64953121 9.95895257 -72.1768729 15.14287061 -88.51904297 20.3737793 C-91.89918642 21.44957891 -94.40510122 22 -98 22 C-98.83732743 18.87605609 -99.66917982 15.75068026 -100.5 12.625 C-100.73847656 11.73554687 -100.97695313 10.84609375 -101.22265625 9.9296875 C-101.56103516 8.65351562 -101.56103516 8.65351562 -101.90625 7.3515625 C-102.11572266 6.56604004 -102.32519531 5.78051758 -102.54101562 4.97119141 C-103 3 -103 3 -103 1 C-72.97286688 -11.37229096 -27.97483876 -22.94450078 0 0 Z M-70.75 85.1875 C-76.16787503 91.95984379 -77.69211207 98.18903078 -77.37890625 106.84765625 C-76.48753089 114.26353166 -73.63242778 119.12301125 -67.87890625 123.80859375 C-60.74150403 128.33438934 -52.13243882 128.13978362 -44.0625 126.34765625 C-35.78425461 123.54412256 -25.44243965 119.03752663 -20 112 C-19.6508995 109.1103488 -19.5318438 106.6140729 -19.609375 103.734375 C-19.61786469 102.54427826 -19.61786469 102.54427826 -19.62652588 101.33013916 C-19.64886853 98.80280527 -19.69905824 96.27690335 -19.75 93.75 C-19.77006786 92.03387468 -19.78831813 90.31772708 -19.8046875 88.6015625 C-19.84872605 84.4004922 -19.91773674 80.20048865 -20 76 C-24.22902991 75.91139349 -28.45781493 75.85907755 -32.6875 75.8125 C-34.45577148 75.77479492 -34.45577148 75.77479492 -36.25976562 75.73632812 C-48.62308258 75.63471182 -60.85187841 77.31399419 -70.75 85.1875 Z " fill="#5282A1" transform="translate(836,800)"/>
<path d="M0 0 C0.53367187 0.45117188 1.06734375 0.90234375 1.6171875 1.3671875 C1.6171875 2.0271875 1.6171875 2.6871875 1.6171875 3.3671875 C2.2771875 3.3671875 2.9371875 3.3671875 3.6171875 3.3671875 C12.64193331 14.29187979 13.77474744 25.69705319 13.73071289 39.36108398 C13.73085892 40.55204178 13.73100494 41.74299957 13.7311554 42.970047 C13.73058028 46.21748024 13.72558321 49.46486976 13.71858144 52.71229434 C13.71230778 56.11288686 13.71174093 59.51348034 13.71055603 62.91407776 C13.70745451 69.34539251 13.69925708 75.77669015 13.68920654 82.20799738 C13.6780087 89.53329003 13.67252572 96.85858351 13.66751111 104.18388259 C13.65707343 119.24499374 13.63949692 134.30608891 13.6171875 149.3671875 C9.30470141 149.39605287 4.99223988 149.41394005 0.6796875 149.4296875 C-0.55201172 149.43806641 -1.78371094 149.44644531 -3.05273438 149.45507812 C-4.22255859 149.45830078 -5.39238281 149.46152344 -6.59765625 149.46484375 C-7.68167725 149.47008057 -8.76569824 149.47531738 -9.88256836 149.48071289 C-12.3828125 149.3671875 -12.3828125 149.3671875 -13.3828125 148.3671875 C-13.77947477 146.18699271 -14.12596487 143.9975412 -14.4453125 141.8046875 C-14.71021484 140.00837891 -14.71021484 140.00837891 -14.98046875 138.17578125 C-15.11324219 137.24894531 -15.24601562 136.32210937 -15.3828125 135.3671875 C-17.3628125 136.0271875 -19.3428125 136.6871875 -21.3828125 137.3671875 C-21.3828125 138.0271875 -21.3828125 138.6871875 -21.3828125 139.3671875 C-30.71090319 145.87441227 -41.14415375 150.55569316 -52.3828125 152.3671875 C-53.2284375 152.51414062 -54.0740625 152.66109375 -54.9453125 152.8125 C-70.08041341 154.78847151 -85.5568274 151.39209993 -97.97265625 142.515625 C-100.5881058 140.18418699 -102.23336472 137.9059557 -104.0703125 134.9296875 C-104.65167969 134.00285156 -105.23304688 133.07601562 -105.83203125 132.12109375 C-112.11696847 120.96018509 -111.95799379 105.29280719 -109.3203125 92.9296875 C-107.53976025 86.80903915 -104.41283657 81.30032539 -100.3828125 76.3671875 C-99.7228125 76.3671875 -99.0628125 76.3671875 -98.3828125 76.3671875 C-98.0528125 75.3771875 -97.7228125 74.3871875 -97.3828125 73.3671875 C-96.7228125 73.3671875 -96.0628125 73.3671875 -95.3828125 73.3671875 C-95.3828125 72.7071875 -95.3828125 72.0471875 -95.3828125 71.3671875 C-72.81389742 54.03670532 -46.52228704 54.15150516 -19.3828125 54.3671875 C-19.46494247 51.22038437 -19.57765552 48.07534676 -19.6953125 44.9296875 C-19.71787109 44.05119141 -19.74042969 43.17269531 -19.76367188 42.26757812 C-20.01165223 36.15824394 -21.18595148 31.05815267 -23.3828125 25.3671875 C-23.7128125 24.3771875 -24.0428125 23.3871875 -24.3828125 22.3671875 C-25.0428125 22.3671875 -25.7028125 22.3671875 -26.3828125 22.3671875 C-26.3828125 21.7071875 -26.3828125 21.0471875 -26.3828125 20.3671875 C-29.39060595 19.14527141 -32.41191697 17.96134673 -35.4453125 16.8046875 C-36.09628906 16.55589844 -36.74726562 16.30710937 -37.41796875 16.05078125 C-53.31407214 10.52032778 -72.44058003 16.0252098 -88.015625 20.5 C-91.46256052 21.38772585 -94.85321585 21.92711056 -98.3828125 22.3671875 C-99.05499757 19.61843068 -99.72073685 16.86838024 -100.3828125 14.1171875 C-100.57359375 13.33988281 -100.764375 12.56257812 -100.9609375 11.76171875 C-101.14140625 11.00761719 -101.321875 10.25351562 -101.5078125 9.4765625 C-101.67539063 8.78530273 -101.84296875 8.09404297 -102.015625 7.38183594 C-102.3828125 5.3671875 -102.3828125 5.3671875 -102.3828125 1.3671875 C-88.80017805 -5.27442133 -75.24800123 -8.52400583 -60.3828125 -10.6328125 C-59.39015381 -10.77855713 -59.39015381 -10.77855713 -58.37744141 -10.92724609 C-38.04039198 -13.7276754 -17.31949641 -11.56630729 0 0 Z M-68.3828125 83.3671875 C-68.3828125 84.0271875 -68.3828125 84.6871875 -68.3828125 85.3671875 C-68.99769531 85.61597656 -69.61257813 85.86476563 -70.24609375 86.12109375 C-72.76743771 87.59149361 -73.37326373 88.68095203 -74.5703125 91.3046875 C-75.05564453 92.33916016 -75.05564453 92.33916016 -75.55078125 93.39453125 C-78.05578492 99.33362445 -78.47021085 105.69369669 -76.62890625 111.9140625 C-73.64814892 118.88085217 -70.31720197 123.74169339 -63.1328125 126.63671875 C-53.63144527 129.16051942 -44.0387878 127.82482956 -35.3828125 123.3671875 C-31.25473722 120.86821867 -27.29142227 118.19555742 -23.3828125 115.3671875 C-22.67664795 115.00141602 -21.9704834 114.63564453 -21.24291992 114.25878906 C-18.82779404 111.80277183 -18.92822175 109.88856115 -18.92962646 106.53852844 C-18.95027161 105.76655624 -18.97091675 104.99458405 -18.9921875 104.19921875 C-19.00067719 103.00699959 -19.00067719 103.00699959 -19.00933838 101.79069519 C-19.03172246 99.25307884 -19.08191988 96.7168767 -19.1328125 94.1796875 C-19.152875 92.45900477 -19.17112621 90.73829991 -19.1875 89.01757812 C-19.23159356 84.80023668 -19.30063285 80.58395181 -19.3828125 76.3671875 C-23.79934942 76.27883864 -28.21565398 76.22634763 -32.6328125 76.1796875 C-33.86773438 76.15455078 -35.10265625 76.12941406 -36.375 76.10351562 C-48.02695307 76.01152652 -57.95464125 78.17943564 -68.3828125 83.3671875 Z " fill="#5282A1" transform="translate(1128.3828125,799.6328125)"/>
<path d="M0 0 C10.14314295 6.56321014 15.39695825 21.72015243 18 33 C23.06307867 66.70458213 12.16389625 96.92899524 -7.625 123.875 C-8.98931736 125.70417835 -10.36196491 127.52643037 -11.74267578 129.34326172 C-12.89997226 130.86819645 -14.04250562 132.40430542 -15.18359375 133.94140625 C-18.65475676 138.55278497 -18.65475676 138.55278497 -20 140 C-20.66 140 -21.32 140 -22 140 C-22.3544519 140.84232178 -22.3544519 140.84232178 -22.71606445 141.70166016 C-24.3005967 144.53809038 -26.23935527 146.48130046 -28.54296875 148.7734375 C-29.45240234 149.6809375 -30.36183594 150.5884375 -31.29882812 151.5234375 C-32.01147827 152.22678223 -32.01147827 152.22678223 -32.73852539 152.94433594 C-34.17059387 154.35830751 -35.59465585 155.77995599 -37.01757812 157.203125 C-50.90239355 171 -50.90239355 171 -54 171 C-54 171.66 -54 172.32 -54 173 C-55.86289424 174.55800156 -57.732405 176.0031559 -59.6875 177.4375 C-60.89750127 178.35065864 -62.10579013 179.26609004 -63.3125 180.18359375 C-63.93125 180.65394043 -64.55 181.12428711 -65.1875 181.60888672 C-86.0466977 197.61854573 -105.51670517 216.529483 -116 241 C-116.433125 241.95261719 -116.86625 242.90523437 -117.3125 243.88671875 C-122.98241914 258.63244597 -122.2244163 278.52091795 -115.94140625 292.93896484 C-115.63074219 293.61910645 -115.32007813 294.29924805 -115 295 C-114.65066406 295.77166504 -114.30132813 296.54333008 -113.94140625 297.33837891 C-107.40545099 311.38683155 -98.84911195 323.85529617 -89.84033203 336.41015625 C-86.45986975 341.16737884 -83.25509044 346.03862312 -80.04296875 350.91015625 C-78.79093063 352.80377413 -77.5256949 354.68884665 -76.23828125 356.55859375 C-67 369.98551637 -67 369.98551637 -67 376 C-69.94956528 374.63055898 -72.52468811 373.12169591 -75 371 C-75 370.34 -75 369.68 -75 369 C-75.8353125 368.6596875 -75.8353125 368.6596875 -76.6875 368.3125 C-79.64544671 366.63366538 -81.60798284 364.41963064 -84 362 C-85.86868212 360.28475806 -87.74430105 358.57705736 -89.625 356.875 C-95.54330879 351.46033973 -101.25926458 345.85259389 -106.9375 340.1875 C-107.74203613 339.38747559 -108.54657227 338.58745117 -109.37548828 337.76318359 C-122 325.10705131 -122 325.10705131 -122 322 C-122.66 322 -123.32 322 -124 322 C-125.75407479 319.99621318 -127.385655 317.98770919 -129 315.875 C-129.48766846 315.24190918 -129.97533691 314.60881836 -130.4777832 313.95654297 C-131.99367225 311.97733629 -133.49724398 309.98918871 -135 308 C-135.67554932 307.11924805 -135.67554932 307.11924805 -136.36474609 306.22070312 C-143.12732804 297.37284394 -148.59600046 288.23936139 -153 278 C-153.40871338 277.06148193 -153.40871338 277.06148193 -153.82568359 276.10400391 C-159.57145627 262.35660415 -160.66069212 245.68068046 -156.0625 231.4375 C-151.19107861 220.04797958 -143.59736377 208.90635993 -135 200 C-134.34 200 -133.68 200 -133 200 C-133 199.34 -133 198.68 -133 198 C-132.34 198 -131.68 198 -131 198 C-130.731875 197.401875 -130.46375 196.80375 -130.1875 196.1875 C-129.00082594 194.00152146 -127.90400887 192.58667406 -126 191 C-125.34 191 -124.68 191 -124 191 C-124 190.34 -124 189.68 -124 189 C-123.34 189 -122.68 189 -122 189 C-121.67 188.01 -121.34 187.02 -121 186 C-119.22265625 184.17578125 -119.22265625 184.17578125 -117.0625 182.3125 C-115.99708984 181.37857422 -115.99708984 181.37857422 -114.91015625 180.42578125 C-113 179 -113 179 -111 179 C-111 178.34 -111 177.68 -111 177 C-108.525 176.01 -108.525 176.01 -106 175 C-106 174.34 -106 173.68 -106 173 C-104.1015625 171.2734375 -104.1015625 171.2734375 -101.625 169.375 C-100.81289063 168.74335938 -100.00078125 168.11171875 -99.1640625 167.4609375 C-97 166 -97 166 -95 166 C-95 165.34 -95 164.68 -95 164 C-93.5390625 162.7109375 -93.5390625 162.7109375 -91.625 161.375 C-90.99851562 160.92898437 -90.37203125 160.48296875 -89.7265625 160.0234375 C-88 159 -88 159 -86 159 C-86 158.34 -86 157.68 -86 157 C-84.07412421 155.36860063 -82.15673283 153.86276775 -80.125 152.375 C-79.56941406 151.95476562 -79.01382813 151.53453125 -78.44140625 151.1015625 C-74.26235288 148 -74.26235288 148 -72 148 C-72 147.34 -72 146.68 -72 146 C-68.53846154 143 -68.53846154 143 -66 143 C-66 142.34 -66 141.68 -66 141 C-64.35 140.34 -62.7 139.68 -61 139 C-61 138.34 -61 137.68 -61 137 C-57.53846154 134 -57.53846154 134 -55 134 C-55 133.34 -55 132.68 -55 132 C-50.52941176 128 -50.52941176 128 -48 128 C-48 127.34 -48 126.68 -48 126 C-46.7421875 124.765625 -46.7421875 124.765625 -44.875 123.25 C-22.47815904 104.01320714 -5.61150307 81.04077071 1 52 C1.24492188 51.02804688 1.48984375 50.05609375 1.7421875 49.0546875 C5.21142127 33.51442115 2.54996081 18.14254545 -0.74633789 2.84741211 C-0.87190063 1.93294312 -0.87190063 1.93294312 -1 1 C-0.67 0.67 -0.34 0.34 0 0 Z " fill="#F8981C" transform="translate(970,7)"/>
<path d="M0 0 C11.88 0 23.76 0 36 0 C39.21476645 9.49477534 42.33698853 18.97009824 45.10424805 28.60351562 C46.6007667 33.76433482 48.26645475 38.85188359 50 43.9375 C52.34022444 50.80808236 54.35322686 57.72466493 56.24389648 64.73095703 C57.60561751 69.72521895 59.21189951 74.55670751 61.0390625 79.40234375 C65.18534539 90.6107914 67.81318353 102.19981836 70.4909668 113.82446289 C70.97389539 115.88843252 71.48019751 117.94504166 72 120 C77.02906344 107.63918838 80.67221203 95.01506608 84.14746094 82.14111328 C84.95057091 79.1821176 85.77202857 76.2290249 86.6015625 73.27734375 C92.77761056 51.21275606 98.19631232 28.76177097 100.546875 5.92578125 C101 2 101 2 102 0 C113.88 0 125.76 0 138 0 C135.55862238 15.02386227 132.53708342 29.63956266 128.68310547 44.35839844 C128.089596 46.65352796 127.52109421 48.95158912 126.97265625 51.2578125 C124.36947965 62.13976105 121.09989009 72.79078347 117.78125 83.47265625 C116.83363391 86.53819431 115.91908837 89.61330786 115 92.6875 C110.61767792 106.76570967 105.50088965 120.50023154 99.875 134.125 C99.62137695 134.74165527 99.36775391 135.35831055 99.10644531 135.99365234 C96.00215489 143.52145623 92.65439824 150.69120352 89 158 C75.14 158 61.28 158 47 158 C45.783125 153.854375 44.56625 149.70875 43.3125 145.4375 C40.74839448 136.74143182 38.1077575 128.10031842 35.16455078 119.52490234 C34.05891823 116.17833572 33.06993752 112.82363825 32.12109375 109.4296875 C30.12845202 102.39615316 27.99497713 95.41411941 25.8125 88.4375 C25.21963792 86.53371843 24.62677771 84.62993627 24.0340271 82.72612 C23.02402577 79.4836615 22.01195502 76.24184918 21 73 C15.90871979 56.68796302 10.87195157 40.36326565 6.00585938 23.98266602 C4.30152165 18.26034426 2.5800735 12.57623111 0.51123047 6.97363281 C0 5 0 5 0 0 Z " fill="#5282A1" transform="translate(868,791)"/>
<path d="M0 0 C0 0.66 0 1.32 0 2 C-0.88014771 2.08918701 -0.88014771 2.08918701 -1.77807617 2.18017578 C-22.77499346 4.39381059 -48.84327158 7.78296873 -65 23 C-65.41809201 26.16848027 -65.41809201 26.16848027 -65 29 C-29.6816549 43.64949838 10.11122714 47.262651 48 49 C49.22267578 49.05639648 50.44535156 49.11279297 51.70507812 49.17089844 C132.7361902 52.62381269 219.10974013 53.37441683 299 37 C300.05026367 36.79117188 301.10052734 36.58234375 302.18261719 36.3671875 C330.67810751 32.17275222 330.67810751 32.17275222 353 16 C354.2951212 12.48467103 354.13495932 11.31286025 352.625 7.8125 C351.820625 6.4203125 351.820625 6.4203125 351 5 C350.67 4.34 350.34 3.68 350 3 C355.30462144 3.33153884 359.2456412 6.46112316 363 10 C364.83718263 12.91652742 365.00733199 13.86558013 364.8125 17.4375 C364.02055911 20.90985622 363.14149045 23.17323261 361 26 C360.34 26 359.68 26 359 26 C359 26.66 359 27.32 359 28 C315.53405017 62.27341214 237.9699309 65.49846009 185 69 C183.77667969 69.08878418 182.55335938 69.17756836 181.29296875 69.26904297 C132.23692349 72.78272481 82.04330632 72.57896386 33 69 C32.26867859 68.94672546 31.53735718 68.89345093 30.78387451 68.83856201 C20.17299561 68.05332116 9.58522921 67.07335034 -1 66 C-1.74830078 65.9248114 -2.49660156 65.8496228 -3.26757812 65.77215576 C-94.53088388 56.59257547 -94.53088388 56.59257547 -109 44 C-110.73557617 41.08107644 -110.99424344 39.14967053 -111.125 35.75 C-108.52985437 27.09951458 -100.55595366 20.9931985 -92.81933594 16.82519531 C-90.45827984 15.65715698 -88.08111045 14.53723473 -85.6875 13.4375 C-84.84155273 13.04473877 -83.99560547 12.65197754 -83.12402344 12.24731445 C-80.75414359 11.15392769 -78.37891868 10.07355227 -76 9 C-74.54787109 8.34257813 -74.54787109 8.34257813 -73.06640625 7.671875 C-67.13108449 5.14961348 -60.95787206 3.51881804 -54.71875 1.94140625 C-52.46224257 1.37016855 -50.2104411 0.7792084 -47.96875 0.15234375 C-32.15113526 -4.17142731 -15.57303635 -6.07084468 0 0 Z " fill="#5282A1" transform="translate(760,589)"/>
<path d="M0 0 C11.88 0 23.76 0 36 0 C36.02262796 24.33166719 36.04102625 48.66332578 36.05181217 72.99500084 C36.05695476 84.29419712 36.0639584 95.59338636 36.07543945 106.89257812 C36.08544879 116.74811166 36.09186822 126.60364009 36.09408849 136.45917857 C36.09538504 141.67106866 36.09840335 146.88294417 36.10573006 152.09482956 C36.11258918 157.01462136 36.11459714 161.93439279 36.11310768 166.85418892 C36.11337961 168.64624327 36.11532542 170.43829841 36.11920547 172.23034859 C36.13736694 181.06225947 36.03807079 189.86755214 35.57102966 198.68862915 C35.53432885 199.40243472 35.49762804 200.1162403 35.45981508 200.85167634 C34.20263074 222.06004839 27.16478794 238.06923633 12.17578125 253.22265625 C9.87305232 255.10370053 7.80317205 256.05251803 5 257 C5 257.66 5 258.32 5 259 C-10.45771772 269.69158809 -10.45771772 269.69158809 -17.078125 268.68359375 C-19.77048934 267.72594383 -21.17190329 266.15454255 -23 264 C-23 263.34 -23 262.68 -23 262 C-23.66 262 -24.32 262 -25 262 C-26.9453125 259.91796875 -26.9453125 259.91796875 -29.125 257.1875 C-29.84945312 256.29417969 -30.57390625 255.40085937 -31.3203125 254.48046875 C-33 252 -33 252 -33 249 C-30.76171875 247.34375 -30.76171875 247.34375 -27.6875 245.5 C-15.8286487 237.82744922 -6.74997803 228.56478115 -3.11480999 214.5993042 C-0.90711772 203.55730852 -0.55720004 192.87764549 -0.56762695 181.640625 C-0.55858903 179.6481364 -0.5482569 177.65565332 -0.53674316 175.66317749 C-0.5093854 170.30477665 -0.49991777 164.9464819 -0.49388909 159.58802032 C-0.48444967 153.96928275 -0.45824215 148.35062273 -0.43388367 142.73193359 C-0.39036726 132.11477498 -0.36172929 121.49763154 -0.33856028 110.88041115 C-0.31142858 98.78349003 -0.26752224 86.68664751 -0.22227156 74.58978271 C-0.12963829 49.72656286 -0.0584553 24.86332169 0 0 Z " fill="#5282A0" transform="translate(668,736)"/>
<path d="M0 0 C-5.90145295 4.01812198 -11.90399569 7.76684695 -18.0625 11.375 C-34.09007234 20.88422544 -49.60346388 31.29307304 -64.5859375 42.375 C-67 44 -67 44 -69 44 C-69 44.66 -69 45.32 -69 46 C-70.4609375 47.2890625 -70.4609375 47.2890625 -72.375 48.625 C-73.00148438 49.07101563 -73.62796875 49.51703125 -74.2734375 49.9765625 C-76 51 -76 51 -78 51 C-78 51.66 -78 52.32 -78 53 C-82.47058824 57 -82.47058824 57 -85 57 C-85 57.66 -85 58.32 -85 59 C-86.64453125 60.5859375 -86.64453125 60.5859375 -88.8125 62.375 C-91.06250857 64.23566282 -92.90350285 65.86872703 -94.63671875 68.2265625 C-95.31154297 69.10441406 -95.31154297 69.10441406 -96 70 C-96.66 70 -97.32 70 -98 70 C-98.37705078 70.83724609 -98.37705078 70.83724609 -98.76171875 71.69140625 C-100.19298086 74.35978451 -101.94076116 76.55756438 -103.8125 78.9375 C-111.72584099 89.83455973 -114.64920783 100.71398169 -113 114 C-111.77666124 118.58876864 -110.08395023 122.73922154 -108 127 C-107.65066406 127.73992187 -107.30132813 128.47984375 -106.94140625 129.2421875 C-102.13138437 138.58032521 -95.5535707 147.31843947 -89.23828125 155.6875 C-83.62506418 163.17178943 -79.85941768 169.9961592 -77 179 C-76.67 179.99 -76.34 180.98 -76 182 C-74.65336148 202.08919764 -80.64111066 215.9431274 -93.55859375 231.30859375 C-103.84187317 242.64488099 -116.62839765 252.54736858 -130 260 C-130.66 260 -131.32 260 -132 260 C-132 257 -132 257 -130.125 254.8125 C-128 253 -128 253 -126 253 C-125.7525 252.443125 -125.505 251.88625 -125.25 251.3125 C-124 249 -124 249 -122.1171875 246.7421875 C-114.40971959 236.75945231 -111.01144056 224.58662929 -112.40234375 212.1484375 C-114.29780549 202.16319462 -118.50102274 194.62761644 -125 187 C-126.83642564 184.70585708 -128.63808726 182.38571985 -130.4375 180.0625 C-130.88697998 179.49402344 -131.33645996 178.92554688 -131.79956055 178.33984375 C-135 174.2289826 -135 174.2289826 -135 172 C-135.66 172 -136.32 172 -137 172 C-141.47677421 165.76322749 -144.73047887 158.6918701 -147.8125 151.6875 C-148.10213623 151.03072266 -148.39177246 150.37394531 -148.69018555 149.69726562 C-155.593987 133.58500837 -156.45322276 113.70898505 -151 97 C-147.04631333 87.34614718 -141.60346829 78.09630939 -135 70 C-134.34 70 -133.68 70 -133 70 C-132.73058594 69.40574219 -132.46117187 68.81148438 -132.18359375 68.19921875 C-126.59529774 57.81568524 -112.82896729 48.98201336 -103 43 C-102.34 43 -101.68 43 -101 43 C-101 42.34 -101 41.68 -101 41 C-90.69769122 35.13475557 -80.32785126 29.42657511 -69.81396484 23.94873047 C-68.2940899 23.15381337 -66.78096376 22.3460106 -65.26953125 21.53515625 C-58.41269868 17.94020048 -51.19162767 15.35947143 -43.93261719 12.71435547 C-41.20853327 11.70744926 -38.51253 10.6319924 -35.8125 9.5625 C-29.93000671 7.29089567 -23.97774063 5.25382906 -18 3.25 C-16.63645386 2.79089233 -16.63645386 2.79089233 -15.24536133 2.32250977 C-13.94828247 1.89216431 -13.94828247 1.89216431 -12.625 1.453125 C-11.85414063 1.19692383 -11.08328125 0.94072266 -10.2890625 0.67675781 C-3.76034366 -1.25344789 -3.76034366 -1.25344789 0 0 Z " fill="#F8981C" transform="translate(1057,148)"/>
<path d="M0 0 C-3.33415147 2.22276764 -6.07695095 2.97826958 -9.94140625 4.0234375 C-10.96487404 4.30460922 -10.96487404 4.30460922 -12.00901794 4.59146118 C-14.9166354 5.39017181 -17.8275702 6.1764461 -20.73852539 6.96289062 C-29.0325035 9.21146771 -37.08004386 11.62576182 -45 15 C-47.1654548 15.79497552 -49.33195111 16.58712656 -51.5 17.375 C-63.15154323 21.83432233 -63.15154323 21.83432233 -71 31 C-38.24067399 56.67622849 45.70250165 42.10307803 84.44702148 40.12957764 C86.74383507 40.01300177 89.04080207 39.90054569 91.33789062 39.78955078 C131.47887998 37.78045643 171.98731217 32.78784116 211.51171875 25.48046875 C215.41484585 24.94285998 219.064606 24.91756065 223 25 C220.9464945 27.23775407 219.15081422 28.57888656 216.375 29.796875 C215.67503906 30.11221191 214.97507812 30.42754883 214.25390625 30.75244141 C213.13822266 31.24623291 213.13822266 31.24623291 212 31.75 C206.95298069 34.02052886 202.42571413 36.26085919 198 39.625 C189.03135006 45.5905111 177.38135136 46.9056144 167 49 C166.0929834 49.1865918 165.1859668 49.37318359 164.25146484 49.56542969 C117.16134265 59.05287445 68.85331362 61.21136488 20.95166016 61.13037109 C17.54963348 61.124663 14.14768485 61.12808494 10.74566078 61.13380337 C-34.84670074 61.19900362 -34.84670074 61.19900362 -56.125 58.6875 C-57.26549805 58.55778809 -58.40599609 58.42807617 -59.58105469 58.29443359 C-107.16753569 52.70259497 -107.16753569 52.70259497 -120 43 C-122 40 -122 40 -122.0625 36.6875 C-120.48028376 31.19627893 -116.75566973 28.6134897 -111.90307617 25.7722168 C-109.64744874 24.61775784 -107.37111047 23.54439957 -105.0625 22.5 C-103.80699341 21.92209717 -103.80699341 21.92209717 -102.52612305 21.33251953 C-94.81000548 17.82845475 -87.0445079 14.66595268 -79 12 C-78.154375 11.71914551 -77.30875 11.43829102 -76.4375 11.14892578 C-51.30015587 2.96768434 -26.44218802 -1.08905222 0 0 Z " fill="#5282A1" transform="translate(826,384)"/>
<path d="M0 0 C0 0.66 0 1.32 0 2 C-0.969375 2.7425 -1.93875 3.485 -2.9375 4.25 C-5.59729339 6.34654302 -5.95610421 6.83382309 -6.875 10.3125 C-6.91625 11.199375 -6.9575 12.08625 -7 13 C-6.34 13 -5.68 13 -5 13 C-5 13.66 -5 14.32 -5 15 C-2.00479389 15.6953157 0.99388636 16.35412412 4 17 C5.51980469 17.34417969 5.51980469 17.34417969 7.0703125 17.6953125 C43.17671297 25.2340115 83.16143417 26.04281229 119.58056641 20.37597656 C121.75287027 20.03840361 123.92484278 19.73862021 126.10546875 19.4609375 C131.49523654 18.75506336 136.81523442 17.85458113 142.14355469 16.79077148 C159.77276971 13.31110607 159.77276971 13.31110607 166.375 17.4375 C167.58542969 18.24960937 167.58542969 18.24960937 168.8203125 19.078125 C173.9333056 22.16853361 179.40729225 24.4368252 184.86865234 26.83959961 C189.30597541 28.79193585 193.68914396 30.78117704 198 33 C195.2686107 36.53720147 191.38841319 37.51469857 187.3125 38.875 C186.55718994 39.1332959 185.80187988 39.3915918 185.02368164 39.65771484 C182.68638321 40.45085288 180.34439844 41.22812442 178 42 C177.30551758 42.23009766 176.61103516 42.46019531 175.89550781 42.69726562 C159.34481932 48.14188804 142.72565214 51.77074688 125.54492188 54.58154297 C123.4290448 54.92945292 121.3157201 55.29284291 119.203125 55.66015625 C105.0687091 58.03347235 90.73584395 58.20812399 76.4375 58.1875 C75.65452545 58.18689575 74.8715509 58.1862915 74.06484985 58.18566895 C38.7563166 58.11214406 -2.34782003 55.4170412 -31.0625 32.5625 C-33.60756574 29.19644531 -34.82354501 26.23491985 -35 22 C-34.24403214 18.34853262 -33.01568189 15.6674481 -29.8125 13.5625 C-29.214375 13.376875 -28.61625 13.19125 -28 13 C-28 12.34 -28 11.68 -28 11 C-8.84269663 0 -8.84269663 0 0 0 Z " fill="#5282A1" transform="translate(813,536)"/>
<path d="M0 0 C-0.763125 0.7425 -1.52625 1.485 -2.3125 2.25 C-3.199375 3.1575 -4.08625 4.065 -5 5 C-5.598125 5.598125 -6.19625 6.19625 -6.8125 6.8125 C-8.62691565 10.15484463 -8.81595686 13.29387819 -8 17 C-0.38758099 25.26491206 13.39336852 25.20882605 23.875 26.0625 C25.18210937 26.17948242 25.18210937 26.17948242 26.515625 26.29882812 C43.36707037 27.7267167 60.23346276 28.1671436 77.13891602 28.13037109 C80.06466838 28.12499602 82.99026775 28.13036852 85.91601562 28.13671875 C104.00282355 28.14505962 121.91049453 27.37414641 139.875 25.25 C140.60638184 25.16551605 141.33776367 25.0810321 142.09130859 24.99398804 C166.895244 22.6099021 166.895244 22.6099021 191 17 C192.39439664 16.93334624 193.79169875 16.91461801 195.1875 16.9375 C197.0746875 16.9684375 197.0746875 16.9684375 199 17 C199 17.66 199 18.32 199 19 C199.52207031 19.23976563 200.04414062 19.47953125 200.58203125 19.7265625 C203.75757907 21.39898349 206.69908052 23.39546386 209.6875 25.375 C214.9566999 28.82374299 220.12568165 31.67052893 226 34 C226 34.66 226 35.32 226 36 C195.07352946 44.22671169 163.93226801 51.11789291 132 54 C131.10704727 54.08203171 130.21409454 54.16406342 129.29408264 54.24858093 C113.60576221 55.66082459 98.03624171 56.31945409 82.28564453 56.26074219 C78.86863574 56.24997996 75.45214982 56.26074762 72.03515625 56.2734375 C53.18994341 56.28601206 34.27743836 55.49777731 15.6875 52.1875 C14.7087793 52.01790771 13.73005859 51.84831543 12.72167969 51.67358398 C-26.05530023 44.69964679 -26.05530023 44.69964679 -38.125 30.5 C-39.70700196 25.97999439 -38.63984701 22.33786193 -36.625 18.125 C-35 16 -35 16 -32 15 C-32 14.34 -32 13.68 -32 13 C-24.95835836 7.72274261 -8.77864654 -2.92621551 0 0 Z " fill="#5282A1" transform="translate(797,462)"/>
<path d="M0 0 C0.66 0.33 1.32 0.66 2 1 C1.08052379 12.03371451 -4.86853878 19.65373532 -13.07421875 26.80859375 C-31.12783605 40.45120508 -55.20182014 47.24690851 -77 52 C-77.8751123 52.19303711 -78.75022461 52.38607422 -79.65185547 52.58496094 C-131.95270499 63.97054238 -185.67671654 66.54839114 -239.03833008 66.39111328 C-244.89202837 66.37401298 -250.74531748 66.38420198 -256.59900188 66.40144157 C-387.09167155 66.72666276 -387.09167155 66.72666276 -413 46 C-412.34 45.34 -411.68 44.68 -411 44 C-409.19287109 44.171875 -409.19287109 44.171875 -406.8984375 44.75 C-399.54544363 46.39277414 -392.10243083 47.16297341 -384.625 48 C-383.85644684 48.08682037 -383.08789368 48.17364075 -382.29605103 48.26309204 C-347.59034847 52.1618085 -312.85382757 53.18502029 -277.9597168 53.13037109 C-274.29895882 53.12467974 -270.6382736 53.12808 -266.97751808 53.13379478 C-239.93411305 53.16989489 -212.95022841 52.69126958 -185.98974609 50.38037109 C-182.969173 50.12236689 -179.9476682 49.8787996 -176.92578125 49.63671875 C-156.83398863 47.98794471 -136.90611376 45.28011851 -117 42.125 C-116.18881714 41.99682892 -115.37763428 41.86865784 -114.54187012 41.73660278 C-95.05428635 38.6407675 -75.91178311 34.66859498 -57 29 C-56.20045898 28.7613623 -55.40091797 28.52272461 -54.57714844 28.27685547 C-44.83437693 25.34562178 -35.24926407 22.27897655 -26 18 C-25.36964844 17.71398926 -24.73929688 17.42797852 -24.08984375 17.13330078 C-9.99302807 11.04708476 -9.99302807 11.04708476 0 0 Z " fill="#5283A1" transform="translate(1153,626)"/>
<path d="M0 0 C1.12341797 0.02513672 1.12341797 0.02513672 2.26953125 0.05078125 C13.1005517 0.75409427 23.52151602 5.39052051 32 12 C32.91845703 12.67482422 32.91845703 12.67482422 33.85546875 13.36328125 C43.55813324 20.96691457 48.95604269 32.00121358 51 44 C52.77157125 59.10897193 45.98283175 73.80151567 36.875 85.4375 C28.78017498 95.01749127 19.61159877 102.38572434 9 109 C8.21367188 109.51046875 7.42734375 110.0209375 6.6171875 110.546875 C-9.7441525 120.86283852 -28.47382449 127.81573603 -46.875 133.5 C-47.72553955 133.7676416 -48.5760791 134.0352832 -49.45239258 134.31103516 C-50.2492749 134.54870605 -51.04615723 134.78637695 -51.8671875 135.03125 C-52.56956543 135.24330078 -53.27194336 135.45535156 -53.99560547 135.67382812 C-56.28460228 136.04631287 -57.80988831 135.70486353 -60 135 C-55.8684889 130.36668593 -51.27451392 127.62055182 -45.875 124.625 C-44.15932414 123.64990014 -42.4444744 122.67334524 -40.73046875 121.6953125 C-39.90981934 121.22899414 -39.08916992 120.76267578 -38.24365234 120.28222656 C-30.18869643 115.67889376 -22.86227496 110.49367483 -15.68041992 104.64257812 C-13.1253577 102.57549598 -11.14693327 101.04897776 -8 100 C-8 99.34 -8 98.68 -8 98 C-6.49609375 96.58984375 -6.49609375 96.58984375 -4.4375 94.9375 C-0.46010851 91.58886134 2.53030489 87.93569156 5.5546875 83.72265625 C6.03164062 83.15417969 6.50859375 82.58570313 7 82 C7.66 82 8.32 82 9 82 C9.268125 81.28714844 9.53625 80.57429688 9.8125 79.83984375 C11.02504335 76.94011016 12.44965058 74.29499085 14 71.5625 C19.56016663 61.45679568 21.87358177 50.49707459 18.7734375 39.15234375 C17.52607361 35.68114422 15.8437922 32.45547665 14.12109375 29.19921875 C13 27 13 27 12 24 C11.34 24 10.68 24 10 24 C10 23.34 10 22.68 10 22 C9.14921875 21.59587891 9.14921875 21.59587891 8.28125 21.18359375 C5.90420888 19.95030016 3.73949601 18.52936989 1.5 17.0625 C-13.57705534 7.99409465 -27.94982124 11.08361651 -44 15 C-44 14.01 -44 13.02 -44 12 C-43.34 12 -42.68 12 -42 12 C-42 11.34 -42 10.68 -42 10 C-41.34 10 -40.68 10 -40 10 C-40 9.34 -40 8.68 -40 8 C-26.85186832 0.94096209 -14.84354215 -0.42525837 0 0 Z " fill="#5283A1" transform="translate(1104,377)"/>
<path d="M0 0 C1.65 0 3.3 0 5 0 C5.66 1.98 6.32 3.96 7 6 C7.66 6 8.32 6 9 6 C9.144375 5.195625 9.28875 4.39125 9.4375 3.5625 C10 1 10 1 11 0 C12.65 0 14.3 0 16 0 C16 4.62 16 9.24 16 14 C14.35 13.67 12.7 13.34 11 13 C8.27497035 13.37722015 8.27497035 13.37722015 6 14 C5.67 13.34 5.34 12.68 5 12 C4.67 12.66 4.34 13.32 4 14 C2.68 14 1.36 14 0 14 C0 9.38 0 4.76 0 0 Z " fill="#5283A2" transform="translate(1156,791)"/>
<path d="M0 0 C3.63 0 7.26 0 11 0 C11 1.32 11 2.64 11 4 C10.01 4 9.02 4 8 4 C8 7.3 8 10.6 8 14 C6.35 14 4.7 14 3 14 C3 10.7 3 7.4 3 4 C2.01 4 1.02 4 0 4 C0 2.68 0 1.36 0 0 Z " fill="#51819D" transform="translate(1144,791)"/>
<path d="" fill="#FFAA00" transform="translate(0,0)"/>
</svg>
