<?xml version="1.0" encoding="UTF-8"?>
<svg version="1.1" xmlns="http://www.w3.org/2000/svg" width="982" height="300">
<path d="M0 0 C0.73798828 -0.00067474 1.47597656 -0.00134949 2.23632812 -0.00204468 C13.44422881 0.01423526 24.22199627 0.47965324 35.125 3.25 C35.82399414 3.42160645 36.52298828 3.59321289 37.24316406 3.77001953 C75.23962524 13.33323142 109.34018275 37.84812355 129.52587891 71.59179688 C143.36787054 95.63936474 150.35311404 120.82779135 150.375 148.5625 C150.37567474 149.32666229 150.37634949 150.09082458 150.37704468 150.87814331 C150.36102793 162.28102127 149.89976978 173.13968699 147.125 184.25 C146.96402832 184.92627441 146.80305664 185.60254883 146.63720703 186.29931641 C142.37485394 203.86872768 134.72874347 220.61311643 124.125 235.25 C123.51084229 236.10319824 123.51084229 236.10319824 122.88427734 236.97363281 C98.92395675 269.81729487 63.99010498 291.30711727 23.78857422 297.61669922 C-17.40308911 303.62645079 -57.32229347 292.62964358 -90.6640625 268.20703125 C-121.89904013 243.65210046 -143.09130168 207.9101965 -147.875 168.25 C-152.31189195 129.40139959 -142.42742349 89.16506752 -118.26171875 58.125 C-113.99058048 52.98006094 -109.48291009 48.09314875 -104.875 43.25 C-103.92753906 42.20585938 -103.92753906 42.20585938 -102.9609375 41.140625 C-76.74624336 13.19368235 -37.47343546 0.03072105 0 0 Z " fill="#DB524A" transform="translate(831.875,-0.24999999999999997)"/>
<path d="M0 0 C6.96812083 2.09043625 12.83129398 4.07947791 19.125 7.4375 C19.93976807 7.87070557 20.75453613 8.30391113 21.59399414 8.75024414 C56.04589489 27.60886697 81.2304737 59.79349827 92.6328125 97.16015625 C96.69140951 111.17250373 98.23851697 124.76077628 98.25 139.3125 C98.25067474 140.07666229 98.25134949 140.84082458 98.25204468 141.62814331 C98.23602793 153.03102127 97.77476978 163.88968699 95 175 C94.83902832 175.67627441 94.67805664 176.35254883 94.51220703 177.04931641 C90.24985394 194.61872768 82.60374347 211.36311643 72 226 C71.59056152 226.56879883 71.18112305 227.13759766 70.75927734 227.72363281 C46.79895675 260.56729487 11.86510498 282.05711727 -28.33642578 288.36669922 C-59.45536894 292.90686834 -88.38266283 287.26457307 -117 275 C-117 260.81 -117 246.62 -117 232 C-113.31304088 232.92173978 -109.88869178 234.09916942 -106.3125 235.375 C-78.93469539 244.55743192 -45.35255006 244.83842183 -19 232 C-4.44955791 224.06858255 4.76555183 212.77604517 10 197 C10.2990625 196.19175781 10.598125 195.38351563 10.90625 194.55078125 C16.27156873 177.53576582 14.51903671 157.57353399 6.35546875 141.828125 C-1.65130461 128.45337944 -14.19390427 119.21668454 -29.37158203 115.40429688 C-37.23067634 113.8456198 -44.88195456 113.73603078 -52.875 113.8125 C-54.14730469 113.81314453 -55.41960938 113.81378906 -56.73046875 113.81445312 C-64.86114193 113.85182598 -72.90376203 114.25706116 -81 115 C-81.2392524 106.40656225 -80.58754081 97.94415627 -79.77319336 89.40063477 C-79.56126023 87.17447736 -79.35719511 84.94770046 -79.15429688 82.72070312 C-78.60233865 76.76871141 -77.98373525 70.90241149 -77 65 C-51.59 65 -26.18 65 0 65 C0 43.55 0 22.1 0 0 Z " fill="#25A162" transform="translate(884,9)"/>
<path d="M0 0 C34.98 0 69.96 0 106 0 C106 9.57 106 19.14 106 29 C80.59 29 55.18 29 29 29 C28.67 34.61 28.34 40.22 28 46 C27.76777526 48.96119338 27.52148764 51.9214153 27.24609375 54.87890625 C27.18092056 55.58732162 27.11574738 56.295737 27.04859924 57.02561951 C26.8475278 59.20483349 26.64262713 61.3836645 26.4375 63.5625 C26.29726637 65.07484574 26.15729156 66.58721549 26.01757812 68.09960938 C25.68134677 71.73335272 25.34169056 75.36676542 25 79 C26.14662109 78.78887573 26.14662109 78.78887573 27.31640625 78.57348633 C35.92733053 77.10400775 44.27428497 76.66524052 53 76.6875 C54.89492188 76.66333008 54.89492188 76.66333008 56.828125 76.63867188 C75.26923216 76.62918571 90.91823782 81.6500523 104.484375 94.3203125 C115.74144346 106.06846113 120.60293707 120.4792431 120.5 136.5625 C120.49500488 137.60172607 120.49000977 138.64095215 120.48486328 139.71166992 C120.07798268 157.98060908 113.9860328 174.10735947 101.04296875 187.203125 C92.25468971 195.57940907 81.54480651 199.89314076 70 203 C68.84886719 203.3196875 67.69773437 203.639375 66.51171875 203.96875 C41.63319157 209.74078208 13.68254331 207.03429846 -9.66772461 196.8347168 C-12 195 -12 195 -12.56762695 191.99731445 C-12.54144287 190.7980835 -12.51525879 189.59885254 -12.48828125 188.36328125 C-12.47216797 187.06455078 -12.45605469 185.76582031 -12.43945312 184.42773438 C-12.39767609 183.05597301 -12.35535135 181.68422823 -12.3125 180.3125 C-12.28741745 178.92907618 -12.26460418 177.54560923 -12.24414062 176.16210938 C-12.18510827 172.77365236 -12.10280082 169.38736615 -12 166 C-8.33380185 166.67699466 -5.45929798 167.63496379 -2.125 169.3125 C18.32589504 178.81049957 43.11067652 181.14772515 64.6875 174.375 C73.05753782 171.12132923 79.35322826 165.1687687 83 157 C86.18065757 146.24359441 87.4070184 132.30003673 82.25 122.00390625 C76.32303542 112.50224116 68.3875481 108.69872586 57.79736328 105.61523438 C52.81514344 104.51947648 47.89380649 104.56357129 42.8125 104.625 C41.68626221 104.625 40.56002441 104.625 39.3996582 104.625 C32.65896264 104.70054187 26.25705001 105.33009987 19.62207031 106.48999023 C9.82102186 108.19335049 3.63621166 108.44987831 -4.96484375 103.22265625 C-10.455749 94.52784467 -6.51605473 77.70239687 -5.72265625 67.59765625 C-5.59013351 65.86326575 -5.45801545 64.12884429 -5.32627869 62.39439392 C-5.05126562 58.78797881 -4.77277551 55.18185622 -4.49145508 51.57592773 C-4.13204017 46.96785032 -3.77937852 42.35928755 -3.42903996 37.75051212 C-3.15729099 34.18065126 -2.88305673 30.61098496 -2.60796928 27.04137993 C-2.47709151 25.34185171 -2.3467289 23.64228373 -2.21690559 21.94267464 C-2.03506286 19.56974753 -1.85013196 17.19708103 -1.66430664 14.82446289 C-1.61179749 14.13291611 -1.55928833 13.44136932 -1.50518799 12.72886658 C-1.16491689 8.43700371 -0.61111106 4.27777739 0 0 Z " fill="#FDFDFD" transform="translate(778,45)"/>
<path d="M0 0 C4.95 0 9.9 0 15 0 C15.00808685 1.69778595 15.01617371 3.3955719 15.02450562 5.14480591 C15.1021463 21.18111068 15.18981621 37.21733146 15.28752708 53.25352669 C15.33750145 61.49696145 15.38394516 69.74038701 15.421875 77.98388672 C15.45497048 85.17471473 15.49489648 92.36546804 15.54279006 99.55621326 C15.56788191 103.35838567 15.58971269 107.16050965 15.60334396 110.96274185 C15.61632354 114.55294604 15.63854276 118.14298259 15.66738319 121.73309326 C15.68055514 123.6555149 15.68434945 125.57799392 15.68769836 127.50045776 C15.86631043 146.38644811 19.07609428 163.30921023 32.125 177.625 C44.80917094 189.56141414 62.01243235 193.31954042 79 193 C94.73158077 192.37145103 108.694191 188.22373818 120.6875 177.625 C132.81099892 163.86319042 136.29193488 149.63690196 136.31884766 131.57592773 C136.32816121 130.13618923 136.33833198 128.69645606 136.34928894 127.25672913 C136.37644228 123.37309966 136.3916945 119.48950617 136.40471697 115.60580707 C136.42041214 111.537868 136.4471818 107.47000171 136.4727478 103.40211487 C136.51942301 95.71009401 136.55622139 88.01805929 136.58942068 80.32596976 C136.62772189 71.56409303 136.67711095 62.80228959 136.72740483 54.04047477 C136.83055713 36.02703607 136.91947827 18.01355311 137 0 C142.28 0 147.56 0 153 0 C153.04646814 17.58624276 153.08207591 35.17246068 153.10362434 52.75875092 C153.1138994 60.92593996 153.12788683 69.09308995 153.15087891 77.26025391 C153.17092909 84.3858593 153.18374377 91.5114364 153.18817699 98.63706923 C153.19076486 102.4035744 153.19676698 106.16999865 153.21146011 109.93647766 C153.42063595 165.72492026 153.42063595 165.72492026 133.125 187.4375 C128.54437531 191.68251457 123.42271048 194.93564283 118 198 C117.19304687 198.4640625 116.38609375 198.928125 115.5546875 199.40625 C94.53641481 210.21188235 66.64567212 209.71298371 44.51953125 202.93359375 C27.43142096 196.8636085 15.20826123 186.18353688 7 170 C1.22642965 156.57662561 -0.30771683 143.02741024 -0.22705078 128.51074219 C-0.22648515 127.10012317 -0.22680618 125.68950357 -0.22793579 124.27888489 C-0.22850439 120.48834109 -0.21683098 116.69792656 -0.20278788 112.90741253 C-0.19019732 108.93162904 -0.18910351 104.95584186 -0.18673706 100.9800415 C-0.18054657 93.46868622 -0.16416901 85.95738987 -0.14403808 78.44606042 C-0.12160296 69.88730759 -0.1106666 61.32855179 -0.10064721 52.76977682 C-0.07980034 35.17981628 -0.04426437 17.58991665 0 0 Z " fill="#747474" transform="translate(122,45)"/>
<path d="M0 0 C0.93779297 0.75216797 0.93779297 0.75216797 1.89453125 1.51953125 C11.79961305 10.38878751 15.39461099 23.82358382 16.16045761 36.69724655 C16.41588881 44.30598497 16.34461345 51.91575886 16.29296875 59.52734375 C16.28736282 61.9721297 16.28309744 64.41691905 16.28010559 66.86170959 C16.26873532 73.24850013 16.23933651 79.63508098 16.20599365 86.02178955 C16.17512299 92.55811732 16.16156416 99.09447948 16.14648438 105.63085938 C16.11445843 118.42066426 16.06335819 131.21031459 16 144 C11.38 144 6.76 144 2 144 C1.99191315 142.79747086 1.98382629 141.59494171 1.97549438 140.35597229 C1.89760222 128.95616616 1.80975898 117.5564731 1.71247292 106.15681553 C1.66278346 100.29784519 1.61645374 94.43889053 1.578125 88.57983398 C1.54092329 82.91277894 1.4944748 77.24586467 1.44193649 71.57893181 C1.42357598 69.42991574 1.40840244 67.28086972 1.39665604 65.13180733 C2.21684002 36.41302962 2.21684002 36.41302962 -10.0859375 11.6875 C-13.12922672 9.00443685 -16.19619068 7.36879502 -20 6 C-20.61875 5.77570313 -21.2375 5.55140625 -21.875 5.3203125 C-36.4877209 1.15340381 -54.63798428 3.46418286 -68.0625 10.3125 C-77.9848698 16.59415236 -83.08524263 25.32824392 -85.90681458 36.63328552 C-88.13007515 48.53119803 -88.47434266 60.14064737 -88.51171875 72.22265625 C-88.52860796 74.30587288 -88.54676372 76.38907958 -88.56611633 78.47227478 C-88.61316239 83.89552709 -88.64326313 89.31873915 -88.66955566 94.74212646 C-88.69959307 100.30017036 -88.74604233 105.85807607 -88.79101562 111.41601562 C-88.87653077 122.27727078 -88.94410344 133.13855479 -89 144 C-93.95 144 -98.9 144 -104 144 C-104 93.84 -104 43.68 -104 -8 C-99.71 -8 -95.42 -8 -91 -8 C-90.01 -1.73 -89.02 4.54 -88 11 C-86.329375 8.958125 -86.329375 8.958125 -84.625 6.875 C-73.94412272 -5.10337822 -58.02577411 -9.82585439 -42.43359375 -10.8984375 C-27.13371505 -11.35099364 -12.32485688 -10.00032592 0 0 Z " fill="#747474" transform="translate(429,105)"/>
<path d="M0 0 C4.95 0 9.9 0 15 0 C15.07019254 27.51267117 15.12303832 55.02532884 15.15543652 82.53807163 C15.17088179 95.31374168 15.1919265 108.08935598 15.22631836 120.86499023 C15.25629242 132.00487826 15.275592 143.14472589 15.28226548 154.28465313 C15.28616418 160.17892551 15.29527774 166.07308236 15.31719017 171.96731758 C15.33768193 177.52488016 15.34380831 183.08228055 15.33932304 188.63987732 C15.3401426 190.67024558 15.34603209 192.70061975 15.35761642 194.73095512 C15.45116485 211.98557623 15.08564474 230.23481637 2.875 243.875 C-7.30104384 253.10338566 -19.73747437 255.35351935 -32.9375 255.3125 C-33.97068359 255.32861328 -35.00386719 255.34472656 -36.06835938 255.36132812 C-42.69154975 255.36552267 -47.83565057 254.43617146 -54 252 C-54 247.71 -54 243.42 -54 239 C-52.741875 239.165 -51.48375 239.33 -50.1875 239.5 C-36.28149908 240.82721091 -22.01766279 242.05259579 -10.125 233.5 C-3.63663049 227.37036246 -1.31361177 217.59904313 -0.90371406 208.97394383 C-0.85844476 206.69810798 -0.84456259 204.42412784 -0.84178162 202.14784241 C-0.83684364 201.28023189 -0.83190566 200.41262136 -0.82681805 199.51871961 C-0.81151478 196.62454213 -0.80310195 193.7303867 -0.79467773 190.83618164 C-0.78509357 188.75635587 -0.77508317 186.67653203 -0.76467896 184.59671021 C-0.7376822 178.95888712 -0.71664435 173.32105571 -0.69667697 167.68320394 C-0.67478513 161.78817182 -0.6474121 155.89316521 -0.62062073 149.99815369 C-0.57073707 138.83882948 -0.52578219 127.67949108 -0.48259836 116.52013916 C-0.433189 103.81403483 -0.37828459 91.10795612 -0.32291877 78.40187657 C-0.20916515 52.26794161 -0.10231172 26.13398208 0 0 Z " fill="#757575" transform="translate(54,45)"/>
<path d="M0 0 C2.64 0 5.28 0 8 0 C8 11.88 8 23.76 8 36 C22.52 36 37.04 36 52 36 C52 40.29 52 44.58 52 49 C37.48 49 22.96 49 8 49 C8.06306384 62.35281099 8.1385982 75.70539487 8.23571491 89.05800247 C8.28032578 95.25903254 8.31960234 101.45999831 8.34643555 107.66113281 C8.37256112 113.65240446 8.41302881 119.64342743 8.46318626 125.63454437 C8.47979252 127.91328575 8.49134546 130.19207008 8.49761391 132.47086334 C7.81460553 152.93194386 7.81460553 152.93194386 16 171 C21.62740333 176.47531135 27.02115578 177.11158043 34.5625 177.1875 C41.73387782 177.08736261 48.85480768 176.60810147 56 176 C56 179.96 56 183.92 56 188 C40.58707575 192.16297632 23.10266469 193.94473715 8.6875 185.75 C0.24608407 179.94976329 -4.21730904 171.85449486 -6.09518433 161.89506531 C-7.07775554 156.20344158 -7.27018457 150.69356894 -7.22705078 144.92895508 C-7.22734283 143.88371674 -7.22763489 142.83847839 -7.22793579 141.76156616 C-7.22655565 138.34746654 -7.21105699 134.93359219 -7.1953125 131.51953125 C-7.19157769 129.13628763 -7.18873293 126.75304246 -7.18673706 124.36979675 C-7.17913751 118.12767218 -7.15952088 111.88564216 -7.1373291 105.64355469 C-7.11679112 99.26173176 -7.1077184 92.8798934 -7.09765625 86.49804688 C-7.07627128 73.9986499 -7.0411194 61.49934764 -7 49 C-14.26 49 -21.52 49 -29 49 C-29 46.03 -29 43.06 -29 40 C-25.7096777 38.99553896 -22.41753178 37.99719244 -19.125 37 C-18.18785156 36.71382812 -17.25070312 36.42765625 -16.28515625 36.1328125 C-15.38925781 35.86210938 -14.49335937 35.59140625 -13.5703125 35.3125 C-12.32918701 34.93544922 -12.32918701 34.93544922 -11.06298828 34.55078125 C-9 34 -9 34 -7 34 C-6.85900879 33.21874756 -6.71801758 32.43749512 -6.57275391 31.63256836 C-5.92713813 28.0668763 -5.27611855 24.50219114 -4.625 20.9375 C-4.40328125 19.70837891 -4.1815625 18.47925781 -3.953125 17.21289062 C-2.8838386 11.37898985 -1.79840622 5.65573544 0 0 Z " fill="#747474" transform="translate(565,61)"/>
<path d="M0 0 C4.95 0 9.9 0 15 0 C15 50.16 15 100.32 15 152 C10.05 152 5.1 152 0 152 C0 101.84 0 51.68 0 0 Z " fill="#747474" transform="translate(493,97)"/>
<path d="M0 0 C2.1875 0.5625 2.1875 0.5625 4 2 C7.2240458 7.52693566 7.77298118 12.66991086 7 19 C5.49983107 23.12546455 3.96614976 25.96026584 0 28 C-2.9375 28.5 -2.9375 28.5 -6 28 C-9.42534096 25.25972723 -11.24831013 23.2931566 -12 19 C-12.49167907 12.7405472 -12.70277009 7.34844569 -9 2 C-5.51195905 -0.32536063 -4.09859246 -0.33457898 0 0 Z " fill="#747474" transform="translate(503,42)"/>
</svg>
