<?xml version="1.0" standalone="no"?>
<!DOCTYPE svg PUBLIC "-//W3C//DTD SVG 20010904//EN"
 "http://www.w3.org/TR/2001/REC-SVG-20010904/DTD/svg10.dtd">
<svg version="1.0" xmlns="http://www.w3.org/2000/svg"
 width="287.000000pt" height="176.000000pt" viewBox="0 0 287.000000 176.000000"
 preserveAspectRatio="xMidYMid meet">

<g transform="translate(0.000000,176.000000) scale(0.100000,-0.100000)"
fill="#000000" stroke="none">
<path d="M0 880 l0 -880 1435 0 1435 0 0 880 0 880 -1435 0 -1435 0 0 -880z
m944 574 c43 -17 -11 -90 -58 -78 -31 7 -30 5 -12 49 15 35 34 43 70 29z
m-144 -127 c0 -2 -12 -14 -27 -28 l-28 -24 24 28 c23 25 31 32 31 24z m1290
-57 c6 -11 8 -20 6 -20 -3 0 -10 9 -16 20 -6 11 -8 20 -6 20 3 0 10 -9 16 -20z
m-1406 -67 c-57 -70 -60 -73 -46 -48 11 22 81 105 88 105 2 0 -17 -26 -42 -57z
m1474 -23 c-2 -17 -9 -25 -23 -25 -15 0 -20 7 -21 31 -1 17 -4 36 -8 42 -4 7
7 4 24 -6 23 -13 30 -23 28 -42z m-549 -96 l41 -7 -2 -201 -3 -201 -207 -3
-208 -2 0 204 c0 187 2 205 18 209 30 7 317 8 361 1z m-769 -178 c0 -2 -8 -10
-17 -17 -16 -13 -17 -12 -4 4 13 16 21 21 21 13z m1524 -20 c9 -13 7 -20 -5
-29 -9 -7 -19 -21 -22 -32 -3 -15 -5 -13 -6 8 0 15 -5 27 -11 27 -14 0 -13 23
2 38 15 15 28 11 42 -12z m-1591 -91 c-3 -9 -8 -14 -10 -11 -3 3 -2 9 2 15 9
16 15 13 8 -4z m1554 -17 c-3 -8 -6 -5 -6 6 -1 11 2 17 5 13 3 -3 4 -12 1 -19z
m-10 -40 c-3 -8 -6 -5 -6 6 -1 11 2 17 5 13 3 -3 4 -12 1 -19z m-1576 -15
c-12 -20 -14 -14 -5 12 4 9 9 14 11 11 3 -2 0 -13 -6 -23z m-14 -45 c-3 -8 -6
-5 -6 6 -1 11 2 17 5 13 3 -3 4 -12 1 -19z m-10 -40 c-3 -8 -6 -5 -6 6 -1 11
2 17 5 13 3 -3 4 -12 1 -19z m4 -82 c14 -15 11 -38 -8 -52 -35 -25 -60 30 -28
62 8 9 16 25 16 37 1 15 3 12 6 -8 3 -16 9 -34 14 -39z"/>
<path d="M1418 823 l-3 -78 -32 3 c-24 1 -33 -2 -33 -13 0 -21 44 -37 74 -26
31 12 36 29 36 111 0 64 -7 80 -35 80 -2 0 -5 -35 -7 -77z"/>
<path d="M1513 885 c-13 -9 -23 -27 -23 -40 0 -24 41 -65 66 -65 8 0 14 -9 14
-20 0 -22 -20 -26 -49 -11 -10 6 -23 6 -32 0 -22 -15 16 -39 62 -39 43 0 62
18 57 57 -2 21 -13 33 -40 48 -43 23 -52 50 -14 43 30 -6 55 7 41 21 -20 19
-60 22 -82 6z"/>
</g>
</svg>
