<?xml version="1.0" standalone="no"?>
<!DOCTYPE svg PUBLIC "-//W3C//DTD SVG 20010904//EN"
 "http://www.w3.org/TR/2001/REC-SVG-20010904/DTD/svg10.dtd">
<svg version="1.0" xmlns="http://www.w3.org/2000/svg"
 width="1600.000000pt" height="738.000000pt" viewBox="0 0 1600.000000 738.000000"
 preserveAspectRatio="xMidYMid meet">

<g transform="translate(0.000000,738.000000) scale(0.100000,-0.100000)"
fill="#000000" stroke="none">
<path d="M0 3690 l0 -3690 8000 0 8000 0 0 3690 0 3690 -2410 0 c-2289 0
-2410 -1 -2410 -17 0 -10 22 -41 49 -69 27 -29 51 -58 53 -65 3 -8 8 -11 12
-7 4 3 0 20 -8 37 -20 39 -20 41 4 41 11 0 23 -8 26 -17 3 -10 11 -29 17 -43
11 -24 11 -23 18 20 l6 45 1 -42 c2 -31 6 -43 17 -43 8 0 15 -7 15 -15 0 -20
13 -19 34 4 17 18 66 18 66 0 0 -5 14 -22 31 -39 36 -34 79 -41 79 -13 0 10
11 -2 24 -27 27 -51 39 -58 62 -36 20 20 22 20 62 -4 31 -19 43 -40 22 -40 -5
0 -10 -9 -10 -20 0 -13 7 -20 21 -20 14 0 25 -11 35 -36 9 -21 19 -33 24 -28
11 12 1 64 -13 64 -5 0 3 11 19 25 23 19 25 25 12 25 -26 0 -22 25 8 45 16 10
23 22 20 32 -5 11 -2 13 10 9 8 -3 18 -6 20 -6 2 0 4 -8 4 -18 0 -10 7 -27 15
-38 19 -25 19 -48 0 -64 -12 -10 -15 -9 -15 5 0 9 -6 15 -12 13 -21 -7 -21
-39 0 -58 18 -17 19 -17 33 1 17 24 29 24 29 1 0 -22 37 -59 47 -48 4 4 2 16
-5 26 -7 11 -12 26 -12 34 0 8 -3 16 -7 19 -5 2 -2 2 4 1 7 -2 17 5 22 14 9
16 10 16 16 -1 4 -9 2 -24 -5 -32 -8 -9 -8 -15 -2 -15 6 0 12 5 14 11 2 7 13
9 25 5 12 -4 20 -12 17 -19 -2 -7 5 -27 16 -46 15 -24 26 -32 40 -28 11 3 20
1 20 -4 0 -5 12 -19 26 -32 14 -12 35 -42 47 -67 11 -25 22 -48 24 -52 2 -5
-3 -8 -11 -8 -9 0 -16 9 -16 20 0 22 -39 49 -41 28 -2 -24 3 -53 13 -71 7 -14
12 -16 24 -7 11 10 16 7 24 -16 8 -20 8 -29 -1 -34 -8 -6 -7 -15 4 -35 9 -19
17 -24 21 -16 4 7 2 19 -5 27 -8 10 -9 18 -2 22 5 4 13 21 18 37 l7 30 11 -30
c5 -16 18 -38 28 -49 17 -17 19 -18 25 -3 10 27 20 20 33 -24 7 -23 24 -51 39
-64 14 -12 37 -44 52 -71 14 -27 36 -54 49 -60 12 -7 33 -30 44 -51 12 -22 32
-55 44 -74 20 -29 23 -31 23 -12 0 31 -10 53 -25 53 -14 0 -25 84 -14 102 11
18 38 1 45 -29 4 -15 22 -60 40 -100 19 -39 34 -81 34 -93 0 -22 57 -110 72
-110 4 0 8 -7 8 -15 0 -8 4 -15 10 -15 5 0 17 -15 26 -32 9 -18 23 -37 30 -41
20 -11 17 -44 -3 -56 -16 -9 -16 -10 3 -11 17 0 20 -5 17 -22 -2 -13 2 -32 10
-43 12 -16 17 -17 30 -6 24 19 37 4 37 -43 0 -23 6 -50 14 -61 13 -18 14 -18
39 1 15 10 27 22 27 27 0 11 80 8 80 -3 0 -5 19 -10 41 -10 28 0 46 -6 55 -17
10 -15 15 -16 25 -5 7 6 28 12 45 12 18 0 36 5 40 11 9 15 95 51 110 45 18 -7
116 26 136 47 10 9 23 17 30 17 6 0 19 7 29 16 24 22 40 9 33 -25 -4 -16 -1
-32 5 -35 6 -4 11 -3 11 2 0 5 10 12 23 15 12 2 30 8 40 12 14 6 17 2 17 -19
0 -18 4 -24 14 -20 20 8 28 -12 11 -26 -26 -21 -17 -30 30 -30 40 0 51 -5 86
-41 53 -54 79 -51 94 11 10 40 12 42 18 20 5 -19 9 -22 18 -13 13 13 49 0 49
-18 0 -20 44 -69 62 -69 10 0 18 5 18 10 0 23 41 -13 47 -41 3 -16 12 -29 19
-29 8 0 14 -5 14 -11 0 -6 9 -22 20 -36 28 -35 28 -103 0 -110 -11 -3 -20 -8
-20 -12 0 -10 -67 -41 -90 -41 -10 0 -22 -4 -25 -10 -3 -5 -15 -10 -25 -10
-10 0 -20 -4 -22 -9 -2 -6 -28 -12 -58 -15 -53 -4 -90 -14 -100 -25 -11 -13
-51 -31 -67 -31 -26 0 -92 -34 -93 -47 0 -7 -12 -13 -26 -13 -14 0 -34 -5 -44
-10 -14 -7 -34 -5 -75 11 -70 26 -87 20 -169 -58 -70 -65 -108 -84 -233 -114
-51 -12 -93 -25 -93 -29 0 -4 -17 -10 -37 -13 -23 -4 -43 -15 -51 -28 -12 -19
-11 -20 7 -14 16 5 24 -2 41 -35 11 -22 18 -45 15 -49 -2 -5 2 -11 9 -14 8 -3
17 -1 20 6 3 7 4 -12 2 -42 l-3 -53 44 -22 c97 -46 97 -46 58 -72 -14 -9 -25
-23 -25 -30 0 -10 -13 -14 -40 -14 l-40 0 0 -40 0 -40 55 0 c30 0 55 -4 55
-10 0 -5 20 -23 45 -40 25 -17 45 -37 45 -45 0 -8 9 -20 20 -27 11 -7 20 -18
20 -25 0 -7 5 -13 10 -13 6 0 10 -18 10 -40 0 -29 4 -40 15 -40 11 0 15 -11
15 -40 0 -27 -4 -40 -13 -40 -11 0 -16 -28 -20 -112 -4 -62 -10 -123 -13 -135
-5 -18 -2 -23 12 -23 14 0 15 -3 6 -12 -7 -7 -34 -11 -65 -9 -39 2 -57 -2 -66
-13 -8 -9 -21 -16 -31 -16 -10 0 -20 -9 -23 -19 -3 -13 -17 -22 -43 -27 -43
-7 -67 -22 -58 -35 3 -5 -8 -7 -23 -5 -15 2 -22 1 -15 -1 10 -4 10 -8 1 -19
-9 -11 -7 -14 11 -14 41 0 15 -10 -89 -35 -131 -32 -164 -31 -329 5 -188 42
-242 54 -432 95 -91 19 -183 40 -205 45 -22 5 -74 16 -115 24 -42 9 -105 22
-140 30 -36 8 -135 25 -220 37 -139 20 -188 22 -475 20 -326 -3 -424 -11 -553
-48 -55 -15 -64 -16 -72 -3 -16 26 -11 48 12 52 29 4 34 25 8 33 -30 9 -100
-4 -107 -21 -3 -8 2 -29 11 -48 21 -44 20 -59 -3 -73 -11 -7 -50 -39 -88 -71
-56 -48 -76 -74 -110 -143 -54 -107 -67 -156 -67 -251 -1 -42 -4 -74 -8 -72
-3 2 -4 -15 -1 -38 3 -29 1 -39 -5 -29 -14 19 -18 4 -21 -74 -3 -92 65 -424
101 -492 9 -19 7 -32 -15 -77 -15 -30 -27 -59 -27 -65 0 -6 -10 -32 -21 -58
-24 -54 -27 -60 -82 -161 -22 -40 -40 -84 -39 -97 0 -16 -8 -25 -24 -29 -18
-5 -33 4 -71 44 -26 27 -61 55 -78 60 -18 6 -67 52 -120 109 -49 55 -99 103
-110 107 -10 3 -42 31 -69 60 -27 30 -55 54 -62 54 -6 0 -14 6 -17 13 -3 7
-24 19 -47 27 l-42 14 -44 -50 c-49 -56 -122 -196 -105 -202 6 -2 11 -12 11
-22 0 -10 9 -22 21 -25 11 -4 28 -20 38 -36 10 -16 20 -27 23 -24 12 12 139
-50 193 -95 11 -9 43 -25 70 -35 28 -10 86 -41 130 -68 44 -27 91 -53 105 -57
16 -4 28 -17 34 -36 4 -16 12 -37 17 -46 19 -36 2 -71 -74 -153 -15 -16 -30
-37 -33 -45 -6 -17 -98 -90 -114 -90 -5 0 -10 -4 -10 -9 0 -15 -69 -51 -85
-45 -20 8 -19 13 4 38 18 20 18 24 4 59 -17 41 -27 45 -55 20 -23 -21 -126
-34 -255 -33 -78 1 -93 -1 -93 -14 0 -19 -20 -22 -20 -3 0 6 -9 1 -20 -13 -11
-14 -20 -19 -20 -12 0 26 -20 11 -20 -16 0 -35 -16 -52 -51 -52 -18 0 -28 -6
-32 -19 -3 -13 -17 -22 -41 -26 -21 -4 -36 -13 -36 -21 0 -25 -73 -18 -99 10
-41 44 -131 16 -131 -41 0 -12 5 -23 10 -23 6 0 10 -9 10 -20 0 -14 7 -20 24
-20 13 0 26 -7 30 -15 3 -8 12 -15 21 -15 37 0 1 -44 -59 -70 -25 -12 -46 -25
-46 -30 0 -6 -18 -10 -41 -10 -32 0 -40 -3 -36 -14 9 -24 -21 -7 -64 35 -22
21 -39 42 -39 47 0 14 -137 149 -194 191 -28 21 -66 46 -84 55 -20 10 -32 23
-29 31 4 9 -1 11 -14 8 -11 -3 -39 2 -64 11 -49 19 -74 18 -91 -3 -6 -8 -18
-11 -28 -8 -18 7 -22 27 -5 27 14 0 1 42 -19 57 -14 12 -33 100 -34 159 0 14
-12 25 -39 37 -22 9 -39 23 -39 31 0 8 -9 17 -19 21 -12 4 -18 12 -14 21 6 17
-8 18 -26 2 -10 -9 -12 -10 -7 -1 14 25 -5 61 -35 67 -36 7 -48 32 -25 49 15
11 16 17 5 40 -9 21 -9 33 -1 52 11 24 32 35 32 16 0 -22 46 -80 64 -81 29 0
12 48 -35 95 -37 37 -40 39 -45 19 -4 -16 -14 -21 -37 -22 -68 0 -117 -19
-117 -44 0 -5 -15 -25 -34 -44 -26 -27 -40 -34 -55 -29 -18 5 -21 2 -22 -22 0
-16 -3 -22 -6 -13 -3 8 -17 25 -30 38 -13 12 -21 27 -18 32 3 6 -3 10 -14 10
-12 0 -20 -3 -19 -7 3 -9 -5 -13 -24 -13 -9 0 -8 4 2 10 13 9 13 10 -1 10 -19
0 -59 44 -59 66 0 11 -6 13 -20 9 -28 -9 -64 19 -79 62 -16 44 -34 59 -78 68
-18 3 -33 10 -33 15 0 16 44 40 72 40 16 0 28 5 28 13 0 24 -39 149 -52 164
-10 12 -9 17 5 28 16 12 16 17 2 70 -8 32 -21 65 -30 74 -8 9 -30 33 -49 54
-18 20 -38 37 -43 37 -6 0 -27 -21 -48 -46 -33 -40 -37 -50 -31 -84 5 -35 4
-38 -21 -45 -20 -5 -31 -2 -40 11 -7 10 -25 18 -41 18 -25 0 -27 -3 -26 -42 1
-51 8 -60 32 -39 10 10 22 17 25 17 13 0 7 -27 -8 -40 -11 -9 -12 -17 -5 -30
16 -30 12 -136 -5 -150 -19 -16 -19 -40 0 -40 21 0 19 -17 -4 -29 -10 -6 -25
-31 -34 -56 -14 -44 -14 -47 6 -66 20 -19 20 -19 1 -19 -11 0 -26 -6 -33 -12
-10 -11 -14 -10 -21 3 -7 13 -22 16 -62 14 -29 -2 -63 -1 -75 2 -30 7 -30 37
0 50 19 10 17 11 -20 11 -31 0 -51 7 -73 26 -39 32 -66 32 -105 1 -27 -22 -30
-30 -30 -87 0 -62 -1 -63 -31 -73 -39 -13 -64 -33 -64 -52 0 -8 -3 -13 -8 -11
-67 35 -78 37 -149 25 -80 -14 -94 -22 -70 -40 19 -15 7 -34 -36 -56 -21 -11
-30 -12 -39 -3 -19 19 -56 14 -63 -8 -3 -11 -15 -20 -25 -20 -10 0 -22 -5 -25
-10 -5 -8 -11 -7 -20 0 -9 7 -30 9 -57 5 -86 -13 -100 -13 -104 1 -14 47 -15
47 -26 36 -25 -25 -88 -11 -88 19 0 22 -4 23 -31 9 -10 -6 -19 -17 -19 -25 0
-8 -9 -15 -20 -15 -27 0 -25 -8 8 -37 25 -22 26 -25 10 -37 -10 -7 -18 -17
-18 -23 0 -9 -71 -31 -126 -38 -16 -2 -31 -4 -34 -5 -3 0 3 -7 13 -14 14 -11
24 -11 52 -2 19 7 38 15 41 19 12 12 41 8 54 -7 16 -20 -26 -56 -83 -73 -53
-16 -67 -16 -67 0 0 7 -9 29 -20 50 -22 40 -22 39 33 51 27 6 36 29 17 41 -5
3 -10 17 -10 31 0 17 -5 24 -20 24 -13 0 -19 -6 -18 -17 3 -44 -2 -65 -16 -60
-8 3 -31 1 -51 -4 -37 -11 -37 -10 -18 -55 5 -13 -26 -20 -130 -30 -37 -4 -66
-10 -64 -13 2 -3 11 -23 21 -44 12 -27 22 -37 32 -33 34 13 181 18 201 7 17
-8 25 -8 35 3 8 7 34 17 59 22 24 4 46 8 49 9 11 2 107 38 135 51 27 12 28 14
7 14 -14 0 -22 5 -20 13 6 17 39 21 49 6 6 -11 16 -11 51 -1 67 21 106 23 111
7 7 -17 -69 -55 -133 -66 -65 -12 -195 -53 -211 -66 -14 -11 -128 -51 -204
-72 -61 -16 -177 -23 -169 -9 5 7 -2 9 -20 6 -21 -4 -27 -1 -32 18 -8 31 -38
31 -130 3 -38 -12 -90 -23 -116 -25 -61 -4 -88 -19 -88 -47 0 -12 -3 -32 -6
-44 -6 -22 -10 -23 -126 -23 l-120 0 15 23 c10 16 12 28 5 40 -5 10 -6 22 -2
29 5 7 3 8 -5 3 -8 -5 -11 -18 -7 -37 l6 -29 -31 21 c-36 26 -35 54 3 58 38 5
43 50 9 85 -32 31 -96 50 -123 36 -14 -8 -20 -6 -26 9 -9 24 -94 98 -122 107
-31 10 -34 1 -14 -34 13 -23 26 -31 45 -31 39 0 59 -10 59 -29 0 -24 -39 -44
-89 -46 -53 -1 -75 -24 -60 -62 13 -35 11 -60 -6 -67 -10 -4 -17 3 -21 22 -3
15 -12 41 -20 59 -8 17 -14 43 -14 57 0 29 -18 35 -26 9 -4 -10 -13 -33 -21
-52 l-16 -35 -18 22 -18 23 -3 -28 c-2 -16 -8 -27 -14 -26 -6 1 -25 -23 -43
-53 -32 -51 -36 -54 -75 -55 -52 -1 -115 -22 -97 -33 17 -11 -5 -36 -33 -36
-11 0 -41 -9 -65 -20 -45 -21 -127 -28 -116 -10 3 6 -1 10 -10 10 -12 0 -15
-5 -11 -16 5 -13 1 -15 -19 -12 -14 3 -25 2 -25 -3 0 -12 -54 -3 -58 10 -2 6
5 11 15 11 11 0 23 4 29 8 5 5 38 17 74 26 36 10 86 29 111 42 26 13 55 24 65
24 44 0 132 33 137 51 8 31 -14 89 -34 89 -10 0 -21 5 -25 11 -3 6 -16 8 -28
4 -45 -14 -91 -11 -117 7 -27 18 -83 16 -95 -3 -7 -12 -24 -11 -24 1 0 6 7 10
15 10 8 0 15 5 15 10 0 6 -10 10 -23 10 -15 0 -29 11 -40 30 -21 35 -37 39
-37 10 0 -24 -13 -26 -30 -5 -11 14 -14 13 -25 -1 -16 -23 -81 -44 -137 -44
-35 0 -48 -4 -48 -14 0 -22 -40 -46 -78 -46 -18 0 -31 -4 -28 -9 6 -10 -37
-31 -64 -31 -19 0 -53 -37 -45 -50 2 -4 -7 -5 -20 -2 -14 2 -25 11 -25 18 0
10 -12 14 -39 14 -43 0 -101 -18 -101 -31 0 -5 -5 -9 -11 -9 -5 0 -8 4 -4 10
3 5 -14 7 -45 3 -42 -5 -50 -3 -50 11 0 15 25 21 72 17 24 -3 33 39 18 83 -14
44 -26 52 -49 32 -12 -11 -16 -26 -13 -51 2 -19 0 -35 -4 -36 -5 0 -16 -2 -24
-4 -18 -3 -24 43 -8 62 6 7 9 13 7 14 -36 8 -52 3 -71 -23 l-20 -29 -16 23
-16 22 -6 -24 c-7 -29 -24 -36 -42 -17 -11 13 -19 12 -54 -7 -38 -19 -41 -24
-37 -54 5 -28 3 -32 -17 -32 -13 0 -21 3 -18 6 8 7 -31 48 -59 62 -12 7 -47
11 -78 9 -49 -3 -59 -8 -83 -37 -15 -19 -34 -42 -43 -51 -12 -12 -14 -20 -6
-28 8 -8 8 -11 0 -11 -9 0 -23 21 -23 34 0 3 18 26 50 63 15 18 12 66 -5 89
-8 10 -15 29 -15 41 0 25 -20 75 -34 84 -5 4 -22 3 -37 -3 -22 -7 -32 -6 -43
5 -11 10 -42 15 -113 16 -54 2 -113 4 -131 7 -35 4 -56 -11 -191 -133 -20 -18
-41 -33 -47 -33 -6 0 -21 -9 -34 -20 -24 -20 -46 -27 -36 -11 9 14 -64 53
-102 56 -19 1 -40 -4 -48 -12 -7 -8 -19 -13 -26 -12 -46 6 -63 -13 -33 -35 12
-9 8 -15 -25 -32 l-39 -22 15 23 c14 22 14 24 -3 33 -27 15 -31 14 -53 -8 -15
-15 -25 -18 -38 -11 -10 5 -26 9 -36 8 -12 -1 -20 6 -22 20 -2 13 -2 23 0 23
2 0 48 9 102 21 55 11 117 22 138 25 49 5 56 12 32 29 -12 9 -25 11 -35 6 -16
-8 -71 -16 -179 -26 l-52 -5 14 29 c18 34 13 41 -31 41 -40 0 -48 15 -35 64 6
20 7 38 3 41 -10 6 -36 94 -40 137 -1 7 -124 1 -148 -7 -7 -2 -15 -35 -19 -74
-3 -39 -11 -71 -16 -71 -5 0 -6 -22 -2 -49 l6 -48 -36 -7 c-43 -8 -53 -27 -37
-63 13 -29 8 -41 -11 -26 -9 7 -29 3 -67 -14 -38 -17 -51 -27 -42 -33 8 -4 10
-13 7 -19 -10 -16 -51 -14 -66 4 -8 9 -30 15 -60 15 -39 0 -54 5 -78 28 -17
16 -32 39 -34 52 -4 33 -40 40 -108 22 -43 -11 -62 -12 -87 -3 -17 7 -43 9
-56 6 -35 -9 -67 10 -67 40 0 22 5 25 34 25 18 0 39 -7 46 -15 9 -11 32 -13
98 -11 48 2 101 7 117 11 33 9 95 55 73 55 -7 0 -32 18 -56 39 -32 29 -43 46
-40 63 2 19 -1 23 -25 23 -15 -1 -27 2 -27 6 0 4 -9 11 -21 14 -11 4 -25 18
-32 32 -10 23 -8 28 17 49 15 14 32 22 37 18 6 -3 7 5 3 23 -4 15 -11 29 -15
31 -4 2 -20 13 -34 24 -19 14 -23 23 -15 28 9 6 9 9 -1 16 -7 4 -14 3 -17 -4
-9 -27 -22 -9 -22 28 0 35 -3 40 -24 40 -21 0 -24 5 -30 61 -9 93 -8 99 14 99
17 0 20 7 20 39 0 22 5 41 12 43 8 3 9 25 1 89 -7 55 -7 88 0 97 14 18 27 15
27 -8 0 -11 5 -20 10 -20 6 0 10 33 10 80 0 64 3 80 15 80 11 0 15 11 15 40 0
36 3 40 24 40 39 0 86 51 86 94 l0 36 80 0 c79 0 80 0 80 -25 0 -16 6 -25 15
-25 11 0 15 11 15 40 l0 40 -55 0 -55 0 0 40 c0 30 4 40 16 40 9 0 27 9 41 20
14 11 32 20 39 20 8 0 14 8 14 18 0 9 11 22 25 29 15 6 25 7 25 1 0 -5 4 -6
10 -3 5 3 10 1 10 -5 0 -6 4 -8 10 -5 13 8 80 -65 80 -86 0 -10 5 -21 10 -24
6 -3 10 -13 10 -21 0 -9 11 -30 24 -47 28 -38 57 -102 62 -137 1 -14 12 -51
23 -83 18 -51 35 -73 141 -176 66 -65 120 -124 120 -132 0 -20 30 -47 115
-102 39 -25 89 -63 112 -84 67 -63 238 -137 286 -125 5 2 25 -3 45 -9 20 -6
109 -15 197 -19 139 -7 169 -5 232 11 39 10 85 25 102 33 38 20 91 20 117 1
25 -19 48 -19 64 0 7 8 25 15 39 15 32 0 86 51 78 73 -3 8 4 34 15 58 30 67
27 128 -11 183 l-32 46 -64 0 c-35 0 -87 -5 -115 -11 -44 -9 -51 -14 -48 -32
2 -17 -2 -21 -16 -19 -14 3 -18 -1 -14 -16 5 -18 3 -19 -23 -10 -18 6 -29 17
-29 28 0 11 -6 23 -13 27 -8 4 -22 20 -32 35 -21 34 -35 36 -35 6 -1 -21 -2
-21 -11 -5 -8 14 -6 23 13 41 36 36 63 40 97 15 26 -19 32 -20 47 -8 14 11 18
11 29 -4 16 -23 39 -22 30 1 -4 9 -11 29 -15 44 -14 47 -61 87 -132 112 -59
22 -83 24 -210 24 -134 0 -145 -2 -168 -23 -39 -34 -59 -38 -69 -12 -5 12 -32
53 -60 92 -28 38 -49 76 -46 83 2 6 0 23 -4 35 -5 13 -12 39 -15 58 -3 19 -12
53 -20 76 -10 28 -13 60 -9 97 l6 54 -41 21 c-41 21 -92 28 -92 13 0 -8 -87
-36 -150 -49 -35 -6 -105 -43 -83 -43 6 0 9 -9 6 -20 -6 -23 15 -81 34 -93 8
-5 10 -18 6 -38 -5 -25 0 -35 26 -61 21 -20 31 -38 28 -50 -5 -18 38 -58 62
-58 16 0 14 -33 -6 -82 -21 -55 -20 -55 -41 -32 -10 10 -47 37 -82 59 -92 58
-140 108 -140 148 -1 48 -45 130 -113 207 -13 14 -32 41 -44 60 -12 19 -32 46
-44 59 -12 13 -23 32 -24 42 -1 10 -13 29 -28 43 -24 22 -25 29 -20 80 6 55 5
56 -21 56 -24 0 -26 3 -25 38 0 40 17 93 18 60 2 -37 21 -16 21 22 0 22 -4 40
-10 40 -5 0 -10 8 -10 18 1 16 1 16 14 0 19 -26 23 -23 46 28 29 67 29 213 0
239 -11 10 -20 22 -20 27 0 4 9 8 20 8 18 0 20 7 20 54 0 46 3 56 25 70 14 9
24 24 23 34 -2 11 10 23 35 34 21 10 40 25 43 33 4 8 12 15 20 15 8 0 14 5 14
11 0 13 58 69 71 69 5 0 9 18 9 40 0 36 3 40 25 40 23 0 25 4 25 40 0 35 -3
40 -22 40 -22 1 -22 1 5 25 39 34 47 31 47 -15 0 -29 5 -42 20 -50 32 -17 43
19 35 116 -6 73 -5 84 9 84 9 0 16 5 16 11 0 6 5 9 11 7 8 -3 11 -33 10 -91
-2 -71 1 -87 12 -87 11 0 17 20 22 80 4 44 11 80 16 80 17 0 9 25 -11 38 -25
15 -25 27 0 54 17 19 20 19 20 5 0 -12 8 -17 29 -17 29 0 29 0 36 -80 7 -83
18 -99 36 -53 11 29 3 83 -12 83 -5 0 -9 11 -9 25 0 14 -4 25 -10 25 -13 0
-13 37 -1 44 5 4 11 1 13 -6 6 -18 58 37 58 61 0 11 5 23 10 26 6 4 10 -5 10
-20 l0 -27 31 26 c17 14 35 26 40 26 5 0 9 12 9 26 0 16 12 37 31 55 37 34 49
36 49 9 0 -11 5 -20 11 -20 6 0 13 9 16 20 3 11 9 20 14 20 5 0 9 18 9 40 0
28 4 40 14 40 8 0 16 -6 19 -12 4 -10 7 -10 18 0 7 6 28 12 46 12 32 0 33 1
33 40 0 38 2 40 30 40 25 0 30 4 30 25 0 23 2 24 20 15 17 -9 22 -7 32 15 6
14 15 25 20 25 4 0 8 6 8 14 0 8 8 17 19 21 10 3 26 14 36 25 16 18 17 20 2
20 -13 0 -17 9 -17 40 0 33 3 40 20 40 20 0 25 16 22 65 -2 18 -1 19 9 3 12
-22 29 -23 29 -3 0 8 5 15 11 15 7 0 8 -14 4 -40 -5 -27 -3 -40 5 -40 6 0 10
8 8 17 -2 10 4 18 12 18 8 1 23 5 33 9 10 5 23 3 32 -4 8 -7 15 -9 15 -4 0 5
5 2 10 -6 5 -8 7 -22 5 -31 -3 -9 1 -22 10 -29 8 -7 15 -21 15 -31 0 -24 8
-24 28 1 16 19 19 19 50 3 25 -12 36 -13 45 -4 17 17 -5 47 -32 43 -17 -3 -21
2 -21 22 0 14 -8 29 -17 35 -14 8 -15 12 -4 25 7 9 19 16 26 16 7 0 15 7 19
15 8 22 29 18 23 -4 -3 -14 -1 -18 9 -14 16 6 20 83 4 83 -16 0 -11 17 6 24
25 10 65 -22 82 -65 11 -30 21 -39 39 -39 18 0 23 -5 23 -25 0 -32 11 -32 50
2 29 24 33 25 42 10 15 -28 38 -20 38 13 0 18 6 33 15 36 8 4 15 15 15 25 0
25 38 26 56 2 11 -15 15 -15 23 -4 5 8 17 11 32 6 46 -13 87 -35 93 -50 3 -8
12 -15 21 -15 29 0 9 -33 -37 -63 -16 -10 -28 -24 -28 -32 0 -17 100 -40 136
-31 19 5 24 3 24 -14 0 -11 -5 -20 -12 -20 -9 0 -9 -3 1 -12 10 -11 16 -8 31
10 14 17 25 22 40 17 20 -6 20 -8 -10 -48 -31 -43 -25 -63 11 -31 10 9 19 14
19 11 0 -3 12 -2 28 2 42 13 242 -6 262 -24 14 -12 23 -13 49 -4 17 6 41 9 53
6 12 -4 28 -1 35 5 10 8 17 8 25 0 7 -7 21 -12 33 -12 11 0 26 -9 33 -20 7
-11 19 -20 27 -20 8 0 15 -4 15 -10 0 -5 18 -10 39 -10 22 0 41 -5 43 -10 2
-6 26 -12 54 -14 29 -2 57 -6 63 -10 6 -4 11 -2 11 3 0 6 11 11 24 11 15 0 26
7 29 20 4 17 9 19 31 10 20 -7 26 -6 26 4 0 8 14 23 30 33 30 19 30 20 11 37
-15 13 -18 26 -14 52 7 41 -17 68 -91 102 -25 12 -51 31 -58 42 -7 11 -17 20
-23 20 -6 0 -16 9 -23 20 -7 11 -21 20 -32 20 -14 0 -20 7 -20 21 0 15 -5 19
-15 15 -8 -3 -27 6 -42 20 -35 32 -86 30 -91 -3 -4 -27 -17 -30 -30 -7 -6 11
-11 13 -16 5 -4 -6 -2 -11 3 -11 6 0 11 -7 11 -16 0 -15 -3 -14 -27 1 -16 10
-44 33 -63 51 -19 18 -45 41 -57 51 -27 22 -48 114 -33 143 9 16 15 17 47 8
21 -5 43 -14 48 -18 6 -5 27 -11 48 -15 33 -7 37 -10 38 -39 0 -17 3 -25 6
-18 2 6 21 12 40 12 31 0 35 3 29 20 -3 11 -9 29 -12 40 -4 12 -2 20 5 20 6 0
11 -8 11 -17 0 -14 2 -15 13 -4 10 11 10 14 0 18 -18 6 -16 42 2 49 8 4 15 12
15 20 0 8 5 14 11 14 5 0 0 18 -12 40 -15 26 -25 36 -30 28 -10 -15 -59 8 -59
28 0 8 -11 12 -26 11 -33 -2 -45 22 -15 30 12 3 21 10 21 16 0 6 9 1 20 -11
12 -12 31 -22 42 -22 17 0 19 3 10 12 -16 16 -15 28 1 28 7 0 23 18 36 40 16
28 29 40 45 40 15 0 27 9 34 25 10 21 15 24 31 16 10 -6 21 -7 25 -4 10 10 7
43 -4 43 -5 0 -10 4 -10 10 0 18 31 -3 46 -31 8 -16 21 -29 30 -29 8 0 17 -7
21 -15 5 -14 8 -14 24 1 10 9 27 14 38 11 16 -4 21 1 23 22 2 21 9 27 36 29
18 2 32 -1 32 -7 0 -6 7 -11 15 -11 8 0 36 -10 61 -21 33 -16 48 -19 56 -11 8
8 7 16 -3 28 -12 14 -10 19 10 35 29 24 35 20 72 -46 23 -41 36 -55 57 -57 21
-2 30 -11 39 -40 8 -24 35 -59 73 -94 52 -49 60 -62 60 -93 0 -20 8 -49 18
-66 32 -54 49 -161 29 -181 -13 -13 -7 -34 8 -34 20 0 35 38 51 130 7 41 16
88 20 104 5 19 1 39 -10 60 -16 30 -16 33 6 76 21 40 23 58 22 170 0 69 -4
140 -9 159 -7 31 -6 33 15 26 22 -7 23 -5 17 34 -3 22 -1 41 3 41 5 0 11 14
15 30 4 17 11 30 16 30 5 0 9 16 9 35 0 25 8 44 25 61 27 27 32 44 13 44 -9 0
-9 3 0 12 8 8 15 8 26 -1 12 -10 16 -6 26 23 6 19 8 51 4 70 -5 29 -3 36 9 36
9 0 18 -9 22 -19 8 -26 38 -35 67 -20 13 7 29 15 36 18 7 3 21 19 30 34 15 24
15 29 2 37 -10 6 -20 4 -31 -6 -21 -19 -33 -4 -24 27 4 12 8 29 9 37 2 9 7 17
13 19 6 2 8 -7 6 -22 -3 -14 -1 -25 5 -25 6 0 22 -12 36 -27 l25 -27 -30 -30
c-16 -16 -29 -33 -29 -38 0 -8 30 -12 58 -9 18 3 15 -16 -5 -27 -14 -8 -15
-16 -7 -43 6 -20 17 -35 28 -37 14 -3 17 0 13 12 -5 12 1 19 18 26 16 6 25 17
25 30 0 12 15 37 34 57 l33 36 21 -21 c12 -12 24 -41 28 -69 4 -26 12 -51 18
-55 44 -30 129 19 107 61 -16 29 -31 104 -37 184 -5 62 -4 69 18 87 27 22 48
26 49 8 4 -62 6 -65 34 -68 47 -5 68 2 97 30 26 27 28 33 16 43 -18 14 -30 57
-17 57 5 0 9 7 9 15 0 11 6 12 23 6 22 -8 24 -11 26 -56 1 -35 13 -31 34 11
15 31 16 39 4 58 -10 15 -12 37 -7 76 4 30 8 46 9 35 1 -11 10 -31 21 -45 11
-14 20 -35 20 -47 0 -27 15 -30 25 -5 7 16 8 15 15 -3 7 -16 9 -17 9 -3 1 9
-6 24 -15 32 -21 21 -14 60 11 65 11 2 23 8 27 14 4 6 25 11 47 10 24 -1 44 4
51 13 7 8 25 14 41 14 25 0 49 22 49 44 0 3 -1309 6 -2910 6 l-2910 0 0 -3690z
m5604 3639 c-3 -6 0 -15 7 -20 11 -7 10 -9 -3 -9 -18 0 -24 20 -11 33 10 11
15 8 7 -4z m-198 -107 c6 -4 8 -15 5 -25 -6 -17 -8 -16 -19 7 -12 26 -7 32 14
18z m-39 -74 c-3 -8 -6 -5 -6 6 -1 11 2 17 5 13 3 -3 4 -12 1 -19z m-347 -118
c0 -15 -5 -12 -26 11 -19 22 -19 22 4 10 12 -6 22 -16 22 -21z m30 -21 c0 -11
-4 -18 -10 -14 -5 3 -7 12 -3 20 7 21 13 19 13 -6z m7070 1 c0 -5 -4 -10 -10
-10 -5 0 -10 5 -10 10 0 6 5 10 10 10 6 0 10 -4 10 -10z m-7140 -30 c-36 -11
-52 -11 -45 0 3 6 21 10 38 9 31 -1 31 -1 7 -9z m107 -27 c-3 -10 -5 -4 -5 12
0 17 2 24 5 18 2 -7 2 -21 0 -30z m-57 7 c12 -8 11 -10 -7 -10 -13 0 -23 5
-23 10 0 13 11 13 30 0z m7170 -16 c0 -8 -4 -12 -10 -9 -5 3 -10 10 -10 16 0
5 5 9 10 9 6 0 10 -7 10 -16z m-7160 -24 c0 -9 -36 -20 -65 -20 -16 0 -15 3
10 19 29 17 55 18 55 1z m-191 -20 c11 0 21 -4 21 -10 0 -5 -16 -10 -35 -10
-32 0 -35 3 -35 28 1 24 2 25 14 10 7 -10 23 -18 35 -18z m251 10 c0 -5 -4
-10 -10 -10 -5 0 -10 5 -10 10 0 6 5 10 10 10 6 0 10 -4 10 -10z m107 -47 c-3
-10 -5 -4 -5 12 0 17 2 24 5 18 2 -7 2 -21 0 -30z m-261 -15 c-9 -12 -16 -17
-16 -10 0 14 23 42 29 37 1 -2 -4 -14 -13 -27z m211 0 c-3 -8 -6 -5 -6 6 -1
11 2 17 5 13 3 -3 4 -12 1 -19z m-441 -25 c-10 -10 -19 5 -10 18 6 11 8 11 12
0 2 -7 1 -15 -2 -18z m7628 -69 c10 -27 7 -44 -9 -44 -10 0 -15 10 -15 30 0
32 14 40 24 14z m-8557 -330 c-3 -3 -12 -4 -19 -1 -8 3 -5 6 6 6 11 1 17 -2
13 -5z m11 -38 c-7 -8 -15 -12 -17 -11 -5 6 10 25 20 25 5 0 4 -6 -3 -14z m67
4 c-3 -5 -10 -10 -16 -10 -5 0 -9 5 -9 10 0 6 7 10 16 10 8 0 12 -4 9 -10z
m95 -24 c0 -9 -10 -13 -25 -12 -25 1 -31 7 -18 19 12 12 43 7 43 -7z m-95 -6
c-3 -5 -12 -10 -20 -10 -8 0 -17 5 -20 10 -4 6 5 10 20 10 15 0 24 -4 20 -10z
m8895 -74 c0 -2 3 -12 7 -21 5 -14 2 -16 -18 -10 -31 9 -32 11 -24 24 6 10 35
16 35 7z m137 -193 c-10 -10 -16 0 -22 38 l-6 34 17 -32 c10 -18 14 -36 11
-40z m-9688 0 c0 -5 -4 -17 -9 -28 -8 -18 -9 -17 -9 8 -1 15 4 27 9 27 6 0 10
-3 9 -7z m9736 -23 c11 -17 -5 -32 -21 -19 -8 6 -14 15 -14 20 0 12 27 11 35
-1z m-9345 -55 c0 -9 -7 -18 -16 -22 -20 -7 -38 18 -21 29 20 13 37 9 37 -7z
m-280 -35 c0 -5 -4 -10 -10 -10 -5 0 -10 5 -10 10 0 6 5 10 10 10 6 0 10 -4
10 -10z m9614 -25 c4 -10 -1 -15 -14 -15 -13 0 -18 5 -14 15 4 8 10 15 14 15
4 0 10 -7 14 -15z m1193 -171 c-3 -3 -12 -4 -19 -1 -8 3 -5 6 6 6 11 1 17 -2
13 -5z m-11834 -81 c-7 -2 -13 -12 -13 -20 0 -9 -3 -14 -6 -10 -10 10 4 37 18
36 10 0 10 -2 1 -6z m11961 -34 c7 -35 1 -49 -20 -49 -17 0 -19 17 -2 22 10 4
10 10 1 31 -10 22 -10 27 1 27 7 0 16 -14 20 -31z m44 -63 c-12 -6 -23 -5 -30
2 -9 9 -9 12 0 12 7 0 12 8 12 17 0 15 2 14 19 -3 18 -19 18 -19 -1 -28z m46
-77 c-8 -13 -21 -11 -27 5 -4 10 0 12 14 9 10 -3 16 -9 13 -14z m-13384 -1014
c0 -9 -9 -15 -21 -15 -18 0 -19 2 -9 15 7 8 16 15 21 15 5 0 9 -7 9 -15z
m-183 -237 c-2 -13 -4 -3 -4 22 0 25 2 35 4 23 2 -13 2 -33 0 -45z m12623
-358 c0 -5 -5 -10 -11 -10 -5 0 -7 5 -4 10 3 6 8 10 11 10 2 0 4 -4 4 -10z
m-60 -20 c0 -5 -5 -10 -11 -10 -5 0 -7 5 -4 10 3 6 8 10 11 10 2 0 4 -4 4 -10z
m-40 -14 c0 -3 -4 -8 -10 -11 -5 -3 -10 -1 -10 4 0 6 5 11 10 11 6 0 10 -2 10
-4z m-105 -35 c-17 -14 -75 -31 -75 -21 0 5 12 12 28 16 15 3 32 7 37 9 17 6
19 5 10 -4z m-12475 -177 c0 -8 -5 -12 -10 -9 -6 4 -8 11 -5 16 9 14 15 11 15
-7z m861 -764 l42 -40 -18 -45 c-9 -25 -20 -45 -25 -45 -4 0 -23 19 -43 43
-32 40 -34 45 -21 67 7 14 13 33 14 43 0 24 5 22 51 -23z m5464 -36 c0 -19 -6
-30 -17 -32 -14 -3 -18 3 -18 26 0 16 3 32 7 36 14 13 28 -1 28 -30z m-4865 0
c0 -8 -4 -14 -9 -14 -11 0 -22 26 -14 34 9 9 23 -3 23 -20z m4798 -31 c-4 -22
-22 -20 -26 1 -2 10 3 16 13 16 10 0 15 -7 13 -17z m80 -77 c10 -9 1 -23 -41
-69 -56 -61 -72 -67 -107 -39 -24 19 -20 42 6 42 8 0 17 13 21 30 10 52 82 74
121 36z m-4728 -128 c0 -10 -4 -18 -10 -18 -5 0 -10 -10 -10 -22 0 -38 -13
-10 -16 37 -3 42 -2 44 16 32 11 -6 20 -20 20 -29z m-234 -33 c18 -15 18 -16
-11 -40 -16 -14 -32 -25 -35 -25 -3 0 -14 -13 -23 -30 -10 -16 -24 -30 -32
-30 -13 0 -75 67 -75 82 0 11 39 30 90 44 60 16 63 16 86 -1z m224 -49 c0 -8
-7 -16 -15 -20 -17 -6 -18 -4 -9 18 8 20 24 21 24 2z m-432 -81 l42 -45 -31
-35 c-40 -44 -63 -47 -54 -6 5 23 2 29 -14 34 -22 5 -28 31 -11 42 6 3 10 17
10 31 0 34 9 30 58 -21z m8535 -27 c17 -13 39 -27 48 -33 9 -5 60 -39 113 -74
68 -46 93 -67 84 -73 -58 -39 -65 -40 -151 -18 -45 12 -90 25 -99 31 -10 5
-33 9 -52 9 -18 0 -48 3 -65 6 -26 6 -31 11 -31 37 0 23 12 42 53 83 28 29 56
53 60 53 5 1 23 -9 40 -21z m-3563 -138 c0 -5 -4 -10 -9 -10 -6 0 -13 5 -16
10 -3 6 1 10 9 10 9 0 16 -4 16 -10z m-761 -252 c33 -10 41 -18 46 -45 3 -18
10 -33 15 -33 5 0 30 13 57 30 26 16 61 32 77 36 l30 7 -22 -28 c-12 -15 -19
-31 -16 -36 3 -5 0 -9 -6 -9 -6 0 -14 -10 -19 -22 l-8 -23 -7 23 c-7 22 -8 22
-49 -11 -57 -45 -86 -56 -117 -45 -26 10 -105 -7 -116 -24 -10 -15 -55 -29
-75 -23 -26 8 -24 28 4 40 27 12 29 38 3 43 -11 2 -16 0 -12 -6 8 -13 -2 -20
-41 -26 -16 -3 -49 -13 -73 -21 -50 -18 -60 -18 -60 -6 0 6 25 18 55 27 30 10
55 21 55 26 0 4 12 8 28 8 35 0 100 39 83 50 -19 11 -9 44 14 48 11 2 27 6 35
9 8 3 24 8 34 10 11 2 22 6 25 8 7 7 18 6 60 -7z m291 -39 c6 -23 9 -43 7 -46
-9 -8 -39 65 -32 76 10 17 14 13 25 -30z m-40 21 c0 -5 -2 -10 -4 -10 -3 0 -8
5 -11 10 -3 6 -1 10 4 10 6 0 11 -4 11 -10z m-740 -23 c0 -2 -15 -19 -33 -38
-18 -18 -31 -32 -30 -30 2 2 -2 10 -8 17 -15 18 -4 32 34 43 18 5 33 10 35 10
1 1 2 0 2 -2z m290 -12 c0 -16 -30 -35 -54 -35 -24 0 -19 29 7 40 33 13 47 12
47 -5z m-590 -25 c0 -5 -5 -10 -11 -10 -5 0 -7 5 -4 10 3 6 8 10 11 10 2 0 4
-4 4 -10z m1164 -35 c7 -28 30 -32 52 -10 9 8 26 16 40 17 13 0 29 1 36 2 15
1 28 -58 16 -76 -9 -14 -15 -8 -45 39 -11 17 -13 16 -39 -9 -28 -27 -28 -28
-11 -63 11 -24 21 -33 32 -29 8 4 15 2 15 -4 0 -18 -44 -23 -57 -5 -10 13 -15
14 -28 3 -12 -10 -18 -10 -30 0 -8 7 -15 19 -15 27 0 10 -7 14 -20 10 -13 -3
-20 0 -20 9 0 7 6 11 14 8 21 -8 48 42 41 77 -8 35 10 40 19 4z m3481 -51 c30
-32 31 -40 8 -47 -10 -3 -35 -16 -55 -28 -21 -13 -41 -19 -45 -15 -4 4 -3 10
3 14 5 4 18 28 28 55 10 26 22 47 27 47 6 0 21 -12 34 -26z m-3625 -25 c0 -20
5 -29 16 -29 11 0 15 -6 11 -20 -3 -13 0 -20 9 -20 8 0 20 -11 26 -25 6 -14
20 -25 30 -25 11 0 16 -4 13 -10 -3 -5 -15 -10 -26 -10 -10 0 -19 5 -19 10 0
19 -29 10 -35 -11 -11 -33 -30 -16 -27 24 1 19 -2 38 -8 42 -7 4 -9 -2 -4 -19
5 -23 3 -26 -20 -26 -18 0 -26 -5 -26 -17 -1 -22 -23 -53 -39 -53 -6 0 -11 -5
-11 -10 0 -7 7 -7 20 0 27 15 41 -17 16 -36 -10 -6 -16 -18 -15 -26 3 -27 -1
-38 -16 -38 -25 0 -38 45 -50 183 -4 43 -11 57 -28 57 -10 0 -37 43 -37 59 0
4 16 7 35 8 29 3 35 0 35 -17 0 -13 5 -18 15 -14 8 4 15 1 15 -5 0 -6 5 -11
11 -11 6 0 8 8 4 19 -4 14 2 21 27 31 18 6 40 15 48 20 22 11 30 3 30 -31z
m-680 -14 c0 -6 -57 -35 -70 -35 -20 0 -10 16 18 27 30 12 52 16 52 8z m-2305
-15 c-3 -5 -17 -10 -31 -10 -14 0 -22 4 -19 10 3 6 17 10 31 10 14 0 22 -4 19
-10z m2446 -29 c-6 -10 -6 -23 0 -32 5 -7 9 -23 9 -34 -1 -19 -1 -20 -15 -1
-8 10 -16 24 -19 30 -7 17 -27 -16 -22 -36 2 -10 0 -20 -5 -23 -4 -3 -11 6
-15 20 -4 16 -13 25 -25 25 -23 0 -24 -10 -5 -55 14 -33 14 -35 -4 -35 -14 0
-20 8 -22 32 -4 46 -28 49 -28 4 0 -21 5 -36 12 -36 6 0 4 -7 -5 -18 -10 -10
-17 -33 -17 -50 0 -22 -5 -32 -16 -32 -8 0 -12 5 -9 10 3 6 2 10 -2 10 -5 0
-14 -9 -21 -20 -7 -11 -23 -20 -36 -20 -26 0 -38 24 -51 102 -6 30 -12 37 -35
40 -27 4 -27 3 -24 -36 4 -37 3 -39 -7 -16 -21 47 -25 54 -37 58 -7 2 -12 -3
-12 -12 0 -24 -15 -27 -58 -9 l-41 16 34 18 c19 11 44 19 55 19 11 0 28 4 38
9 46 25 97 43 145 52 196 38 233 45 240 41 4 -2 3 -11 -2 -21z m-5551 5 c0
-22 -16 -28 -29 -12 -9 11 -9 15 1 19 22 9 28 8 28 -7z m2995 -11 c-55 -27
-79 -31 -73 -13 3 7 21 16 41 19 21 3 40 9 44 12 3 4 13 7 22 7 9 0 -6 -12
-34 -25z m2315 17 c0 -8 -62 -34 -90 -37 -8 -1 -22 -5 -30 -7 -27 -10 -93 -28
-155 -43 -33 -8 -91 -23 -130 -35 -81 -23 -98 -25 -93 -8 5 13 74 34 278 84
58 14 114 30 125 34 41 18 95 25 95 12z m-2036 -105 c-11 -6 -22 -15 -26 -21
-4 -6 -10 -7 -15 -3 -10 10 38 48 51 40 4 -3 0 -10 -10 -16z m626 13 c0 -5 -2
-10 -4 -10 -3 0 -8 5 -11 10 -3 6 -1 10 4 10 6 0 11 -4 11 -10z m-1500 -20 c0
-5 -4 -10 -10 -10 -5 0 -10 5 -10 10 0 6 5 10 10 10 6 0 10 -4 10 -10z m6850
2 c0 -5 -11 -14 -25 -20 -14 -6 -25 -18 -25 -27 0 -8 -6 -15 -13 -15 -6 0 -25
-14 -41 -31 -39 -41 -99 -65 -93 -37 3 18 29 37 48 38 17 0 56 38 51 49 -1 3
8 8 20 10 13 1 25 6 28 10 4 5 41 29 48 30 1 1 2 -3 2 -7z m-6450 -12 c0 -5
-2 -10 -4 -10 -3 0 -8 5 -11 10 -3 6 -1 10 4 10 6 0 11 -4 11 -10z m368 -22
c23 -23 14 -38 -18 -32 -17 4 -36 1 -45 -6 -16 -14 -35 -5 -35 16 0 28 75 45
98 22z m952 2 c0 -5 -2 -10 -4 -10 -3 0 -8 5 -11 10 -3 6 -1 10 4 10 6 0 11
-4 11 -10z m880 -9 c0 -15 -18 -23 -25 -11 -4 6 -11 7 -17 4 -7 -4 -8 -2 -4 4
9 14 46 16 46 3z m-80 -26 c-8 -9 -10 -28 -5 -55 8 -49 1 -51 -21 -5 -12 27
-20 33 -29 25 -7 -6 -10 -21 -8 -33 5 -20 4 -20 -16 5 -32 40 -28 59 14 56 19
-1 40 3 47 10 17 17 33 15 18 -3z m216 -48 c-5 -20 -11 -23 -31 -19 -31 5 -31
9 -3 39 25 27 44 17 34 -20z m3906 -19 c-4 -4 -54 -11 -110 -14 -93 -6 -102
-5 -96 9 7 20 5 20 112 17 62 -1 82 1 82 12 0 10 3 9 10 -2 5 -8 6 -18 2 -22z
m-3798 -74 c21 -20 23 -62 3 -56 -5 2 -13 -1 -16 -6 -9 -14 -71 16 -71 34 0
20 28 43 52 44 9 0 24 -7 32 -16z m-344 -14 c0 -5 -2 -10 -4 -10 -3 0 -8 5
-11 10 -3 6 -1 10 4 10 6 0 11 -4 11 -10z m152 -2 c3 -7 3 -39 2 -70 -2 -33 1
-58 6 -58 6 0 10 -4 10 -10 0 -5 -7 -10 -15 -10 -8 0 -15 9 -15 20 0 14 -5 18
-17 13 -17 -6 -17 -5 0 14 9 11 14 23 10 26 -11 12 -21 8 -26 -13 -8 -30 -24
-24 -32 10 -8 35 10 64 33 55 8 -3 16 3 19 15 6 23 19 26 25 8z m988 -24 c0
-8 -4 -14 -10 -14 -5 0 -10 9 -10 21 0 11 5 17 10 14 6 -3 10 -13 10 -21z
m-100 -70 c0 -8 -4 -14 -10 -14 -5 0 -10 8 -10 18 0 9 -3 28 -6 42 -5 23 -5
23 10 -4 9 -15 16 -35 16 -42z m-698 4 c-7 -7 -12 -8 -12 -2 0 14 12 26 19 19
2 -3 -1 -11 -7 -17z m-112 -28 c0 -5 -4 -10 -10 -10 -5 0 -10 5 -10 10 0 6 5
10 10 10 6 0 10 -4 10 -10z m-4430 -905 c0 -25 -1 -25 -85 -25 -76 0 -85 2
-85 18 0 29 8 32 92 32 77 0 78 0 78 -25z m-75 -204 c0 -30 -21 -39 -28 -11
-11 44 -27 19 -27 -44 0 -64 16 -98 27 -57 8 32 35 27 31 -6 -3 -25 -7 -28
-43 -28 l-40 0 -3 74 c-4 96 -1 103 45 99 33 -3 38 -6 38 -27z m55 -6 c0 -31
3 -35 26 -35 24 0 25 -2 22 -52 -4 -67 -28 -79 -28 -14 0 25 -4 46 -10 46 -5
0 -10 -20 -10 -45 0 -33 -4 -45 -15 -45 -12 0 -15 17 -15 90 0 73 3 90 15 90
10 0 15 -11 15 -35z m270 -12 c0 -45 0 -46 20 -28 19 18 20 17 20 -3 0 -11 -4
-23 -9 -27 -6 -3 -4 -20 5 -40 16 -38 2 -49 -22 -17 -13 16 -13 16 -14 -1 0
-10 -6 -17 -12 -15 -9 3 -14 33 -16 91 -2 73 0 87 13 87 11 0 15 -11 15 -47z
m410 39 c0 -4 -6 -14 -12 -20 -10 -10 -10 -17 0 -32 7 -12 8 -21 2 -25 -6 -3
-10 -26 -10 -51 0 -41 -11 -57 -25 -34 -8 14 -9 145 -1 159 8 13 46 15 46 3z
m520 -83 l0 -90 -32 3 c-32 3 -33 4 -36 55 -3 47 -1 52 20 55 17 2 23 10 24
33 2 36 1 35 14 35 6 0 10 -37 10 -91z m-846 62 c3 -5 -1 -11 -9 -15 -9 -3
-15 0 -15 9 0 16 16 20 24 6z m997 -18 c1 -5 2 -36 3 -71 2 -52 -1 -62 -14
-60 -10 2 -17 19 -21 48 -6 49 -11 45 -13 -10 -1 -33 -3 -35 -38 -38 -37 -3
-38 -3 -38 32 0 32 3 36 25 36 14 0 25 5 25 10 0 6 -11 8 -25 4 -19 -5 -25 -2
-25 10 0 12 10 16 45 16 33 0 45 4 45 15 0 15 29 22 31 8z m-1121 -44 c0 -10
-4 -19 -10 -19 -5 0 -10 5 -10 10 0 6 -4 10 -10 10 -5 0 -10 -17 -10 -37 1
-34 2 -36 14 -20 18 24 26 21 26 -9 0 -23 -3 -25 -32 -22 -32 3 -33 4 -36 55
-3 47 -1 52 20 55 33 6 48 -2 48 -23z m-80 -9 c0 -25 -4 -30 -25 -30 -16 0
-25 -6 -25 -15 0 -18 12 -19 28 -3 15 15 26 4 19 -17 -8 -20 -63 -20 -71 1 -8
21 -8 79 1 87 3 4 21 7 40 7 30 0 33 -3 33 -30z m208 -22 c-4 -74 -28 -77 -28
-4 0 44 3 56 16 56 12 0 14 -10 12 -52z m92 -4 c0 -67 -23 -72 -28 -6 -4 57
-22 53 -22 -4 0 -61 -25 -55 -26 7 -1 56 0 59 42 59 l34 0 0 -56z m106 11 c1
-22 0 -55 -3 -72 -5 -30 -9 -33 -39 -33 -25 0 -34 4 -34 16 0 12 6 15 25 10
14 -4 25 -2 25 3 0 5 -10 11 -22 13 -20 3 -23 10 -26 56 l-3 53 37 -3 c36 -3
38 -4 40 -43z m204 -10 l0 -55 -34 0 c-38 0 -45 12 -41 68 1 17 3 34 4 37 0 3
17 5 36 5 l35 0 0 -55z m100 35 c0 -21 -29 -28 -32 -7 0 6 -4 -8 -7 -32 -9
-68 -31 -65 -31 3 l0 56 35 0 c28 0 35 -4 35 -20z m90 -26 c0 -27 4 -43 10
-39 6 3 10 24 10 46 0 29 4 39 16 39 12 0 14 -10 12 -52 l-3 -53 -35 0 -35 0
-3 53 c-2 42 0 52 12 52 12 0 16 -11 16 -46z m148 -6 c-3 -46 -6 -53 -25 -56
-15 -2 -23 -10 -23 -23 0 -10 -7 -19 -15 -19 -12 0 -15 15 -15 75 l0 75 41 0
40 0 -3 -52z m438 41 c9 -15 -7 -32 -19 -20 -13 13 -27 14 -27 3 0 -5 12 -14
26 -20 36 -17 30 -56 -10 -60 -35 -4 -56 13 -37 30 11 10 14 10 18 1 3 -7 9
-13 14 -13 18 0 9 17 -21 39 -17 12 -29 16 -28 9 2 -7 -7 -14 -19 -16 -22 -3
-33 -32 -13 -32 6 0 10 5 10 10 0 6 5 10 10 10 6 0 10 -9 10 -21 0 -17 -5 -20
-32 -17 -32 3 -33 4 -36 55 l-3 52 76 -1 c41 0 78 -4 81 -9z m39 -89 c-3 -5
-10 -10 -16 -10 -5 0 -9 5 -9 10 0 6 7 10 16 10 8 0 12 -4 9 -10z m45 0 c0 -5
-4 -10 -9 -10 -6 0 -13 5 -16 10 -3 6 1 10 9 10 9 0 16 -4 16 -10z m50 0 c0
-5 -7 -10 -15 -10 -8 0 -15 5 -15 10 0 6 7 10 15 10 8 0 15 -4 15 -10z"/>
<path d="M6026 1955 c-10 -10 -24 -13 -41 -9 -19 5 -25 2 -25 -10 0 -9 8 -16
19 -16 26 0 91 28 91 40 0 15 -27 12 -44 -5z"/>
<path d="M6098 1963 c7 -3 16 -2 19 1 4 3 -2 6 -13 5 -11 0 -14 -3 -6 -6z"/>
<path d="M6300 1846 c0 -8 5 -18 10 -21 6 -3 10 1 10 9 0 8 -4 18 -10 21 -5 3
-10 -1 -10 -9z"/>
<path d="M6270 1814 c0 -8 5 -12 10 -9 6 4 8 11 5 16 -9 14 -15 11 -15 -7z"/>
<path d="M6220 1800 c0 -5 5 -10 10 -10 6 0 10 5 10 10 0 6 -4 10 -10 10 -5 0
-10 -4 -10 -10z"/>
<path d="M6180 1790 c0 -5 5 -10 11 -10 5 0 7 5 4 10 -3 6 -8 10 -11 10 -2 0
-4 -4 -4 -10z"/>
<path d="M5350 1604 c0 -8 5 -12 10 -9 6 3 10 10 10 16 0 5 -4 9 -10 9 -5 0
-10 -7 -10 -16z"/>
<path d="M2077 193 c-11 -10 -8 -51 3 -58 6 -4 10 8 10 29 0 37 -2 41 -13 29z"/>
<path d="M2180 146 c0 -9 5 -16 10 -16 6 0 10 4 10 9 0 6 -4 13 -10 16 -5 3
-10 -1 -10 -9z"/>
<path d="M1020 190 c0 -5 5 -10 10 -10 6 0 10 5 10 10 0 6 -4 10 -10 10 -5 0
-10 -4 -10 -10z"/>
<path d="M1430 164 c0 -21 4 -33 10 -29 6 3 10 19 10 36 0 16 -4 29 -10 29 -5
0 -10 -16 -10 -36z"/>
<path d="M1630 171 c0 -17 5 -33 10 -36 6 -4 10 8 10 29 0 20 -4 36 -10 36 -5
0 -10 -13 -10 -29z"/>
<path d="M1970 170 c0 -16 5 -30 10 -30 6 0 10 14 10 30 0 17 -4 30 -10 30 -5
0 -10 -13 -10 -30z"/>
<path d="M2330 190 c0 -5 5 -10 10 -10 6 0 10 5 10 10 0 6 -4 10 -10 10 -5 0
-10 -4 -10 -10z"/>
<path d="M5850 7354 c0 -17 6 -28 20 -31 11 -3 20 -9 20 -14 0 -5 8 -9 18 -9
15 0 18 6 14 30 -5 34 3 37 44 15 30 -15 54 -6 54 21 0 11 -19 14 -85 14 -85
0 -85 0 -85 -26z"/>
<path d="M6053 7349 c-7 -17 -21 -33 -32 -36 -12 -3 -21 -14 -21 -24 0 -10 -4
-20 -9 -23 -15 -10 -21 -67 -9 -89 6 -12 19 -28 30 -35 10 -8 18 -25 18 -43 0
-16 7 -46 15 -66 19 -45 19 -82 0 -103 -9 -10 -18 -41 -22 -71 -7 -64 -16 -79
-71 -119 -23 -17 -42 -37 -42 -45 0 -8 -9 -23 -21 -34 -14 -13 -19 -26 -15
-39 4 -11 2 -23 -4 -27 -6 -3 -8 -10 -5 -14 6 -11 -51 -125 -70 -141 -8 -6
-19 -9 -25 -5 -5 3 -10 1 -10 -4 0 -6 -11 -11 -24 -11 -16 0 -35 -13 -56 -40
-20 -25 -40 -40 -54 -40 -12 0 -37 -13 -56 -28 -19 -16 -51 -38 -70 -50 -45
-27 -54 -42 -80 -141 -12 -45 -28 -87 -34 -94 -6 -7 -22 -29 -36 -49 -14 -21
-31 -38 -37 -38 -7 0 -13 -4 -13 -8 0 -4 -22 -21 -49 -37 -29 -18 -47 -35 -44
-43 3 -7 2 -12 -3 -10 -18 6 -57 -30 -51 -46 4 -9 2 -16 -4 -16 -6 0 -7 -5 -3
-11 4 -7 14 -4 27 10 l21 21 28 -27 c26 -25 30 -26 55 -12 15 8 38 24 51 36
13 12 27 21 31 20 10 -3 75 26 89 39 6 7 12 17 12 23 0 6 14 43 32 82 29 64
33 70 56 64 15 -4 31 0 41 9 34 30 64 29 99 -5 25 -25 37 -30 58 -25 37 10 91
55 105 88 6 15 24 33 40 40 16 7 29 16 29 19 0 13 47 58 87 83 24 14 52 43 63
63 34 65 74 103 123 118 25 7 48 11 51 8 3 -4 6 -1 6 6 0 11 36 29 69 34 9 1
21 6 27 10 6 4 30 -3 52 -15 l40 -22 56 52 c73 66 124 82 166 52 17 -12 30
-25 30 -30 0 -16 71 -33 83 -21 18 18 -48 76 -118 103 -65 26 -67 29 -53 108
12 67 0 160 -21 160 -16 0 -81 -110 -81 -137 0 -7 -8 -13 -18 -13 -15 0 -18 8
-18 48 0 26 -3 59 -7 74 -6 22 -2 32 19 53 14 15 38 31 51 36 21 8 24 14 20
36 -6 31 1 55 14 48 4 -3 16 6 25 20 12 18 22 24 35 20 16 -5 19 -1 19 30 0
20 6 42 13 50 6 7 23 27 36 45 19 24 29 30 48 25 32 -8 96 40 88 66 -3 9 0 21
7 26 15 9 20 38 13 71 l-5 22 -388 0 -388 0 -11 -31z m414 -705 c12 -12 13
-18 4 -27 -10 -9 -16 -8 -27 7 -26 36 -8 51 23 20z"/>
<path d="M6860 7371 c0 -16 18 -22 23 -9 4 8 6 7 6 -4 2 -28 21 -31 21 -4 0
21 -5 26 -25 26 -14 0 -25 -4 -25 -9z"/>
<path d="M7445 7360 c-9 -27 1 -40 31 -40 20 0 24 5 24 30 0 25 -4 30 -24 30
-16 0 -27 -7 -31 -20z"/>
<path d="M7623 7368 c2 -7 10 -13 17 -13 7 0 15 6 18 13 2 7 -5 12 -18 12 -13
0 -20 -5 -17 -12z"/>
<path d="M8120 7370 c0 -5 5 -10 10 -10 6 0 10 5 10 10 0 6 -4 10 -10 10 -5 0
-10 -4 -10 -10z"/>
<path d="M8780 7370 c0 -6 5 -20 12 -33 6 -12 14 -28 18 -36 8 -18 37 -37 45
-30 3 4 0 29 -6 58 -10 47 -13 51 -40 51 -16 0 -29 -5 -29 -10z"/>
<path d="M8960 7361 c0 -17 4 -21 19 -16 13 4 23 -2 35 -20 9 -14 26 -25 39
-25 24 -1 67 -32 67 -49 0 -6 4 -11 9 -11 5 0 21 -24 35 -52 l24 -53 1 43 c1
51 21 57 21 6 0 -32 18 -64 36 -64 3 0 4 13 1 28 -10 51 9 57 24 8 12 -42 14
-44 30 -28 12 13 14 23 6 45 -5 16 -16 31 -23 34 -8 3 -11 9 -8 15 3 5 -3 16
-14 24 -15 10 -22 28 -24 62 -3 40 -6 47 -25 50 -13 2 -23 8 -23 13 0 5 -31 9
-70 9 -60 0 -70 -3 -70 -17 0 -13 -2 -15 -8 -5 -5 7 -25 15 -45 19 -33 5 -37
3 -37 -16z"/>
<path d="M9310 7375 c0 -3 7 -20 16 -37 18 -34 38 -26 32 13 -2 16 -11 25 -25
27 -13 2 -23 1 -23 -3z"/>
<path d="M9420 7370 c0 -5 5 -10 10 -10 6 0 10 5 10 10 0 6 -4 10 -10 10 -5 0
-10 -4 -10 -10z"/>
<path d="M9564 7364 c3 -9 9 -27 12 -40 3 -13 10 -24 15 -24 5 0 9 -9 9 -20 0
-11 4 -20 9 -20 11 0 21 25 21 56 0 19 5 24 25 24 14 0 30 -9 37 -20 7 -11 21
-20 31 -20 13 0 16 5 11 24 -4 16 -1 25 10 29 9 4 16 11 16 17 0 6 -38 10
-101 10 -88 0 -100 -2 -95 -16z"/>
<path d="M10068 7348 c13 -26 17 -29 20 -15 2 10 -2 24 -8 32 -22 26 -29 16
-12 -17z"/>
<path d="M10414 7352 c8 -16 21 -34 29 -41 13 -10 16 -8 22 8 9 30 -12 61 -41
61 -24 0 -24 -1 -10 -28z"/>
<path d="M10506 7368 c13 -23 37 -48 46 -48 4 0 8 14 8 30 0 27 -3 30 -31 30
-21 0 -28 -4 -23 -12z"/>
<path d="M10960 7360 c0 -24 35 -28 44 -4 9 23 8 24 -19 24 -18 0 -25 -5 -25
-20z"/>
<path d="M11070 7370 c0 -5 5 -10 10 -10 6 0 10 5 10 10 0 6 -4 10 -10 10 -5
0 -10 -4 -10 -10z"/>
<path d="M10711 7341 c-15 -28 -14 -44 3 -38 10 4 13 1 9 -9 -3 -9 2 -14 15
-14 29 0 35 15 20 47 -17 34 -34 39 -47 14z"/>
<path d="M9870 7343 c0 -5 6 -18 14 -29 17 -22 35 -11 20 13 -12 19 -34 29
-34 16z"/>
<path d="M9265 7320 c-8 -13 13 -60 27 -60 11 0 10 2 -6 40 -9 22 -16 28 -21
20z"/>
<path d="M10020 7316 c0 -9 5 -16 10 -16 6 0 10 4 10 9 0 6 -4 13 -10 16 -5 3
-10 -1 -10 -9z"/>
<path d="M11107 7323 c-3 -5 1 -30 7 -58 12 -47 14 -48 25 -26 10 18 10 26 -2
39 -8 9 -12 22 -10 29 5 13 -13 27 -20 16z"/>
<path d="M9490 7312 c0 -5 7 -13 16 -16 10 -4 14 -1 12 6 -5 15 -28 23 -28 10z"/>
<path d="M8950 7300 c-10 -7 -11 -10 -2 -10 6 0 12 -9 12 -20 0 -11 7 -20 15
-20 18 0 18 8 2 37 -9 16 -16 20 -27 13z"/>
<path d="M7440 7270 c0 -31 17 -39 38 -18 14 14 -2 48 -23 48 -10 0 -15 -10
-15 -30z"/>
<path d="M9750 7285 c0 -11 5 -27 10 -35 8 -12 10 -12 10 5 0 11 -5 27 -10 35
-8 12 -10 12 -10 -5z"/>
<path d="M10110 7291 c0 -6 5 -13 10 -16 6 -3 10 1 10 9 0 9 -4 16 -10 16 -5
0 -10 -4 -10 -9z"/>
<path d="M10217 7263 c6 -42 27 -88 44 -98 21 -13 21 5 0 40 -11 20 -21 49
-21 66 0 18 -5 29 -14 29 -11 0 -13 -9 -9 -37z"/>
<path d="M10320 7294 c0 -3 6 -12 14 -20 8 -7 16 -19 19 -26 3 -10 8 -10 17
-2 17 16 -4 54 -30 54 -11 0 -20 -3 -20 -6z"/>
<path d="M11041 7284 c0 -11 3 -14 6 -6 3 7 2 16 -1 19 -3 4 -6 -2 -5 -13z"/>
<path d="M11170 7297 c0 -1 9 -10 20 -20 19 -16 20 -16 20 3 0 13 -7 20 -20
20 -11 0 -20 -1 -20 -3z"/>
<path d="M5703 7266 c-13 -6 -23 -16 -23 -23 0 -15 26 -17 35 -3 3 6 15 10 26
10 10 0 19 7 19 15 0 17 -25 18 -57 1z"/>
<path d="M10620 7235 c0 -8 5 -15 10 -15 6 0 10 7 10 15 0 8 -4 15 -10 15 -5
0 -10 -7 -10 -15z"/>
<path d="M10996 7213 c4 -16 14 -36 24 -46 26 -28 33 2 9 42 -23 39 -42 41
-33 4z"/>
<path d="M9390 7210 c0 -5 4 -10 9 -10 6 0 13 5 16 10 3 6 -1 10 -9 10 -9 0
-16 -4 -16 -10z"/>
<path d="M5600 7153 c0 -12 70 -57 77 -49 3 3 1 17 -5 31 -9 19 -19 25 -42 25
-16 0 -30 -3 -30 -7z"/>
<path d="M11601 7124 c0 -11 3 -14 6 -6 3 7 2 16 -1 19 -3 4 -6 -2 -5 -13z"/>
<path d="M5709 7088 c-8 -18 -23 -35 -34 -37 -32 -5 -49 -22 -33 -32 38 -25
118 23 118 69 0 16 -17 32 -34 32 -1 0 -9 -15 -17 -32z"/>
<path d="M9720 7100 c0 -5 5 -10 10 -10 6 0 10 5 10 10 0 6 -4 10 -10 10 -5 0
-10 -4 -10 -10z"/>
<path d="M9520 7087 c0 -18 27 -53 35 -46 10 11 -6 59 -21 59 -8 0 -14 -6 -14
-13z"/>
<path d="M11560 7078 c1 -18 47 -50 55 -38 7 11 -25 50 -42 50 -7 0 -13 -6
-13 -12z"/>
<path d="M10230 7031 c0 -6 4 -13 10 -16 6 -3 7 1 4 9 -7 18 -14 21 -14 7z"/>
<path d="M11727 7014 c-12 -13 -8 -34 7 -34 8 0 17 -6 20 -12 3 -7 4 0 3 16
-2 29 -17 43 -30 30z"/>
<path d="M6621 6986 c-6 -7 -9 -20 -5 -29 3 -8 1 -25 -6 -36 -9 -19 -8 -21 14
-19 32 3 45 47 23 78 -12 17 -16 18 -26 6z"/>
<path d="M6675 6970 c3 -5 10 -10 16 -10 5 0 9 5 9 10 0 6 -7 10 -16 10 -8 0
-12 -4 -9 -10z"/>
<path d="M6562 6950 c0 -14 2 -19 5 -12 2 6 2 18 0 25 -3 6 -5 1 -5 -13z"/>
<path d="M12040 6923 c0 -13 6 -23 14 -23 8 0 17 -6 19 -12 3 -7 6 -8 6 -3 0
6 -8 21 -19 35 l-20 25 0 -22z"/>
<path d="M11870 6916 c0 -9 5 -16 10 -16 6 0 10 4 10 9 0 6 -4 13 -10 16 -5 3
-10 -1 -10 -9z"/>
<path d="M9516 6875 c8 -35 10 -39 17 -28 3 5 -1 19 -9 33 l-14 25 6 -30z"/>
<path d="M9733 6838 c15 -36 37 -49 37 -20 0 18 -28 52 -43 52 -4 0 -1 -14 6
-32z"/>
<path d="M4865 6820 c-3 -5 -1 -10 4 -10 6 0 11 5 11 10 0 6 -2 10 -4 10 -3 0
-8 -4 -11 -10z"/>
<path d="M12144 6765 c-5 -11 -3 -20 4 -23 7 -2 12 -11 12 -20 0 -11 3 -13 10
-6 7 7 6 20 -4 39 -14 26 -16 27 -22 10z"/>
<path d="M5048 6743 c7 -3 16 -2 19 1 4 3 -2 6 -13 5 -11 0 -14 -3 -6 -6z"/>
<path d="M9757 6730 c3 -10 14 -27 26 -37 20 -17 20 -17 14 0 -4 10 -7 23 -7
27 0 5 -9 14 -19 19 -16 9 -18 8 -14 -9z"/>
<path d="M4985 6630 c-4 -6 -3 -16 3 -22 6 -6 12 -6 17 2 4 6 3 16 -3 22 -6 6
-12 6 -17 -2z"/>
<path d="M9385 6570 c4 -6 11 -8 16 -5 14 9 11 15 -7 15 -8 0 -12 -5 -9 -10z"/>
<path d="M12400 6514 c0 -8 35 -44 42 -44 18 0 6 26 -17 37 -14 6 -25 9 -25 7z"/>
<path d="M4680 6480 c0 -19 11 -26 23 -14 8 8 -3 34 -14 34 -5 0 -9 -9 -9 -20z"/>
<path d="M9550 6486 c0 -8 5 -18 10 -21 6 -3 10 1 10 9 0 8 -4 18 -10 21 -5 3
-10 -1 -10 -9z"/>
<path d="M12620 6413 c0 -5 5 -15 10 -23 8 -12 10 -11 10 8 0 12 -4 22 -10 22
-5 0 -10 -3 -10 -7z"/>
<path d="M12505 6380 c-4 -6 0 -19 8 -28 8 -9 18 -36 22 -59 8 -53 29 -73 53
-50 13 13 14 20 4 29 -9 9 -12 9 -12 0 0 -7 -4 -12 -10 -12 -5 0 -10 7 -10 15
0 8 5 15 10 15 6 0 10 9 10 19 0 11 -4 23 -10 26 -5 3 -10 15 -10 26 0 10 -4
19 -9 19 -5 0 -16 3 -24 6 -8 3 -18 0 -22 -6z"/>
<path d="M3895 6270 c-3 -5 -1 -10 4 -10 6 0 11 5 11 10 0 6 -2 10 -4 10 -3 0
-8 -4 -11 -10z"/>
<path d="M3826 6231 c-4 -7 -5 -15 -2 -18 9 -9 19 4 14 18 -4 11 -6 11 -12 0z"/>
<path d="M6549 6228 c0 -2 -2 -12 -4 -22 -2 -11 -11 -23 -19 -28 -20 -11 -21
-28 -2 -28 20 0 66 50 59 66 -4 11 -31 21 -34 12z"/>
<path d="M12587 6130 c3 -11 9 -17 14 -14 14 8 10 34 -5 34 -9 0 -12 -7 -9
-20z"/>
<path d="M3660 5970 c-13 -8 -13 -13 0 -37 9 -16 24 -28 35 -28 26 0 95 -46
95 -63 0 -9 -10 -11 -35 -6 -27 5 -35 3 -35 -9 0 -21 44 -47 80 -47 16 0 30
-3 30 -8 0 -4 14 -13 30 -21 28 -12 33 -11 48 7 17 20 18 20 45 -4 36 -31 47
-30 47 1 0 17 -6 25 -17 25 -21 1 -63 33 -63 49 0 6 -11 11 -25 11 -15 0 -29
9 -36 22 -8 14 -14 18 -17 10 -2 -6 -8 -12 -13 -12 -4 0 -6 6 -3 13 5 15 -55
63 -73 59 -7 -2 -13 2 -13 7 0 6 -13 17 -30 26 -34 18 -31 17 -50 5z"/>
<path d="M3700 5870 c-12 -8 -9 -10 13 -10 16 0 26 4 22 10 -8 12 -16 12 -35
0z"/>
<path d="M5021 5765 c-16 -16 -21 -29 -16 -44 3 -11 11 -21 16 -21 5 0 11 0
14 0 3 0 5 3 6 8 2 18 24 32 50 32 16 0 29 5 29 10 0 6 -9 10 -20 10 -11 0
-20 4 -20 9 0 19 -36 16 -59 -4z"/>
<path d="M7413 5703 c-12 -2 -34 -18 -48 -35 -20 -24 -23 -33 -14 -44 17 -21
28 -17 65 20 48 48 80 54 113 22 15 -15 38 -26 51 -26 l23 0 -23 25 c-35 37
-98 51 -167 38z"/>
<path d="M4990 5664 c0 -14 3 -14 15 -4 8 7 15 14 15 16 0 2 -7 4 -15 4 -8 0
-15 -7 -15 -16z"/>
<path d="M14066 5641 c-4 -7 -5 -15 -2 -18 9 -9 19 4 14 18 -4 11 -6 11 -12 0z"/>
<path d="M4480 5628 c0 -9 5 -20 10 -23 13 -8 13 5 0 25 -8 13 -10 13 -10 -2z"/>
<path d="M14137 5603 c9 -27 24 -43 33 -38 11 7 -12 55 -27 55 -8 0 -10 -7 -6
-17z"/>
<path d="M14200 5561 c0 -6 5 -13 10 -16 6 -3 10 1 10 9 0 9 -4 16 -10 16 -5
0 -10 -4 -10 -9z"/>
<path d="M2010 5550 c0 -5 5 -10 10 -10 6 0 10 5 10 10 0 6 -4 10 -10 10 -5 0
-10 -4 -10 -10z"/>
<path d="M2080 5444 c0 -8 5 -12 10 -9 6 3 10 10 10 16 0 5 -4 9 -10 9 -5 0
-10 -7 -10 -16z"/>
<path d="M2140 5451 c0 -6 5 -13 10 -16 6 -3 10 1 10 9 0 9 -4 16 -10 16 -5 0
-10 -4 -10 -9z"/>
<path d="M7437 5441 c-3 -13 -1 -18 8 -14 19 7 27 33 11 33 -8 0 -16 -9 -19
-19z"/>
<path d="M11563 4869 c-5 -26 -9 -30 -30 -24 -17 4 -25 1 -29 -12 -18 -58 -43
-93 -80 -117 -23 -14 -46 -26 -51 -26 -5 0 -18 -9 -28 -20 -24 -27 -39 -25
-32 3 10 38 -5 50 -52 42 -32 -5 -42 -12 -47 -31 -8 -32 4 -44 20 -21 19 25
27 21 14 -8 -6 -14 -17 -25 -25 -25 -23 0 -14 -18 17 -33 25 -13 34 -13 67 -1
21 7 47 13 59 14 26 0 137 111 181 182 18 29 48 65 66 80 l32 27 -38 1 c-34 0
-38 -3 -44 -31z"/>
<path d="M13100 4830 c-13 -8 -12 -10 3 -10 9 0 17 5 17 10 0 12 -1 12 -20 0z"/>
<path d="M11385 4770 c-3 -5 -1 -10 4 -10 6 0 11 5 11 10 0 6 -2 10 -4 10 -3
0 -8 -4 -11 -10z"/>
<path d="M11138 4660 c-10 -9 -18 -24 -18 -34 0 -13 6 -15 28 -10 50 12 54 18
30 41 -22 20 -24 20 -40 3z"/>
<path d="M12998 4621 c-41 -17 -51 -41 -18 -41 11 0 20 -4 20 -10 0 -5 18 -10
40 -10 22 0 40 5 40 10 0 6 -9 10 -19 10 -14 0 -21 8 -23 28 l-3 28 -37 -15z"/>
<path d="M13280 4430 c0 -5 7 -10 16 -10 8 0 12 5 9 10 -3 6 -10 10 -16 10 -5
0 -9 -4 -9 -10z"/>
<path d="M823 3980 c0 -25 2 -35 4 -22 2 12 2 32 0 45 -2 12 -4 2 -4 -23z"/>
<path d="M12980 3812 c0 -5 14 -7 30 -4 17 2 30 6 30 8 0 2 -13 4 -30 4 -16 0
-30 -4 -30 -8z"/>
<path d="M8153 3483 c-52 -4 -54 -6 -114 -76 -34 -40 -75 -87 -91 -105 -23
-26 -27 -36 -18 -47 8 -10 6 -18 -11 -34 -13 -12 -29 -21 -36 -21 -18 0 -17
-4 13 -51 32 -51 64 -108 64 -114 0 -8 -96 -67 -210 -130 -58 -32 -115 -66
-128 -76 l-23 -18 26 -17 c20 -13 29 -14 38 -5 8 8 8 11 -1 11 -7 0 -12 7 -12
15 0 8 7 15 16 15 8 0 12 -5 9 -10 -3 -6 7 -18 24 -28 17 -9 31 -25 31 -36 0
-15 3 -16 15 -6 23 19 19 -6 -5 -30 -26 -26 -31 -25 -57 12 l-22 31 -12 -26
c-11 -24 -10 -30 9 -50 12 -13 22 -26 22 -30 0 -3 11 -18 25 -33 14 -15 25
-22 25 -16 0 6 -4 14 -10 17 -5 3 -10 12 -10 18 0 7 8 3 16 -8 8 -11 13 -30
11 -43 -2 -12 0 -25 4 -28 5 -3 9 -14 9 -25 0 -10 4 -19 9 -19 5 0 12 -8 15
-17 3 -10 23 -27 45 -39 35 -19 41 -19 65 -7 24 13 30 12 54 -4 17 -11 53 -20
97 -23 l70 -5 25 -47 c30 -56 74 -94 133 -114 35 -12 46 -22 58 -50 7 -20 32
-50 54 -67 22 -18 42 -35 43 -39 9 -21 20 6 12 27 -7 19 -5 33 11 60 12 19 25
35 30 35 5 0 10 8 10 18 1 9 4 4 8 -13 l7 -30 17 30 c11 21 16 24 17 13 1 -63
60 40 60 105 0 47 14 67 50 70 20 1 26 13 32 66 2 13 12 29 23 35 11 6 50 30
86 53 37 24 75 43 85 43 18 1 18 1 0 15 -19 15 -19 15 2 15 12 0 22 -4 22 -10
0 -5 5 -10 10 -10 13 0 13 37 0 45 -6 4 -4 12 5 22 10 9 13 23 9 35 -3 11 -2
30 4 42 28 60 53 159 43 169 -6 6 -11 19 -11 29 0 9 -6 21 -13 25 -18 11 -49
58 -42 65 3 3 7 24 10 48 4 46 5 45 -62 25 -18 -6 -25 -2 -32 17 -5 13 -16 30
-25 37 -9 8 -24 29 -33 48 -14 29 -14 36 -2 43 7 5 10 13 5 17 -5 4 -11 2 -13
-4 -5 -15 -33 -18 -33 -3 0 5 7 13 16 18 11 6 14 16 10 30 -6 18 -10 19 -39
10 -38 -13 -167 -107 -167 -122 0 -6 -11 3 -25 19 -19 23 -24 26 -25 12 0 -16
-2 -16 -25 -1 -37 24 -39 12 -5 -26 17 -19 27 -37 22 -42 -9 -9 -92 21 -92 34
0 18 -50 28 -73 14 -12 -8 -33 -17 -46 -21 -20 -6 -23 -5 -17 11 4 10 1 21 -6
25 -15 9 10 36 52 57 29 14 68 36 124 71 58 37 25 38 -39 2 -30 -17 -58 -31
-62 -31 -15 0 -78 -23 -90 -32 -9 -7 -15 -5 -19 6 -4 10 -18 16 -36 16 -23 0
-29 4 -24 16 3 9 6 19 6 24 0 5 9 12 21 15 11 4 40 20 64 36 24 16 47 29 53
29 5 0 15 7 22 15 11 13 5 15 -46 13 -33 -1 -83 -3 -111 -5z m-39 -172 c6 -10
-24 -25 -32 -16 -3 3 1 5 9 5 11 0 11 2 -1 10 -13 8 -13 10 2 10 9 0 19 -4 22
-9z m173 -192 c-3 -12 2 -23 14 -29 28 -16 23 -30 -11 -30 -19 0 -30 -5 -30
-14 0 -17 -18 -31 -27 -22 -4 3 -7 16 -9 29 -1 12 -3 25 -3 30 -1 4 -8 7 -16
7 -8 0 -15 7 -15 15 0 8 6 15 14 15 7 0 26 7 42 14 32 17 48 11 41 -15z m99
-74 c-8 -8 -20 -15 -27 -15 -7 0 -4 6 7 15 25 19 40 19 20 0z m244 5 c0 -9
-31 -30 -44 -30 -4 0 -1 9 6 20 13 21 38 27 38 10z m-590 -33 c0 -19 -10 -27
-26 -20 -21 8 -17 33 6 33 11 0 20 -6 20 -13z m458 -33 c9 -10 16 -33 17 -55
0 -27 4 -38 12 -35 16 7 52 -44 60 -86 6 -30 5 -32 -10 -19 -9 7 -17 19 -17
25 0 6 -13 19 -29 29 -16 9 -38 37 -50 62 -23 50 -28 80 -9 69 8 -5 9 -2 5 9
-8 21 0 22 21 1z m-203 -20 c13 -21 19 -24 26 -13 10 16 11 15 38 -39 36 -72
42 -92 26 -85 -9 3 -15 -1 -15 -11 0 -9 4 -16 9 -16 5 0 13 -10 17 -22 6 -20
8 -21 13 -6 5 13 18 -2 55 -62 47 -78 48 -80 32 -106 -25 -36 -68 -30 -77 11
-22 94 -74 205 -121 256 -21 23 -32 44 -30 57 3 20 0 22 -48 18 -47 -4 -50 -3
-34 9 11 8 27 15 36 15 9 0 20 5 23 10 11 18 32 11 50 -16z m-195 -89 c14 -25
7 -47 -9 -29 -14 14 -23 54 -13 54 5 0 15 -11 22 -25z m-338 -14 c-13 -8 -9
-46 8 -66 8 -9 8 -15 0 -20 -5 -3 -10 -1 -10 4 0 6 -3 10 -7 10 -21 -3 -33 2
-33 16 0 8 -8 15 -17 16 -11 0 -13 3 -5 6 6 2 12 11 12 18 0 7 12 18 28 23 29
10 44 6 24 -7z m386 -92 c-3 -9 -12 0 -22 21 l-18 35 22 -21 c12 -12 20 -28
18 -35z m502 -70 c0 -23 -26 -32 -50 -16 -21 12 -28 47 -10 47 6 0 10 8 10 17
0 14 4 12 25 -7 14 -13 25 -31 25 -41z m-466 26 c10 -8 16 -21 13 -29 -4 -9 0
-21 7 -29 17 -17 30 -57 18 -57 -5 0 -15 12 -22 28 -8 15 -19 34 -26 42 -16
20 -27 60 -17 60 4 0 16 -7 27 -15z m96 -209 c0 -18 -2 -18 -14 -6 -7 8 -17
28 -21 45 l-7 30 21 -24 c12 -13 21 -33 21 -45z m30 35 c0 -6 -4 -13 -10 -16
-5 -3 -10 1 -10 9 0 9 5 16 10 16 6 0 10 -4 10 -9z"/>
<path d="M8986 3412 c-2 -4 -1 -14 4 -22 7 -11 14 -12 27 -4 27 17 27 34 -1
34 -13 0 -27 -4 -30 -8z"/>
<path d="M565 3330 c-3 -5 3 -10 14 -10 12 0 21 5 21 10 0 6 -6 10 -14 10 -8
0 -18 -4 -21 -10z"/>
<path d="M8345 3270 c-3 -5 -1 -10 4 -10 6 0 11 5 11 10 0 6 -2 10 -4 10 -3 0
-8 -4 -11 -10z"/>
<path d="M7600 3250 c0 -5 9 -10 20 -10 11 0 20 5 20 10 0 6 -9 10 -20 10 -11
0 -20 -4 -20 -10z"/>
<path d="M2385 3210 c3 -5 8 -10 11 -10 2 0 4 5 4 10 0 6 -5 10 -11 10 -5 0
-7 -4 -4 -10z"/>
<path d="M9148 3187 c-34 -13 -43 -35 -24 -56 7 -9 17 -26 20 -38 4 -13 10
-23 14 -24 4 0 14 -2 24 -4 12 -2 15 3 13 21 -1 13 2 24 6 24 10 0 12 51 3 74
-7 18 -17 19 -56 3z"/>
<path d="M7695 3150 c3 -5 2 -10 -3 -10 -21 0 -20 -31 1 -51 26 -25 94 -58
120 -59 17 0 17 2 -3 27 -34 43 -58 57 -75 43 -9 -8 -15 -8 -15 -2 0 6 6 12
13 15 8 3 7 10 -7 26 -19 21 -43 30 -31 11z"/>
<path d="M8995 3130 c3 -5 8 -10 11 -10 2 0 4 5 4 10 0 6 -5 10 -11 10 -5 0
-7 -4 -4 -10z"/>
<path d="M8988 3096 c-10 -7 -18 -17 -18 -21 0 -4 8 -14 18 -21 12 -9 17 -25
15 -58 -1 -28 4 -49 13 -57 8 -6 14 -18 14 -25 0 -9 11 -14 30 -14 43 0 51 27
17 56 -15 12 -22 24 -16 26 5 2 -2 25 -16 53 -14 28 -25 56 -25 63 0 15 -10
15 -32 -2z"/>
<path d="M4627 2992 c-8 -9 -18 -27 -21 -39 -6 -17 -15 -23 -38 -23 -23 0 -29
-4 -24 -15 3 -8 0 -15 -6 -15 -6 0 -3 -8 8 -19 22 -22 44 -10 24 14 -10 12
-10 15 4 15 9 0 25 -6 36 -12 25 -16 42 -1 46 39 2 15 10 33 18 39 14 9 12 12
-8 22 -19 9 -27 7 -39 -6z"/>
<path d="M5338 2819 c-34 -36 -35 -60 -3 -95 23 -25 24 -28 10 -61 -8 -20 -15
-40 -15 -45 0 -11 61 -3 89 12 9 5 24 11 34 14 25 8 21 25 -8 36 -26 10 -32
24 -15 35 15 9 12 52 -6 86 -11 22 -20 28 -34 24 -12 -4 -20 0 -22 9 -2 11
-10 7 -30 -15z"/>
<path d="M4440 2751 c0 -5 5 -13 10 -16 6 -3 10 -2 10 4 0 5 -4 13 -10 16 -5
3 -10 2 -10 -4z"/>
<path d="M4400 2695 c0 -8 6 -15 14 -15 8 0 16 7 20 15 4 10 -1 15 -14 15 -11
0 -20 -7 -20 -15z"/>
<path d="M4414 2649 c-16 -10 -34 -17 -41 -15 -6 3 -17 -2 -25 -11 -12 -15 -9
-16 23 -10 22 3 41 1 48 -6 10 -9 16 -7 27 7 31 43 12 64 -32 35z"/>
<path d="M7637 2613 c-7 -11 19 -53 34 -53 14 0 11 12 -10 39 -10 13 -21 19
-24 14z"/>
<path d="M4750 2569 c0 -5 5 -7 10 -4 6 3 10 8 10 11 0 2 -4 4 -10 4 -5 0 -10
-5 -10 -11z"/>
<path d="M4901 2504 c0 -11 3 -14 6 -6 3 7 2 16 -1 19 -3 4 -6 -2 -5 -13z"/>
<path d="M7492 2480 c-18 -29 -5 -46 19 -24 10 9 19 23 19 31 0 20 -24 16 -38
-7z"/>
<path d="M4842 2454 c4 -21 22 -23 26 -1 2 10 -3 17 -13 17 -10 0 -15 -6 -13
-16z"/>
<path d="M7600 2405 c0 -8 9 -15 19 -15 26 0 35 16 15 24 -25 10 -34 7 -34 -9z"/>
<path d="M4355 2280 c3 -5 10 -10 16 -10 5 0 9 5 9 10 0 6 -7 10 -16 10 -8 0
-12 -4 -9 -10z"/>
<path d="M4285 2249 c7 -11 35 -12 35 -1 0 4 -9 8 -20 9 -11 1 -18 -2 -15 -8z"/>
<path d="M7801 2218 c-21 -21 -20 -49 1 -90 12 -25 25 -22 53 8 29 32 30 36
10 74 -18 36 -37 38 -64 8z"/>
<path d="M5713 2190 c1 -22 26 -26 58 -10 31 17 22 30 -20 30 -34 0 -40 -3
-38 -20z"/>
<path d="M5465 2170 c3 -5 8 -10 11 -10 2 0 4 5 4 10 0 6 -5 10 -11 10 -5 0
-7 -4 -4 -10z"/>
<path d="M8490 2169 c0 -5 5 -7 10 -4 6 3 10 8 10 11 0 2 -4 4 -10 4 -5 0 -10
-5 -10 -11z"/>
<path d="M7905 2150 c-22 -24 -17 -30 50 -63 36 -19 54 -23 67 -16 10 5 29 7
43 3 23 -6 25 -3 25 27 0 34 0 34 -73 52 -91 21 -90 21 -112 -3z"/>
<path d="M8460 2151 c0 -6 5 -13 10 -16 6 -3 10 1 10 9 0 9 -4 16 -10 16 -5 0
-10 -4 -10 -9z"/>
<path d="M4435 2140 c-7 -11 18 -24 35 -18 6 2 1 9 -9 15 -13 8 -22 9 -26 3z"/>
<path d="M4490 2121 c0 -6 5 -13 10 -16 6 -3 10 1 10 9 0 9 -4 16 -10 16 -5 0
-10 -4 -10 -9z"/>
<path d="M4373 2093 c-18 -2 -33 -10 -33 -17 0 -22 45 -57 64 -50 31 12 42 77
12 72 -6 0 -26 -3 -43 -5z"/>
<path d="M4323 1993 c-13 -2 -23 -7 -23 -10 0 -11 46 -42 63 -43 19 0 20 4 11
38 -6 22 -10 23 -51 15z"/>
<path d="M3225 1960 c-3 -5 -12 -7 -19 -4 -21 8 -31 -46 -11 -65 12 -13 19
-13 35 -3 11 6 32 12 46 12 20 0 25 4 20 16 -3 9 -6 18 -6 20 0 3 -4 2 -10 -1
-5 -3 -10 3 -10 14 0 22 -33 30 -45 11z"/>
<path d="M8074 1955 c-10 -8 -27 -15 -36 -15 -26 0 -32 -19 -12 -41 9 -10 20
-19 24 -19 13 0 80 66 80 78 0 17 -32 15 -56 -3z"/>
<path d="M5078 1943 c7 -3 16 -2 19 1 4 3 -2 6 -13 5 -11 0 -14 -3 -6 -6z"/>
<path d="M3500 1884 c0 -11 5 -14 16 -10 9 3 20 6 25 6 6 0 7 5 4 10 -10 16
-45 12 -45 -6z"/>
<path d="M4580 1754 c0 -22 2 -25 15 -14 8 7 15 19 15 26 0 8 -7 14 -15 14
-10 0 -15 -10 -15 -26z"/>
<path d="M8530 1532 c0 -4 9 -15 20 -25 26 -22 90 -23 90 -2 0 11 -11 15 -40
15 -22 0 -40 5 -40 10 0 6 -7 10 -15 10 -8 0 -15 -3 -15 -8z"/>
<path d="M8480 1476 c0 -9 7 -16 16 -16 17 0 14 22 -4 28 -7 2 -12 -3 -12 -12z"/>
</g>
</svg>
