<?xml version="1.0" encoding="UTF-8"?>
<svg version="1.1" xmlns="http://www.w3.org/2000/svg" width="225" height="225">
<path d="M0 0 C74.25 0 148.5 0 225 0 C225 74.25 225 148.5 225 225 C150.75 225 76.5 225 0 225 C0 150.75 0 76.5 0 0 Z " fill="#4379A1" transform="translate(0,0)"/>
<path d="M0 0 C0.33 0 0.66 0 1 0 C1 34.65 1 69.3 1 105 C-33.65 105 -68.3 105 -104 105 C-104 104.67 -104 104.34 -104 104 C-103.01644531 103.93683594 -102.03289062 103.87367188 -101.01953125 103.80859375 C-77.03852616 101.85562855 -56.3751375 92.11586032 -38 77 C-37.32453125 76.47792969 -36.6490625 75.95585937 -35.953125 75.41796875 C-16.99772195 60.33190256 -3.91107763 33.54378149 -0.87597656 9.68261719 C-0.52521529 6.45752425 -0.23754099 3.23547215 0 0 Z " fill="#FDFDFD" transform="translate(224,120)"/>
<path d="M0 0 C34.65 0 69.3 0 105 0 C105 33.66 105 67.32 105 102 C104.67 102 104.34 102 104 102 C103.81824219 100.88882813 103.63648438 99.77765625 103.44921875 98.6328125 C99.57955571 75.49556073 91.43112202 55.83860911 76 38 C75.35804688 37.16339844 74.71609375 36.32679687 74.0546875 35.46484375 C70.30814162 30.97041323 65.60282394 27.57722827 61 24 C60.21496094 23.38769531 59.42992187 22.77539062 58.62109375 22.14453125 C41.41862026 9.42459738 21.18934388 2.55567335 0 1 C0 0.67 0 0.34 0 0 Z " fill="#FDFDFE" transform="translate(120,0)"/>
<path d="M0 0 C0.33 0 0.66 0 1 0 C1.06316406 0.98355469 1.12632813 1.96710938 1.19140625 2.98046875 C3.14437145 26.96147384 12.88413968 47.6248625 28 66 C28.52207031 66.67546875 29.04414063 67.3509375 29.58203125 68.046875 C47.08727714 90.041939 75.26536406 99.93024725 102 104 C102 104.33 102 104.66 102 105 C68.34 105 34.68 105 0 105 C0 70.35 0 35.7 0 0 Z " fill="#FDFDFE" transform="translate(0,120)"/>
<path d="M0 0 C33.66 0 67.32 0 102 0 C102 0.33 102 0.66 102 1 C100.88882813 1.18175781 99.77765625 1.36351563 98.6328125 1.55078125 C75.57581341 5.40702218 55.71307028 13.49773398 38 29 C37.45633789 29.44013428 36.91267578 29.88026855 36.35253906 30.33374023 C14.56505203 48.19455248 5.09292933 75.11311462 1 102 C0.67 102 0.34 102 0 102 C0 68.34 0 34.68 0 0 Z " fill="#FDFDFE" transform="translate(0,0)"/>
<path d="M0 0 C3.93303666 3.64525349 5.67688419 7.28597334 5.99609375 12.6171875 C6.01319281 14.16136421 6.01417886 15.70579371 6 17.25 C6.0299707 18.39662109 6.0299707 18.39662109 6.06054688 19.56640625 C6.05552628 25.48066353 4.50492946 29.25925136 1.5625 34.375 C3.2125 35.035 4.8625 35.695 6.5625 36.375 C6.1875 38.3125 6.1875 38.3125 5.5625 40.375 C4.5725 40.87 4.5725 40.87 3.5625 41.375 C2.61375 40.75625 1.665 40.1375 0.6875 39.5 C-2.75350408 37.37191572 -5.48060772 37.09228405 -9.5 36.9375 C-13.35969933 36.72978151 -15.99189278 36.5618701 -19.0625 34.125 C-24.71068109 27.58500084 -24.1970933 19.54188638 -23.68457031 11.32861328 C-23.00343548 5.94280206 -20.0876115 2.88367337 -16.25 -0.625 C-10.61582371 -2.62826268 -5.40422725 -2.55472561 0 0 Z " fill="#E5882C" transform="translate(151.4375,110.625)"/>
<path d="M0 0 C2.97 0 5.94 0 9 0 C11.64 8.25 14.28 16.5 17 25 C19.41663017 18.95842458 21.74898414 13.04165264 23.75 6.875 C23.97042969 6.2046875 24.19085938 5.534375 24.41796875 4.84375 C24.94816741 3.23010191 25.47452413 1.61519221 26 0 C28.64 0 31.28 0 34 0 C35.96304764 12.39173821 36.23753035 24.4730148 36 37 C34.02 37 32.04 37 30 37 C29.97494385 36.40050537 29.9498877 35.80101074 29.92407227 35.18334961 C29.80714227 32.43456676 29.68486053 29.68604625 29.5625 26.9375 C29.52318359 25.99455078 29.48386719 25.05160156 29.44335938 24.08007812 C29.21274604 18.98884522 28.8300873 14.02935244 28 9 C27.75765625 9.87140625 27.5153125 10.7428125 27.265625 11.640625 C21.58415842 31.83168317 21.58415842 31.83168317 19 37 C17.35 37 15.7 37 14 37 C12.68254324 33.10582522 11.37190802 29.2093878 10.0625 25.3125 C9.68931641 24.20970703 9.31613281 23.10691406 8.93164062 21.97070312 C8.57392578 20.90400391 8.21621094 19.83730469 7.84765625 18.73828125 C7.51773682 17.75899658 7.18781738 16.77971191 6.84790039 15.77075195 C6 13 6 13 5 8 C4.67 17.57 4.34 27.14 4 37 C2.02 37 0.04 37 -2 37 C-2.31736781 24.53449769 -1.34425755 12.38637314 0 0 Z " fill="#F7F8FA" transform="translate(34,110)"/>
<path d="M0 0 C4.12546057 0.2750307 5.30563973 1.13641529 8.75 3.25 C10.4733745 3.67033524 12.20358906 4.06299469 13.9375 4.4375 C23.91063791 7.02809975 31.43965075 14.63929351 36.75 23.25 C43.75 36.40130261 43.75 36.40130261 43.75 40.25 C44.719375 40.415 45.68875 40.58 46.6875 40.75 C52.12648537 42.24349189 55.81133533 46.40957867 59.75 50.25 C59.255 51.24 59.255 51.24 58.75 52.25 C56.10139573 52.84355614 53.45802678 52.99209269 50.75 53.25 C50.75 53.91 50.75 54.57 50.75 55.25 C51.471875 55.45625 52.19375 55.6625 52.9375 55.875 C56.6755306 57.70248163 58.24246917 59.95438806 60.75 63.25 C49.80612245 59.27040816 49.80612245 59.27040816 47.3125 54.5 C47.126875 53.7575 46.94125 53.015 46.75 52.25 C49.93762365 50.12491756 52.01512223 49.7479837 55.75 49.25 C54.77417969 48.71890625 53.79835937 48.1878125 52.79296875 47.640625 C51.50755439 46.92754842 50.22241232 46.21398083 48.9375 45.5 C48.29490234 45.15195313 47.65230469 44.80390625 46.99023438 44.4453125 C40.97617826 41.07993395 38.8312888 37.62602038 35.99829102 31.61450195 C30.47765149 19.92111507 24.83550276 12.14205643 12.421875 7.3515625 C7.91820292 5.80438264 3.32933978 4.5528388 -1.25 3.25 C-0.77949219 4.19101562 -0.30898437 5.13203125 0.17578125 6.1015625 C3.92578125 13.6015625 3.92578125 13.6015625 4.84667969 15.47631836 C5.66001744 17.07331803 6.56154585 18.62465929 7.47265625 20.16796875 C9.15250789 24.22118876 9.046855 27.6075011 8.875 31.9375 C8.61940297 37.6684379 8.61940297 37.6684379 9.75 43.25 C10.41 43.58 11.07 43.91 11.75 44.25 C11.688125 43.321875 11.62625 42.39375 11.5625 41.4375 C11.75 38.25 11.75 38.25 13.26171875 36.55078125 C13.75285156 36.12152344 14.24398437 35.69226563 14.75 35.25 C15.94714555 37.20245185 17.13248074 39.16214997 18.3125 41.125 C19.30443359 42.76082031 19.30443359 42.76082031 20.31640625 44.4296875 C20.78949219 45.36039063 21.26257813 46.29109375 21.75 47.25 C21.42 47.91 21.09 48.57 20.75 49.25 C19.1 47.27 17.45 45.29 15.75 43.25 C14.76 44.57 13.77 45.89 12.75 47.25 C10.04750549 46.87724214 8.95064865 46.46551151 7.0625 44.4375 C3.943194 39.23865667 4.22887316 33.63849802 5.5 27.8125 C5.79658596 23.5861501 4.82483886 21.69677089 2.79296875 18.09765625 C1.75 16.25 1.75 16.25 0.75 13.5625 C-0.19509737 11.06801507 -0.19509737 11.06801507 -2.375 8.75 C-4.49387732 5.92483024 -4.72826293 4.69349313 -4.25 1.25 C-3.25 0.25 -3.25 0.25 0 0 Z " fill="#EDF1F5" transform="translate(131.25,46.75)"/>
<path d="M0 0 C3.6875 0.3125 3.6875 0.3125 6.0625 2.1875 C9.03888442 6.07969501 8.9037052 9.38105487 8.9375 14.125 C8.958125 14.83720703 8.97875 15.54941406 9 16.28320312 C9.03379987 20.85041059 8.46199773 23.66928817 5.6875 27.3125 C3.6875 29.3125 3.6875 29.3125 0.3125 29.75 C-3.3125 29.3125 -3.3125 29.3125 -5.6875 27 C-9.36245247 20.92219398 -8.9143439 14.21786683 -8.3125 7.3125 C-6.64747925 3.01371914 -4.61161078 0.43505762 0 0 Z " fill="#4378A1" transform="translate(142.3125,113.6875)"/>
<path d="M0 0 C1.98 0 3.96 0 6 0 C6.176521 0.5347998 6.35304199 1.06959961 6.53491211 1.62060547 C7.33420816 4.03925798 8.13582545 6.45713487 8.9375 8.875 C9.21529297 9.71675781 9.49308594 10.55851563 9.77929688 11.42578125 C10.18051758 12.63427734 10.18051758 12.63427734 10.58984375 13.8671875 C10.83597412 14.61081543 11.08210449 15.35444336 11.33569336 16.12060547 C11.97562425 18.05422313 11.97562425 18.05422313 13 20 C15.27049345 12.28589279 15.27049345 12.28589279 16.625 4.375 C17 1 17 1 18 0 C19.99958364 -0.04080783 22.00045254 -0.04254356 24 0 C21.65712358 13.37905746 19.08066429 26.32055655 9.0625 36.125 C6 38 6 38 2.125 37.8125 C1.09375 37.544375 0.0625 37.27625 -1 37 C-1 36.01 -1 35.02 -1 34 C1.31 33.34 3.62 32.68 6 32 C7.73170333 25.22459243 5.8276514 20.21698592 3.5625 13.75 C2.8935287 11.7876842 2.22800054 9.82419023 1.56640625 7.859375 C1.26677979 6.99795898 0.96715332 6.13654297 0.65844727 5.24902344 C0 3 0 3 0 0 Z " fill="#F3F6F8" transform="translate(74,119)"/>
<path d="M0 0 C0.639375 0.33 1.27875 0.66 1.9375 1 C1.6075 2.32 1.2775 3.64 0.9375 5 C-3.3525 5 -7.6425 5 -12.0625 5 C-12.07104151 8.35499168 -12.07104151 8.35499168 -11.0625 12 C-8.84593651 13.79737665 -7.10551808 14.97657895 -4.625 16.25 C1.73935497 19.70278246 1.73935497 19.70278246 3.9375 23 C4.27811873 26.0169088 4.50962107 28.09407815 3.9375 31 C1.76175584 33.69105198 0.02684144 35.45532928 -3.0625 37 C-4.83020327 37.12240135 -6.60310462 37.17551153 -8.375 37.1875 C-9.79232422 37.20876953 -9.79232422 37.20876953 -11.23828125 37.23046875 C-14.20656882 36.98824335 -16.37117165 36.24026607 -19.0625 35 C-18.7325 33.68 -18.4025 32.36 -18.0625 31 C-17.546875 31.165 -17.03125 31.33 -16.5 31.5 C-12.18540849 32.38504441 -8.24123852 32.39291284 -4.0625 31 C-3.52979478 27.67673591 -3.52979478 27.67673591 -4.0625 24 C-6.26846297 22.17619681 -7.93860399 21.05931204 -10.4375 19.8125 C-17.81750928 15.94114898 -17.81750928 15.94114898 -19.0625 12 C-19.52222376 8.97895814 -19.66275379 6.96174492 -18.01171875 4.31640625 C-13.01194022 -1.8337638 -7.40546271 -2.41811027 0 0 Z " fill="#E6882B" transform="translate(121.0625,110)"/>
<path d="M0 0 C1.98 0 3.96 0 6 0 C6 10.56 6 21.12 6 32 C9.96 32 13.92 32 18 32 C18 33.65 18 35.3 18 37 C12.06 37 6.12 37 0 37 C0 24.79 0 12.58 0 0 Z " fill="#E5882E" transform="translate(163,110)"/>
<path d="M0 0 C1.32 0.66 2.64 1.32 4 2 C3.34 2.66 2.68 3.32 2 4 C2.38671875 4.61746094 2.7734375 5.23492187 3.171875 5.87109375 C4.82373344 8.5574081 6.4163311 11.2729994 8 14 C8.42539063 14.68320312 8.85078125 15.36640625 9.2890625 16.0703125 C12.82532343 22.55769765 12.28838608 29.12826215 12.04296875 36.3046875 C11.79909873 39.94269094 11.79909873 39.94269094 13 43 C13.66 43.33 14.32 43.66 15 44 C14.938125 43.071875 14.87625 42.14375 14.8125 41.1875 C15 38 15 38 16.51171875 36.30078125 C17.00285156 35.87152344 17.49398437 35.44226563 18 35 C19.19714555 36.95245185 20.38248074 38.91214997 21.5625 40.875 C22.55443359 42.51082031 22.55443359 42.51082031 23.56640625 44.1796875 C24.03949219 45.11039063 24.51257813 46.04109375 25 47 C24.67 47.66 24.34 48.32 24 49 C22.35 47.02 20.7 45.04 19 43 C18.01 44.32 17.02 45.64 16 47 C13.29750549 46.62724214 12.20064865 46.21551151 10.3125 44.1875 C7.193194 38.98865667 7.47887316 33.38849802 8.75 27.5625 C9.04658596 23.3361501 8.07483886 21.44677089 6.04296875 17.84765625 C5 16 5 16 4 13.3125 C3.05490263 10.81801507 3.05490263 10.81801507 0.875 8.5 C-1.24387732 5.67483024 -1.47826293 4.44349313 -1 1 C-0.67 0.67 -0.34 0.34 0 0 Z " fill="#E5EBF0" transform="translate(128,47)"/>
<path d="M0 0 C2.48982535 2.27745789 4.10368997 4.62335238 5.75 7.5625 C6.19859375 8.34753906 6.6471875 9.13257812 7.109375 9.94140625 C7.40328125 10.62074219 7.6971875 11.30007812 8 12 C7.67 12.66 7.34 13.32 7 14 C5.35 12.02 3.7 10.04 2 8 C1.3503125 8.99 1.3503125 8.99 0.6875 10 C0.130625 10.66 -0.42625 11.32 -1 12 C-1.99 12 -2.98 12 -4 12 C-4 11.34 -4 10.68 -4 10 C-3.34 10 -2.68 10 -2 10 C-2.04125 8.906875 -2.0825 7.81375 -2.125 6.6875 C-2 3 -2 3 0 0 Z " fill="#F6F7F9" transform="translate(145,82)"/>
<path d="M0 0 C3.25836161 3.25836161 2.8867275 7.58572911 3.4375 12.03125 C3.73166199 15.10706858 3.73166199 15.10706858 6 17 C5.01 17.33 4.02 17.66 3 18 C-1.05057727 13.06886245 -1.23041038 9.33628539 -1 3 C-0.67 2.01 -0.34 1.02 0 0 Z " fill="#D9E1E9" transform="translate(137,75)"/>
<path d="M0 0 C9.41002278 -0.3690205 9.41002278 -0.3690205 14 2 C13.67 3.32 13.34 4.64 13 6 C10.03 5.67 7.06 5.34 4 5 C4.99 4.34 5.98 3.68 7 3 C4.69 2.34 2.38 1.68 0 1 C0 0.67 0 0.34 0 0 Z " fill="#D4863D" transform="translate(109,109)"/>
<path d="M0 0 C1.98 0 3.96 0 6 0 C6 0.66 6 1.32 6 2 C6.66 2 7.32 2 8 2 C8 1.34 8 0.68 8 0 C8.66 0 9.32 0 10 0 C10 1.65 10 3.3 10 5 C8.02 5 6.04 5 4 5 C4 3.68 4 2.36 4 1 C3.34 1 2.68 1 2 1 C1.67 2.32 1.34 3.64 1 5 C0.67 3.35 0.34 1.7 0 0 Z " fill="#BE8356" transform="translate(184,142)"/>
<path d="M0 0 C3.01657791 0.14030595 5.23841273 0.29351465 7.51171875 2.40234375 C8.73256066 3.88904235 9.87246522 5.44134898 11 7 C7.7169902 8.6415049 4.57454967 7.51888624 1 7 C1 6.67 1 6.34 1 6 C2.98 5.67 4.96 5.34 7 5 C3.535 3.02 3.535 3.02 0 1 C0 0.67 0 0.34 0 0 Z " fill="#E2E9EF" transform="translate(180,91)"/>
<path d="M0 0 C2.23960447 2.87949147 4.29864224 5.76742026 6 9 C5.67 9.66 5.34 10.32 5 11 C3.35 9.02 1.7 7.04 0 5 C-0.99 5.495 -0.99 5.495 -2 6 C-2 4.68 -2 3.36 -2 2 C-1.34 2 -0.68 2 0 2 C0 1.34 0 0.68 0 0 Z " fill="#D9E2E9" transform="translate(147,85)"/>
<path d="M0 0 C1.32 0.66 2.64 1.32 4 2 C3.34 2.66 2.68 3.32 2 4 C2.66 5.32 3.32 6.64 4 8 C3.34 8.66 2.68 9.32 2 10 C-0.05619793 7.68677733 -0.95899829 6.44076838 -1.25 3.3125 C-1 1 -1 1 0 0 Z " fill="#D9E2EA" transform="translate(128,47)"/>
<path d="M0 0 C0.33 0 0.66 0 1 0 C1.33 3.96 1.66 7.92 2 12 C1.34 12 0.68 12 0 12 C-1.53166168 7.91556885 -0.63081652 4.20544343 0 0 Z " fill="#3276A6" transform="translate(126,125)"/>
<path d="M0 0 C1.98 0.99 1.98 0.99 4 2 C3.67 4.31 3.34 6.62 3 9 C2.67 9 2.34 9 2 9 C1.34 6.03 0.68 3.06 0 0 Z " fill="#F5F8F9" transform="translate(136,68)"/>
</svg>
