<?xml version="1.0" encoding="UTF-8"?>
<svg version="1.1" xmlns="http://www.w3.org/2000/svg" width="287" height="175">
<path d="M0 0 C94.71 0 189.42 0 287 0 C287 57.75 287 115.5 287 175 C192.29 175 97.58 175 0 175 C0 117.25 0 59.5 0 0 Z " fill="#FEFEFE" transform="translate(0,0)"/>
<path d="M0 0 C14.90337246 11.64266034 25.82140559 29.13528035 28.56640625 48.02734375 C30.99514198 68.34125215 26.98484385 87.46269225 15.03515625 104.37109375 C12.20335961 107.88273571 9.19489705 111.15313327 6.03515625 114.37109375 C5.35839844 115.07234375 4.68164062 115.77359375 3.984375 116.49609375 C-9.90319425 129.88674433 -28.50936441 135.72168862 -47.42578125 135.53491211 C-69.15593451 135.13679896 -86.8934587 126.85227477 -101.96484375 111.37109375 C-102.65320313 110.68015625 -103.3415625 109.98921875 -104.05078125 109.27734375 C-117.74521339 94.68589641 -122.8734817 74.69463678 -122.33984375 55.16796875 C-121.31332305 37.29184405 -113.71499417 21.65489834 -101.96484375 8.37109375 C-101.44664063 7.75878906 -100.9284375 7.14648438 -100.39453125 6.515625 C-74.53345228 -21.8795798 -29.56853139 -21.89401751 0 0 Z " fill="#FC6C35" transform="translate(189.96484375,27.62890625)"/>
<path d="M0 0 C2.08666992 0.87011719 2.08666992 0.87011719 2.96166992 2.99511719 C3.08666992 5.87011719 3.08666992 5.87011719 1.81713867 7.53808594 C0.28653533 9.04718197 -1.27054514 10.48446381 -2.91333008 11.87011719 C-0.93333008 10.55011719 1.04666992 9.23011719 3.08666992 7.87011719 C1.63340601 18.97862763 -10.42108316 30.32771493 -18.71411133 37.18652344 C-19.80272461 38.01990234 -19.80272461 38.01990234 -20.91333008 38.87011719 C-24.07448783 37.50028216 -24.90603928 36.88105339 -26.91333008 33.87011719 C-24.93333008 31.89011719 -22.95333008 29.91011719 -20.91333008 27.87011719 C-22.89333008 29.52011719 -24.87333008 31.17011719 -26.91333008 32.87011719 C-28.23333008 32.21011719 -29.55333008 31.55011719 -30.91333008 30.87011719 C-30.91333008 26.39932354 -27.95358629 24.42319067 -24.96411133 21.41699219 C-24.35448044 20.7973761 -23.74484955 20.17776001 -23.116745 19.53936768 C-21.82352195 18.23094554 -20.52618316 16.9265806 -19.22509766 15.62597656 C-17.23517332 13.62949123 -15.27044773 11.61029635 -13.3059082 9.58886719 C-12.04761804 8.32177527 -10.78789828 7.05610108 -9.52661133 5.79199219 C-8.64662224 4.87966827 -8.64662224 4.87966827 -7.74885559 3.94891357 C-3.57187989 -0.15924245 -3.57187989 -0.15924245 0 0 Z " fill="#FDFAF8" transform="translate(169.913330078125,61.1298828125)"/>
<path d="M0 0 C2.25 2.5625 2.25 2.5625 4 5 C-5.80715817 13.46876952 -16.79767641 19.61510697 -28 26 C-28 28.31 -28 30.62 -28 33 C-29.12588014 32.04270084 -30.2506715 31.08412105 -31.375 30.125 C-32.00148438 29.59132813 -32.62796875 29.05765625 -33.2734375 28.5078125 C-34.55836651 27.38567993 -35.79371975 26.20628025 -37 25 C-33.7698841 21.59572807 -30.51658592 18.21599341 -27.24047852 14.85595703 C-26.13140396 13.71186586 -25.02871454 12.56154646 -23.93286133 11.40478516 C-9.81193154 -3.48030591 -9.81193154 -3.48030591 0 0 Z " fill="#FEFBFA" transform="translate(143,97)"/>
<path d="M0 0 C0 3 0 3 -1.36328125 4.43969727 C-2.00652344 4.95588623 -2.64976562 5.4720752 -3.3125 6.00390625 C-8.8662703 10.65776007 -13.9036727 15.79487422 -19 20.9375 C-19.97502386 21.9175531 -20.9502828 22.8973724 -21.92578125 23.87695312 C-24.28616618 26.24902313 -26.64416905 28.6234086 -29 31 C-32.32635882 29.47427344 -33.95563002 28.06655496 -36 25 C-11.5549942 -0.52522701 -11.5549942 -0.52522701 0 0 Z " fill="#FEFCFA" transform="translate(167,58)"/>
<path d="M0 0 C0.53625 0.33 1.0725 0.66 1.625 1 C0.17589321 4.76767766 -2.24257012 6.86244919 -5.23046875 9.4375 C-6.60102569 10.95120141 -6.60102569 10.95120141 -6.2109375 13.0234375 C-4.95797082 15.98605965 -2.65512211 17.77834256 -0.375 20 C-0.375 20.66 -0.375 21.32 -0.375 22 C-7.98906844 22.76140684 -7.98906844 22.76140684 -11.2734375 20.95703125 C-14.08725084 18.61676211 -16.16904018 16.71858273 -16.61328125 13.01171875 C-16.74300555 8.94929982 -16.74932746 6.62833539 -14.625 3.0625 C-10.17598739 -1.01576156 -5.84833341 -2.46245617 0 0 Z " fill="#FDF9F7" transform="translate(184.375,41)"/>
<path d="M0 0 C1 3 1 3 -0.1875 5.453125 C-3.54168304 10.62897642 -6.85995788 15.23261695 -11.375 19.4453125 C-12.94149076 20.94402241 -14.27624901 22.49313157 -15.625 24.1875 C-17.89141527 26.87141282 -20.1881363 28.91118697 -23 31 C-26.16115776 29.63016497 -26.9927092 29.0109362 -29 26 C-10.37372574 5.52813454 -10.37372574 5.52813454 -3 3 C-1.22722741 1.47992158 -1.22722741 1.47992158 0 0 Z " fill="#FDE9E1" transform="translate(172,69)"/>
<path d="M0 0 C2.6690036 2.55295997 3.88428838 3.98173778 4.3125 7.75 C3.92590899 11.77054653 2.41771035 13.82675517 0 17 C-3.43595166 15.47291037 -6.11912454 13.40072955 -9 11 C-7.59155282 7.78475695 -5.89655214 5.67816132 -3.375 3.25 C-2.74335938 2.63640625 -2.11171875 2.0228125 -1.4609375 1.390625 C-0.73777344 0.70226563 -0.73777344 0.70226563 0 0 Z " fill="#FCEBE4" transform="translate(187,44)"/>
<path d="M0 0 C2.64752004 2.57784846 4.94432065 4.91648098 7 8 C2.48382401 8.07654536 -1.59085217 8.10228696 -6 7 C-4.02 4.69 -2.04 2.38 0 0 Z " fill="#FDF6F3" transform="translate(105,123)"/>
<path d="M0 0 C3.16115776 1.36983503 3.9927092 1.9890638 6 5 C1.66579301 7.03165952 -2.28596212 7.52060632 -7 8 C-6.02133662 6.85373678 -5.04205413 5.70800212 -4.0625 4.5625 C-3.51722656 3.92441406 -2.97195312 3.28632812 -2.41015625 2.62890625 C-1.63204305 1.73008851 -0.84063472 0.84063472 0 0 Z " fill="#FDF6F4" transform="translate(129,85)"/>
<path d="M0 0 C0.9075 0.804375 1.815 1.60875 2.75 2.4375 C5.10309908 4.41142671 6.86938046 5.63877467 10 6 C9.814375 6.61875 9.62875 7.2375 9.4375 7.875 C8.76313824 10.04160178 8.76313824 10.04160178 10 12 C7.69 12.33 5.38 12.66 3 13 C3 10.33333333 3 7.66666667 3 5 C2.505 4.505 2.01 4.01 1.5 3.5 C1.005 3.005 0.51 2.51 0 2 C0 1.34 0 0.68 0 0 Z " fill="#FA9E79" transform="translate(130,83)"/>
<path d="M0 0 C3.7952131 1.49097658 5.61042731 3.75700849 8 7 C5 7 5 7 2.3125 4.625 C0 2 0 2 0 0 Z " fill="#FA946B" transform="translate(106,123)"/>
</svg>
