<?xml version="1.0" standalone="no"?>
<!DOCTYPE svg PUBLIC "-//W3C//DTD SVG 20010904//EN"
 "http://www.w3.org/TR/2001/REC-SVG-20010904/DTD/svg10.dtd">
<svg version="1.0" xmlns="http://www.w3.org/2000/svg"
 width="1024.000000pt" height="683.000000pt" viewBox="0 0 1024.000000 683.000000"
 preserveAspectRatio="xMidYMid meet">

<g transform="translate(0.000000,683.000000) scale(0.100000,-0.100000)"
fill="#000000" stroke="none">
<path d="M0 3415 l0 -3415 3466 0 3466 0 -7 50 c-5 34 -3 55 5 65 8 9 10 28 5
52 -3 21 -7 56 -8 77 -2 36 2 42 47 74 45 32 51 33 90 24 22 -6 84 -13 137
-17 75 -4 104 -2 134 11 21 9 48 14 59 11 209 -46 252 -50 307 -31 45 17 51
17 111 0 35 -10 71 -22 80 -27 10 -5 24 -9 31 -9 11 0 14 -24 9 -67 -3 -22
-67 -52 -128 -58 -59 -7 -61 -8 -59 -35 1 -14 5 -32 9 -38 16 -26 -8 -32 -114
-29 -107 2 -110 1 -137 -25 l-28 -28 1383 0 1382 0 0 3415 0 3415 -1185 0
-1185 0 0 -22 c0 -13 3 -40 6 -60 6 -34 11 -39 46 -48 37 -10 44 -30 11 -30
-9 0 -24 -6 -32 -14 -14 -13 -24 -12 -81 6 -36 11 -69 24 -74 29 -5 4 -2 25 8
49 9 22 16 52 16 65 l0 25 -204 0 -204 0 5 -47 c6 -52 26 -83 54 -83 10 0 34
-8 53 -17 35 -18 45 -36 26 -48 -15 -9 -12 -25 5 -25 8 0 21 12 30 28 l15 27
-1 -30 c-2 -58 0 -67 17 -61 8 3 26 -1 39 -10 13 -9 30 -14 37 -11 7 2 20 -2
29 -10 26 -22 107 -19 162 7 44 21 49 21 66 6 9 -9 22 -16 28 -16 6 0 13 -6
16 -14 4 -9 -4 -16 -21 -21 -15 -4 -34 -12 -42 -19 -20 -18 -78 -28 -85 -16
-3 6 -14 10 -25 10 -10 0 -20 7 -24 15 -3 8 -11 15 -18 15 -17 0 -48 -36 -48
-55 0 -18 -45 -21 -56 -4 -4 6 -20 8 -40 5 -19 -3 -50 -9 -70 -12 -24 -4 -39
-14 -46 -30 -14 -31 -26 -30 -38 1 -11 30 -40 33 -47 5 -3 -11 -14 -20 -25
-20 -10 0 -29 -6 -41 -14 -41 -25 -75 -28 -86 -7 -9 16 -20 18 -78 15 -58 -3
-70 -1 -91 19 -19 18 -24 19 -32 7 -6 -9 -21 -14 -38 -12 -20 2 -31 -2 -35
-12 -9 -23 -26 -19 -39 9 -7 15 -19 25 -33 25 -28 0 -65 40 -65 71 0 17 11 33
31 48 27 20 31 28 26 57 -7 41 8 54 59 56 32 0 47 9 81 43 28 29 46 57 52 84
l9 41 -1798 0 c-1661 0 -1798 -1 -1796 -16 0 -9 -5 -19 -11 -21 -8 -3 -13 4
-13 16 0 20 -5 21 -151 21 l-152 0 5 -50 c4 -39 2 -50 -10 -50 -10 0 -12 7 -8
25 4 14 4 36 0 50 -5 22 -12 25 -49 25 -29 0 -45 -5 -49 -15 -3 -8 -10 -15
-16 -15 -5 0 -10 7 -10 15 0 8 -7 15 -14 15 -11 0 -16 -15 -19 -52 l-3 -53 -2
53 -2 52 -149 0 -149 0 5 -45 c3 -24 2 -52 -3 -62 -6 -13 -10 -1 -14 42 l-5
60 -146 3 -146 3 5 -33 c2 -18 9 -39 14 -45 11 -14 -5 -24 -32 -21 -8 1 -36
-2 -63 -6 -56 -10 -83 4 -66 35 5 10 16 19 24 19 7 0 17 9 20 21 6 17 13 20
36 15 15 -3 31 -1 34 4 4 6 -99 10 -283 10 -262 0 -290 -2 -296 -17 -8 -20 12
-35 37 -27 12 4 17 0 17 -13 1 -17 1 -17 14 0 13 17 14 17 21 0 5 -15 9 -13
20 14 10 23 19 31 29 27 9 -3 16 -12 16 -20 0 -21 23 -17 38 6 15 25 38 16 47
-17 9 -37 -9 -54 -45 -42 -19 7 -35 7 -48 0 -11 -6 -22 -7 -26 -4 -7 8 -35 11
-98 12 l-48 1 0 40 0 40 -350 0 c-227 0 -350 -4 -350 -10 0 -5 9 -10 19 -10
27 0 50 -26 44 -49 -6 -24 -78 -45 -130 -38 -72 10 -149 47 -97 47 10 0 14 5
10 15 -3 10 1 18 12 21 9 3 26 9 37 14 11 5 -186 9 -457 9 l-478 1 0 -3415z
m529 3387 c6 -12 5 -23 -4 -35 -13 -18 -14 -18 -25 3 -9 16 -9 25 1 36 15 18
16 18 28 -4z m161 2 c25 -5 30 -11 30 -34 0 -15 -7 -34 -16 -41 -14 -11 -19
-10 -37 11 -13 16 -21 21 -24 13 -7 -21 -49 -15 -65 9 -14 20 -13 24 6 40 21
18 27 18 106 2z m585 -4 c6 -5 21 -10 35 -12 19 -2 25 -9 25 -28 0 -20 -6 -26
-30 -28 -16 -2 -34 -8 -39 -13 -18 -17 -46 -9 -56 16 -5 14 -16 25 -25 25 -21
0 -19 16 7 39 21 20 57 20 83 1z m1179 2 c-1 -6 -2 -28 -2 -48 -2 -28 -6 -35
-19 -32 -13 2 -18 13 -18 43 -1 22 1 44 3 48 6 13 37 3 36 -11z m192 -7 c3
-14 3 -36 0 -50 -5 -20 -10 -24 -23 -17 -19 11 -26 61 -11 79 16 20 27 16 34
-12z m462 13 c17 -17 15 -54 -4 -83 -22 -33 -30 -25 -32 30 -3 63 9 80 36 53z
m122 -51 c0 -22 -4 -28 -17 -25 -19 3 -29 47 -18 76 6 15 8 15 21 -2 8 -11 14
-33 14 -49z m215 53 c3 -5 -1 -10 -9 -10 -19 0 -22 -36 -3 -43 6 -2 9 -8 5
-12 -12 -13 -28 6 -28 34 0 38 20 55 35 31z m158 3 c8 -7 -11 -33 -24 -33 -5
0 -9 9 -9 20 0 19 20 27 33 13z m52 -33 c0 -44 -21 -50 -28 -8 -5 37 0 51 16
45 7 -2 12 -19 12 -37z m285 30 c0 -10 -59 -22 -71 -14 -5 3 -7 9 -4 14 6 10
75 11 75 0z m-3491 -14 c15 -18 -1 -30 -30 -21 -16 5 -18 10 -8 21 15 18 23
18 38 0z m1022 1 c28 2 39 -20 31 -59 -3 -18 -35 -34 -39 -21 -11 29 -22 36
-36 25 -18 -15 -67 3 -67 24 0 21 42 45 65 37 11 -4 32 -6 46 -6z m237 -41
c-2 -16 -13 -22 -43 -27 -22 -4 -41 -6 -43 -4 -2 1 -5 19 -9 38 -5 34 -4 36
28 39 40 4 71 -17 67 -46z m873 42 c1 -7 0 -17 -1 -23 -1 -5 -3 -15 -4 -22 -4
-21 -17 -28 -26 -13 -7 12 -11 12 -27 -2 -12 -11 -24 -14 -32 -9 -19 12 -3 33
19 26 13 -4 19 1 23 25 5 21 12 30 27 30 11 0 21 -6 21 -12z m686 -15 c13 -32
12 -67 -2 -70 -6 -2 -10 12 -11 30 0 17 -4 40 -8 50 -5 9 -4 17 0 17 5 0 14
-12 21 -27z m23 18 c0 -6 -4 -13 -10 -16 -5 -3 -10 1 -10 9 0 9 5 16 10 16 6
0 10 -4 10 -9z m100 -10 c0 -11 3 -26 6 -35 7 -19 -23 -33 -38 -18 -14 14 0
72 18 72 8 0 14 -9 14 -19z m748 0 c3 -9 -2 -11 -16 -7 -13 5 -32 0 -48 -11
l-27 -18 18 28 c13 20 24 26 43 24 14 -2 28 -9 30 -16z m2518 8 c3 -6 7 -44 8
-85 l2 -74 -38 -25 c-33 -22 -49 -26 -99 -23 -56 3 -59 4 -59 28 0 44 11 67
36 79 20 9 24 18 24 54 0 24 3 47 7 50 11 11 111 8 119 -4z m-4494 -24 c-3
-16 -11 -25 -23 -25 -22 0 -23 4 -7 30 18 28 36 25 30 -5z m1688 14 c0 -4 11
-10 25 -13 14 -4 25 -10 25 -15 0 -13 -53 -20 -72 -10 -25 14 -24 48 2 46 11
-1 20 -4 20 -8z m-1032 -10 c-2 -6 -8 -10 -13 -10 -5 0 -11 4 -13 10 -2 6 4
11 13 11 9 0 15 -5 13 -11z m62 -4 c0 -9 -6 -12 -15 -9 -8 4 -15 10 -15 15 0
5 7 9 15 9 8 0 15 -7 15 -15z m-670 -10 c0 -8 -2 -15 -4 -15 -2 0 -11 -3 -19
-6 -12 -4 -14 0 -10 15 6 24 33 29 33 6z m840 -10 c0 -28 -15 -33 -24 -8 -4 9
-1 20 6 25 18 11 18 11 18 -17z m6019 12 c12 -15 5 -27 -16 -27 -7 0 -13 9
-13 20 0 23 13 26 29 7z m75 5 c9 -15 -11 -34 -35 -30 -22 3 -22 4 -5 21 19
18 32 22 40 9z m-5549 -20 c0 -18 -20 -15 -23 4 -3 10 1 15 10 12 7 -3 13 -10
13 -16z m-100 -2 c3 -5 -1 -10 -9 -10 -9 0 -16 5 -16 10 0 6 4 10 9 10 6 0 13
-4 16 -10z m55 -2 c0 -4 -4 -8 -9 -8 -6 0 -12 4 -15 8 -3 5 1 9 9 9 8 0 15 -4
15 -9z m4930 -8 c0 -11 5 -20 10 -20 6 0 10 -7 10 -15 0 -8 -9 -15 -20 -15
-11 0 -20 -4 -20 -9 0 -16 -64 -38 -105 -37 -50 3 -85 24 -85 52 0 26 17 34
71 34 21 0 39 4 39 9 0 9 23 14 83 19 11 1 17 -5 17 -18z m-4770 -30 c0 -5 -9
-10 -21 -10 -11 0 -17 5 -14 10 3 6 13 10 21 10 8 0 14 -4 14 -10z m-360 -10
c0 -5 -11 -10 -25 -10 -14 0 -25 5 -25 10 0 6 11 10 25 10 14 0 25 -4 25 -10z
m5070 -121 c8 -15 18 -19 33 -15 12 2 30 -1 40 -9 18 -13 18 -14 0 -38 -13
-19 -31 -26 -68 -30 -27 -4 -71 -9 -96 -13 -63 -9 -89 6 -89 51 0 30 4 35 28
40 15 3 45 12 67 20 56 19 73 18 85 -6z m-1802 -54 c12 -14 22 -27 22 -30 0
-12 -66 -64 -80 -64 -28 0 -85 35 -81 50 2 8 4 21 5 29 3 14 61 37 97 39 8 1
25 -10 37 -24z m-5816 -241 c24 -12 36 -14 55 -5 17 8 30 8 44 0 15 -7 27 -6
49 5 27 13 32 13 51 -3 21 -17 21 -18 5 -49 -19 -36 -31 -39 -58 -16 -12 12
-21 14 -30 7 -26 -21 -176 -33 -273 -22 -33 3 -67 3 -75 -1 -8 -4 -24 -4 -35
0 -11 4 -30 4 -43 -1 -20 -8 -22 -6 -16 19 9 38 14 41 69 48 28 3 59 10 70 14
49 22 148 24 187 4z m6032 -140 c27 -4 46 -12 46 -19 0 -24 32 -26 53 -4 14
15 22 18 30 10 6 -6 22 -11 36 -11 14 0 35 -10 47 -21 20 -19 26 -20 53 -8 16
7 28 17 25 21 -7 11 37 31 46 21 4 -4 10 -17 12 -27 5 -28 26 -31 30 -4 4 29
38 38 38 9 0 -20 17 -38 26 -28 3 3 7 13 8 24 3 22 41 25 41 3 0 -11 14 -16
53 -18 46 -3 53 -1 50 15 -2 10 4 19 14 21 12 2 17 -5 20 -25 4 -36 42 -45 51
-12 l6 22 19 -23 c19 -24 18 -24 81 9 20 11 25 11 33 -3 7 -13 26 -16 87 -16
64 0 80 -3 85 -16 5 -13 14 -15 39 -10 17 4 55 9 82 11 28 3 66 7 85 11 56 9
123 6 147 -7 17 -9 30 -8 65 10 52 25 62 26 78 6 9 -10 28 -13 73 -10 61 3 87
-6 87 -30 0 -7 -8 -16 -17 -19 -10 -3 -29 -13 -43 -21 -35 -20 -69 -19 -109 6
l-35 21 -19 -26 c-10 -14 -29 -26 -41 -26 -12 0 -32 -7 -45 -16 -22 -16 -24
-16 -33 0 -9 17 -34 15 -91 -6 -21 -8 -31 -7 -45 4 -18 16 -41 13 -55 -6 -5
-7 -11 -5 -18 7 -5 9 -16 17 -24 17 -8 0 -18 -8 -24 -17 -8 -14 -12 -15 -22
-6 -10 10 -18 8 -36 -9 l-23 -21 -23 21 c-21 20 -24 20 -39 6 -10 -10 -21 -13
-30 -8 -7 5 -26 9 -43 11 -16 1 -45 5 -63 8 -29 7 -37 3 -61 -23 -19 -22 -33
-30 -48 -26 -12 3 -31 1 -43 -6 -16 -9 -25 -9 -36 1 -12 9 -20 9 -39 -1 -37
-20 -76 -15 -95 10 l-18 23 -11 -21 c-15 -27 -28 -28 -36 -2 -5 16 -10 18 -25
10 -10 -5 -20 -20 -24 -33 -11 -44 -86 -58 -86 -16 0 22 -13 24 -32 6 -28 -28
-277 -48 -348 -28 -15 4 -26 15 -28 29 -2 12 -14 30 -28 41 -13 10 -27 33 -30
50 -5 25 -1 36 20 58 15 14 31 46 37 70 l11 43 53 0 c29 0 73 -3 99 -6z m1776
-111 c-1 -36 -91 -55 -98 -21 -2 13 6 18 35 21 21 2 44 4 51 5 6 1 12 -1 12
-5z m-6453 -235 c-3 -7 -5 -2 -5 12 0 14 2 19 5 13 2 -7 2 -19 0 -25z m-397
-8 c0 -5 -10 -10 -22 -10 -19 0 -20 2 -8 10 19 13 30 13 30 0z m-706 -9 c3 -5
15 -7 25 -4 12 3 23 -2 29 -14 13 -26 8 -68 -9 -68 -8 0 -28 -6 -45 -13 -30
-13 -55 -13 -261 0 -18 1 -35 8 -38 15 -7 21 12 52 33 51 9 0 37 5 62 12 25 7
64 13 87 14 23 1 45 5 49 9 10 10 62 9 68 -2z m-625 -47 c35 -12 50 -13 72 -4
33 14 71 4 67 -17 -2 -8 -16 -22 -31 -31 -24 -15 -29 -15 -37 -2 -8 13 -14 10
-33 -14 -18 -22 -28 -27 -45 -22 -12 4 -31 2 -42 -4 -14 -8 -30 -8 -53 -1 -18
6 -44 13 -59 16 -15 3 -29 14 -33 25 -17 55 99 87 194 54z m6753 -69 c12 -27
24 -32 30 -13 4 10 14 9 49 -2 57 -18 63 -23 55 -54 -6 -25 -10 -26 -71 -26
-48 0 -65 -4 -65 -13 0 -27 -100 -52 -114 -28 -6 9 -145 2 -161 -8 -5 -4 -61
-5 -124 -2 l-114 6 -13 50 c-11 46 -11 52 7 71 16 17 36 23 91 26 62 5 128 -6
128 -22 0 -3 41 -4 92 -3 75 2 96 6 117 23 36 29 78 26 93 -5z m294 0 c16 -8
39 -12 54 -8 14 3 22 2 18 -2 -11 -12 19 -36 36 -29 12 5 16 0 16 -19 0 -25
-20 -37 -67 -37 -13 0 -23 -4 -23 -10 0 -13 -64 -13 -88 -1 -9 5 -25 12 -35
15 -26 8 -19 55 13 83 29 27 38 28 76 8z m195 -12 c7 -61 3 -78 -18 -81 -20
-3 -23 1 -23 26 0 40 9 62 26 62 8 0 14 -3 15 -7z m-6769 -150 c21 -18 24 -66
6 -81 -17 -13 -114 -33 -130 -27 -7 3 -60 6 -118 8 -58 1 -111 6 -117 10 -7 5
-13 22 -13 38 0 25 5 30 30 36 17 3 33 10 36 14 8 13 44 11 44 -2 0 -8 11 -9
33 -4 27 6 129 19 191 24 11 0 28 -6 38 -16z m6174 -172 c20 -30 24 -47 19
-69 -12 -57 -25 -61 -216 -68 -215 -7 -224 -4 -224 74 1 89 25 97 277 100
l118 2 26 -39z m-5148 -224 c6 -5 12 -21 12 -36 0 -32 -24 -59 -35 -41 -4 7
-11 8 -18 2 -23 -19 -93 -24 -109 -9 -10 10 -20 12 -31 5 -25 -13 -21 3 6 27
13 11 29 29 34 40 9 17 21 20 70 20 32 0 64 -4 71 -8z m1352 -93 c0 -35 -4
-64 -9 -64 -6 0 -7 15 -4 34 3 19 1 48 -5 65 -10 30 -6 45 9 35 5 -3 9 -34 9
-70z m-1658 41 c9 -20 8 -28 -6 -44 -15 -16 -22 -18 -48 -9 -21 8 -33 7 -41
-1 -6 -6 -19 -11 -29 -11 -22 0 -24 37 -4 65 13 19 15 19 33 3 18 -17 20 -16
36 2 23 27 45 25 59 -5z m1599 2 c-13 -13 -26 -3 -16 12 3 6 11 8 17 5 6 -4 6
-10 -1 -17z m96 1 c-3 -8 -6 -5 -6 6 -1 11 2 17 5 13 3 -3 4 -12 1 -19z
m-1899 -14 c26 9 50 -20 35 -42 -6 -10 -19 -17 -29 -17 -11 0 -25 -4 -32 -8
-7 -5 -28 -6 -47 -3 -18 4 -36 2 -39 -3 -3 -5 -22 -12 -42 -15 -38 -8 -64 5
-64 31 0 19 67 46 95 39 17 -4 27 1 39 19 16 24 18 24 41 9 13 -9 33 -13 43
-10z m5246 -9 c9 -9 16 -27 16 -39 0 -13 6 -28 13 -33 14 -12 62 -24 92 -24
11 0 27 -7 37 -16 16 -14 22 -14 67 6 27 11 64 21 81 21 18 0 33 6 37 15 5 14
7 13 19 -3 8 -13 30 -21 59 -24 25 -3 49 -8 52 -12 6 -6 -57 -71 -96 -98 -12
-9 -24 -22 -25 -29 -6 -29 -19 -49 -32 -49 -7 0 -17 -8 -23 -17 -8 -16 -23
-18 -118 -15 -143 3 -165 10 -175 50 -9 32 -50 61 -123 87 -32 11 -42 35 -44
100 -1 59 8 83 33 87 70 10 115 8 130 -7z m-3544 -4 c0 -12 -28 -22 -34 -12
-3 5 -3 11 1 15 9 9 33 7 33 -3z m-288 -78 c3 -35 1 -63 -3 -63 -8 0 -18 121
-11 135 8 13 10 2 14 -72z m-1742 54 c27 -21 39 -61 26 -80 -16 -20 -132 -21
-140 0 -7 18 -45 16 -52 -2 -4 -8 -17 -15 -31 -15 -13 0 -38 -7 -54 -16 -28
-14 -32 -14 -48 0 -10 9 -32 16 -50 16 -26 0 -32 3 -27 16 3 9 6 22 6 30 0 8
9 14 19 14 11 0 23 5 27 11 6 11 34 9 129 -9 45 -9 52 -8 66 11 10 12 34 23
60 27 24 4 46 8 49 8 3 1 12 -4 20 -11z m1845 3 c3 -5 1 -10 -4 -10 -6 0 -11
5 -11 10 0 6 2 10 4 10 3 0 8 -4 11 -10z m69 -6 c8 -21 8 -21 -14 -27 -21 -5
-28 7 -10 18 6 4 8 11 5 16 -4 5 -2 9 3 9 6 0 13 -7 16 -16z m-357 -20 c-9 -9
-28 6 -21 18 4 6 10 6 17 -1 6 -6 8 -13 4 -17z m413 17 c0 -5 -7 -12 -16 -15
-14 -5 -15 -4 -4 9 14 17 20 19 20 6z m-276 -58 c-7 -62 -16 -79 -34 -68 -7 4
-8 11 -1 18 6 8 4 26 -5 52 -7 22 -14 41 -14 42 0 1 19 6 53 12 4 0 4 -25 1
-56z m-64 28 c12 -23 13 -68 3 -74 -5 -3 -29 -8 -55 -11 -38 -6 -48 -4 -48 7
0 20 26 41 35 27 12 -20 23 -10 29 30 7 44 19 51 36 21z m-130 -33 c-23 -8
-18 -28 6 -28 23 0 16 -26 -17 -59 -30 -31 -72 -41 -84 -21 -3 6 2 13 12 16
42 13 48 21 48 68 0 53 21 77 43 49 11 -15 9 -19 -8 -25z m585 32 c-3 -5 -13
-10 -21 -10 -8 0 -14 5 -14 10 0 6 9 10 21 10 11 0 17 -4 14 -10z m-75 -10
c-36 -12 -60 -12 -60 0 0 6 19 10 43 9 36 -1 38 -2 17 -9z m-2500 -21 c18 -33
5 -52 -32 -45 -20 4 -37 1 -47 -8 -9 -7 -34 -16 -56 -20 -22 -3 -65 -10 -95
-16 -44 -8 -57 -7 -71 6 -10 9 -26 13 -41 9 -20 -5 -26 -2 -31 16 -3 12 -3 28
1 36 7 11 11 11 27 -1 17 -12 23 -12 46 4 26 19 115 30 137 16 6 -4 21 -2 33
5 17 8 27 8 46 -2 20 -11 26 -10 40 4 22 22 30 21 43 -4z m1890 -23 c0 -36 -4
-46 -20 -51 -12 -4 -27 -1 -35 5 -12 10 -15 9 -15 -4 0 -9 -8 -16 -20 -16 -26
0 -26 27 1 35 16 5 18 10 8 21 -13 16 -39 19 -39 4 0 -5 -7 -10 -15 -10 -17 0
-20 -16 -4 -25 5 -4 9 -14 7 -23 -2 -11 -16 -16 -50 -17 -51 -3 -75 13 -64 40
9 24 37 31 48 12 15 -28 29 -19 26 16 -3 30 -1 32 27 33 17 0 38 4 48 8 9 5
29 6 42 3 14 -2 28 0 31 4 13 22 24 5 24 -35z m515 34 c3 -5 1 -10 -4 -10 -6
0 -11 5 -11 10 0 6 2 10 4 10 3 0 8 -4 11 -10z m-717 -17 c-2 -10 -14 -19 -26
-21 -21 -3 -22 -1 -12 17 13 26 43 28 38 4z m-73 -40 c-7 -27 -7 -28 -17 -6
-13 27 -2 61 14 45 6 -6 8 -22 3 -39z m-105 -49 c0 -29 -11 -36 -65 -40 -37
-3 -45 0 -50 16 -11 34 4 62 28 57 12 -3 31 -2 42 3 25 10 45 -6 45 -36z
m-415 -30 c9 -14 15 -27 13 -28 -43 -28 -58 -34 -63 -26 -3 6 -19 10 -36 10
-19 0 -29 5 -29 15 0 8 3 15 8 16 30 3 47 10 54 23 13 23 33 19 53 -10z m-432
-54 l10 -25 6 24 c14 51 40 26 41 -36 0 -24 -14 -31 -25 -13 -10 16 -21 11
-33 -15 -11 -23 -17 -25 -81 -25 -48 0 -72 -4 -81 -15 -8 -9 -21 -13 -36 -9
-14 4 -24 2 -24 -4 0 -19 -71 -25 -137 -13 -47 8 -86 9 -149 1 -73 -9 -89 -9
-103 4 -11 10 -21 12 -34 5 -22 -13 -37 -3 -37 24 0 37 13 46 70 52 126 13
143 15 211 31 20 4 27 1 37 -21 7 -14 12 -32 12 -40 0 -18 37 -20 53 -2 7 6
20 24 30 39 11 19 22 25 33 21 10 -4 22 1 30 11 10 14 16 15 33 6 17 -9 25 -7
41 8 15 14 34 19 72 18 44 -2 52 -5 61 -26z m5373 -205 c4 -8 15 -15 25 -15
10 0 19 -6 19 -14 0 -23 22 -31 35 -13 14 20 46 23 43 5 -2 -7 4 -13 12 -13 8
0 15 7 15 15 0 10 12 16 38 18 22 2 41 10 44 18 8 21 185 20 203 -1 10 -13 27
-14 84 -9 59 5 74 4 85 -10 17 -20 40 -20 65 -1 21 16 86 21 86 6 0 -4 17 -11
37 -14 27 -5 40 -2 46 8 12 23 47 19 47 -5 0 -16 7 -20 38 -21 72 -3 215 6
256 17 36 9 56 -14 56 -63 0 -25 -7 -37 -27 -50 -16 -9 -56 -39 -90 -65 -35
-26 -69 -48 -77 -48 -7 0 -16 -7 -20 -15 -4 -10 -20 -15 -51 -15 -45 0 -75 16
-75 39 0 6 -9 11 -20 11 -10 0 -24 9 -30 20 -26 48 -126 63 -164 24 -8 -8 -22
-14 -30 -14 -9 0 -29 -17 -44 -39 -25 -35 -32 -39 -87 -45 -33 -4 -64 -7 -70
-7 -315 6 -325 8 -325 57 0 19 -7 24 -37 30 -21 4 -49 15 -63 24 -14 10 -48
21 -75 25 -28 4 -56 12 -62 17 -17 14 -16 81 1 123 14 33 18 35 61 35 31 0 47
-5 51 -15z m-5802 -341 c10 -14 16 -35 14 -46 -3 -23 -63 -62 -82 -55 -7 3
-20 -1 -31 -9 -33 -24 -91 -17 -127 15 l-31 28 22 32 c16 22 28 30 41 26 10
-3 21 -1 25 5 3 5 23 10 43 11 20 0 46 4 57 9 34 15 52 11 69 -16z m3657 -84
c21 -12 25 -50 9 -81 -12 -22 -62 -26 -79 -6 -19 24 -25 78 -10 88 19 12 56
11 80 -1z m2651 -10 c10 0 25 -14 34 -31 12 -24 18 -29 24 -18 5 7 10 11 12 9
2 -3 8 -14 14 -25 6 -11 21 -22 33 -25 12 -3 22 -9 21 -15 -3 -18 35 -22 90
-9 30 7 76 13 102 14 26 0 50 5 53 10 3 6 39 10 78 10 68 0 74 -2 110 -35 31
-29 36 -38 28 -54 -11 -20 -32 -31 -61 -31 -11 0 -24 -9 -31 -21 -9 -17 -7
-25 11 -44 12 -13 21 -27 19 -32 -15 -34 -58 -83 -77 -88 -13 -3 -20 -10 -17
-15 8 -13 -13 -22 -36 -15 -17 6 -19 9 -8 16 10 6 8 9 -8 9 -16 0 -25 -8 -29
-25 -10 -39 -63 -58 -165 -59 l-87 -1 -50 -42 -51 -43 16 -30 c13 -28 13 -33
-1 -55 -9 -14 -20 -24 -24 -23 -4 1 -28 -4 -54 -12 -39 -12 -48 -19 -54 -42
-11 -53 -37 -60 -204 -56 -157 4 -173 9 -163 47 2 10 -6 31 -20 47 -53 65 -53
90 3 119 26 14 28 18 17 35 -6 11 -17 18 -23 16 -5 -2 -16 9 -23 25 -11 25
-10 32 8 55 26 33 26 35 -1 70 -13 16 -21 38 -19 52 3 29 30 92 31 73 0 -8 2
-12 5 -9 4 3 -5 23 -20 43 -14 21 -25 41 -25 45 0 4 18 34 40 66 22 33 40 65
40 72 0 23 94 17 129 -9 23 -17 33 -18 91 -8 57 9 66 8 77 -8 12 -16 15 -15
42 14 30 33 54 43 86 37 11 -2 28 -4 37 -4z m-3578 -76 c3 -9 6 -78 6 -154 0
-82 4 -141 10 -145 6 -3 22 2 38 13 40 28 58 32 91 21 54 -19 64 -59 72 -289
4 -121 3 -212 -2 -222 -6 -11 -21 -18 -38 -18 -26 0 -29 4 -35 46 -3 26 -6
113 -6 193 0 199 -20 236 -86 165 l-36 -38 7 -202 7 -203 -26 -12 c-53 -24
-52 -28 -62 454 -6 344 -5 369 11 387 22 24 41 26 49 4z m-2659 -80 c14 -9 25
-24 25 -33 0 -18 -52 -51 -80 -51 -9 0 -34 -7 -53 -15 -20 -8 -61 -15 -91 -15
-46 0 -54 3 -59 21 -14 55 18 73 178 98 28 5 51 9 53 10 1 0 14 -6 27 -15z
m7194 -10 c10 -9 16 -24 14 -34 -5 -20 40 -60 67 -60 9 0 24 -8 34 -18 14 -17
15 -23 3 -58 -12 -33 -19 -39 -45 -42 -25 -3 -32 -9 -37 -33 -7 -30 -23 -37
-42 -18 -8 8 -17 7 -32 -3 -19 -11 -24 -11 -37 6 -8 11 -14 26 -14 33 0 7 -5
13 -11 13 -5 0 -26 17 -44 38 -42 44 -46 79 -11 88 30 7 61 40 48 48 -16 10
-1 47 22 56 26 11 61 5 85 -16z m-3787 -34 c39 -30 48 -89 48 -299 0 -205 -5
-225 -52 -213 -34 8 -38 19 -39 122 -2 186 -13 282 -31 294 -13 8 -22 6 -38
-9 -21 -19 -22 -26 -19 -227 2 -140 0 -211 -8 -219 -6 -6 -23 -9 -39 -7 -27 3
-29 6 -34 60 -5 57 -20 92 -20 47 0 -40 -53 -132 -89 -156 -36 -24 -80 -29
-111 -13 -59 31 -97 186 -80 325 9 78 12 91 43 154 40 81 129 107 179 54 28
-31 47 -63 59 -102 6 -21 7 -16 8 24 2 122 145 227 223 165z m5071 -34 c20
-14 48 -26 63 -28 44 -5 39 -24 -10 -43 -38 -15 -53 -16 -90 -6 -25 6 -72 11
-105 11 -37 0 -61 4 -61 11 0 17 62 64 87 65 13 1 26 4 30 8 13 13 51 5 86
-18z m-652 -28 c27 -17 49 -35 49 -38 0 -14 -25 -26 -54 -28 -16 -1 -34 -6
-40 -11 -7 -6 -41 -15 -76 -20 -69 -11 -123 -1 -147 29 -17 21 -16 31 8 60 19
22 31 25 113 31 50 3 93 6 95 7 2 1 25 -12 52 -30z m-5329 -55 c3 -73 4 -77
28 -83 19 -4 26 -13 28 -38 3 -27 -1 -34 -22 -42 l-26 -10 1 -152 c0 -181 7
-227 34 -242 53 -29 43 -80 -16 -78 -71 2 -88 63 -89 313 0 128 -1 137 -20
142 -24 6 -28 58 -5 77 11 9 15 32 15 81 0 57 3 71 22 89 39 36 47 26 50 -57z
m-2535 -85 c13 -12 23 -33 23 -49 0 -38 -39 -51 -155 -53 -83 -1 -96 1 -101
17 -11 34 5 57 41 57 20 0 38 6 43 16 5 9 25 16 51 18 23 2 44 6 48 10 11 11
26 6 50 -16z m1260 -62 c24 -20 29 -31 25 -55 -2 -19 0 -31 7 -31 7 0 11 -20
10 -52 -1 -29 -3 -45 -6 -35 -7 28 -28 14 -31 -22 -2 -20 -13 -42 -28 -55 -14
-12 -26 -34 -27 -51 -1 -18 -11 -36 -25 -46 -13 -9 -23 -19 -22 -23 1 -7 -26
-71 -68 -158 -17 -36 -33 -58 -44 -58 -24 0 -78 -33 -78 -47 0 -17 6 -16 38 6
15 11 74 29 131 41 58 12 115 29 128 38 13 10 35 40 49 69 22 45 25 63 24 140
-3 117 -4 110 31 122 46 16 91 13 115 -7 90 -73 96 -482 8 -573 -13 -14 -49
-33 -80 -43 -45 -14 -54 -21 -49 -34 15 -34 17 -110 6 -164 -16 -75 -70 -137
-156 -178 -150 -72 -264 -12 -265 140 -1 71 -25 268 -34 277 -5 6 -8 -23 -10
-97 -1 -38 -14 -50 -54 -50 -32 0 -39 4 -51 31 -54 121 -71 337 -35 438 30 84
65 106 204 131 188 34 185 33 188 56 5 34 -34 45 -104 28 -32 -8 -72 -11 -87
-8 l-28 6 6 81 c7 92 21 137 41 137 8 0 14 3 14 8 0 12 61 41 105 50 84 17
121 14 152 -12z m1134 -156 c3 -91 7 -240 8 -331 1 -211 -9 -250 -84 -325 -60
-60 -91 -69 -101 -28 -6 23 0 33 44 73 28 25 55 55 60 66 12 26 24 139 16 148
-4 3 -26 -5 -49 -18 -75 -44 -136 -27 -163 46 -6 14 -13 122 -17 240 l-7 214
25 24 c14 12 30 20 35 17 5 -3 13 -101 17 -218 8 -235 14 -258 67 -258 19 0
40 10 59 30 l30 30 -7 214 c-4 118 -4 222 0 231 4 11 15 15 33 13 l28 -3 6
-165z m-415 60 c51 -32 76 -108 82 -252 4 -99 1 -127 -17 -187 -34 -112 -96
-167 -174 -154 l-36 5 6 -151 6 -151 -35 0 c-24 0 -38 5 -42 16 -9 25 -29 707
-22 747 8 42 65 103 120 128 53 24 71 24 112 -1z m4597 -66 c26 -4 37 -11 37
-23 0 -9 5 -22 12 -29 8 -8 8 -15 0 -25 -6 -7 -9 -26 -7 -43 4 -24 3 -26 -5
-11 -13 20 -36 23 -43 5 -2 -9 -24 -13 -61 -12 -74 0 -95 23 -96 103 l0 53 63
-6 c34 -3 79 -8 100 -12z m-6489 -17 c26 -19 13 -55 -22 -63 -15 -3 -35 -9
-44 -15 -33 -17 -58 -11 -58 15 0 37 10 56 31 56 10 0 19 5 19 10 0 15 53 12
74 -3z m6630 -33 c23 -9 20 -41 -5 -55 -23 -12 -39 0 -39 32 0 27 14 34 44 23z
m-6891 -40 c9 -10 -12 -46 -24 -39 -14 9 -11 45 4 45 8 0 17 -3 20 -6z m269
-189 c22 -48 -20 -69 -157 -79 -27 -3 -56 1 -63 6 -9 8 -16 8 -24 0 -15 -15
-41 -15 -56 0 -17 17 4 38 37 38 30 0 92 21 112 37 17 13 39 18 97 21 37 1 44
-2 54 -23z m6404 -32 c8 -3 14 -14 14 -24 0 -12 11 -24 27 -30 16 -6 42 -21
60 -35 17 -13 36 -24 40 -24 13 0 14 -40 2 -62 -7 -14 -16 -17 -32 -12 -19 6
-20 5 -9 -9 7 -8 28 -18 47 -21 36 -7 95 -50 95 -69 0 -6 -7 -18 -15 -27 -37
-41 35 -100 125 -100 25 0 55 -7 67 -15 12 -8 28 -12 37 -9 10 4 21 -7 36 -35
13 -26 27 -41 39 -41 10 0 21 -6 24 -14 3 -8 19 -17 36 -21 39 -8 55 -29 47
-60 -5 -21 -2 -27 18 -35 13 -5 27 -14 31 -19 3 -6 16 -11 27 -11 11 0 31 -12
44 -26 21 -22 31 -25 82 -23 31 1 62 0 67 -2 6 -2 27 9 48 25 l37 28 78 -11
c122 -18 167 -64 90 -92 -43 -16 -60 -41 -39 -62 6 -6 44 -11 86 -12 43 -1 80
-6 87 -13 17 -17 88 -15 107 2 20 18 46 21 96 12 60 -12 95 -29 95 -47 0 -22
-53 -32 -113 -20 -34 6 -54 5 -72 -5 -34 -17 -83 -24 -87 -12 -2 5 -23 13 -46
18 -32 5 -50 3 -74 -10 -29 -15 -34 -15 -62 -1 -17 9 -62 18 -100 21 -51 4
-72 10 -80 22 -16 26 19 50 64 44 21 -3 42 0 53 9 24 18 6 28 -35 20 -25 -6
-34 -3 -48 15 -15 20 -25 22 -113 21 -52 -1 -102 -3 -109 -6 -21 -8 -20 -63 2
-70 10 -3 24 -13 31 -21 10 -12 6 -21 -21 -49 -19 -19 -40 -35 -46 -35 -25 0
-25 -21 0 -51 14 -17 26 -35 26 -40 0 -50 -352 -57 -383 -7 -9 13 -4 22 21 46
40 37 40 51 1 84 -29 26 -30 28 -14 52 9 14 14 30 10 36 -4 6 -2 16 3 23 15
18 -8 42 -43 45 -78 6 -117 4 -123 -5 -4 -5 -29 -13 -57 -19 -59 -11 -72 -36
-28 -52 15 -5 37 -17 47 -25 19 -14 19 -15 -2 -49 -12 -20 -22 -39 -22 -43 0
-4 17 -22 37 -41 l36 -34 -19 -35 c-17 -32 -21 -35 -53 -29 -26 5 -33 4 -29
-7 2 -8 17 -15 33 -17 36 -5 73 -28 80 -53 4 -12 -5 -46 -21 -84 -25 -57 -31
-64 -68 -75 -22 -7 -87 -12 -144 -11 -100 1 -105 2 -148 32 -24 18 -44 36 -44
40 0 18 -46 30 -147 39 -129 12 -154 27 -146 91 4 26 0 47 -11 63 -19 30 -21
62 -3 73 33 21 39 41 23 72 -21 41 -20 60 6 88 l22 24 -24 44 c-20 37 -22 47
-12 70 16 35 15 67 -3 91 -20 26 -19 47 5 76 10 14 15 29 11 34 -19 20 -33 86
-22 97 16 16 14 60 -4 83 -21 28 -18 63 6 83 24 19 20 48 -9 77 -14 15 -14 19
-1 43 8 14 32 34 54 45 22 10 46 27 53 37 13 19 42 26 42 11 0 -5 28 -8 61 -7
47 1 65 6 75 20 8 10 28 20 46 22 17 2 34 6 37 9 6 6 83 -3 107 -13z m989
-494 c4 -10 12 -19 18 -19 7 0 18 -9 25 -20 7 -12 23 -20 41 -20 16 0 34 -6
40 -14 10 -12 4 -19 -34 -42 -44 -25 -50 -26 -97 -16 -27 7 -62 12 -76 12 -15
0 -40 8 -55 19 l-28 18 45 27 c25 15 46 33 46 41 0 18 39 45 56 38 7 -3 16
-13 19 -24z m1263 -45 c28 -19 29 -51 1 -59 -11 -4 -47 -4 -80 0 -47 6 -59 10
-59 25 0 30 23 41 100 49 9 0 26 -6 38 -15z m-610 -20 c52 -36 5 -62 -128 -70
-82 -5 -122 7 -128 41 -7 34 25 45 133 45 75 0 106 -4 123 -16z m-31 -151 c62
-33 44 -47 -84 -68 -77 -13 -85 -12 -123 6 -87 42 -19 92 115 83 33 -2 74 -11
92 -21z m-261 -289 c22 -9 42 -21 46 -27 4 -8 11 -7 20 1 22 17 88 19 98 2 15
-23 13 -26 -29 -38 -49 -15 -113 -15 -146 0 -21 10 -31 9 -55 -5 -23 -14 -39
-15 -89 -9 -78 11 -95 26 -62 52 25 18 48 18 96 0 39 -15 50 -12 65 15 7 14
14 25 15 25 2 0 20 -7 41 -16z m-5626 -166 c0 -78 -8 -86 -16 -17 -5 41 1 89
11 89 3 0 5 -32 5 -72z m-64 -16 c-15 -15 -16 -15 -16 5 0 12 6 23 13 26 19 6
21 -13 3 -31z m-43 4 c4 -10 1 -13 -8 -9 -8 3 -12 9 -9 14 7 12 11 11 17 -5z
m-68 -36 c-4 -20 -3 -30 5 -30 6 0 10 -5 8 -11 -6 -19 -18 -10 -27 23 -10 34
-7 48 10 48 7 0 8 -12 4 -30z m-35 1 c0 -5 -7 -11 -15 -15 -8 -3 -15 -14 -15
-25 0 -14 5 -19 15 -15 11 5 13 2 9 -10 -7 -19 -23 -17 -37 5 -12 19 8 69 28
69 8 0 15 -4 15 -9z m158 -3 c-6 -18 -28 -21 -28 -4 0 9 7 16 16 16 9 0 14 -5
12 -12z m-218 -54 c0 -19 -2 -34 -4 -34 -2 0 -11 -3 -20 -6 -19 -7 -22 20 -6
61 13 34 30 23 30 -21z m155 27 c-3 -6 -11 -8 -17 -5 -6 4 -5 9 3 15 16 10 23
4 14 -10z m-265 -56 c0 -24 -6 -37 -20 -45 -17 -9 -22 -7 -29 11 -7 21 -8 20
-14 -10 -9 -43 -41 -40 -44 4 -1 20 0 23 4 8 6 -32 33 -29 33 3 0 14 -4 23
-10 19 -5 -3 -10 -1 -10 5 0 7 7 10 15 7 8 -4 17 -2 20 2 3 5 14 7 25 4 14 -4
20 0 20 11 0 9 2 16 5 16 3 0 5 -16 5 -35z m-190 -24 c0 -12 -20 -25 -27 -18
-7 7 6 27 18 27 5 0 9 -4 9 -9z m55 -15 c-11 -16 -13 -26 -6 -31 15 -9 13 -22
-4 -29 -12 -4 -15 4 -15 39 0 39 3 45 20 45 19 0 20 -1 5 -24z m465 -6 c0 -5
-5 -10 -11 -10 -5 0 -7 5 -4 10 3 6 8 10 11 10 2 0 4 -4 4 -10z m-270 -10 c0
-12 -42 -31 -50 -23 -6 5 30 33 42 33 4 0 8 -5 8 -10z m220 -4 c0 -3 -4 -8
-10 -11 -5 -3 -10 -1 -10 4 0 6 5 11 10 11 6 0 10 -2 10 -4z m-470 -36 c0 -11
-7 -20 -15 -20 -27 0 -18 30 13 39 1 1 2 -8 2 -19z m457 -57 c-2 -16 -4 -5 -4
22 0 28 2 40 4 28 2 -13 2 -35 0 -50z m-37 48 c0 -5 -6 -14 -14 -20 -11 -9
-16 -9 -21 0 -4 6 -1 15 6 20 18 11 29 11 29 0z m-550 -15 c0 -3 -4 -8 -10
-11 -5 -3 -10 -1 -10 4 0 6 5 11 10 11 6 0 10 -2 10 -4z m-115 -43 c-1 -21 -3
-48 -4 -61 -1 -14 -6 -22 -13 -19 -14 4 -13 33 3 85 14 42 19 41 14 -5z m605
27 c0 -5 -7 -10 -15 -10 -9 0 -15 -9 -15 -21 0 -14 5 -19 14 -16 10 4 13 1 9
-9 -3 -8 -11 -13 -17 -11 -13 4 -20 42 -12 63 6 16 36 19 36 4z m-60 -9 c0 -6
-4 -13 -10 -16 -17 -10 -12 -45 5 -39 11 5 13 2 9 -10 -4 -9 -11 -15 -17 -13
-13 4 -29 57 -22 75 5 14 35 17 35 3z m-606 -10 c7 -10 -22 -37 -30 -28 -9 8
3 37 15 37 5 0 12 -4 15 -9z m36 -1 c0 -5 -2 -10 -4 -10 -3 0 -8 5 -11 10 -3
6 -1 10 4 10 6 0 11 -4 11 -10z m680 -16 c0 -8 -7 -14 -15 -14 -17 0 -18 2 -9
24 7 18 24 12 24 -10z m-787 0 c3 -4 2 -15 -3 -25 -7 -12 -7 -20 0 -24 18 -11
11 -35 -10 -35 -17 0 -20 7 -20 38 0 46 14 65 33 46z m622 -4 c-3 -5 -13 -10
-21 -10 -8 0 -12 5 -9 10 3 6 13 10 21 10 8 0 12 -4 9 -10z m-665 -72 c0 -22
-7 -31 -27 -39 -47 -19 -87 -16 -91 5 -2 10 0 16 6 12 6 -3 15 6 20 21 7 18
11 22 11 11 1 -10 5 -18 10 -18 5 0 9 6 8 13 -1 33 4 46 21 50 23 5 42 -20 42
-55z m608 20 c2 -25 -2 -37 -13 -42 -23 -9 -30 25 -16 82 1 2 7 2 14 0 6 -3
13 -21 15 -40z m-498 8 c0 -14 -24 -29 -33 -19 -3 3 -3 11 0 19 7 18 33 18 33
0z m5429 -20 c23 -25 23 -53 -1 -83 -13 -17 -58 -16 -80 1 -21 15 -24 76 -6
94 20 20 63 14 87 -12z m-5042 -23 c-8 -46 -27 -60 -46 -33 -7 11 -22 20 -32
20 -11 0 -19 5 -19 10 0 6 8 10 18 10 10 0 23 5 30 12 9 9 12 9 12 0 0 -7 5
-12 10 -12 6 0 10 7 10 15 0 8 5 15 11 15 8 0 10 -13 6 -37z m163 22 c-12 -15
-30 -12 -30 6 0 5 10 9 21 9 18 0 19 -2 9 -15z m-356 -44 c6 -10 -22 -37 -29
-29 -8 7 5 38 15 38 5 0 11 -4 14 -9z m61 -11 c-12 -13 -22 -17 -28 -11 -13
13 1 31 25 31 21 0 21 -1 3 -20z m-124 -67 c-3 -50 -5 -54 -13 -33 -10 26 -3
90 10 90 4 0 5 -26 3 -57z m298 31 c-13 -7 -26 -10 -29 -7 -8 8 32 33 43 26 5
-3 -1 -12 -14 -19z m-893 -35 c-5 -46 -10 -54 -25 -44 -14 8 -14 41 -1 66 18
33 31 22 26 -22z m664 19 c0 -7 -5 -20 -10 -28 -7 -12 -12 -12 -21 -3 -9 9 -9
16 1 28 15 18 30 20 30 3z m50 -3 c0 -8 -7 -15 -15 -15 -9 0 -12 6 -9 15 4 8
10 15 15 15 5 0 9 -7 9 -15z m-170 -4 c0 -5 -7 -14 -15 -21 -18 -15 -42 1 -31
19 8 13 46 15 46 2z m-686 -20 c3 -5 3 -24 -1 -41 -6 -31 -7 -32 -20 -15 -17
25 -17 65 1 65 8 0 17 -4 20 -9z m616 -2 c0 -15 -22 -34 -39 -34 -8 0 -15 -12
-17 -29 -3 -32 -21 -49 -43 -41 -7 3 -22 -5 -33 -17 -15 -17 -30 -23 -66 -23
-29 0 -51 -6 -58 -14 -10 -12 -13 -11 -23 7 -17 33 -13 52 15 62 30 12 48 4
40 -16 -3 -8 -1 -14 4 -14 6 0 10 11 10 25 0 26 15 34 23 13 3 -7 6 0 6 15 1
26 4 28 36 26 19 -2 40 2 47 9 6 6 20 12 30 12 10 0 21 7 24 15 7 17 44 21 44
4z m-382 -31 c-3 -7 -17 -15 -33 -16 -25 -3 -27 -2 -16 12 16 19 55 22 49 4z
m-298 -39 c0 -23 -5 -30 -27 -35 -16 -4 -31 -12 -35 -18 -9 -14 -26 2 -28 29
-4 36 0 47 13 42 7 -3 21 1 31 8 26 19 46 8 46 -26z m738 29 c-6 -18 -28 -21
-28 -4 0 9 7 16 16 16 9 0 14 -5 12 -12z m-58 -25 c0 -7 -7 -13 -15 -13 -8 0
-15 6 -15 13 0 8 7 14 15 14 8 0 15 -6 15 -14z m-890 -78 c0 -13 -3 -30 -6
-39 -7 -19 -44 -22 -44 -3 -1 7 -6 5 -14 -5 -7 -10 -25 -18 -39 -18 -21 0 -24
4 -20 23 11 53 22 62 73 64 47 2 50 1 50 -22z m6285 9 c14 19 45 16 45 -4 0
-5 11 -10 25 -10 14 0 37 -11 51 -25 14 -14 29 -25 34 -25 6 0 10 -3 10 -6 0
-10 -28 -34 -41 -34 -7 0 -20 -7 -29 -15 -13 -11 -24 -13 -51 -5 -18 6 -51 10
-71 10 l-38 0 0 46 c0 25 5 54 11 65 10 20 11 20 25 2 14 -17 14 -17 29 1z
m-5785 -38 c0 -3 -4 -8 -10 -11 -5 -3 -10 -1 -10 4 0 6 5 11 10 11 6 0 10 -2
10 -4z m-660 -30 c0 -17 -14 -29 -23 -20 -8 8 3 34 14 34 5 0 9 -6 9 -14z
m223 7 c-7 -2 -19 -2 -25 0 -7 3 -2 5 12 5 14 0 19 -2 13 -5z m-283 -10 c0
-21 -26 -73 -35 -70 -5 2 -11 20 -13 40 -3 34 -1 37 22 37 14 0 26 -3 26 -7z
m570 -48 c0 -26 -3 -33 -15 -29 -8 4 -12 10 -9 15 3 5 1 9 -4 9 -5 0 -14 -12
-21 -26 -17 -38 -46 -28 -46 16 0 31 4 36 30 41 61 13 65 11 65 -26z m-143
-25 c1 -22 -2 -42 -8 -45 -5 -4 -9 13 -9 39 0 56 15 61 17 6z m1563 -47 c0
-26 -2 -44 -4 -42 -8 9 -13 98 -5 93 5 -3 9 -26 9 -51z m-1613 31 c8 -21 -13
-42 -28 -27 -13 13 -5 43 11 43 6 0 13 -7 17 -16z m1573 -60 c0 -8 -4 -12 -10
-9 -5 3 -10 10 -10 16 0 5 5 9 10 9 6 0 10 -7 10 -16z m-1730 -6 c0 -7 -6 -20
-13 -28 -18 -23 -103 -61 -120 -55 -10 4 -17 -2 -21 -20 -6 -25 -10 -27 -44
-20 -47 9 -52 12 -52 35 0 18 70 60 101 60 8 0 20 5 27 12 10 10 58 22 110 27
6 0 12 -5 12 -11z m1617 -19 c1 -11 -6 -22 -15 -25 -9 -3 -25 -10 -34 -15 -10
-5 -24 -9 -32 -9 -19 0 -9 37 11 45 21 8 31 -4 13 -15 -11 -7 -11 -10 -2 -10
7 0 16 8 19 18 6 16 22 32 33 32 3 0 6 -9 7 -21z m-1114 -37 c-7 -45 -19 -60
-35 -44 -17 17 -38 15 -38 -3 0 -8 -9 -15 -20 -15 -24 0 -27 37 -5 66 14 19
15 18 35 -6 l20 -25 0 32 c0 22 5 33 18 36 27 6 31 -1 25 -41z m957 -11 c0 -6
-4 -13 -10 -16 -5 -3 -10 1 -10 9 0 9 5 16 10 16 6 0 10 -4 10 -9z m-36 -16
c-4 -8 -8 -15 -10 -15 -2 0 -4 7 -4 15 0 8 4 15 10 15 5 0 7 -7 4 -15z m-1054
-59 c0 -11 -80 -38 -122 -42 -10 -1 -24 -7 -32 -13 -11 -9 -20 -10 -35 -2 -28
15 -31 14 -31 -14 0 -18 -5 -25 -20 -25 -15 0 -20 7 -20 28 0 32 16 52 42 52
10 0 23 9 30 20 7 11 20 20 28 20 9 0 25 7 36 15 24 18 61 19 68 3 3 -9 8 -8
16 5 11 18 13 17 26 -8 8 -15 14 -33 14 -39z m1009 28 c-10 -12 -14 -12 -20
-2 -6 8 -2 18 9 26 21 16 30 -2 11 -24z m63 -24 c-6 -44 -21 -47 -17 -3 4 47
3 45 13 39 5 -3 7 -19 4 -36z m-112 21 c0 -6 -4 -13 -10 -16 -16 -10 -12 -38
5 -31 8 3 15 2 15 -3 0 -10 -29 -36 -34 -30 -7 8 -14 78 -9 83 10 9 33 7 33
-3z m-54 -38 c3 -16 7 -33 9 -40 2 -7 -16 -22 -42 -33 -55 -24 -63 -25 -63 -5
0 9 13 18 31 22 27 5 30 9 26 33 -10 47 28 69 39 23z m114 -3 c0 -10 -31 -23
-38 -15 -8 7 19 35 29 29 5 -3 9 -9 9 -14z m-170 -10 c0 -5 -4 -10 -10 -10 -5
0 -10 5 -10 10 0 6 5 10 10 10 6 0 10 -4 10 -10z m-75 -30 c-3 -5 -11 -10 -16
-10 -6 0 -7 5 -4 10 3 6 11 10 16 10 6 0 7 -4 4 -10z m-1063 -35 c-8 -64 -52
-78 -52 -17 0 45 6 54 35 50 16 -2 19 -9 17 -33z m1018 16 c0 -5 -9 -11 -20
-14 -27 -7 -26 -37 1 -37 12 0 19 -5 17 -12 -7 -20 -42 -15 -46 6 -5 24 17 66
35 66 7 0 13 -4 13 -9z m-1100 -46 c0 -14 -4 -25 -10 -25 -5 0 -10 11 -10 25
0 14 5 25 10 25 6 0 10 -11 10 -25z m1148 4 c-2 -6 -8 -10 -13 -10 -5 0 -11 4
-13 10 -2 6 4 11 13 11 9 0 15 -5 13 -11z m-189 -35 c-9 -11 -15 -12 -23 -4
-8 8 -6 15 9 26 23 17 34 2 14 -22z m-59 -14 c0 -5 -2 -10 -4 -10 -3 0 -8 5
-11 10 -3 6 -1 10 4 10 6 0 11 -4 11 -10z m-69 -33 c-15 -15 -14 -27 4 -27 20
0 19 -29 0 -37 -20 -7 -21 -6 -30 44 -5 35 -4 42 12 45 22 4 30 -9 14 -25z
m137 5 c2 -7 -4 -15 -13 -18 -20 -8 -27 -1 -19 20 7 18 25 17 32 -2z m-183
-23 c-8 -12 -35 -12 -35 0 0 11 22 20 33 14 4 -2 5 -9 2 -14z m265 11 c0 -11
-42 -30 -63 -30 -17 1 32 40 49 40 8 0 14 -5 14 -10z m-150 -25 c-12 -15 -30
-12 -30 6 0 5 10 9 21 9 18 0 19 -2 9 -15z m5467 -27 c29 -18 53 -36 53 -39 0
-3 -12 -12 -27 -19 -16 -7 -23 -15 -15 -17 19 -7 4 -23 -23 -23 -13 0 -46 5
-74 12 -50 11 -51 12 -51 49 0 58 8 69 49 69 23 0 54 -11 88 -32z m-5617 4 c0
-9 7 -11 20 -7 22 7 23 5 14 -19 -4 -9 -18 -16 -34 -16 -16 0 -30 -7 -34 -15
-3 -8 -12 -15 -21 -15 -11 0 -15 11 -15 38 0 21 3 41 6 45 12 11 64 2 64 -11z
m5700 -42 c0 -5 -4 -10 -10 -10 -5 0 -10 5 -10 10 0 6 5 10 10 10 6 0 10 -4
10 -10z m-5870 -82 c0 -28 -18 -48 -24 -26 -1 7 -8 28 -14 47 -6 19 -9 38 -5
44 9 15 43 -35 43 -65z m-52 3 c-2 -29 -8 -37 -27 -39 -35 -5 -43 10 -27 49
19 45 26 51 43 37 9 -7 13 -25 11 -47z m142 -1 c0 -14 -49 -32 -62 -24 -7 5
-4 12 7 21 22 15 55 17 55 3z m-290 -26 c0 -10 -6 -14 -14 -11 -9 4 -13 0 -12
-11 2 -9 8 -18 14 -20 17 -5 15 -23 -5 -38 -29 -22 -36 -16 -29 26 4 29 3 40
-6 40 -17 1 22 30 39 30 7 0 13 -7 13 -16z m74 -10 c8 -21 -1 -34 -25 -34 -20
0 -23 8 -13 34 8 21 30 21 38 0z m-150 -40 c11 -29 6 -44 -14 -44 -14 0 -20 7
-20 23 0 37 23 51 34 21z m616 -158 c0 -25 -12 -46 -26 -46 -18 0 -19 46 -1
53 21 9 27 7 27 -7z m-120 -66 c0 -38 -4 -52 -19 -60 -11 -5 -22 -10 -25 -10
-13 0 -5 24 12 36 16 13 16 15 -1 28 -18 14 -18 15 0 35 26 32 33 26 33 -29z
m-90 -20 c0 -5 -4 -10 -10 -10 -5 0 -10 5 -10 10 0 6 5 10 10 10 6 0 10 -4 10
-10z m-110 -83 c0 -42 -1 -44 -49 -66 -31 -15 -56 -21 -70 -16 -18 5 -24 2
-28 -14 -6 -24 -33 -29 -33 -6 0 16 -9 18 -47 15 -16 -1 -23 4 -23 15 0 13 6
16 24 11 16 -4 29 0 41 14 10 11 28 20 39 20 12 0 29 9 39 20 9 11 23 20 31
20 7 0 19 7 26 15 7 8 21 15 31 15 16 0 19 -8 19 -43z m128 25 c2 -7 -4 -15
-13 -18 -20 -8 -27 -1 -19 20 7 18 25 17 32 -2z m-58 -71 c0 -10 -30 -24 -37
-17 -3 3 -2 9 2 15 8 13 35 15 35 2z m-360 -113 c0 -16 -3 -19 -11 -11 -6 6
-8 16 -5 22 11 17 16 13 16 -11z"/>
<path d="M3087 6784 c-8 -8 3 -34 14 -34 5 0 9 9 9 20 0 19 -11 26 -23 14z"/>
<path d="M7326 5933 c-11 -11 -6 -23 9 -23 8 0 15 4 15 9 0 13 -16 22 -24 14z"/>
<path d="M7142 3930 c-67 -6 -88 -12 -107 -30 -23 -22 -24 -25 -8 -42 9 -10
24 -18 34 -18 10 0 31 -11 47 -25 17 -14 34 -25 40 -25 5 0 12 -7 16 -15 3 -8
12 -15 21 -15 8 0 15 7 15 15 0 8 9 15 20 15 11 0 27 12 37 28 9 15 26 37 37
50 l19 22 -23 25 c-13 14 -33 24 -44 24 -12 -1 -58 -5 -104 -9z"/>
<path d="M3903 3728 c-15 -27 -18 -57 -18 -158 0 -101 3 -131 18 -157 10 -18
21 -33 25 -33 22 0 51 34 62 74 18 66 10 244 -13 279 -24 37 -52 34 -74 -5z"/>
<path d="M1864 3536 c-3 -8 -4 -27 -2 -43 2 -22 8 -28 28 -28 28 0 57 42 47
68 -8 21 -65 23 -73 3z"/>
<path d="M1805 2954 c-9 -50 -1 -52 12 -4 5 22 7 40 3 40 -4 0 -11 -16 -15
-36z"/>
<path d="M2140 2625 c0 -14 5 -25 10 -25 6 0 10 11 10 25 0 14 -4 25 -10 25
-5 0 -10 -11 -10 -25z"/>
<path d="M2750 3478 c-14 -6 -33 -21 -44 -35 -17 -23 -18 -38 -11 -198 l7
-174 27 -11 c38 -15 76 1 98 42 22 42 25 248 4 321 -11 39 -37 71 -53 66 -2
-1 -14 -6 -28 -11z"/>
<path d="M7492 2818 c2 -6 12 -16 21 -22 13 -8 20 -7 27 4 12 20 3 30 -26 30
-15 0 -24 -5 -22 -12z"/>
<path d="M7362 2717 c-18 -7 -42 -24 -55 -39 -12 -15 -33 -28 -47 -30 -21 -3
-25 -9 -28 -41 -3 -29 -9 -40 -31 -51 -15 -8 -34 -22 -41 -31 -13 -15 -11 -20
13 -41 16 -13 34 -24 41 -24 7 0 18 -11 24 -25 16 -34 39 -31 47 5 7 32 38 60
67 60 28 0 91 41 79 53 -19 19 10 56 58 72 47 16 110 60 100 70 -3 3 -29 7
-58 8 -28 2 -57 9 -63 15 -15 15 -63 14 -106 -1z"/>
<path d="M7715 2522 c-37 -7 -37 -20 0 -24 38 -4 71 16 38 24 -10 2 -27 2 -38
0z"/>
<path d="M7276 2385 c7 -17 30 -20 38 -6 3 5 -1 12 -10 15 -25 10 -34 7 -28
-9z"/>
<path d="M2580 970 c0 -19 3 -21 12 -12 9 9 9 15 0 24 -9 9 -12 7 -12 -12z"/>
<path d="M2325 6780 c3 -5 8 -10 11 -10 2 0 4 5 4 10 0 6 -5 10 -11 10 -5 0
-7 -4 -4 -10z"/>
<path d="M7325 6660 c3 -5 8 -10 11 -10 2 0 4 5 4 10 0 6 -5 10 -11 10 -5 0
-7 -4 -4 -10z"/>
<path d="M7331 6602 c-15 -27 8 -47 33 -29 16 12 16 14 -3 31 -19 17 -20 17
-30 -2z"/>
<path d="M7192 6598 c-19 -19 6 -38 48 -38 37 0 65 26 37 35 -38 11 -75 13
-85 3z"/>
<path d="M7135 6579 c-9 -14 -2 -20 14 -10 8 6 9 11 3 15 -6 3 -14 1 -17 -5z"/>
</g>
</svg>
