<?xml version="1.0" encoding="UTF-8"?>
<svg version="1.1" xmlns="http://www.w3.org/2000/svg" width="225" height="225">
<path d="M0 0 C74.25 0 148.5 0 225 0 C225 74.25 225 148.5 225 225 C150.75 225 76.5 225 0 225 C0 150.75 0 76.5 0 0 Z " fill="#FCFCFC" transform="translate(0,0)"/>
<path d="M0 0 C1.08152344 0.10699219 2.16304687 0.21398437 3.27734375 0.32421875 C4.36144531 0.42347656 5.44554687 0.52273437 6.5625 0.625 C9.21484375 1.01171875 9.21484375 1.01171875 10.21484375 2.01171875 C10.28689886 3.69780841 10.29870443 5.38672534 10.27734375 7.07421875 C10.26832031 7.99332031 10.25929687 8.91242187 10.25 9.859375 C10.23839844 10.56964844 10.22679687 11.27992187 10.21484375 12.01171875 C13.12084636 13.26836853 15.01088959 14.01171875 18.21484375 14.01171875 C19.20484375 13.35171875 20.19484375 12.69171875 21.21484375 12.01171875 C23.69140625 11.65234375 23.69140625 11.65234375 26.21484375 12.01171875 C28.05078125 13.62109375 28.05078125 13.62109375 29.58984375 15.76171875 C30.37488281 16.80585937 30.37488281 16.80585937 31.17578125 17.87109375 C32.21484375 20.01171875 32.21484375 20.01171875 32.04296875 22.16796875 C31.21484375 24.01171875 31.21484375 24.01171875 28.58984375 25.76171875 C25.99702097 27.70033563 25.99702097 27.70033563 26.109375 30.04296875 C26.37425275 32.04897627 26.7863779 34.03418407 27.21484375 36.01171875 C28.32859375 36.13546875 29.44234375 36.25921875 30.58984375 36.38671875 C34.21484375 37.01171875 34.21484375 37.01171875 36.21484375 39.01171875 C36.26171875 41.54296875 36.26171875 41.54296875 35.96484375 44.51171875 C35.8771875 45.49140625 35.78953125 46.47109375 35.69921875 47.48046875 C35.21484375 50.01171875 35.21484375 50.01171875 33.21484375 52.01171875 C31.05078125 51.98828125 31.05078125 51.98828125 28.58984375 51.63671875 C27.77257812 51.52585938 26.9553125 51.415 26.11328125 51.30078125 C25.48679687 51.20539063 24.8603125 51.11 24.21484375 51.01171875 C23.90546875 51.79546875 23.59609375 52.57921875 23.27734375 53.38671875 C22.21484375 56.01171875 22.21484375 56.01171875 21.21484375 58.01171875 C21.70984375 58.56859375 22.20484375 59.12546875 22.71484375 59.69921875 C24.52253025 62.48606878 24.62760331 63.74445334 24.21484375 67.01171875 C21.96507362 69.63552014 19.26246471 71.40293743 16.21484375 73.01171875 C13.40234375 73.13671875 13.40234375 73.13671875 11.21484375 72.01171875 C10.78171875 71.33109375 10.34859375 70.65046875 9.90234375 69.94921875 C8.42275066 67.81973346 8.42275066 67.81973346 6.25390625 67.75 C4.23902383 67.76060464 2.22543602 67.87987663 0.21484375 68.01171875 C0.07046875 69.12546875 -0.07390625 70.23921875 -0.22265625 71.38671875 C-0.78515625 75.01171875 -0.78515625 75.01171875 -1.78515625 77.01171875 C-10.33988029 77.3017094 -10.33988029 77.3017094 -14.78515625 75.01171875 C-15.28015625 74.51671875 -15.28015625 74.51671875 -15.78515625 74.01171875 C-15.69577822 72.48652599 -15.53978479 70.96489946 -15.34765625 69.44921875 C-15.24582031 68.62292969 -15.14398438 67.79664062 -15.0390625 66.9453125 C-14.91337891 65.98818359 -14.91337891 65.98818359 -14.78515625 65.01171875 C-18.73888595 63.74733846 -18.73888595 63.74733846 -22.78515625 63.01171875 C-24.97554048 64.38340113 -24.97554048 64.38340113 -26.78515625 66.01171875 C-29.22265625 66.13671875 -29.22265625 66.13671875 -31.78515625 65.01171875 C-33.90746331 62.89507118 -35.48996475 60.71672046 -36.78515625 58.01171875 C-36.78515625 54.86667189 -36.2830825 53.6395388 -34.34765625 51.19921875 C-32.78515625 50.01171875 -32.78515625 50.01171875 -30.78515625 50.01171875 C-31.11515625 47.04171875 -31.44515625 44.07171875 -31.78515625 41.01171875 C-32.89890625 41.05296875 -34.01265625 41.09421875 -35.16015625 41.13671875 C-38.78515625 41.01171875 -38.78515625 41.01171875 -40.78515625 39.01171875 C-41.0859375 36.515625 -41.0859375 36.515625 -41.09765625 33.57421875 C-41.11441406 32.60613281 -41.13117188 31.63804688 -41.1484375 30.640625 C-40.78515625 28.01171875 -40.78515625 28.01171875 -39.515625 26.16015625 C-37.36477325 24.73272868 -36.32253127 24.80990885 -33.78515625 25.07421875 C-30.43807541 25.254771 -30.43807541 25.254771 -27.72265625 23.26171875 C-26.61561936 21.09768418 -26.61561936 21.09768418 -26.97265625 18.94921875 C-27.82331559 16.7489006 -27.82331559 16.7489006 -29.78515625 14.01171875 C-29.59655555 11.27970293 -29.00355897 10.23411969 -27.078125 8.2734375 C-26.38332031 7.75394531 -25.68851563 7.23445313 -24.97265625 6.69921875 C-24.28558594 6.16683594 -23.59851563 5.63445313 -22.890625 5.0859375 C-20.78515625 4.01171875 -20.78515625 4.01171875 -18.59765625 4.21484375 C-16.78515625 5.01171875 -16.78515625 5.01171875 -15.59765625 7.07421875 C-13.9733682 9.22733243 -13.9733682 9.22733243 -11.59765625 9.2734375 C-9.31502496 9.26273767 -7.06102825 9.18348267 -4.78515625 9.01171875 C-4.82640625 7.89796875 -4.86765625 6.78421875 -4.91015625 5.63671875 C-4.76143188 1.32371211 -4.46928072 0.01880483 0 0 Z " fill="#030303" transform="translate(161.78515625,20.98828125)"/>
<path d="M0 0 C0.375 2.75 0.375 2.75 0 6 C-2.875 8.1875 -2.875 8.1875 -6 10 C-6.66 10.99 -7.32 11.98 -8 13 C-10.51398418 13.28499821 -12.85732908 13.41053117 -15.375 13.4375 C-29.84693633 13.99061929 -42.23676413 19.66108223 -52.83203125 29.5625 C-61.22138853 38.99485845 -64.60159793 49.85020004 -67 62 C-68.55847656 62.34611328 -68.55847656 62.34611328 -70.1484375 62.69921875 C-81.57121051 65.32828057 -92.62973878 68.14031545 -100 78 C-104.99625173 87.0023926 -106.54249174 96.00448703 -103.875 106.0625 C-100.83944433 115.09824282 -95.11958174 122.86200361 -86.5546875 127.25390625 C-84.39431478 128.22573536 -82.19946352 129.12021459 -80 130 C-80 134.29 -80 138.58 -80 143 C-91.62600181 142.35411101 -100.22750668 136.43140712 -108 128 C-117.9852302 114.73635731 -120.0275078 100.12427463 -118 84 C-115.3919196 73.25413868 -107.8341892 64.39001027 -99 58 C-93.9832385 54.96852507 -89.45327395 53.06487081 -83.6875 52.0625 C-81.1310582 51.49746148 -81.1310582 51.49746148 -79 50 C-77.27978832 46.6451369 -76.25993116 43.32152326 -75.1953125 39.70703125 C-70.14814208 24.05420533 -57.15847518 13.20642872 -43.125 5.75 C-29.77292029 -0.69405391 -14.57156542 -2.59050052 0 0 Z " fill="#040404" transform="translate(119,29)"/>
<path d="M0 0 C5.61 0 11.22 0 17 0 C19.66675726 5.89766431 22.159403 11.81565359 24.453125 17.8671875 C24.91075226 19.06929367 24.91075226 19.06929367 25.37762451 20.29568481 C26.01416296 21.97070102 26.64934415 23.64623361 27.28320312 25.32226562 C28.25622892 27.89144687 29.23732302 30.4574556 30.21875 33.0234375 C30.83903382 34.65866757 31.45884282 36.29407784 32.078125 37.9296875 C32.37180969 38.69529999 32.66549438 39.46091248 32.96807861 40.24972534 C34.11412377 43.29932776 35 45.71374939 35 49 C30.05 49 25.1 49 20 49 C19.01 46.69 18.02 44.38 17 42 C11.39 42 5.78 42 0 42 C-0.99 44.31 -1.98 46.62 -3 49 C-7.95 49 -12.9 49 -18 49 C-12.37851123 32.51925307 -6.2266488 16.2590974 0 0 Z " fill="#020202" transform="translate(70,155)"/>
<path d="M0 0 C5.15625 -0.0825 10.3125 -0.165 15.625 -0.25 C17.24100098 -0.28641602 18.85700195 -0.32283203 20.52197266 -0.36035156 C21.8063623 -0.3703418 23.09075195 -0.38033203 24.4140625 -0.390625 C25.7232666 -0.41157227 27.0324707 -0.43251953 28.38134766 -0.45410156 C33.41263671 0.17727056 36.4974471 2.29019842 39.8125 6.0625 C42.32973941 10.16957483 42.48086689 14.31600029 42 19 C40.14231853 24.26343082 37.43208258 26.83422673 33 30 C27.45245084 32.01955722 20.75961608 31.05332978 15 31 C15 36.94 15 42.88 15 49 C10.05 49 5.1 49 0 49 C0 32.83 0 16.66 0 0 Z " fill="#030303" transform="translate(110,155)"/>
<path d="M0 0 C7.07578773 3.00372608 10.83496707 10.10948138 13.8125 16.875 C20.17757761 33.45770221 19.61649928 50.92359148 12.46484375 67.11328125 C6.10987908 79.63679829 -5.08507513 87.12288899 -18 92 C-19.98 92.495 -19.98 92.495 -22 93 C-22 88.38 -22 83.76 -22 79 C-19.525 77.7315625 -19.525 77.7315625 -17 76.4375 C-8.09396894 71.55465672 -1.40173371 66.15321555 1.90234375 56.3125 C5.33935835 44.14831931 5.29338042 31.62195247 -0.4296875 20.12890625 C-3.12077559 15.42833662 -3.12077559 15.42833662 -6.75 11.47265625 C-8 10 -8 10 -7.91015625 8.015625 C-6.80247559 5.56256397 -5.5314753 4.42518024 -3.4375 2.75 C-2.47650391 1.96882813 -2.47650391 1.96882813 -1.49609375 1.171875 C-1.00238281 0.78515625 -0.50867188 0.3984375 0 0 Z " fill="#030303" transform="translate(207,78)"/>
<path d="M0 0 C5.01319042 2.64078125 8.28416547 5.90327766 10.07421875 11.2734375 C10.47102324 16.53109695 9.96920021 19.83446592 7.07421875 24.2734375 C3.15136251 28.24988467 -0.4951151 30.38279682 -6.11328125 30.7109375 C-10.94853708 30.67143378 -13.59480211 28.93822081 -17.296875 25.9765625 C-21.30853062 21.78212161 -21.41683338 17.6349741 -21.3046875 12.03515625 C-20.72029853 7.77574383 -19.0490381 5.16595242 -15.92578125 2.2734375 C-11.01734256 -1.10793138 -5.62973844 -2.12399868 0 0 Z " fill="#F9F9F9" transform="translate(164.92578125,44.7265625)"/>
<path d="M0 0 C4.95 0 9.9 0 15 0 C15 16.17 15 32.34 15 49 C10.05 49 5.1 49 0 49 C0 32.83 0 16.66 0 0 Z " fill="#000000" transform="translate(158,155)"/>
<path d="M0 0 C2.990625 -0.061875 5.98125 -0.12375 9.0625 -0.1875 C9.99070557 -0.21481201 10.91891113 -0.24212402 11.87524414 -0.27026367 C17.3568484 -0.32473415 21.16900008 0.35032807 26 3 C27.60646029 6.21292058 27.62441428 9.5258652 27 13 C24.5 16 24.5 16 22 18 C22.5775 18.515625 23.155 19.03125 23.75 19.5625 C26.58601681 22.63485155 30 26.65817263 30 31 C26.37 31 22.74 31 19 31 C18.60167969 30.21753906 18.20335938 29.43507812 17.79296875 28.62890625 C17.26316406 27.61699219 16.73335937 26.60507813 16.1875 25.5625 C15.40439453 24.04849609 15.40439453 24.04849609 14.60546875 22.50390625 C13.18581516 19.71308782 13.18581516 19.71308782 10 19 C10 22.96 10 26.92 10 31 C6.7 31 3.4 31 0 31 C0 20.77 0 10.54 0 0 Z " fill="#111111" transform="translate(54,113)"/>
<path d="M0 0 C8.25 0 16.5 0 25 0 C25 1.98 25 3.96 25 6 C19.72 6 14.44 6 9 6 C9 7.65 9 9.3 9 11 C13.95 11 18.9 11 24 11 C24 12.98 24 14.96 24 17 C19.05 17 14.1 17 9 17 C9 18.98 9 20.96 9 23 C14.28 23 19.56 23 25 23 C25 25.31 25 27.62 25 30 C16.75 30 8.5 30 0 30 C0 20.1 0 10.2 0 0 Z " fill="#050505" transform="translate(86,114)"/>
<path d="M0 0 C3.0625 1.125 3.0625 1.125 5 3 C6.3125 6.1875 6.3125 6.1875 7 9 C4.03 9 1.06 9 -2 9 C-2.33 8.34 -2.66 7.68 -3 7 C-4.98 7 -6.96 7 -9 7 C-9 7.66 -9 8.32 -9 9 C-8.19175781 9.23074219 -7.38351563 9.46148437 -6.55078125 9.69921875 C5.08551189 13.25046382 5.08551189 13.25046382 8 18 C8.65268272 22.58742709 7.50017067 25.33310578 4.75 29 C-0.09338402 32.467957 -6.37380754 31.76396268 -12 31 C-14.94594933 30.03772823 -15.79091285 29.33181422 -18 27 C-18.875 23.75 -18.875 23.75 -19 21 C-16.36 21 -13.72 21 -11 21 C-10.67 21.99 -10.34 22.98 -10 24 C-7.36 24 -4.72 24 -2 24 C-2.12847642 22.01830901 -2.12847642 22.01830901 -3 20 C-5.15350918 19.03687074 -5.15350918 19.03687074 -7.75 18.5625 C-12.41404924 17.31296245 -15.18254825 16.13226256 -18 12 C-18.625 8.4375 -18.625 8.4375 -18 5 C-12.47373291 -0.52626709 -7.49813775 -0.5851148 0 0 Z " fill="#080808" transform="translate(133,113)"/>
<path d="M0 0 C8.91 0 17.82 0 27 0 C27 2.31 27 4.62 27 7 C24.03 7 21.06 7 18 7 C18 14.59 18 22.18 18 30 C15.03 30 12.06 30 9 30 C9 22.41 9 14.82 9 7 C6.03 7 3.06 7 0 7 C0 4.69 0 2.38 0 0 Z " fill="#020202" transform="translate(143,114)"/>
<path d="M0 0 C1.423125 -0.061875 2.84625 -0.12375 4.3125 -0.1875 C5.51326172 -0.23970703 5.51326172 -0.23970703 6.73828125 -0.29296875 C9 0 9 0 10.76953125 1.35546875 C12 3 12 3 12.375 5.5 C11.92687984 8.48746775 11.36602774 9.1876123 9 11 C6.73828125 11.29296875 6.73828125 11.29296875 4.3125 11.1875 C2.889375 11.125625 1.46625 11.06375 0 11 C0 7.37 0 3.74 0 0 Z " fill="#F6F6F6" transform="translate(125,165)"/>
<path d="M0 0 C2.59947787 2.59947787 3.0684435 4.92738453 4.125 8.4375 C4.47820312 9.59121094 4.83140625 10.74492187 5.1953125 11.93359375 C6 15 6 15 6 18 C2.37 18 -1.26 18 -5 18 C-4.35702496 15.37426939 -3.71075589 12.74942697 -3.0625 10.125 C-2.88009766 9.37863281 -2.69769531 8.63226563 -2.50976562 7.86328125 C-1.11328125 2.2265625 -1.11328125 2.2265625 0 0 Z " fill="#E5E5E5" transform="translate(78,168)"/>
<path d="M0 0 C2.64 0 5.28 0 8 0 C8.33 1.65 8.66 3.3 9 5 C6.04335481 6.4783226 3.25770263 6.06032783 0 6 C0 4.02 0 2.04 0 0 Z " fill="#E6E6E6" transform="translate(63,120)"/>
<path d="M0 0 C1.98 0 3.96 0 6 0 C6.33 0.99 6.66 1.98 7 3 C9.31 3 11.62 3 14 3 C14 3.33 14 3.66 14 4 C12.02 4 10.04 4 8 4 C8 4.66 8 5.32 8 6 C5.36 5.34 2.72 4.68 0 4 C0 2.68 0 1.36 0 0 Z " fill="#DADADA" transform="translate(124,119)"/>
</svg>
