<?xml version="1.0" standalone="no"?>
<!DOCTYPE svg PUBLIC "-//W3C//DTD SVG 20010904//EN"
 "http://www.w3.org/TR/2001/REC-SVG-20010904/DTD/svg10.dtd">
<svg version="1.0" xmlns="http://www.w3.org/2000/svg"
 width="881.000000pt" height="471.000000pt" viewBox="0 0 881.000000 471.000000"
 preserveAspectRatio="xMidYMid meet">

<g transform="translate(0.000000,471.000000) scale(0.100000,-0.100000)"
fill="#000000" stroke="none">
<path d="M0 2355 l0 -2356 2899 2 2900 1 4 27 4 26 2 -27 c1 -36 37 -40 44 -5
l4 22 2 -22 1 -23 1475 0 1475 0 0 2355 0 2355 -4405 0 -4405 0 0 -2355z
m1560 1440 l0 -235 -40 0 -40 0 0 235 0 235 40 0 40 0 0 -235z m880 185 l0
-40 -45 0 -45 0 0 40 0 40 45 0 45 0 0 -40z m-1431 9 c27 -9 31 -16 31 -46 0
-31 -2 -35 -22 -30 -106 26 -170 13 -176 -35 -4 -33 25 -54 84 -64 23 -3 59
-16 80 -28 91 -51 74 -186 -29 -225 -37 -14 -155 -14 -196 0 -27 9 -31 16 -31
45 l0 34 43 -7 c73 -14 145 -8 167 12 45 40 18 73 -82 99 -119 32 -154 102
-100 203 25 47 151 70 231 42z m352 -135 c30 -26 49 -75 49 -124 l0 -40 -100
0 c-64 0 -100 -4 -100 -11 0 -47 67 -77 135 -60 58 15 55 16 55 -23 0 -30 -4
-34 -31 -40 -58 -11 -133 -6 -169 12 -23 11 -43 33 -58 62 -42 82 -13 197 61
234 42 22 129 17 158 -10z m484 14 c36 -16 65 -68 72 -127 l6 -51 -107 0 c-58
0 -106 -2 -106 -5 0 -23 29 -56 57 -66 33 -10 53 -9 117 7 24 6 26 4 26 -25 0
-39 -26 -51 -113 -51 -108 0 -167 57 -167 160 0 67 23 117 69 147 38 26 103
31 146 11z m376 2 c38 -21 49 -62 49 -190 l0 -120 -40 0 -40 0 0 112 c0 90 -3
115 -17 130 -21 23 -40 23 -80 -2 l-33 -20 0 -110 0 -110 -40 0 -40 0 0 155 0
155 35 0 c24 0 35 -5 35 -15 0 -12 6 -12 37 5 41 22 103 26 134 10z m889 -5
c17 -9 30 -20 30 -26 0 -5 15 1 33 15 24 19 46 26 76 26 91 0 111 -37 111
-205 l0 -115 -40 0 -40 0 0 108 c0 126 -13 158 -59 147 -55 -14 -61 -29 -61
-147 l0 -108 -45 0 -44 0 -3 121 c-3 142 -10 153 -71 124 l-37 -17 0 -114 0
-114 -45 0 -45 0 0 155 0 155 35 0 c23 0 38 -6 42 -15 5 -14 8 -14 22 -2 34
30 96 35 141 12z m-680 -150 l0 -155 -40 0 -40 0 0 155 0 155 40 0 40 0 0
-155z m160 55 c0 -54 5 -110 11 -124 22 -47 90 -41 109 10 6 14 10 68 10 120
l0 94 41 0 41 0 -4 -125 -3 -125 -32 -32 c-27 -27 -41 -32 -91 -36 -42 -3 -70
1 -95 13 -54 25 -67 63 -67 194 l0 111 40 0 40 0 0 -100z m2991 -120 c36 0 52
-21 40 -52 -10 -26 -7 -35 22 -57 15 -12 17 -12 11 3 -3 9 -9 16 -13 16 -11 0
-6 43 8 68 8 16 21 22 45 22 46 0 53 -12 14 -24 -46 -15 -51 -52 -9 -61 17 -3
35 -4 41 0 6 3 7 0 4 -9 -5 -14 -24 -21 -47 -17 -4 1 -16 -3 -27 -9 -12 -7
-21 -7 -25 0 -3 5 -15 10 -25 10 -10 0 -26 7 -34 16 -14 13 -16 13 -16 1 0 -8
-7 -17 -15 -21 -12 -4 -15 5 -16 47 0 29 -2 60 -4 71 -3 14 -1 16 8 7 6 -6 23
-11 38 -11z m1459 -29 c0 -13 8 -21 23 -23 18 -2 22 -9 22 -38 0 -33 -2 -35
-37 -38 l-38 -3 0 60 c0 48 3 61 15 61 8 0 15 -9 15 -19z m270 9 c0 -5 -7 -10
-15 -10 -8 0 -15 5 -15 10 0 6 7 10 15 10 8 0 15 -4 15 -10z m-1355 -10 c3 -5
-3 -10 -14 -10 -12 0 -21 5 -21 10 0 6 6 10 14 10 8 0 18 -4 21 -10z m847 -17
l11 -28 6 25 c10 38 38 37 47 -2 l7 -33 9 33 c5 19 15 32 24 32 10 0 14 -6 11
-14 -3 -8 -11 -33 -18 -55 -14 -47 -39 -52 -50 -11 l-6 25 -8 -28 c-11 -42
-36 -29 -56 31 -15 44 -16 52 -3 52 8 0 20 -12 26 -27z m390 10 c39 -35 9 -93
-49 -93 l-33 0 0 55 0 55 32 0 c17 0 40 -7 50 -17z m-1167 -13 c3 -5 -3 -10
-14 -10 -11 0 -23 5 -26 10 -3 6 3 10 14 10 11 0 23 -4 26 -10z m963 -12 c20
-20 13 -38 -15 -39 -24 -2 -25 -2 -5 -6 34 -7 26 -25 -10 -21 -26 2 -34 8 -36
26 -2 13 -1 30 2 38 7 17 47 19 64 2z m361 -10 l8 -23 7 23 c4 12 14 22 22 22
17 0 17 0 -1 -44 -20 -46 -39 -46 -58 2 l-16 37 0 -37 c-1 -27 -5 -38 -16 -38
-10 0 -15 10 -15 31 0 38 -24 35 -28 -4 -5 -45 -32 -34 -32 13 l0 40 60 0 c54
0 62 -3 69 -22z m129 -5 c3 -18 -2 -23 -20 -24 l-23 -2 23 -4 c31 -6 27 -23
-6 -23 -31 0 -52 16 -52 40 0 43 72 55 78 13z m72 18 c0 -5 -7 -11 -15 -15 -8
-3 -15 -17 -15 -31 0 -16 -6 -25 -15 -25 -11 0 -15 11 -15 40 0 38 2 40 30 40
17 0 30 -4 30 -9z m-1455 -10 c10 -17 -11 -21 -31 -6 -18 14 -18 14 3 15 12 0
24 -4 28 -9z m-735 -11 c0 -5 -5 -10 -11 -10 -5 0 -7 5 -4 10 3 6 8 10 11 10
2 0 4 -4 4 -10z m-40 -19 c0 -10 -30 -24 -37 -17 -3 3 -2 9 2 15 8 13 35 15
35 2z m840 -1 c0 -5 -6 -10 -14 -10 -8 0 -18 5 -21 10 -3 6 3 10 14 10 12 0
21 -4 21 -10z m460 -10 c0 -5 -4 -10 -10 -10 -5 0 -10 5 -10 10 0 6 5 10 10
10 6 0 10 -4 10 -10z m-1375 -29 c-3 -6 -14 -11 -23 -11 -15 1 -15 2 2 15 21
16 32 13 21 -4z m980 8 c4 -6 5 -12 2 -15 -7 -7 -37 7 -37 17 0 13 27 11 35
-2z m340 -8 c-3 -6 -14 -11 -23 -11 -15 1 -15 2 2 15 21 16 32 13 21 -4z
m-284 -27 c12 -14 11 -16 -5 -13 -11 2 -21 10 -24 17 -5 17 13 15 29 -4z
m-1093 -6 c-3 -7 -13 -15 -24 -17 -16 -3 -17 -1 -5 13 16 19 34 21 29 4z
m1322 3 c0 -11 -31 -24 -39 -16 -3 3 1 10 9 15 19 12 30 12 30 1z m-171 -34
c6 -8 8 -17 4 -20 -7 -8 -33 11 -33 24 0 13 16 11 29 -4z m1327 -14 c-8 -8
-36 5 -36 17 0 7 6 7 21 0 11 -7 18 -14 15 -17z m-2536 8 c0 -13 -26 -32 -33
-24 -8 7 11 33 24 33 5 0 9 -4 9 -9z m1318 -3 c-3 -7 -13 -15 -24 -17 -16 -3
-17 -1 -5 13 16 19 34 21 29 4z m-51 -45 c2 -6 -4 -13 -13 -17 -21 -8 -26 -3
-18 18 7 18 25 17 31 -1z m1321 -2 c3 -8 -1 -12 -9 -9 -7 2 -15 10 -17 17 -3
8 1 12 9 9 7 -2 15 -10 17 -17z m-2651 -8 c-9 -9 -19 -14 -23 -11 -10 10 6 28
24 28 15 0 15 -1 -1 -17z m1383 -38 c10 -12 10 -15 -3 -15 -8 0 -17 7 -21 15
-3 8 -2 15 3 15 5 0 14 -7 21 -15z m1321 -1 c12 -14 11 -16 -5 -13 -11 2 -21
10 -24 17 -5 17 13 15 29 -4z m-2751 -3 c0 -12 -20 -25 -27 -18 -7 7 6 27 18
27 5 0 9 -4 9 -9z m1320 0 c0 -12 -20 -25 -27 -18 -7 7 6 27 18 27 5 0 9 -4 9
-9z m159 -44 c6 -8 8 -17 4 -20 -7 -8 -33 11 -33 24 0 13 16 11 29 -4z m1320
-13 c3 -16 1 -17 -13 -5 -19 16 -21 34 -3 29 6 -3 14 -13 16 -24z m-2849 9 c0
-14 -19 -38 -25 -32 -8 8 5 39 16 39 5 0 9 -3 9 -7z m1320 -2 c0 -5 -7 -14
-15 -21 -12 -10 -15 -10 -15 2 0 8 3 18 7 21 9 10 23 9 23 -2z m1578 -67 c-10
-10 -28 6 -28 24 0 15 1 15 17 -1 9 -9 14 -19 11 -23z m-6130 -17 c3 -37 2
-38 -20 -31 -33 11 -69 8 -79 -8 -5 -7 -9 -30 -9 -50 l0 -38 70 0 70 0 0 45 0
45 40 0 40 0 0 -45 0 -45 45 0 c43 0 45 -1 45 -30 0 -29 -2 -30 -45 -30 l-45
0 0 -84 c0 -101 13 -121 67 -111 32 6 33 5 33 -30 l0 -35 -55 0 c-106 0 -125
25 -125 165 l0 95 -70 0 -70 0 0 -125 0 -125 -40 0 -40 0 0 125 0 125 -30 0
c-27 0 -30 3 -30 30 0 26 3 30 29 30 28 0 29 2 33 57 4 48 10 61 37 85 29 26
39 29 89 26 l57 -3 3 -38z m4810 24 c3 -8 -1 -12 -9 -9 -7 2 -15 10 -17 17 -3
8 1 12 9 9 7 -2 15 -10 17 -17z m-1618 0 c0 -13 -26 -32 -33 -24 -8 7 11 33
24 33 5 0 9 -4 9 -9z m1314 -6 c-4 -8 -12 -15 -20 -15 -8 0 -11 6 -8 15 4 8
12 15 20 15 8 0 11 -6 8 -15z m-5204 -24 c20 -5 26 -14 28 -45 3 -36 2 -38
-20 -33 -105 26 -170 13 -176 -34 -4 -33 13 -46 84 -65 84 -22 117 -43 132
-88 23 -72 -15 -145 -89 -166 -44 -13 -134 -13 -181 1 -35 9 -38 13 -38 45 l0
34 43 -7 c75 -14 144 -9 167 12 45 40 18 73 -81 99 -87 23 -122 57 -122 118 0
56 24 101 65 121 34 17 140 21 188 8z m6868 -37 c-10 -10 -28 6 -28 24 0 15 1
15 17 -1 9 -9 14 -19 11 -23z m-1320 7 c3 -8 -1 -12 -9 -9 -7 2 -15 10 -17 17
-3 8 1 12 9 9 7 -2 15 -10 17 -17z m-1708 -12 c-7 -11 -14 -18 -17 -15 -8 8 5
36 17 36 7 0 7 -6 0 -21z m1320 7 c0 -17 -14 -29 -23 -20 -8 8 3 34 14 34 5 0
9 -6 9 -14z m-987 -64 l-27 -49 28 -47 28 -48 -23 4 c-16 2 -32 18 -48 46 -20
38 -22 47 -11 70 22 50 40 72 60 72 19 0 19 -3 -7 -48z m61 -1 l-28 -48 28
-47 28 -48 -24 4 c-16 2 -31 18 -47 49 l-25 46 28 47 c18 30 34 46 47 46 19 0
19 -2 -7 -49z m2281 2 l27 -48 -27 -47 c-34 -62 -16 -63 20 -2 l27 46 -27 49
c-25 46 -25 49 -7 49 13 0 30 -16 48 -47 l27 -47 -27 -48 -27 -48 199 0 c195
0 200 0 195 20 -3 11 0 20 6 20 6 0 11 -9 11 -20 0 -19 7 -20 200 -20 l200 0
0 -810 0 -810 -650 0 -650 0 0 140 c0 118 -2 140 -15 140 -8 0 -15 5 -15 10 0
6 7 10 15 10 13 0 15 25 15 165 l0 165 -33 0 c-32 0 -33 1 -29 35 3 27 1 35
-12 35 -11 0 -16 9 -16 30 0 32 -27 54 -55 44 -11 -5 -18 0 -22 15 -7 29 -63
30 -70 1 -4 -15 -11 -19 -25 -14 -28 9 -59 -23 -52 -52 5 -18 2 -24 -11 -24
-14 0 -16 -7 -13 -35 l4 -35 -516 0 c-284 0 -565 -3 -623 -7 l-107 -6 0 508
c0 509 0 509 22 532 21 23 22 23 294 23 268 0 272 0 277 21 3 12 10 18 16 15
6 -4 8 -13 4 -21 -4 -13 65 -15 539 -15 476 0 546 -2 566 -16 12 -8 22 -22 22
-30 0 -12 19 -14 116 -12 l115 3 26 47 26 47 -26 40 c-32 48 -33 51 -8 51 13
0 29 -17 46 -47z m-932 13 c6 -16 -2 -28 -14 -20 -12 7 -11 34 0 34 5 0 11 -6
14 -14z m1317 10 c0 -2 3 -11 6 -20 9 -23 -13 -20 -26 4 -9 16 -8 20 5 20 8 0
15 -2 15 -4z m-3090 -13 c0 -14 -19 -38 -25 -32 -8 8 5 39 16 39 5 0 9 -3 9
-7z m1320 0 c0 -5 -4 -15 -10 -23 -11 -18 -25 -7 -17 15 6 15 27 21 27 8z
m-4769 -46 c44 -29 69 -80 69 -142 0 -99 -61 -165 -152 -165 -105 0 -163 59
-163 165 0 106 57 164 161 165 37 0 61 -6 85 -23z m1300 7 c46 -23 59 -67 59
-194 l0 -110 -40 0 c-22 0 -40 5 -40 10 0 6 -13 4 -30 -5 -118 -61 -222 62
-136 161 20 24 32 28 90 32 73 5 85 19 41 48 -24 16 -40 16 -109 -2 -24 -6
-26 -4 -26 25 0 23 6 34 23 41 37 15 135 11 168 -6z m329 -13 c0 -25 -5 -30
-32 -36 -74 -15 -78 -23 -78 -145 l0 -110 -40 0 -40 0 0 155 0 155 35 0 c25 0
35 -4 35 -16 0 -13 5 -12 26 5 15 12 41 21 60 21 31 0 34 -3 34 -29z m261 3
c30 -26 49 -75 49 -124 l0 -40 -100 0 c-64 0 -100 -4 -100 -11 0 -47 67 -77
135 -60 58 15 55 16 55 -23 0 -40 -14 -46 -105 -46 -80 0 -124 22 -153 80 -39
76 -14 190 52 232 41 25 135 21 167 -8z m-1215 -71 c15 -49 30 -91 33 -95 4
-5 18 35 31 87 l24 95 46 0 46 0 25 -102 25 -103 32 103 33 102 39 0 c22 0 40
-3 40 -7 0 -5 -23 -74 -51 -155 l-51 -148 -42 0 -42 0 -24 95 c-13 52 -27 95
-30 95 -3 0 -17 -43 -30 -95 l-24 -95 -42 0 -42 0 -32 93 c-18 50 -43 120 -56
155 l-23 62 44 0 44 0 27 -87z m4578 61 c4 -9 4 -19 2 -21 -8 -8 -26 8 -26 23
0 19 16 18 24 -2z m1320 0 c4 -9 4 -19 2 -21 -8 -8 -26 8 -26 23 0 19 16 18
24 -2z m-3154 -8 c0 -3 -4 -8 -10 -11 -5 -3 -10 -1 -10 4 0 6 5 11 10 11 6 0
10 -2 10 -4z m-190 -301 c0 -42 -3 -55 -15 -55 -12 0 -15 13 -15 55 0 42 3 55
15 55 12 0 15 -13 15 -55z m102 38 c39 -35 9 -93 -49 -93 l-33 0 0 55 0 55 32
0 c17 0 40 -7 50 -17z m118 7 c0 -5 -11 -10 -25 -10 -14 0 -25 -4 -25 -10 0
-5 9 -10 20 -10 27 0 25 -18 -2 -22 -30 -4 -25 -22 7 -26 40 -5 29 -22 -15
-22 l-40 0 0 55 0 55 40 0 c22 0 40 -4 40 -10z m410 -210 c34 -18 53 -50 53
-90 0 -23 -5 -46 -11 -52 -13 -13 -5 -38 12 -38 18 0 66 -53 66 -73 0 -9 -6
-17 -14 -17 -15 0 -70 58 -78 81 -4 11 -10 11 -32 1 -48 -22 -85 -15 -122 22
-89 89 13 223 126 166z m-2497 -67 c-387 -2 -1019 -2 -1405 0 -387 1 -71 2
702 2 773 0 1089 -1 703 -2z m1997 -129 c0 -8 -4 -12 -10 -9 -5 3 -10 10 -10
16 0 5 5 9 10 9 6 0 10 -7 10 -16z m20 -65 c0 -11 -4 -17 -10 -14 -5 3 -10 15
-10 26 0 11 5 17 10 14 6 -3 10 -15 10 -26z m24 -55 c4 -9 4 -19 2 -21 -8 -8
-26 8 -26 23 0 19 16 18 24 -2z m30 -70 c9 -22 -3 -32 -14 -14 -12 19 -12 30
-1 30 5 0 12 -7 15 -16z m35 -83 c-14 -4 -30 19 -22 33 3 5 12 1 20 -10 10
-13 10 -20 2 -23z m27 -48 c-10 -10 -19 5 -10 18 6 11 8 11 12 0 2 -7 1 -15
-2 -18z m2049 -8 c25 -25 30 -41 19 -69 -5 -12 -21 -16 -70 -16 l-64 0 0 33
c0 37 7 49 35 65 31 18 54 14 80 -13z m-447 -177 c17 -17 15 -44 -4 -62 -11
-12 -36 -16 -95 -16 -90 0 -119 10 -119 43 0 40 18 47 115 47 57 0 95 -4 103
-12z m-1338 -8 c0 -5 -7 -10 -15 -10 -8 0 -15 5 -15 10 0 6 7 10 15 10 8 0 15
-4 15 -10z m90 -50 l0 -60 -35 0 c-29 0 -36 4 -41 25 -7 29 10 55 37 55 12 0
19 7 19 20 0 11 5 20 10 20 6 0 10 -27 10 -60z m-200 41 c0 -5 -13 -11 -29
-14 -34 -7 -46 -31 -25 -52 18 -17 34 -20 34 -5 0 6 -4 10 -10 10 -5 0 -10 5
-10 10 0 6 11 10 25 10 21 0 25 -5 25 -30 0 -28 -2 -30 -38 -30 -21 0 -43 5
-50 12 -17 17 -15 64 4 82 16 17 74 22 74 7z m110 -61 c0 -29 -4 -40 -15 -40
-10 0 -15 10 -15 31 0 38 -24 35 -28 -4 -5 -45 -32 -34 -32 13 l0 40 45 0 45
0 0 -40z m-3240 -5 c207 -6 296 -21 287 -49 -4 -11 -218 -196 -228 -196 -3 0
-27 27 -55 60 -27 33 -52 60 -55 60 -3 0 -19 -19 -36 -43 -29 -40 -30 -43 -14
-63 9 -11 46 -60 83 -107 l68 -87 137 115 c134 113 161 131 149 99 -3 -9 -7
-109 -8 -222 -1 -114 -3 -188 -5 -164 l-4 44 -70 -4 c-50 -2 -69 0 -69 10 0 6
-4 12 -9 12 -5 0 -13 9 -16 20 -11 35 -78 70 -132 70 -52 0 -104 -25 -122 -58
-11 -21 -31 -20 -106 7 -16 6 -50 16 -74 23 -50 15 -62 32 -32 47 26 15 71 -3
78 -30 4 -14 11 -18 22 -14 9 4 29 9 44 12 37 7 43 25 21 58 -55 85 -230 87
-275 3 -19 -34 -28 -97 -16 -101 8 -2 7 -6 0 -10 -19 -12 -30 22 -42 131 -15
140 -14 266 3 305 29 69 75 88 191 82 44 -3 172 -7 285 -10z m403 -53 l18 -31
-37 -33 c-63 -56 -111 -88 -119 -80 -5 4 -5 2 -2 -4 4 -7 -1 -18 -10 -25 -12
-10 -14 -10 -9 -1 4 7 2 12 -8 12 -8 0 -16 -3 -18 -7 -1 -5 -35 -29 -74 -54
-87 -57 -101 -56 -178 17 -57 54 -59 61 -28 96 13 15 18 12 64 -40 27 -31 53
-57 58 -57 8 0 121 90 249 197 31 26 60 46 66 44 5 -1 18 -17 28 -34z m4084
-22 l151 1 11 -33 c5 -18 13 -54 17 -80 l6 -48 -202 0 -202 0 5 23 c3 12 8 45
12 72 9 71 13 78 33 70 9 -3 85 -6 169 -5z m-271 -15 c-19 -14 -36 -12 -36 6
0 5 12 9 28 9 26 -1 26 -1 8 -15z m534 5 c8 -5 11 -12 8 -16 -10 -9 -38 3 -38
16 0 12 10 13 30 0z m-595 -19 c6 -11 -33 -26 -43 -16 -4 3 0 10 8 15 19 12
27 12 35 1z m-640 -11 c3 -5 -1 -10 -9 -10 -9 0 -16 5 -16 10 0 6 4 10 9 10 6
0 13 -4 16 -10z m1315 0 c0 -5 -9 -10 -20 -10 -11 0 -20 5 -20 10 0 6 9 10 20
10 11 0 20 -4 20 -10z m-745 -21 c-8 -12 -45 -12 -45 0 0 10 30 20 43 14 4 -3
5 -9 2 -14z m-505 1 c0 -5 -9 -10 -20 -10 -11 0 -20 5 -20 10 0 6 9 10 20 10
11 0 20 -4 20 -10z m1320 0 c0 -5 -9 -10 -20 -10 -11 0 -20 5 -20 10 0 6 9 10
20 10 11 0 20 -4 20 -10z m-1251 -9 c9 -6 10 -10 2 -16 -15 -8 -41 1 -41 15 0
12 20 13 39 1z m365 0 c7 -11 -22 -23 -35 -15 -5 3 -7 10 -4 15 8 12 32 12 39
0z m946 -1 c8 -5 11 -12 8 -16 -10 -9 -38 3 -38 16 0 12 10 13 30 0z m-1235
-9 c3 -5 1 -13 -5 -16 -15 -9 -43 3 -35 15 8 13 32 13 40 1z m220 0 c3 -5 -4
-13 -16 -16 -23 -8 -34 -1 -24 14 8 13 32 14 40 2z m1095 -12 c0 -11 -27 -12
-34 0 -3 4 -3 11 0 14 8 8 34 -3 34 -14z m-1240 1 c0 -5 -9 -10 -20 -10 -11 0
-20 5 -20 10 0 6 9 10 20 10 11 0 20 -4 20 -10z m70 0 c0 -5 -9 -10 -20 -10
-11 0 -20 5 -20 10 0 6 9 10 20 10 11 0 20 -4 20 -10z m1250 0 c0 -5 -11 -10
-25 -10 -14 0 -25 5 -25 10 0 6 11 10 25 10 14 0 25 -4 25 -10z m-930 -125 c0
-13 -35 -15 -257 -15 -286 0 -293 -2 -293 -65 0 -59 2 -60 357 -65 l325 -5 24
-28 c31 -36 32 -92 3 -127 l-21 -25 -329 -5 c-313 -5 -329 -6 -343 -25 -16
-21 -20 -63 -8 -81 21 -31 54 -34 424 -34 l374 0 9 33 10 32 530 3 c489 2 531
1 543 -15 9 -12 12 -84 12 -274 0 -225 -2 -258 -16 -263 -9 -3 -249 -6 -534
-6 -458 0 -520 2 -534 16 -14 13 -16 48 -16 230 l0 214 -381 0 c-260 0 -387 4
-402 11 -86 44 -70 164 24 183 18 3 162 6 322 6 256 0 293 2 309 17 24 21 23
68 -2 93 -19 19 -33 20 -336 20 l-316 0 -29 29 c-21 22 -29 39 -29 66 0 27 8
44 29 66 l29 29 261 0 c225 0 261 -2 261 -15z m-4406 -69 c30 -12 66 -49 66
-67 0 -4 -13 -11 -28 -17 -23 -8 -32 -6 -56 15 -33 28 -83 28 -100 1 -18 -29
4 -50 73 -69 71 -20 98 -40 117 -86 18 -41 1 -97 -38 -126 -42 -31 -133 -35
-186 -8 -40 20 -72 54 -72 77 0 6 15 14 33 17 24 3 37 -1 53 -18 45 -49 140
-36 132 18 -2 18 -18 27 -83 49 -45 15 -87 36 -97 48 -39 48 -13 147 46 170
33 13 103 11 140 -4z m309 -115 c39 -25 55 -51 63 -101 l7 -42 -94 3 -94 4 3
-25 c8 -56 66 -79 99 -40 18 21 73 28 73 9 0 -61 -109 -101 -180 -64 -93 48
-100 203 -11 258 35 22 99 21 134 -2z m-216 -83 c-3 -8 -6 -5 -6 6 -1 11 2 17
5 13 3 -3 4 -12 1 -19z m5991 -1059 l-3 -63 -37 -2 c-28 -2 -41 2 -52 17 -23
33 -1 89 35 89 11 0 19 6 19 14 0 17 21 27 33 16 4 -4 7 -36 5 -71z m272 51
c0 -13 5 -18 15 -14 36 14 58 -42 35 -86 -7 -14 -21 -19 -50 -18 l-40 0 0 68
c0 46 4 70 13 73 18 6 27 -2 27 -23z m-699 -12 c21 0 29 -5 35 -26 l7 -27 6
25 c10 35 37 37 49 3 9 -25 10 -26 11 -5 1 21 25 41 37 30 2 -3 -1 -28 -8 -57
-10 -43 -15 -51 -32 -49 -12 2 -23 13 -27 28 l-6 25 -8 -27 c-12 -46 -41 -36
-58 20 -8 27 -16 41 -19 32 -3 -8 -9 -28 -14 -45 -12 -38 -45 -41 -55 -5 l-6
25 -8 -27 c-12 -46 -42 -36 -59 20 l-14 47 -12 -48 c-11 -40 -16 -48 -33 -45
-13 2 -23 13 -27 27 l-5 24 -13 -27 c-18 -40 -42 -29 -58 24 -18 58 -17 60 5
60 11 0 21 -9 25 -22 l7 -23 9 23 c13 30 38 28 47 -5 l7 -28 6 25 c5 20 13 25
42 27 31 2 37 -1 43 -25 l8 -27 6 25 c10 35 37 37 49 3 l10 -28 2 25 c1 14 2
29 1 33 -1 5 4 5 10 1 7 -4 24 -7 40 -6z m300 -8 c10 -6 19 -20 19 -30 0 -16
-7 -20 -30 -20 -16 0 -30 -5 -30 -11 0 -7 11 -9 31 -5 25 5 30 3 27 -12 -4
-21 -48 -28 -78 -12 -14 8 -20 21 -20 45 0 47 37 68 81 45z m179 -14 c0 -33
10 -57 21 -50 5 3 9 21 9 40 0 28 4 35 18 32 13 -3 17 -14 17 -53 l0 -50 -45
0 -45 0 -3 53 c-2 42 0 52 12 52 10 0 16 -9 16 -24z m168 1 c3 -15 -1 -17 -22
-11 -23 5 -26 3 -26 -21 0 -24 3 -26 26 -21 21 6 25 4 22 -11 -4 -24 -51 -29
-72 -8 -36 36 -7 99 43 93 15 -2 27 -10 29 -21z m210 11 c7 -7 12 -31 12 -54
l0 -42 -39 0 c-67 -1 -82 52 -20 69 23 7 23 7 -3 8 -27 1 -35 10 -21 24 11 11
58 8 71 -5z m170 -11 c3 -13 -2 -16 -20 -15 -17 2 -23 -2 -23 -17 0 -15 6 -19
23 -17 18 1 23 -2 20 -15 -8 -41 -88 -14 -88 29 0 49 80 81 88 35z m96 7 c31
-30 10 -94 -30 -94 -34 0 -54 20 -54 55 0 50 50 73 84 39z m174 3 c6 -5 12
-28 12 -53 0 -38 -3 -45 -17 -42 -18 3 -19 7 -22 53 -2 42 -21 28 -21 -16 0
-33 -3 -40 -17 -37 -13 2 -19 14 -21 41 -4 46 -22 39 -22 -9 0 -28 -4 -35 -17
-32 -13 2 -18 14 -19 48 -1 25 0 48 2 51 5 8 127 5 142 -4z m-3511 -13 c-3 -3
-12 -4 -19 -1 -8 3 -5 6 6 6 11 1 17 -2 13 -5z m53 -4 c0 -5 -2 -10 -4 -10 -3
0 -8 5 -11 10 -3 6 -1 10 4 10 6 0 11 -4 11 -10z m-260 -40 c0 -5 -2 -10 -4
-10 -3 0 -8 5 -11 10 -3 6 -1 10 4 10 6 0 11 -4 11 -10z m207 4 c-3 -3 -12 -4
-19 -1 -8 3 -5 6 6 6 11 1 17 -2 13 -5z m253 2 c0 -3 -4 -8 -10 -11 -5 -3 -10
-1 -10 4 0 6 5 11 10 11 6 0 10 -2 10 -4z m50 -6 c0 -5 -4 -10 -10 -10 -5 0
-10 5 -10 10 0 6 5 10 10 10 6 0 10 -4 10 -10z m2110 -21 c0 -25 -33 -22 -38
4 -2 12 3 17 17 17 15 0 21 -6 21 -21z m720 1 c0 -11 -7 -20 -15 -20 -8 0 -15
9 -15 20 0 11 7 20 15 20 8 0 15 -9 15 -20z m-3344 -27 c-10 -10 -19 5 -10 18
6 11 8 11 12 0 2 -7 1 -15 -2 -18z m771 5 c-3 -8 -6 -5 -6 6 -1 11 2 17 5 13
3 -3 4 -12 1 -19z m-617 8 c0 -11 -19 -15 -25 -6 -3 5 1 10 9 10 9 0 16 -2 16
-4z m360 0 c0 -3 -4 -8 -10 -11 -5 -3 -10 -1 -10 4 0 6 5 11 10 11 6 0 10 -2
10 -4z m60 -6 c0 -5 -4 -10 -10 -10 -5 0 -10 5 -10 10 0 6 5 10 10 10 6 0 10
-4 10 -10z m90 0 c0 -5 -4 -10 -10 -10 -5 0 -10 5 -10 10 0 6 5 10 10 10 6 0
10 -4 10 -10z m60 0 c0 -5 -4 -10 -10 -10 -5 0 -10 5 -10 10 0 6 5 10 10 10 6
0 10 -4 10 -10z m350 0 c0 -5 -2 -10 -4 -10 -3 0 -8 5 -11 10 -3 6 -1 10 4 10
6 0 11 -4 11 -10z m-763 -42 c-3 -8 -6 -5 -6 6 -1 11 2 17 5 13 3 -3 4 -12 1
-19z m253 7 c0 -8 -7 -15 -15 -15 -8 0 -15 5 -15 11 0 5 5 7 10 4 6 -3 10 -1
10 4 0 6 2 11 5 11 3 0 5 -7 5 -15z m207 -7 c-3 -8 -6 -5 -6 6 -1 11 2 17 5
13 3 -3 4 -12 1 -19z m150 0 c-3 -8 -6 -5 -6 6 -1 11 2 17 5 13 3 -3 4 -12 1
-19z m-1067 2 c0 -5 -8 -10 -17 -10 -15 0 -16 2 -3 10 19 12 20 12 20 0z m50
0 c0 -5 -5 -10 -11 -10 -5 0 -7 5 -4 10 3 6 8 10 11 10 2 0 4 -4 4 -10z m44 2
c3 -5 -1 -9 -9 -9 -8 0 -12 4 -9 9 3 4 7 8 9 8 2 0 6 -4 9 -8z m266 -2 c0 -5
-7 -10 -15 -10 -8 0 -15 5 -15 10 0 6 7 10 15 10 8 0 15 -4 15 -10z m45 0 c3
-5 1 -10 -4 -10 -6 0 -11 5 -11 10 0 6 2 10 4 10 3 0 8 -4 11 -10z m105 -2 c0
-10 -17 -10 -24 0 -3 5 1 9 9 9 8 0 15 -4 15 -9z m100 8 c0 -3 -4 -8 -10 -11
-5 -3 -10 -1 -10 4 0 6 5 11 10 11 6 0 10 -2 10 -4z m50 -6 c0 -5 -4 -10 -10
-10 -5 0 -10 5 -10 10 0 6 5 10 10 10 6 0 10 -4 10 -10z m100 6 c0 -2 -7 -7
-16 -10 -8 -3 -12 -2 -9 4 6 10 25 14 25 6z m50 -6 c0 -5 -4 -10 -10 -10 -5 0
-10 5 -10 10 0 6 5 10 10 10 6 0 10 -4 10 -10z m410 6 c0 -3 -4 -8 -10 -11 -5
-3 -10 -1 -10 4 0 6 5 11 10 11 6 0 10 -2 10 -4z m100 -6 c0 -5 -7 -10 -15
-10 -8 0 -15 5 -15 10 0 6 7 10 15 10 8 0 15 -4 15 -10z m-1117 -7 c-7 -2 -19
-2 -25 0 -7 3 -2 5 12 5 14 0 19 -2 13 -5z m257 -26 c0 -8 -7 -14 -15 -14 -25
0 -17 17 13 26 1 1 2 -5 2 -12z m-923 -3 c-3 -3 -12 -4 -19 -1 -8 3 -5 6 6 6
11 1 17 -2 13 -5z m106 -1 c-7 -2 -19 -2 -25 0 -7 3 -2 5 12 5 14 0 19 -2 13
-5z m47 -3 c0 -5 -7 -7 -15 -4 -8 4 -15 8 -15 10 0 2 7 4 15 4 8 0 15 -4 15
-10z m47 4 c-3 -3 -12 -4 -19 -1 -8 3 -5 6 6 6 11 1 17 -2 13 -5z m63 2 c0 -2
-7 -6 -15 -10 -8 -3 -15 -1 -15 4 0 6 7 10 15 10 8 0 15 -2 15 -4z m43 -3 c-7
-2 -19 -2 -25 0 -7 3 -2 5 12 5 14 0 19 -2 13 -5z m57 -3 c0 -5 -7 -7 -15 -4
-8 4 -15 8 -15 10 0 2 7 4 15 4 8 0 15 -4 15 -10z m50 0 c0 -5 -7 -7 -15 -4
-8 4 -15 8 -15 10 0 2 7 4 15 4 8 0 15 -4 15 -10z m50 0 c0 -5 -7 -10 -15 -10
-8 0 -15 5 -15 10 0 6 7 10 15 10 8 0 15 -4 15 -10z m50 0 c0 -5 -4 -10 -10
-10 -5 0 -10 5 -10 10 0 6 5 10 10 10 6 0 10 -4 10 -10z m100 0 c0 -5 -7 -10
-15 -10 -8 0 -15 5 -15 10 0 6 7 10 15 10 8 0 15 -4 15 -10z m60 0 c0 -5 -7
-10 -15 -10 -8 0 -15 5 -15 10 0 6 7 10 15 10 8 0 15 -4 15 -10z m40 0 c0 -5
-7 -7 -15 -4 -8 4 -15 8 -15 10 0 2 7 4 15 4 8 0 15 -4 15 -10z m60 0 c0 -5
-6 -10 -14 -10 -8 0 -18 5 -21 10 -3 6 3 10 14 10 12 0 21 -4 21 -10z m50 0
c0 -5 -6 -10 -14 -10 -8 0 -18 5 -21 10 -3 6 3 10 14 10 12 0 21 -4 21 -10z
m50 0 c0 -5 -7 -10 -15 -10 -8 0 -15 5 -15 10 0 6 7 10 15 10 8 0 15 -4 15
-10z m100 0 c0 -5 -7 -10 -15 -10 -8 0 -15 5 -15 10 0 6 7 10 15 10 8 0 15 -4
15 -10z m45 0 c3 -5 -1 -10 -9 -10 -9 0 -16 5 -16 10 0 6 4 10 9 10 6 0 13 -4
16 -10z m60 0 c-8 -13 -35 -13 -35 0 0 6 9 10 21 10 11 0 17 -4 14 -10z m50 0
c-8 -13 -35 -13 -35 0 0 6 9 10 21 10 11 0 17 -4 14 -10z m55 6 c0 -2 -9 -6
-20 -9 -11 -3 -20 -1 -20 4 0 5 9 9 20 9 11 0 20 -2 20 -4z m40 -6 c0 -5 -4
-10 -9 -10 -6 0 -13 5 -16 10 -3 6 1 10 9 10 9 0 16 -4 16 -10z m55 0 c-3 -5
-10 -10 -16 -10 -5 0 -9 5 -9 10 0 6 7 10 16 10 8 0 12 -4 9 -10z m55 6 c0 -3
-4 -8 -10 -11 -5 -3 -10 -1 -10 4 0 6 5 11 10 11 6 0 10 -2 10 -4z m47 -18
c-3 -8 -6 -5 -6 6 -1 11 2 17 5 13 3 -3 4 -12 1 -19z m408 12 c8 -13 -5 -13
-25 0 -13 8 -13 10 2 10 9 0 20 -4 23 -10z m55 1 c0 -5 -9 -7 -20 -4 -11 3
-20 7 -20 9 0 2 9 4 20 4 11 0 20 -4 20 -9z m50 -1 c0 -5 -2 -10 -4 -10 -3 0
-8 5 -11 10 -3 6 -1 10 4 10 6 0 11 -4 11 -10z m-473 -6 c-3 -3 -12 -4 -19 -1
-8 3 -5 6 6 6 11 1 17 -2 13 -5z"/>
<path d="M1235 3795 c-38 -37 -31 -45 35 -45 33 0 60 3 60 6 0 11 -23 49 -34
56 -19 13 -36 9 -61 -17z"/>
<path d="M1740 3800 c-36 -36 -26 -50 35 -50 48 0 55 3 55 19 0 20 -35 51 -57
51 -7 0 -22 -9 -33 -20z"/>
<path d="M5573 3616 c0 -8 6 -12 14 -9 7 3 10 9 7 14 -8 14 -21 11 -21 -5z"/>
<path d="M7040 3560 c0 -13 5 -20 13 -17 6 2 12 10 12 17 0 7 -6 15 -12 18 -8
2 -13 -5 -13 -18z"/>
<path d="M7140 3575 c0 -38 0 -38 24 -29 19 7 21 35 4 52 -20 20 -28 14 -28
-23z"/>
<path d="M6763 2991 c-36 -23 -58 -59 -68 -112 -5 -29 0 -49 26 -100 39 -79
96 -149 119 -149 22 0 79 69 115 139 23 47 26 61 20 109 -5 42 -14 62 -39 90
-28 30 -40 36 -87 39 -42 3 -61 0 -86 -16z m122 -56 c30 -30 31 -54 4 -89 -40
-50 -119 -24 -119 40 0 68 68 97 115 49z"/>
<path d="M7077 2873 c-2 -5 -1 -89 3 -188 l7 -180 1 188 c2 172 0 200 -11 180z"/>
<path d="M5795 2730 c-3 -5 -3 -10 2 -10 139 -6 262 -3 260 5 -5 14 -253 19
-262 5z"/>
<path d="M5790 2660 c0 -6 52 -10 135 -10 83 0 135 4 135 10 0 6 -52 10 -135
10 -83 0 -135 -4 -135 -10z"/>
<path d="M6061 2611 c-10 -6 -15 -41 -19 -123 -6 -136 1 -148 79 -148 46 0 49
-2 49 -25 0 -14 5 -25 10 -25 6 0 33 11 60 25 38 19 65 25 115 25 105 0 105
-1 105 144 0 104 -3 125 -16 130 -24 9 -367 7 -383 -3z m329 -91 c0 -6 -53
-10 -140 -10 -87 0 -140 4 -140 10 0 6 53 10 140 10 87 0 140 -4 140 -10z m-2
-62 c-4 -10 -40 -13 -138 -13 -98 0 -134 3 -137 13 -4 9 28 12 137 12 109 0
141 -3 138 -12z"/>
<path d="M6783 2542 c-27 -4 -30 -19 -5 -25 14 -4 14 -5 -3 -6 -11 0 -32 -9
-45 -18 -24 -16 -24 -16 -11 0 20 25 7 32 -18 11 -15 -13 -17 -21 -10 -30 8
-9 5 -18 -10 -31 -26 -21 -27 -43 -3 -64 29 -27 52 -59 42 -59 -5 0 -13 7 -18
16 -6 11 -12 13 -16 6 -12 -19 25 -52 51 -46 17 5 23 2 23 -10 0 -11 9 -16 30
-16 23 0 30 4 30 20 0 21 4 23 35 11 14 -6 24 -2 36 13 10 12 15 25 12 29 -3
5 -12 -1 -20 -12 -8 -12 -19 -21 -24 -21 -5 0 2 12 16 27 14 15 25 31 25 35 0
5 7 8 15 8 10 0 15 10 15 30 0 23 -5 30 -19 30 -10 0 -21 7 -25 15 -3 9 0 15
10 15 8 0 12 5 9 10 -4 6 -10 8 -15 5 -10 -6 -72 29 -65 37 10 10 -20 24 -42
20z m62 -87 c48 -47 17 -117 -52 -117 -77 0 -101 103 -30 132 37 15 57 11 82
-15z m62 -47 c-3 -8 -6 -5 -6 6 -1 11 2 17 5 13 3 -3 4 -12 1 -19z"/>
<path d="M6850 2513 c8 -3 18 -11 22 -17 9 -14 22 -1 13 13 -3 6 -16 11 -28
10 -15 0 -17 -2 -7 -6z"/>
<path d="M1265 3005 c-21 -20 -25 -34 -25 -80 0 -46 4 -60 25 -80 30 -31 56
-32 92 -1 25 21 28 31 28 81 0 50 -3 60 -28 81 -36 31 -62 30 -92 -1z"/>
<path d="M2588 2899 c-11 -6 -18 -22 -18 -39 0 -35 28 -47 71 -30 22 10 29 19
29 40 0 38 -42 53 -82 29z"/>
<path d="M3165 3005 c-38 -37 -31 -45 35 -45 33 0 60 4 60 9 0 16 -41 61 -56
61 -8 0 -26 -11 -39 -25z"/>
<path d="M4680 2745 c0 -19 4 -35 9 -35 9 0 41 27 41 35 0 8 -32 35 -41 35 -5
0 -9 -16 -9 -35z"/>
<path d="M5203 1805 c-3 -9 -3 -18 0 -21 9 -9 27 6 27 22 0 19 -19 18 -27 -1z"/>
<path d="M1912 1278 c-26 -26 -14 -45 35 -52 55 -7 67 0 50 34 -14 28 -64 39
-85 18z m65 -23 c2 -11 0 -15 -3 -8 -3 8 -15 9 -35 3 -33 -10 -35 -8 -13 15
21 21 48 15 51 -10z"/>
<path d="M7724 175 c-3 -8 -3 -19 1 -25 11 -18 25 -11 25 15 0 27 -17 34 -26
10z"/>
<path d="M8060 165 c0 -14 4 -25 9 -25 12 0 19 21 13 38 -8 21 -22 13 -22 -13z"/>
<path d="M8170 150 c0 -5 5 -10 10 -10 6 0 10 5 10 10 0 6 -4 10 -10 10 -5 0
-10 -4 -10 -10z"/>
<path d="M8433 174 c-8 -22 15 -44 26 -25 10 16 4 41 -10 41 -5 0 -12 -7 -16
-16z"/>
</g>
</svg>
