<?xml version="1.0" standalone="no"?>
<!DOCTYPE svg PUBLIC "-//W3C//DTD SVG 20010904//EN"
 "http://www.w3.org/TR/2001/REC-SVG-20010904/DTD/svg10.dtd">
<svg version="1.0" xmlns="http://www.w3.org/2000/svg"
 width="1600.000000pt" height="738.000000pt" viewBox="0 0 1600.000000 738.000000"
 preserveAspectRatio="xMidYMid meet">

<g transform="translate(0.000000,738.000000) scale(0.100000,-0.100000)"
fill="#000000" stroke="none">
<path d="M0 3690 l0 -3690 8000 0 8000 0 0 3690 0 3690 -8000 0 -8000 0 0
-3690z m4920 1593 c-1 -5 -7 -19 -15 -33 -11 -19 -14 -67 -15 -202 0 -169 1
-178 19 -178 14 0 32 23 62 78 124 226 159 296 159 318 l0 24 140 0 c77 0 140
-3 140 -7 0 -4 -9 -17 -21 -29 -11 -12 -76 -122 -145 -244 l-123 -221 133
-268 c74 -147 146 -281 160 -298 14 -17 26 -34 26 -37 0 -3 -70 -6 -155 -6
l-155 0 -1 28 c-1 39 -200 437 -219 437 -23 0 -27 -392 -5 -435 l16 -30 -141
0 c-77 0 -140 3 -140 8 1 4 7 18 15 32 22 38 22 974 0 1027 -8 19 -15 37 -15
39 0 2 63 4 140 4 77 0 140 -3 140 -7z m1392 -70 l78 -78 0 -240 0 -241 -65
-64 c-36 -35 -65 -69 -65 -74 0 -25 96 -255 122 -293 l29 -43 -152 0 -151 0 5
33 c4 23 -7 66 -41 157 l-47 125 -43 3 -42 3 0 -128 c1 -92 5 -135 15 -153 8
-14 14 -28 15 -32 0 -5 -63 -8 -140 -8 l-141 0 16 30 c22 42 22 1001 0 1040
-8 14 -14 28 -15 33 0 4 123 7 272 7 l273 0 77 -77z m953 50 c-11 -41 -10 -47
39 -230 25 -92 84 -311 131 -487 47 -175 90 -327 95 -337 6 -10 10 -20 10 -23
0 -3 -60 -6 -134 -6 l-135 0 2 53 c0 28 -5 71 -11 95 l-13 42 -150 0 -149 0
-12 -27 c-6 -16 -12 -58 -12 -95 l-1 -68 -138 0 -138 0 15 28 c21 41 278 1013
273 1031 -3 9 -8 24 -12 34 -7 16 5 17 170 17 l177 0 -7 -27z m1195 -98 c0
-69 -3 -125 -7 -125 -5 1 -19 7 -33 15 -19 11 -66 14 -192 15 l-168 0 0 -115
0 -115 105 0 c71 0 117 5 142 15 19 8 37 15 39 15 2 0 4 -63 4 -140 0 -77 -3
-140 -7 -140 -5 1 -19 7 -33 15 -17 10 -59 14 -137 15 l-113 0 0 -190 c0 -152
3 -197 15 -220 l16 -30 -146 0 -146 0 16 30 c13 26 15 95 12 532 -1 277 -6
513 -11 526 l-8 22 326 0 326 0 0 -125z m958 -2 c1 -68 -1 -123 -5 -123 -4 1
-19 7 -33 15 -17 9 -56 14 -117 15 l-93 0 0 -415 c0 -353 2 -420 15 -445 l16
-30 -141 0 c-77 0 -140 2 -140 4 0 2 6 17 13 33 9 23 11 130 9 442 l-2 411
-88 0 c-56 -1 -96 -6 -112 -15 -14 -8 -28 -14 -32 -15 -5 0 -8 56 -8 125 l0
125 358 -2 357 -3 3 -122z m854 50 l78 -78 0 -400 0 -400 -77 -77 -78 -78
-195 0 -195 0 -77 77 -78 78 0 400 0 400 77 77 78 78 195 0 195 0 77 -77z
m718 -216 l115 -292 3 258 c2 214 0 262 -13 287 -8 16 -15 31 -15 35 0 3 63 5
140 5 77 0 140 -2 140 -4 0 -2 -7 -20 -15 -39 -13 -31 -15 -112 -15 -512 0
-400 2 -481 15 -512 8 -19 15 -37 15 -39 0 -2 -60 -4 -132 -4 l-133 0 -69 178
c-38 97 -88 225 -111 284 -22 59 -44 111 -48 114 -4 4 -7 -109 -7 -252 1 -206
4 -264 15 -284 8 -14 14 -28 15 -32 0 -5 -63 -8 -140 -8 -77 0 -140 3 -140 8
1 4 7 18 15 32 12 21 14 109 14 515 0 406 -2 494 -14 515 -8 14 -14 28 -15 33
0 4 60 7 133 7 l132 0 115 -293z m-10084 -3828 c169 -81 211 -307 85 -452
-105 -119 -301 -123 -416 -9 -53 53 -77 106 -83 183 -10 148 73 263 219 303
68 19 118 13 195 -25z m-494 -636 c3 -33 7 -38 30 -41 24 -3 27 0 30 34 2 21
9 39 16 42 10 3 12 -8 10 -44 l-3 -49 -43 -3 c-55 -4 -72 10 -72 59 0 53 28
54 32 2z m180 1 c15 -21 29 -31 32 -25 4 6 5 15 2 20 -8 12 3 41 15 41 5 0 9
-22 9 -50 0 -42 -3 -50 -19 -50 -10 0 -33 17 -50 38 l-30 37 -1 -38 c0 -48
-23 -46 -28 2 -7 70 29 83 70 25z m184 28 c16 -10 15 -92 -1 -92 -7 0 -15 7
-19 15 -7 20 -43 19 -54 -1 -5 -9 -14 -14 -21 -10 -12 8 -15 78 -4 89 9 9 85
9 99 -1z m139 -2 c4 -6 -10 -10 -34 -10 -23 0 -41 -4 -41 -10 0 -5 16 -10 35
-10 19 0 35 -4 35 -10 0 -5 -16 -10 -35 -10 -19 0 -35 -4 -35 -10 0 -5 18 -10
40 -10 22 0 40 -4 40 -10 0 -5 -25 -10 -55 -10 l-55 0 0 50 0 50 49 0 c28 0
53 -4 56 -10z m123 -38 c24 -42 23 -67 0 -44 -15 15 -53 15 -78 0 -31 -20 -32
-4 -4 46 32 57 50 57 82 -2z m70 5 c3 -34 6 -37 33 -37 16 0 29 -4 29 -10 0
-5 -20 -10 -45 -10 l-45 0 0 51 c0 60 23 65 28 6z m-500 -94 c-26 -7 -22 -41
5 -46 16 -3 13 -5 -10 -6 -30 -1 -33 2 -33 29 0 26 3 30 28 29 16 -1 20 -3 10
-6z m92 -20 c0 9 5 17 10 17 14 0 13 -37 -1 -46 -6 -3 -18 1 -27 9 -14 15 -17
15 -28 -1 -12 -15 -13 -14 -14 9 0 37 10 42 37 17 19 -18 23 -19 23 -5z m85
17 c4 -6 -4 -9 -17 -7 -28 3 -32 -26 -4 -31 11 -3 16 0 12 7 -4 6 0 11 9 11
27 0 11 -25 -18 -28 -29 -4 -44 16 -33 43 6 17 42 20 51 5z m118 -8 c3 18 5
16 6 -9 1 -36 -9 -42 -29 -18 -13 16 -35 21 -25 6 3 -5 1 -12 -5 -16 -11 -7
-14 37 -3 48 3 4 17 -2 29 -14 l22 -21 5 24z m65 11 c-10 -2 -18 -9 -18 -14 0
-6 5 -7 10 -4 6 3 10 1 10 -4 0 -6 -6 -11 -12 -12 -7 0 -4 -4 7 -9 18 -8 17
-9 -7 -9 -25 -1 -28 3 -28 29 0 26 3 30 28 29 16 -1 20 -3 10 -6z m-138 -22
c0 -11 -4 -23 -10 -26 -6 -4 -10 5 -10 19 0 14 5 26 10 26 6 0 10 -9 10 -19z
m-210 -1 c0 -5 -4 -10 -10 -10 -5 0 -10 5 -10 10 0 6 5 10 10 10 6 0 10 -4 10
-10z"/>
<path d="M5947 5064 c-4 -4 -7 -81 -7 -171 l0 -163 115 0 115 0 -2 168 -3 167
-106 3 c-58 1 -108 -1 -112 -4z"/>
<path d="M7082 4892 c-15 -61 -70 -270 -78 -294 -5 -17 2 -18 92 -18 l97 0 -7
28 c-16 74 -82 322 -87 326 -3 3 -11 -15 -17 -42z"/>
<path d="M9880 4735 l0 -335 120 0 120 0 0 335 0 335 -120 0 -120 0 0 -335z"/>
<path d="M670 1170 c-134 -62 -199 -207 -155 -342 61 -189 294 -254 442 -125
82 73 114 188 83 299 -15 53 -67 117 -123 152 -65 40 -179 47 -247 16z m70
-96 c0 -3 -4 -13 -10 -23 -6 -13 -5 -24 5 -37 10 -13 14 -46 15 -105 0 -95 9
-110 50 -82 21 15 22 22 18 104 -2 48 -1 86 3 84 4 -3 18 4 32 15 26 21 77 43
77 34 0 -3 -9 -17 -20 -31 -17 -21 -20 -41 -20 -116 l0 -89 31 6 30 6 -21 -30
c-12 -16 -31 -36 -42 -45 -20 -13 -24 -13 -40 2 -17 15 -20 15 -43 -7 -23 -21
-27 -22 -69 -10 -48 13 -85 43 -67 55 13 8 15 152 2 159 -16 11 -40 -5 -71
-47 -38 -52 -41 -23 -4 40 32 55 144 146 144 117z"/>
<path d="M707 544 c-15 -15 -6 -24 24 -24 20 0 29 4 27 13 -5 14 -40 21 -51
11z"/>
<path d="M986 533 c-11 -11 -6 -23 9 -23 8 0 15 4 15 9 0 13 -16 22 -24 14z"/>
</g>
</svg>
