<?xml version="1.0" encoding="UTF-8"?>
<svg version="1.1" xmlns="http://www.w3.org/2000/svg" width="1400" height="788">
<path d="M0 0 C1.21055054 0.43034546 1.21055054 0.43034546 2.44555664 0.86938477 C25.43559107 9.07537676 46.25329271 25.61481259 64 42 C62.26142784 45.76690636 60.09741625 48.21232537 57 51 C56.34 51 55.68 51 55 51 C54.67 51.99 54.34 52.98 54 54 C52.328125 55.68359375 52.328125 55.68359375 50.25 57.4375 C49.53328125 58.0459375 48.8165625 58.654375 48.078125 59.28125 C45.73985682 61.21515601 43.39123933 63.13184428 41 65 C40.55914063 64.50113281 40.11828125 64.00226563 39.6640625 63.48828125 C32.64720063 56.00094013 24.47653284 50.31904857 16.08935547 44.47094727 C14.76979898 43.54195359 13.45997946 42.59882751 12.16455078 41.63647461 C8.02698203 38.56751458 3.80065061 36.21643907 -0.875 34.0625 C-1.60895996 33.72186523 -2.34291992 33.38123047 -3.09912109 33.03027344 C-20.88373717 24.94325645 -39.48739877 19.47246757 -59 18 C-60.09183594 17.91492188 -61.18367188 17.82984375 -62.30859375 17.7421875 C-83.6704674 16.95778577 -104.98104875 22.72474791 -124 32 C-124.96421875 32.42796875 -125.9284375 32.8559375 -126.921875 33.296875 C-152.0384168 44.83690772 -172.56789244 67.86249181 -182.6875 93.4375 C-183.46692891 95.62195207 -184.23804881 97.80939034 -185 100 C-185.37125 100.92296875 -185.7425 101.8459375 -186.125 102.796875 C-195.87848998 129.33210508 -191.48171665 160.64298661 -180.04003906 185.8125 C-174.93771934 196.5441396 -168.89894974 206.09055398 -161 215 C-160.37738281 215.76570312 -159.75476562 216.53140625 -159.11328125 217.3203125 C-150.35319152 227.86180413 -138.72915555 235.16545389 -127 242 C-125.94039062 242.65097656 -124.88078125 243.30195313 -123.7890625 243.97265625 C-109.95968243 251.81879013 -93.63521265 255.25385432 -78 257 C-77.0409375 257.12890625 -76.081875 257.2578125 -75.09375 257.390625 C-72.72500098 257.68287326 -70.3830967 257.87212652 -68 258 C-67.03191406 258.05285156 -66.06382812 258.10570312 -65.06640625 258.16015625 C-32.77066427 259.03507034 -3.77718855 248.72777613 20.07421875 226.9453125 C22.16970449 224.95254006 22.16970449 224.95254006 24 222 C24.66 222 25.32 222 26 222 C26.26296875 221.4328125 26.5259375 220.865625 26.796875 220.28125 C28.09021364 217.82894556 29.60123354 215.72806278 31.25 213.5 C39.86707121 201.21799187 44.54863867 187.70816798 47 173 C17.63 172.67 -11.74 172.34 -42 172 C-46.32563419 163.34873163 -43 152.67241209 -43 143 C-2.08 143 38.84 143 81 143 C81 165.50574713 81 165.50574713 79 176 C78.82259277 177.00184326 78.82259277 177.00184326 78.64160156 178.02392578 C75.15936307 197.40661458 67.76752776 218.71917937 55 234 C54.4328125 234.74378906 53.865625 235.48757813 53.28125 236.25390625 C31.6108251 264.33991746 0.57131571 281.66021242 -34.5 286.6875 C-82.60987322 292.7210651 -128.71202244 283.47413809 -167.34375 253.89453125 C-169.91128416 251.88141367 -172.45577896 249.8426152 -174.96875 247.76171875 C-175.55076172 247.28049561 -176.13277344 246.79927246 -176.73242188 246.3034668 C-178 245 -178 245 -178 243 C-178.66 243 -179.32 243 -180 243 C-182.54777852 240.53485214 -184.73729757 237.72593285 -187 235 C-187.95132812 233.87851562 -187.95132812 233.87851562 -188.921875 232.734375 C-214.74053948 201.54542831 -225.91380701 163.4002465 -222.77734375 123.14208984 C-219.43143127 89.90092064 -204.97503538 59.20584084 -182 35 C-181.1440625 34.09121094 -180.288125 33.18242187 -179.40625 32.24609375 C-133.42373266 -15.2559608 -59.75356945 -22.47366134 0 0 Z " fill="#FEBF00" transform="translate(1240,252)"/>
<path d="M0 0 C3.32274932 0.06389903 5.95878841 0.11639116 8.57421875 2.3359375 C12 6.36049427 12 6.36049427 12 9 C12.99 9.33 13.98 9.66 15 10 C16.41696507 11.57054206 17.76106816 13.20746664 19.0625 14.875 C23.19886101 20.07946738 27.57007099 24.94876633 32.12890625 29.78515625 C34 32 34 32 34 34 C34.66 34 35.32 34 36 34 C37.39325954 35.55240341 38.71380128 37.17029985 40 38.8125 C43.21745342 42.83947294 46.50038222 46.71057012 50 50.5 C53.27418423 54.05670244 56.40642433 57.67161811 59.4375 61.4375 C62.65943101 65.43223986 66.00655495 69.24554349 69.5 73 C73.78955113 77.61004336 77.80410672 82.37782956 81.75390625 87.28515625 C84.88284821 91.06709479 88.21517445 94.6475587 91.5390625 98.2578125 C93.91039895 100.90015883 96.15252997 103.60694167 98.375 106.375 C102.24154184 111.1706049 106.34851983 115.66878667 110.5559082 120.16137695 C114.47322325 124.36798599 118.1085965 128.75107925 121.70703125 133.234375 C125.12637171 137.35855396 128.76764264 141.25976909 132.421875 145.17578125 C140 153.47727273 140 153.47727273 140 156 C140.66 156 141.32 156 142 156 C143.39325954 157.55240341 144.71380128 159.17029985 146 160.8125 C150.04616032 165.87345294 154.28411856 170.68260762 158.66796875 175.45703125 C163.63211739 180.87019836 168.38787567 186.45040898 173.125 192.0625 C179.35914684 199.42409893 185.68211875 206.71013702 192 214 C192.495 108.565 192.495 108.565 193 1 C195.7535496 -0.3767748 197.98840409 -0.12969689 201.06640625 -0.1328125 C202.27361328 -0.13410156 203.48082031 -0.13539063 204.72460938 -0.13671875 C206.62436523 -0.13091797 206.62436523 -0.13091797 208.5625 -0.125 C209.83287109 -0.12886719 211.10324219 -0.13273438 212.41210938 -0.13671875 C214.22098633 -0.13478516 214.22098633 -0.13478516 216.06640625 -0.1328125 C217.17959229 -0.13168457 218.29277832 -0.13055664 219.43969727 -0.12939453 C222 0 222 0 223 1 C223.09686654 2.52213864 223.12371708 4.04878085 223.12304783 5.57399845 C223.12503888 6.56875724 223.12702993 7.56351603 223.12908131 8.58841902 C223.12616847 9.69442644 223.12325563 10.80043387 223.12025452 11.93995667 C223.12153615 13.68695694 223.12153615 13.68695694 223.12284368 15.46925014 C223.12421184 18.71645401 223.12106446 21.96361849 223.11606562 25.21081769 C223.11176436 28.70708365 223.11320731 32.20334762 223.1139679 35.69961548 C223.11449334 41.76193748 223.11134443 47.82424876 223.10573006 53.88656807 C223.09761778 62.6517633 223.09500012 71.41695333 223.09374207 80.18215191 C223.09155112 94.40162961 223.08488987 108.62110158 223.07543945 122.84057617 C223.06626645 136.65698213 223.05918507 150.47338654 223.05493164 164.28979492 C223.05466892 165.14082594 223.05440619 165.99185695 223.05413551 166.86867679 C223.05283051 171.13786645 223.05156679 175.40705613 223.05032361 179.67624581 C223.03994965 215.11750129 223.02233018 250.55875012 223 286 C216.26464844 286.17041016 216.26464844 286.17041016 213.8828125 284.63671875 C213.30273438 283.99347656 212.72265625 283.35023438 212.125 282.6875 C211.45339844 281.95402344 210.78179688 281.22054688 210.08984375 280.46484375 C207.14579991 276.99252289 204.26717663 273.47235091 201.41796875 269.921875 C198.87401946 266.84776504 196.21879768 263.91828622 193.5 261 C189.23053927 256.41267132 185.24239485 251.66554788 181.3125 246.78125 C178.8002899 243.75980812 176.17599173 240.87558227 173.5 238 C170.0258285 234.26670522 166.69931506 230.47629157 163.5 226.5 C159.38347389 221.38754015 155.0077116 216.57423446 150.55078125 211.76171875 C144.80239173 205.53796471 139.33884878 199.06605861 133.82885742 192.63208008 C122.44197921 179.30646896 122.44197921 179.30646896 110.75 166.25 C106.74916185 161.88779582 103.00650146 157.36582601 99.2890625 152.76171875 C95.36131312 148.02294945 91.1623685 143.53205255 87 139 C85.61839285 137.48516644 84.24258519 135.96500443 82.875 134.4375 C82.31554687 133.81746094 81.75609375 133.19742188 81.1796875 132.55859375 C80 131 80 131 80 129 C79.34 129 78.68 129 78 129 C76.64902626 127.48848454 75.37072655 125.91186687 74.125 124.3125 C70.57547331 119.86703168 66.8943742 115.64508498 63 111.5 C58.49956536 106.69537653 54.26890128 101.74830773 50.14453125 96.61328125 C48.00125044 94.00152377 45.7761967 91.49634698 43.5 89 C38.83187013 83.81318904 34.41882225 78.40078275 30 73 C29.67 143.29 29.34 213.58 29 286 C19.1 286 9.2 286 -1 286 C-1.02258416 249.70970728 -1.04049759 213.4194166 -1.05106533 177.1291183 C-1.05231611 172.84934383 -1.05361042 168.56956937 -1.05493164 164.28979492 C-1.05519395 163.43773202 -1.05545626 162.58566912 -1.05572652 161.70778614 C-1.06008347 147.89272573 -1.06797116 134.07766946 -1.0771528 120.26261152 C-1.08648863 106.09790151 -1.09205546 91.93319368 -1.09408849 77.76848072 C-1.09546387 69.02088732 -1.09981523 60.27330562 -1.10791647 51.52571582 C-1.11318306 45.53551286 -1.11480449 39.54531599 -1.11350138 33.55511088 C-1.11285786 30.09379851 -1.11387703 26.63250666 -1.11920547 23.17119789 C-1.12413504 19.42743407 -1.12300102 15.68372152 -1.12025452 11.93995667 C-1.12316736 10.83394924 -1.1260802 9.72794182 -1.12908131 8.58841902 C-1.12709026 7.59366023 -1.12509921 6.59890144 -1.12304783 5.57399845 C-1.12342755 4.70861582 -1.12380727 3.84323319 -1.1241985 2.95162684 C-1 1 -1 1 0 0 Z M193 215 C194 217 194 217 194 217 Z " fill="#C41514" transform="translate(758,247)"/>
<path d="M0 0 C0.63550781 0.50144531 1.27101563 1.00289063 1.92578125 1.51953125 C20.54928388 16.3755207 31.76363032 41.05072575 35.8125 64.0625 C35.99848755 65.08657959 35.99848755 65.08657959 36.18823242 66.13134766 C37.31444054 73.24048452 37 79.55566934 37 87 C-25.37 87 -87.74 87 -152 87 C-147.47006686 114.17959885 -143.32603762 131.33247922 -124 150 C-123.01 150.66 -122.02 151.32 -121 152 C-121 152.66 -121 153.32 -121 154 C-120.47921875 154.25007812 -119.9584375 154.50015625 -119.421875 154.7578125 C-117.54889683 155.71846904 -115.71117394 156.74803724 -113.890625 157.8046875 C-92.97731244 169.82173629 -71.64395318 170.84371448 -48.578125 165.15625 C-28.60155714 159.504343 -13.57518171 148.44446924 -2.1875 131.25 C-1.61580078 130.40050781 -1.04410156 129.55101562 -0.45507812 128.67578125 C1.03745503 126.45539703 2.52099199 124.22940533 4 122 C4.66 121.01 5.32 120.02 6 119 C10.12553548 120.57051635 14.06064443 122.45519607 18 124.4375 C18.60328125 124.73720703 19.2065625 125.03691406 19.828125 125.34570312 C23.31299715 127.09192711 26.68629248 128.94776069 30 131 C28.62940625 135.77894858 26.53671303 139.69540482 23.8125 143.8125 C23.41321289 144.42416016 23.01392578 145.03582031 22.60253906 145.66601562 C19.31351098 150.64811882 15.77620373 155.37607707 12 160 C11.2575 160.99 10.515 161.98 9.75 163 C-7.41869845 183.16905352 -35.28246505 193.73329166 -61 196 C-91.82475352 197.90691942 -120.64100072 190.54896093 -144.44140625 170.41015625 C-148.78917093 166.3146283 -152.4150654 161.76453625 -156 157 C-156.70125 156.07832031 -157.4025 155.15664063 -158.125 154.20703125 C-171.85649444 135.76833891 -180.27411584 115.1651727 -181 92 C-181.03996094 91.01257813 -181.07992188 90.02515625 -181.12109375 89.0078125 C-181.71542627 60.96930202 -173.81053418 34.83726365 -156 13 C-155.58024902 12.4838916 -155.16049805 11.9677832 -154.72802734 11.43603516 C-138.03330731 -8.68814627 -115.05040276 -22.38211141 -88.90625 -25.71484375 C-55.13697009 -28.18000118 -26.13646146 -22.47985 0 0 Z M-130.5625 24.80078125 C-139.79423283 35.80562352 -144.89612539 48.32041797 -149 62 C-97.85 62 -46.7 62 6 62 C2.7578974 51.10748249 2.7578974 51.10748249 -1.6875 40.875 C-2.20014404 39.86953125 -2.20014404 39.86953125 -2.72314453 38.84375 C-12.6482978 20.06375905 -29.42993997 9.69770284 -49 3 C-77.6211617 -5.17747477 -110.2544474 2.60432742 -130.5625 24.80078125 Z " fill="#090909" transform="translate(438,342)"/>
<path d="M0 0 C1.97303604 0.01055923 1.97303604 0.01055923 3.9859314 0.02133179 C5.45211875 0.0343152 6.91830525 0.04739525 8.38449097 0.06056213 C9.92170943 0.07070165 11.45893089 0.08039568 12.99615479 0.0896759 C17.17776228 0.11618968 21.35930041 0.14896245 25.54085398 0.1828258 C29.90772487 0.21713644 34.27463298 0.24573691 38.64154053 0.27493286 C46.91467637 0.33111771 55.1877656 0.39246727 63.4608506 0.4556542 C72.87786092 0.52732792 82.2949086 0.59327169 91.71196389 0.65872467 C111.08706735 0.79351964 130.46210979 0.93574446 149.83712769 1.08229065 C149.83712769 10.32229065 149.83712769 19.56229065 149.83712769 29.08229065 C128.71712769 29.08229065 107.59712769 29.08229065 85.83712769 29.08229065 C85.83712769 113.89229065 85.83712769 198.70229065 85.83712769 286.08229065 C75.93712769 286.08229065 66.03712769 286.08229065 55.83712769 286.08229065 C55.83712769 201.27229065 55.83712769 116.46229065 55.83712769 29.08229065 C34.71712769 29.08229065 13.59712769 29.08229065 -8.16287231 29.08229065 C-8.16287231 19.84229065 -8.16287231 10.60229065 -8.16287231 1.08229065 C-5.37404213 -0.31212444 -3.12116784 -0.02254455 0 0 Z " fill="#090909" transform="translate(102.16287231445313,246.91770935058594)"/>
<path d="M0 0 C4.8982832 3.71593898 9.88138635 7.53634712 14.125 12 C14.125 12.66 14.125 13.32 14.125 14 C12.72882832 15.15780091 11.328768 16.31121202 9.91015625 17.44140625 C6.6367607 20.29935991 3.94527382 23.70509473 1.125 27 C-1.125 29.5 -1.125 29.5 -2.875 31 C-5.875 31 -5.875 31 -8 28.9375 C-8.64775391 28.25494141 -8.64775391 28.25494141 -9.30859375 27.55859375 C-19.10944837 17.8066212 -31.9816909 11.2814082 -45.9375 10.625 C-56.4694552 11.62804335 -63.89645598 14.75234549 -71.1875 22.4375 C-76.10508064 29.90493727 -76.6880806 36.11105127 -75.875 45 C-74.72676656 50.20033262 -72.31351508 53.96863749 -68.875 58 C-68.875 58.66 -68.875 59.32 -68.875 60 C-68.215 60 -67.555 60 -66.875 60 C-66.875 60.66 -66.875 61.32 -66.875 62 C-66.285979 62.28359375 -65.69695801 62.5671875 -65.09008789 62.859375 C-63.0942502 63.88710052 -61.28914505 64.99182141 -59.43359375 66.25 C-51.85283822 71.31407123 -44.23689023 76.01632453 -36.125 80.1875 C-30.38112791 83.14182526 -24.70842436 86.14358178 -19.1875 89.5 C-18.15238281 90.1290625 -17.11726562 90.758125 -16.05078125 91.40625 C-15.33277344 91.9321875 -14.61476563 92.458125 -13.875 93 C-13.875 93.66 -13.875 94.32 -13.875 95 C-13.359375 95.226875 -12.84375 95.45375 -12.3125 95.6875 C-0.36232386 102.12221023 7.64859378 112.96516357 12.0546875 125.68359375 C15.37563365 136.8324844 15.44562511 146.63310575 13.125 158 C12.94066406 158.95132813 12.75632812 159.90265625 12.56640625 160.8828125 C8.90547086 176.84540033 -3.35979347 189.49115841 -16.875 198 C-33.47020877 207.64767164 -52.95178227 207.79996367 -71.07226562 203.33544922 C-83.89307302 199.86256018 -95.0539573 194.00262248 -104.875 185 C-105.514375 184.41734375 -106.15375 183.8346875 -106.8125 183.234375 C-108.22798691 181.88441989 -109.56268565 180.4504527 -110.875 179 C-110.875 178.34 -110.875 177.68 -110.875 177 C-111.535 176.67 -112.195 176.34 -112.875 176 C-111.59080959 174.32756598 -110.29742815 172.66218553 -109 171 C-107.92105469 169.6078125 -107.92105469 169.6078125 -106.8203125 168.1875 C-106.17835938 167.465625 -105.53640625 166.74375 -104.875 166 C-104.215 166 -103.555 166 -102.875 166 C-102.5346875 165.195625 -102.5346875 165.195625 -102.1875 164.375 C-100.41929911 161.17539839 -98.33829797 158.70962777 -95.875 156 C-95.215 156 -94.555 156 -93.875 156 C-92.946875 157.2065625 -92.946875 157.2065625 -92 158.4375 C-82.35109886 170.49146849 -67.49588295 176.7462709 -52.6875 179.390625 C-42.47201047 180.00707695 -32.03300367 175.41459423 -24.22265625 169.203125 C-16.93640075 162.36544097 -13.97680451 154.87007093 -13.625 145 C-13.97222788 135.75277336 -16.49766261 128.87441012 -22.875 122 C-33.4272009 113.10385138 -45.8183289 106.39296439 -58.1875 100.375 C-67.15109855 95.98343829 -75.13180857 90.25236086 -82.875 84 C-84.421875 82.8553125 -84.421875 82.8553125 -86 81.6875 C-96.29678537 72.06224411 -102.53595022 58.59215297 -103.12890625 44.54296875 C-103.51620352 26.60253975 -99.1178824 12.70415092 -86.625 -0.6875 C-78.54841744 -8.29743557 -69.56355457 -12.36330086 -58.875 -15 C-58.09640625 -15.19207031 -57.3178125 -15.38414062 -56.515625 -15.58203125 C-35.4509215 -18.91623728 -17.00644849 -12.03241759 0 0 Z " fill="#090909" transform="translate(596.875,332)"/>
<path d="M0 0 C9.57 0 19.14 0 29 0 C29 25.41 29 50.82 29 77 C43.19 77.33 57.38 77.66 72 78 C72.020625 81.939375 72.04125 85.87875 72.0625 89.9375 C72.071604 91.18136475 72.08070801 92.42522949 72.09008789 93.70678711 C72.09258545 94.6788208 72.09508301 95.65085449 72.09765625 96.65234375 C72.10289307 97.65257568 72.10812988 98.65280762 72.11352539 99.68334961 C72 102 72 102 71 103 C67.89914779 103.16041193 64.81812421 103.25963402 61.71484375 103.31640625 C60.78402481 103.33718735 59.85320587 103.35796844 58.8941803 103.37937927 C55.90869818 103.44497931 52.92312516 103.50380802 49.9375 103.5625 C47.91861024 103.6056753 45.8997298 103.64928925 43.88085938 103.69335938 C38.92066703 103.80067129 33.96038291 103.90190888 29 104 C29.00092179 104.95251868 29.00184359 105.90503736 29.00279331 106.88642025 C29.02496035 130.02801185 29.04141028 153.16960208 29.05181217 176.31120205 C29.05697572 187.5021496 29.06401954 198.69309015 29.07543945 209.8840332 C29.08538449 219.63429378 29.091853 229.38454929 29.09408849 239.1348148 C29.09539591 244.30089098 29.09848369 249.46695267 29.10573006 254.63302422 C29.11248744 259.48956334 29.11461754 264.3460819 29.11310768 269.20262527 C29.11338414 270.99053242 29.11539092 272.77844021 29.11920547 274.56634331 C29.12413833 276.99639799 29.12299981 279.42637377 29.12025452 281.85643005 C29.12316736 282.57334265 29.1260802 283.29025524 29.12908131 284.02889246 C29.11412121 288.88587879 29.11412121 288.88587879 28 290 C26.01242972 290.09983058 24.0213248 290.13080753 22.03125 290.1328125 C20.82082031 290.13410156 19.61039063 290.13539063 18.36328125 290.13671875 C17.08839844 290.13285156 15.81351563 290.12898438 14.5 290.125 C13.22511719 290.12886719 11.95023438 290.13273437 10.63671875 290.13671875 C9.42628906 290.13542969 8.21585938 290.13414062 6.96875 290.1328125 C5.84919922 290.13168457 4.72964844 290.13055664 3.57617188 290.12939453 C1 290 1 290 0 289 C-0.09766542 286.59671471 -0.12996828 284.22220648 -0.12025452 281.81846619 C-0.12110894 281.05807102 -0.12196337 280.29767586 -0.12284368 279.51423842 C-0.12450078 276.9468875 -0.11897339 274.37960083 -0.11352539 271.81225586 C-0.11324354 269.97961936 -0.11340121 268.14698275 -0.1139679 266.31434631 C-0.11425596 261.32281938 -0.10835777 256.33131625 -0.10139394 251.33979487 C-0.09516191 246.12940894 -0.09455672 240.91902251 -0.09336853 235.70863342 C-0.09025477 225.83468975 -0.08204078 215.96075709 -0.07201904 206.08681828 C-0.06085929 194.84879999 -0.0553478 183.61078119 -0.05032361 172.37275875 C-0.0398582 149.24849831 -0.02151216 126.12425298 0 103 C-12.21 103 -24.42 103 -37 103 C-37 94.75 -37 86.5 -37 78 C-24.79 78 -12.58 78 0 78 C0 52.26 0 26.52 0 0 Z " fill="#090909" transform="translate(662,243)"/>
<path d="M0 0 C0.33 0 0.66 0 1 0 C1 93.06 1 186.12 1 282 C0.67 282 0.34 282 0 282 C0 188.94 0 95.88 0 0 Z " fill="#E01111" transform="translate(982,249)"/>
<path d="M0 0 C0.33 0 0.66 0 1 0 C1 84.15 1 168.3 1 255 C0.67 255 0.34 255 0 255 C0 170.85 0 86.7 0 0 Z " fill="#090808" transform="translate(156,277)"/>
<path d="M0 0 C13.2 0 26.4 0 40 0 C40 0.33 40 0.66 40 1 C27.13 1 14.26 1 1 1 C1 61.72 1 122.44 1 185 C0.67 185 0.34 185 0 185 C0 123.95 0 62.9 0 0 Z " fill="#080808" transform="translate(692,347)"/>
<path d="M0 0 C11.22 0 22.44 0 34 0 C34 60.39 34 120.78 34 183 C33.67 183 33.34 183 33 183 C33 122.94 33 62.88 33 1 C22.11 1 11.22 1 0 1 C0 0.67 0 0.34 0 0 Z " fill="#030307" transform="translate(626,347)"/>
<path d="M0 0 C2.55173616 2.55173616 2.22958585 4.1720225 2.2319895 7.64982426 C2.22227287 8.44553393 2.21255624 9.24124359 2.20254517 10.06106567 C2.20017046 10.90398631 2.19779576 11.74690695 2.1953491 12.61537063 C2.1848845 15.45611495 2.16000053 18.2965538 2.13525391 21.13720703 C2.12483386 23.16702863 2.11529751 25.19685493 2.10658264 27.22668457 C2.08034282 32.75126282 2.04167819 38.27569373 2.00085878 43.80018091 C1.96032634 49.56839808 1.93111504 55.33667203 1.90072632 61.10494995 C1.84141544 72.03430923 1.77185572 82.96357855 1.69865549 93.89285266 C1.61583348 106.3327635 1.54437347 118.77273138 1.47388959 131.21271729 C1.32861006 156.8085621 1.1689913 182.40430155 1 208 C0.67 208 0.34 208 0 208 C0 139.36 0 70.72 0 0 Z " fill="#DE1414" transform="translate(789,324)"/>
<path d="M0 0 C0.33 0.66 0.66 1.32 1 2 C50.5 2 100 2 151 2 C151 2.33 151 2.66 151 3 C101.17 3 51.34 3 0 3 C0 2.01 0 1.02 0 0 Z " fill="#080808" transform="translate(291,400)"/>
<path d="M0 0 C29.04 0 58.08 0 88 0 C88 0.33 88 0.66 88 1 C58.96 1 29.92 1 0 1 C0 0.67 0 0.34 0 0 Z " fill="#FFD800" transform="translate(1198,425)"/>
<path d="M0 0 C0.33 0 0.66 0 1 0 C1 24.42 1 48.84 1 74 C0.67 74 0.34 74 0 74 C0 49.58 0 25.16 0 0 Z " fill="#030306" transform="translate(659,244)"/>
<path d="M0 0 C0.33 0 0.66 0 1 0 C1 24.42 1 48.84 1 74 C0.67 74 0.34 74 0 74 C0 49.58 0 25.16 0 0 Z " fill="#080808" transform="translate(692,244)"/>
<path d="M0 0 C13.53 0 27.06 0 41 0 C41 0.33 41 0.66 41 1 C27.47 1 13.94 1 0 1 C0 0.67 0 0.34 0 0 Z " fill="#080808" transform="translate(692,319)"/>
<path d="M0 0 C11.88 0 23.76 0 36 0 C36 0.33 36 0.66 36 1 C24.12 1 12.24 1 0 1 C0 0.67 0 0.34 0 0 Z " fill="#0A0908" transform="translate(625,319)"/>
<path d="M0 0 C9.9 0 19.8 0 30 0 C30 0.33 30 0.66 30 1 C20.1 1 10.2 1 0 1 C0 0.67 0 0.34 0 0 Z " fill="#FFD600" transform="translate(1163,541)"/>
<path d="M0 0 C9.9 0 19.8 0 30 0 C30 0.33 30 0.66 30 1 C20.1 1 10.2 1 0 1 C0 0.67 0 0.34 0 0 Z " fill="#DF1414" transform="translate(757,534)"/>
<path d="M0 0 C9.57 0 19.14 0 29 0 C29 0.33 29 0.66 29 1 C19.43 1 9.86 1 0 1 C0 0.67 0 0.34 0 0 Z " fill="#080808" transform="translate(159,534)"/>
<path d="M0 0 C0.33 0 0.66 0 1 0 C1 9.24 1 18.48 1 28 C0.67 28 0.34 28 0 28 C0 18.76 0 9.52 0 0 Z " fill="#070707" transform="translate(92,248)"/>
<path d="M0 0 C9.24 0 18.48 0 28 0 C28 0.33 28 0.66 28 1 C18.76 1 9.52 1 0 1 C0 0.67 0 0.34 0 0 Z " fill="#090908" transform="translate(662,241)"/>
<path d="M0 0 C8.91 0 17.82 0 27 0 C27 0.33 27 0.66 27 1 C18.09 1 9.18 1 0 1 C0 0.67 0 0.34 0 0 Z " fill="#080808" transform="translate(663,534)"/>
<path d="M0 0 C0.33 0 0.66 0 1 0 C1 8.91 1 17.82 1 27 C0.67 27 0.34 27 0 27 C0 18.09 0 9.18 0 0 Z " fill="#FFDE00" transform="translate(1015,377)"/>
<path d="M0 0 C0.33 0 0.66 0 1 0 C1 8.25 1 16.5 1 25 C0.67 25 0.34 25 0 25 C0 16.75 0 8.5 0 0 Z " fill="#080808" transform="translate(623,321)"/>
<path d="M0 0 C0.33 0 0.66 0 1 0 C1 7.59 1 15.18 1 23 C0.67 23 0.34 23 0 23 C0 15.41 0 7.82 0 0 Z " fill="#080808" transform="translate(735,322)"/>
<path d="M0 0 C6.93 0 13.86 0 21 0 C21 0.33 21 0.66 21 1 C14.07 1 7.14 1 0 1 C0 0.67 0 0.34 0 0 Z " fill="#080808" transform="translate(356,539)"/>
<path d="M0 0 C6.27 0 12.54 0 19 0 C19 0.33 19 0.66 19 1 C12.73 1 6.46 1 0 1 C0 0.67 0 0.34 0 0 Z " fill="#080808" transform="translate(356,314)"/>
<path d="M0 0 C0.33 0 0.66 0 1 0 C1 5.94 1 11.88 1 18 C0.67 18 0.34 18 0 18 C0 12.06 0 6.12 0 0 Z " fill="#FFD800" transform="translate(1050,380)"/>
<path d="M0 0 C0.33 0 0.66 0 1 0 C1 5.94 1 11.88 1 18 C0.67 18 0.34 18 0 18 C0 12.06 0 6.12 0 0 Z " fill="#080808" transform="translate(492,363)"/>
<path d="M0 0 C5.28 0 10.56 0 16 0 C16 0.33 16 0.66 16 1 C10.72 1 5.44 1 0 1 C0 0.67 0 0.34 0 0 Z " fill="#080808" transform="translate(539,539)"/>
<path d="M0 0 C4.29 0 8.58 0 13 0 C13 0.33 13 0.66 13 1 C8.71 1 4.42 1 0 1 C0 0.67 0 0.34 0 0 Z " fill="#FFFF00" transform="translate(1172,509)"/>
<path d="M0 0 C0.33 0 0.66 0 1 0 C1 4.29 1 8.58 1 13 C0.67 13 0.34 13 0 13 C0 8.71 0 4.42 0 0 Z " fill="#070707" transform="translate(255,421)"/>
<path d="M0 0 C4.29 0 8.58 0 13 0 C13 0.33 13 0.66 13 1 C8.71 1 4.42 1 0 1 C0 0.67 0 0.34 0 0 Z " fill="#080808" transform="translate(545,314)"/>
<path d="M0 0 C3.63 0 7.26 0 11 0 C11 0.33 11 0.66 11 1 C7.37 1 3.74 1 0 1 C0 0.67 0 0.34 0 0 Z " fill="#FFDE00" transform="translate(1151,540)"/>
<path d="M0 0 C3.63 0 7.26 0 11 0 C11 0.33 11 0.66 11 1 C7.37 1 3.74 1 0 1 C0 0.67 0 0.34 0 0 Z " fill="#030307" transform="translate(360,343)"/>
<path d="M0 0 C3.3 0 6.6 0 10 0 C10 0.33 10 0.66 10 1 C6.7 1 3.4 1 0 1 C0 0.67 0 0.34 0 0 Z " fill="#FFDC00" transform="translate(1194,540)"/>
<path d="M0 0 C3.3 0 6.6 0 10 0 C10 0.33 10 0.66 10 1 C6.7 1 3.4 1 0 1 C0 0.67 0 0.34 0 0 Z " fill="#FCD200" transform="translate(1185,508)"/>
<path d="M0 0 C3.3 0 6.6 0 10 0 C10 0.33 10 0.66 10 1 C6.7 1 3.4 1 0 1 C0 0.67 0 0.34 0 0 Z " fill="#FEDA00" transform="translate(1162,508)"/>
<path d="M0 0 C0.33 0 0.66 0 1 0 C1 3.3 1 6.6 1 10 C0.67 10 0.34 10 0 10 C0 6.7 0 3.4 0 0 Z " fill="#050507" transform="translate(521,365)"/>
<path d="M0 0 C0.33 0 0.66 0 1 0 C1 2.64 1 5.28 1 8 C0.67 8 0.34 8 0 8 C0 5.36 0 2.72 0 0 Z " fill="#070708" transform="translate(612,478)"/>
<path d="M0 0 C0.33 0 0.66 0 1 0 C1 2.64 1 5.28 1 8 C0.67 8 0.34 8 0 8 C0 5.36 0 2.72 0 0 Z " fill="#050507" transform="translate(582,473)"/>
<path d="M0 0 C0.33 0 0.66 0 1 0 C1 2.64 1 5.28 1 8 C0.67 8 0.34 8 0 8 C0 5.36 0 2.72 0 0 Z " fill="#070708" transform="translate(256,436)"/>
<path d="M0 0 C0.33 0 0.66 0 1 0 C1 2.64 1 5.28 1 8 C0.67 8 0.34 8 0 8 C0 5.36 0 2.72 0 0 Z " fill="#060607" transform="translate(476,414)"/>
<path d="M0 0 C0.33 0 0.66 0 1 0 C1 2.64 1 5.28 1 8 C0.67 8 0.34 8 0 8 C0 5.36 0 2.72 0 0 Z " fill="#FFD900" transform="translate(1322,409)"/>
<path d="M0 0 C2.64 0 5.28 0 8 0 C8 0.33 8 0.66 8 1 C5.36 1 2.72 1 0 1 C0 0.67 0 0.34 0 0 Z " fill="#FFD000" transform="translate(1181,271)"/>
<path d="M0 0 C2.64 0 5.28 0 8 0 C8 0.33 8 0.66 8 1 C5.36 1 2.72 1 0 1 C0 0.67 0 0.34 0 0 Z " fill="#FFD900" transform="translate(1159,271)"/>
<path d="M0 0 C2.31 0 4.62 0 7 0 C7 0.33 7 0.66 7 1 C4.69 1 2.38 1 0 1 C0 0.67 0 0.34 0 0 Z " fill="#040407" transform="translate(379,538)"/>
<path d="M0 0 C2.31 0 4.62 0 7 0 C7 0.33 7 0.66 7 1 C4.69 1 2.38 1 0 1 C0 0.67 0 0.34 0 0 Z " fill="#DF1414" transform="translate(973,534)"/>
<path d="M0 0 C2.31 0 4.62 0 7 0 C7 0.33 7 0.66 7 1 C4.69 1 2.38 1 0 1 C0 0.67 0 0.34 0 0 Z " fill="#040407" transform="translate(370,509)"/>
<path d="M0 0 C0.33 0 0.66 0 1 0 C1 2.31 1 4.62 1 7 C0.67 7 0.34 7 0 7 C0 4.69 0 2.38 0 0 Z " fill="#FFD900" transform="translate(1017,411)"/>
<path d="M0 0 C0.33 0 0.66 0 1 0 C1 2.31 1 4.62 1 7 C0.67 7 0.34 7 0 7 C0 4.69 0 2.38 0 0 Z " fill="#FED800" transform="translate(1016,404)"/>
<path d="M0 0 C0.33 0 0.66 0 1 0 C1 2.31 1 4.62 1 7 C0.67 7 0.34 7 0 7 C0 4.69 0 2.38 0 0 Z " fill="#FFD800" transform="translate(1017,362)"/>
<path d="M0 0 C2.31 0 4.62 0 7 0 C7 0.33 7 0.66 7 1 C4.69 1 2.38 1 0 1 C0 0.67 0 0.34 0 0 Z " fill="#050507" transform="translate(371,344)"/>
<path d="M0 0 C2.31 0 4.62 0 7 0 C7 0.33 7 0.66 7 1 C4.69 1 2.38 1 0 1 C0 0.67 0 0.34 0 0 Z " fill="#FCC600" transform="translate(1146,273)"/>
<path d="M0 0 C2.31 0 4.62 0 7 0 C7 0.33 7 0.66 7 1 C4.69 1 2.38 1 0 1 C0 0.67 0 0.34 0 0 Z " fill="#FFDF00" transform="translate(1189,272)"/>
<path d="M0 0 C1.98 0 3.96 0 6 0 C6 0.33 6 0.66 6 1 C4.02 1 2.04 1 0 1 C0 0.67 0 0.34 0 0 Z " fill="#FFE000" transform="translate(1204,539)"/>
<path d="M0 0 C1.98 0 3.96 0 6 0 C6 0.33 6 0.66 6 1 C4.02 1 2.04 1 0 1 C0 0.67 0 0.34 0 0 Z " fill="#FED700" transform="translate(1144,539)"/>
<path d="M0 0 C1.98 0 3.96 0 6 0 C6 0.33 6 0.66 6 1 C4.02 1 2.04 1 0 1 C0 0.67 0 0.34 0 0 Z " fill="#040407" transform="translate(348,538)"/>
<path d="M0 0 C1.98 0 3.96 0 6 0 C6 0.33 6 0.66 6 1 C4.02 1 2.04 1 0 1 C0 0.67 0 0.34 0 0 Z " fill="#070708" transform="translate(353,509)"/>
<path d="M0 0 C1.98 0 3.96 0 6 0 C6 0.33 6 0.66 6 1 C4.02 1 2.04 1 0 1 C0 0.67 0 0.34 0 0 Z " fill="#FFD900" transform="translate(1156,507)"/>
<path d="M0 0 C0.33 0 0.66 0 1 0 C1 1.98 1 3.96 1 6 C0.67 6 0.34 6 0 6 C0 4.02 0 2.04 0 0 Z " fill="#050507" transform="translate(612,467)"/>
<path d="M0 0 C0.33 0 0.66 0 1 0 C1 1.98 1 3.96 1 6 C0.67 6 0.34 6 0 6 C0 4.02 0 2.04 0 0 Z " fill="#FFD800" transform="translate(1321,417)"/>
<path d="M0 0 C0.33 0 0.66 0 1 0 C1 1.98 1 3.96 1 6 C0.67 6 0.34 6 0 6 C0 4.02 0 2.04 0 0 Z " fill="#060607" transform="translate(256,412)"/>
<path d="M0 0 C0.33 0 0.66 0 1 0 C1 1.98 1 3.96 1 6 C0.67 6 0.34 6 0 6 C0 4.02 0 2.04 0 0 Z " fill="#050507" transform="translate(474,401)"/>
<path d="M0 0 C0.33 0 0.66 0 1 0 C1 1.98 1 3.96 1 6 C0.67 6 0.34 6 0 6 C0 4.02 0 2.04 0 0 Z " fill="#FFDB00" transform="translate(1016,370)"/>
<path d="M0 0 C1.98 0 3.96 0 6 0 C6 0.33 6 0.66 6 1 C4.02 1 2.04 1 0 1 C0 0.67 0 0.34 0 0 Z " fill="#040407" transform="translate(354,344)"/>
<path d="M0 0 C1.98 0 3.96 0 6 0 C6 0.33 6 0.66 6 1 C4.02 1 2.04 1 0 1 C0 0.67 0 0.34 0 0 Z " fill="#030307" transform="translate(548,343)"/>
<path d="M0 0 C1.98 0 3.96 0 6 0 C6 0.33 6 0.66 6 1 C4.02 1 2.04 1 0 1 C0 0.67 0 0.34 0 0 Z " fill="#FFDA00" transform="translate(1196,273)"/>
<path d="M0 0 C1.98 0 3.96 0 6 0 C6 0.33 6 0.66 6 1 C4.02 1 2.04 1 0 1 C0 0.67 0 0.34 0 0 Z " fill="#FED700" transform="translate(1153,272)"/>
<path d="M0 0 C1.65 0 3.3 0 5 0 C5 0.33 5 0.66 5 1 C3.35 1 1.7 1 0 1 C0 0.67 0 0.34 0 0 Z " fill="#020206" transform="translate(386,537)"/>
<path d="M0 0 C1.65 0 3.3 0 5 0 C5 0.33 5 0.66 5 1 C3.35 1 1.7 1 0 1 C0 0.67 0 0.34 0 0 Z " fill="#070708" transform="translate(537,509)"/>
<path d="M0 0 C1.65 0 3.3 0 5 0 C5 0.33 5 0.66 5 1 C3.35 1 1.7 1 0 1 C0 0.67 0 0.34 0 0 Z " fill="#FFDB00" transform="translate(1195,507)"/>
<path d="M0 0 C1.65 0 3.3 0 5 0 C5 0.33 5 0.66 5 1 C3.35 1 1.7 1 0 1 C0 0.67 0 0.34 0 0 Z " fill="#FFE100" transform="translate(1151,506)"/>
<path d="M0 0 C0.33 0 0.66 0 1 0 C1 1.65 1 3.3 1 5 C0.67 5 0.34 5 0 5 C0 3.35 0 1.7 0 0 Z " fill="#FFDA00" transform="translate(1320,423)"/>
<path d="M0 0 C0.33 0 0.66 0 1 0 C1 1.65 1 3.3 1 5 C0.67 5 0.34 5 0 5 C0 3.35 0 1.7 0 0 Z " fill="#070708" transform="translate(475,408)"/>
<path d="M0 0 C1.65 0 3.3 0 5 0 C5 0.33 5 0.66 5 1 C3.35 1 1.7 1 0 1 C0 0.67 0 0.34 0 0 Z " fill="#070708" transform="translate(554,344)"/>
<path d="M0 0 C1.65 0 3.3 0 5 0 C5 0.33 5 0.66 5 1 C3.35 1 1.7 1 0 1 C0 0.67 0 0.34 0 0 Z " fill="#FFDD00" transform="translate(1201,240)"/>
<path d="M0 0 C4 1 4 1 4 1 Z " fill="#FFD900" transform="translate(1210,538)"/>
<path d="M0 0 C4 1 4 1 4 1 Z " fill="#FFDB00" transform="translate(1140,538)"/>
<path d="M0 0 C4 1 4 1 4 1 Z " fill="#070708" transform="translate(557,538)"/>
<path d="M0 0 C4 1 4 1 4 1 Z " fill="#070708" transform="translate(532,538)"/>
<path d="M0 0 C4 1 4 1 4 1 Z " fill="#FAD100" transform="translate(1136,537)"/>
<path d="M0 0 C4 1 4 1 4 1 Z " fill="#070708" transform="translate(343,537)"/>
<path d="M0 0 C4 1 4 1 4 1 Z " fill="#070708" transform="translate(550,509)"/>
<path d="M0 0 C4 1 4 1 4 1 Z " fill="#070708" transform="translate(377,508)"/>
<path d="M0 0 C4 1 4 1 4 1 Z " fill="#070708" transform="translate(348,508)"/>
<path d="M0 0 C4 1 4 1 4 1 Z " fill="#FFDB00" transform="translate(1201,506)"/>
<path d="M0 0 C1 4 1 4 1 4 Z " fill="#070708" transform="translate(581,481)"/>
<path d="M0 0 C1 4 1 4 1 4 Z " fill="#070607" transform="translate(581,469)"/>
<path d="M0 0 C1 4 1 4 1 4 Z " fill="#050507" transform="translate(290,448)"/>
<path d="M0 0 C1 4 1 4 1 4 Z " fill="#FFD000" transform="translate(1284,431)"/>
<path d="M0 0 C1 4 1 4 1 4 Z " fill="#FFDB00" transform="translate(1018,419)"/>
<path d="M0 0 C1 4 1 4 1 4 Z " fill="#030307" transform="translate(473,397)"/>
<path d="M0 0 C1 4 1 4 1 4 Z " fill="#080506" transform="translate(493,357)"/>
<path d="M0 0 C1 4 1 4 1 4 Z " fill="#FFDC00" transform="translate(1018,357)"/>
<path d="M0 0 C4 1 4 1 4 1 Z " fill="#040407" transform="translate(543,344)"/>
<path d="M0 0 C4 1 4 1 4 1 Z " fill="#050507" transform="translate(392,317)"/>
<path d="M0 0 C4 1 4 1 4 1 Z " fill="#FECE00" transform="translate(1214,243)"/>
<path d="M0 0 C4 1 4 1 4 1 Z " fill="#FFD500" transform="translate(1130,243)"/>
<path d="M0 0 C4 1 4 1 4 1 Z " fill="#FFDD00" transform="translate(1206,241)"/>
<path d="M0 0 C4 1 4 1 4 1 Z " fill="#FFD900" transform="translate(1138,241)"/>
<path d="M0 0 C4 1 4 1 4 1 Z " fill="#FFDE00" transform="translate(1142,240)"/>
<path d="M0 0 C4 1 4 1 4 1 Z " fill="#FFDD00" transform="translate(1148,239)"/>
<path d="M0 0 C3 1 3 1 3 1 Z " fill="#FECA00" transform="translate(1215,537)"/>
<path d="M0 0 C3 1 3 1 3 1 Z " fill="#020205" transform="translate(561,537)"/>
<path d="M0 0 C3 1 3 1 3 1 Z " fill="#070708" transform="translate(529,537)"/>
<path d="M0 0 C3 1 3 1 3 1 Z " fill="#FFDD00" transform="translate(1133,536)"/>
<path d="M0 0 C3 1 3 1 3 1 Z " fill="#060607" transform="translate(340,536)"/>
<path d="M0 0 C3 1 3 1 3 1 Z " fill="#FEBF00" transform="translate(1235,531)"/>
<path d="M0 0 C3 1 3 1 3 1 Z " fill="#020205" transform="translate(555,508)"/>
<path d="M0 0 C3 1 3 1 3 1 Z " fill="#020205" transform="translate(534,508)"/>
<path d="M0 0 C3 1 3 1 3 1 Z " fill="#0B0907" transform="translate(531,507)"/>
<path d="M0 0 C3 1 3 1 3 1 Z " fill="#080808" transform="translate(382,507)"/>
<path d="M0 0 C3 1 3 1 3 1 Z " fill="#040407" transform="translate(345,507)"/>
<path d="M0 0 C3 1 3 1 3 1 Z " fill="#060607" transform="translate(385,506)"/>
<path d="M0 0 C3 1 3 1 3 1 Z " fill="#030307" transform="translate(341,506)"/>
<path d="M0 0 C3 1 3 1 3 1 Z " fill="#FFD900" transform="translate(1146,505)"/>
<path d="M0 0 C3 1 3 1 3 1 Z " fill="#040407" transform="translate(390,505)"/>
<path d="M0 0 C3 1 3 1 3 1 Z " fill="#FFDD00" transform="translate(1134,502)"/>
<path d="M0 0 C3 1 3 1 3 1 Z " fill="#FBC200" transform="translate(1221,501)"/>
<path d="M0 0 C3 1 3 1 3 1 Z " fill="#FBCA00" transform="translate(1131,501)"/>
<path d="" fill="#080808" transform="translate(0,0)"/>
<path d="" fill="#030307" transform="translate(0,0)"/>
<path d="" fill="#060608" transform="translate(0,0)"/>
<path d="" fill="#060608" transform="translate(0,0)"/>
<path d="" fill="#FFD200" transform="translate(0,0)"/>
<path d="" fill="#FFE200" transform="translate(0,0)"/>
<path d="" fill="#FFC900" transform="translate(0,0)"/>
<path d="" fill="#FFC700" transform="translate(0,0)"/>
<path d="" fill="#FFE300" transform="translate(0,0)"/>
<path d="" fill="#FFD900" transform="translate(0,0)"/>
<path d="" fill="#FFDD00" transform="translate(0,0)"/>
<path d="" fill="#030307" transform="translate(0,0)"/>
<path d="" fill="#FFC700" transform="translate(0,0)"/>
<path d="" fill="#FFC700" transform="translate(0,0)"/>
<path d="" fill="#FFDD00" transform="translate(0,0)"/>
<path d="" fill="#FEC400" transform="translate(0,0)"/>
<path d="M0 0 C3 1 3 1 3 1 Z " fill="#070507" transform="translate(379,345)"/>
<path d="M0 0 C3 1 3 1 3 1 Z " fill="#080808" transform="translate(349,345)"/>
<path d="" fill="#FFDE00" transform="translate(0,0)"/>
<path d="M0 0 C3 1 3 1 3 1 Z " fill="#040406" transform="translate(400,319)"/>
<path d="M0 0 C3 1 3 1 3 1 Z " fill="#0D0806" transform="translate(331,318)"/>
<path d="M0 0 C3 1 3 1 3 1 Z " fill="#030307" transform="translate(530,317)"/>
<path d="M0 0 C3 1 3 1 3 1 Z " fill="#070507" transform="translate(389,316)"/>
<path d="M0 0 C3 1 3 1 3 1 Z " fill="#040407" transform="translate(340,316)"/>
<path d="M0 0 C0.99 0.495 0.99 0.495 2 1 C1.01 1.495 1.01 1.495 0 2 C0 1.34 0 0.68 0 0 Z " fill="#FFBF00" transform="translate(1082,308)"/>
<path d="M0 0 C3 1 3 1 3 1 Z " fill="#FFE100" transform="translate(1140,275)"/>
<path d="M0 0 C3 1 3 1 3 1 Z " fill="#FFE500" transform="translate(1110,249)"/>
<path d="M0 0 C3 1 3 1 3 1 Z " fill="#FFD700" transform="translate(1233,248)"/>
<path d="M0 0 C3 1 3 1 3 1 Z " fill="#FFC700" transform="translate(1230,247)"/>
<path d="M0 0 C3 1 3 1 3 1 Z " fill="#FFC700" transform="translate(1210,242)"/>
<path d="M0 0 C3 1 3 1 3 1 Z " fill="#FEC700" transform="translate(1134,242)"/>
<path d="M0 0 C3 1 3 1 3 1 Z " fill="#FFD300" transform="translate(1196,239)"/>
<path d="M0 0 C2 1 2 1 2 1 Z " fill="#050507" transform="translate(565,536)"/>
<path d="M0 0 C2 1 2 1 2 1 Z " fill="#050507" transform="translate(526,536)"/>
<path d="M0 0 C2 1 2 1 2 1 Z " fill="#080808" transform="translate(392,536)"/>
<path d="M0 0 C2 1 2 1 2 1 Z " fill="#FFE700" transform="translate(1123,534)"/>
<path d="M0 0 C2 1 2 1 2 1 Z " fill="#FFC300" transform="translate(1231,533)"/>
<path d="M0 0 C2 1 2 1 2 1 Z " fill="#FFDA00" transform="translate(1120,533)"/>
<path d="M0 0 C2 1 2 1 2 1 Z " fill="#0E0805" transform="translate(515,533)"/>
<path d="M0 0 C2 1 2 1 2 1 Z " fill="#080808" transform="translate(405,533)"/>
<path d="M0 0 C2 1 2 1 2 1 Z " fill="#FFE300" transform="translate(1233,532)"/>
<path d="M0 0 C2 1 2 1 2 1 Z " fill="#FFCB00" transform="translate(1118,532)"/>
<path d="M0 0 C2 1 2 1 2 1 Z " fill="#0A0707" transform="translate(407,532)"/>
<path d="M0 0 C2 1 2 1 2 1 Z " fill="#FEC300" transform="translate(1115,531)"/>
<path d="M0 0 C2 1 2 1 2 1 Z " fill="#0D0703" transform="translate(511,531)"/>
<path d="M0 0 C2 1 2 1 2 1 Z " fill="#050505" transform="translate(409,531)"/>
<path d="M0 0 C2 1 2 1 2 1 Z " fill="#090605" transform="translate(322,531)"/>
<path d="M0 0 C2 1 2 1 2 1 Z " fill="#FFD200" transform="translate(1239,530)"/>
<path d="M0 0 C2 1 2 1 2 1 Z " fill="#FFDA00" transform="translate(1112,530)"/>
<path d="M0 0 C2 1 2 1 2 1 Z " fill="#080808" transform="translate(412,530)"/>
<path d="M0 0 C2 1 2 1 2 1 Z " fill="#080808" transform="translate(319,530)"/>
<path d="M0 0 C2 1 2 1 2 1 Z " fill="#FFDF00" transform="translate(1248,526)"/>
<path d="M0 0 C2 1 2 1 2 1 Z " fill="#F2CC00" transform="translate(1102,526)"/>
<path d="M0 0 C2 1 2 1 2 1 Z " fill="#050507" transform="translate(421,526)"/>
<path d="M0 0 C2 1 2 1 2 1 Z " fill="#ECA400" transform="translate(1250,525)"/>
<path d="M0 0 C2 1 2 1 2 1 Z " fill="#FED200" transform="translate(1100,525)"/>
<path d="M0 0 C2 1 2 1 2 1 Z " fill="#FFC700" transform="translate(1253,523)"/>
<path d="M0 0 C2 1 2 1 2 1 Z " fill="#FFDF00" transform="translate(1089,519)"/>
<path d="M0 0 C2 1 2 1 2 1 Z " fill="#050507" transform="translate(300,519)"/>
<path d="M0 0 C2 1 2 1 2 1 Z " fill="#FFBF00" transform="translate(1086,517)"/>
<path d="M0 0 C2 1 2 1 2 1 Z " fill="#030307" transform="translate(558,507)"/>
<path d="M0 0 C2 1 2 1 2 1 Z " fill="#0A0707" transform="translate(560,506)"/>
<path d="M0 0 C2 1 2 1 2 1 Z " fill="#0A0707" transform="translate(529,506)"/>
<path d="M0 0 C2 1 2 1 2 1 Z " fill="#FFD400" transform="translate(1208,505)"/>
<path d="M0 0 C2 1 2 1 2 1 Z " fill="#060608" transform="translate(526,505)"/>
<path d="M0 0 C2 1 2 1 2 1 Z " fill="#080808" transform="translate(338,505)"/>
<path d="M0 0 C2 1 2 1 2 1 Z " fill="#FFDF00" transform="translate(1219,502)"/>
<path d="M0 0 C2 1 2 1 2 1 Z " fill="#2C1404" transform="translate(520,502)"/>
<path d="M0 0 C2 1 2 1 2 1 Z " fill="#060608" transform="translate(399,502)"/>
<path d="M0 0 C2 1 2 1 2 1 Z " fill="#030307" transform="translate(328,501)"/>
<path d="M0 0 C2 1 2 1 2 1 Z " fill="#080808" transform="translate(405,499)"/>
<path d="" fill="#D70815" transform="translate(0,0)"/>
<path d="M0 0 C2 1 2 1 2 1 Z " fill="#F6D200" transform="translate(1235,495)"/>
<path d="M0 0 C2 1 2 1 2 1 Z " fill="#EDA800" transform="translate(1117,495)"/>
<path d="M0 0 C2 1 2 1 2 1 Z " fill="#FFC300" transform="translate(1238,493)"/>
<path d="M0 0 C2 1 2 1 2 1 Z " fill="#FFD100" transform="translate(1240,492)"/>
<path d="" fill="#EDB000" transform="translate(0,0)"/>
<path d="" fill="#341A04" transform="translate(0,0)"/>
<path d="M0 0 C2 1 2 1 2 1 Z " fill="#050507" transform="translate(501,486)"/>
<path d="" fill="#120A06" transform="translate(0,0)"/>
<path d="" fill="#FEDB00" transform="translate(0,0)"/>
<path d="" fill="#030307" transform="translate(0,0)"/>
<path d="" fill="#F9BA00" transform="translate(0,0)"/>
<path d="" fill="#060608" transform="translate(0,0)"/>
<path d="" fill="#EDC800" transform="translate(0,0)"/>
<path d="" fill="#0A0707" transform="translate(0,0)"/>
<path d="" fill="#120A06" transform="translate(0,0)"/>
<path d="" fill="#FEBF00" transform="translate(0,0)"/>
<path d="" fill="#FFE300" transform="translate(0,0)"/>
<path d="" fill="#030307" transform="translate(0,0)"/>
<path d="" fill="#030307" transform="translate(0,0)"/>
<path d="" fill="#FFDF00" transform="translate(0,0)"/>
<path d="" fill="#FFC700" transform="translate(0,0)"/>
<path d="M0 0 C2 1 2 1 2 1 Z " fill="#060608" transform="translate(457,466)"/>
<path d="" fill="#FFC300" transform="translate(0,0)"/>
<path d="" fill="#090605" transform="translate(0,0)"/>
<path d="" fill="#FEDB00" transform="translate(0,0)"/>
<path d="M0 0 C2 1 2 1 2 1 Z " fill="#1D1008" transform="translate(444,459)"/>
<path d="" fill="#030307" transform="translate(0,0)"/>
<path d="" fill="#FFEA00" transform="translate(0,0)"/>
<path d="" fill="#080808" transform="translate(0,0)"/>
<path d="" fill="#FFDF00" transform="translate(0,0)"/>
<path d="" fill="#FFC700" transform="translate(0,0)"/>
<path d="" fill="#FFC300" transform="translate(0,0)"/>
<path d="" fill="#0A0707" transform="translate(0,0)"/>
<path d="" fill="#080808" transform="translate(0,0)"/>
<path d="" fill="#FFDF00" transform="translate(0,0)"/>
<path d="" fill="#F2B000" transform="translate(0,0)"/>
<path d="" fill="#080808" transform="translate(0,0)"/>
<path d="" fill="#FFCB00" transform="translate(0,0)"/>
<path d="" fill="#050507" transform="translate(0,0)"/>
<path d="" fill="#FFCE00" transform="translate(0,0)"/>
<path d="" fill="#FFCE00" transform="translate(0,0)"/>
<path d="" fill="#F9B600" transform="translate(0,0)"/>
<path d="M0 0 C2 1 2 1 2 1 Z " fill="#030307" transform="translate(552,441)"/>
<path d="" fill="#FFDF00" transform="translate(0,0)"/>
<path d="" fill="#FFBF00" transform="translate(0,0)"/>
<path d="" fill="#FEC700" transform="translate(0,0)"/>
<path d="M0 0 C2 1 2 1 2 1 Z " fill="#060608" transform="translate(541,435)"/>
<path d="M0 0 C2 1 2 1 2 1 Z " fill="#080808" transform="translate(539,434)"/>
<path d="" fill="#FFCB00" transform="translate(0,0)"/>
<path d="" fill="#FFCB00" transform="translate(0,0)"/>
<path d="M0 0 C2 1 2 1 2 1 Z " fill="#050507" transform="translate(524,425)"/>
<path d="" fill="#FFE300" transform="translate(0,0)"/>
<path d="" fill="#FFCB00" transform="translate(0,0)"/>
<path d="M0 0 C2 1 2 1 2 1 Z " fill="#050507" transform="translate(561,411)"/>
<path d="M0 0 C2 1 2 1 2 1 Z " fill="#060608" transform="translate(557,409)"/>
<path d="" fill="#FFFF00" transform="translate(0,0)"/>
<path d="M0 0 C2 1 2 1 2 1 Z " fill="#030307" transform="translate(545,402)"/>
<path d="" fill="#060608" transform="translate(0,0)"/>
<path d="" fill="#0A0707" transform="translate(0,0)"/>
<path d="" fill="#050507" transform="translate(0,0)"/>
<path d="M0 0 C2 1 2 1 2 1 Z " fill="#251305" transform="translate(537,397)"/>
<path d="" fill="#0A0707" transform="translate(0,0)"/>
<path d="" fill="#080808" transform="translate(0,0)"/>
<path d="" fill="#080808" transform="translate(0,0)"/>
<path d="" fill="#030307" transform="translate(0,0)"/>
<path d="" fill="#060608" transform="translate(0,0)"/>
<path d="" fill="#0C0907" transform="translate(0,0)"/>
<path d="" fill="#080808" transform="translate(0,0)"/>
<path d="" fill="#120A06" transform="translate(0,0)"/>
<path d="" fill="#0A0707" transform="translate(0,0)"/>
<path d="" fill="#050507" transform="translate(0,0)"/>
<path d="" fill="#080808" transform="translate(0,0)"/>
<path d="" fill="#0E0805" transform="translate(0,0)"/>
<path d="" fill="#020205" transform="translate(0,0)"/>
<path d="" fill="#FFCB00" transform="translate(0,0)"/>
<path d="" fill="#060608" transform="translate(0,0)"/>
<path d="M0 0 C2 1 2 1 2 1 Z " fill="#060608" transform="translate(574,351)"/>
<path d="M0 0 C2 1 2 1 2 1 Z " fill="#080808" transform="translate(399,351)"/>
<path d="M0 0 C2 1 2 1 2 1 Z " fill="#231005" transform="translate(331,351)"/>
<path d="M0 0 C2 1 2 1 2 1 Z " fill="#080808" transform="translate(397,350)"/>
<path d="M0 0 C2 1 2 1 2 1 Z " fill="#0E0805" transform="translate(333,350)"/>
<path d="" fill="#FFDF00" transform="translate(0,0)"/>
<path d="M0 0 C2 1 2 1 2 1 Z " fill="#030307" transform="translate(395,349)"/>
<path d="M0 0 C2 1 2 1 2 1 Z " fill="#120A06" transform="translate(393,348)"/>
<path d="M0 0 C2 1 2 1 2 1 Z " fill="#080808" transform="translate(337,348)"/>
<path d="" fill="#FFCB00" transform="translate(0,0)"/>
<path d="M0 0 C2 1 2 1 2 1 Z " fill="#050507" transform="translate(390,347)"/>
<path d="M0 0 C2 1 2 1 2 1 Z " fill="#080808" transform="translate(339,347)"/>
<path d="M0 0 C2 1 2 1 2 1 Z " fill="#080808" transform="translate(560,345)"/>
<path d="M0 0 C2 1 2 1 2 1 Z " fill="#030307" transform="translate(540,345)"/>
<path d="" fill="#050507" transform="translate(0,0)"/>
<path d="" fill="#F6B600" transform="translate(0,0)"/>
<path d="" fill="#FEBF00" transform="translate(0,0)"/>
<path d="" fill="#BC180D" transform="translate(0,0)"/>
<path d="M0 0 C2 1 2 1 2 1 Z " fill="#050507" transform="translate(426,331)"/>
<path d="M0 0 C2 1 2 1 2 1 Z " fill="#251305" transform="translate(591,327)"/>
<path d="M0 0 C2 1 2 1 2 1 Z " fill="#0D0703" transform="translate(313,326)"/>
<path d="" fill="#FFC700" transform="translate(0,0)"/>
<path d="M0 0 C2 1 2 1 2 1 Z " fill="#0A0707" transform="translate(415,325)"/>
<path d="M0 0 C2 1 2 1 2 1 Z " fill="#050507" transform="translate(315,325)"/>
<path d="" fill="#FFD000" transform="translate(0,0)"/>
<path d="M0 0 C2 1 2 1 2 1 Z " fill="#030307" transform="translate(403,320)"/>
<path d="M0 0 C2 1 2 1 2 1 Z " fill="#030307" transform="translate(327,320)"/>
<path d="M0 0 C2 1 2 1 2 1 Z " fill="#0E0805" transform="translate(525,319)"/>
<path d="M0 0 C2 1 2 1 2 1 Z " fill="#050507" transform="translate(329,319)"/>
<path d="M0 0 C2 1 2 1 2 1 Z " fill="#030307" transform="translate(574,318)"/>
<path d="M0 0 C2 1 2 1 2 1 Z " fill="#050507" transform="translate(527,318)"/>
<path d="M0 0 C2 1 2 1 2 1 Z " fill="#030307" transform="translate(398,318)"/>
<path d="M0 0 C2 1 2 1 2 1 Z " fill="#060608" transform="translate(337,317)"/>
<path d="M0 0 C2 1 2 1 2 1 Z " fill="#080808" transform="translate(568,316)"/>
<path d="M0 0 C2 1 2 1 2 1 Z " fill="#0A0707" transform="translate(533,316)"/>
<path d="" fill="#FFD700" transform="translate(0,0)"/>
<path d="M0 0 C2 1 2 1 2 1 Z " fill="#FFCB00" transform="translate(1099,294)"/>
<path d="M0 0 C2 1 2 1 2 1 Z " fill="#FFD000" transform="translate(1238,287)"/>
<path d="M0 0 C2 1 2 1 2 1 Z " fill="#F1AC00" transform="translate(1236,286)"/>
<path d="M0 0 C2 1 2 1 2 1 Z " fill="#E2BA00" transform="translate(1234,285)"/>
<path d="" fill="#CA1411" transform="translate(0,0)"/>
<path d="M0 0 C2 1 2 1 2 1 Z " fill="#FECD00" transform="translate(1227,282)"/>
<path d="M0 0 C2 1 2 1 2 1 Z " fill="#FFCF00" transform="translate(1120,282)"/>
<path d="M0 0 C2 1 2 1 2 1 Z " fill="#FFCA00" transform="translate(1224,281)"/>
<path d="M0 0 C2 1 2 1 2 1 Z " fill="#FEDB00" transform="translate(1123,281)"/>
<path d="M0 0 C2 1 2 1 2 1 Z " fill="#FFDF00" transform="translate(1222,280)"/>
<path d="M0 0 C2 1 2 1 2 1 Z " fill="#F9B600" transform="translate(1125,280)"/>
<path d="M0 0 C2 1 2 1 2 1 Z " fill="#FFBF00" transform="translate(1127,279)"/>
<path d="M0 0 C2 1 2 1 2 1 Z " fill="#FFD100" transform="translate(1217,278)"/>
<path d="M0 0 C2 1 2 1 2 1 Z " fill="#FEDB00" transform="translate(1129,278)"/>
<path d="M0 0 C2 1 2 1 2 1 Z " fill="#FFC300" transform="translate(1215,277)"/>
<path d="M0 0 C2 1 2 1 2 1 Z " fill="#FFE300" transform="translate(1206,275)"/>
<path d="M0 0 C2 1 2 1 2 1 Z " fill="#FFC700" transform="translate(1203,274)"/>
<path d="M0 0 C2 1 2 1 2 1 Z " fill="#FFC300" transform="translate(1144,274)"/>
<path d="M0 0 C2 1 2 1 2 1 Z " fill="#FFC300" transform="translate(1274,269)"/>
<path d="M0 0 C2 1 2 1 2 1 Z " fill="#E2BA00" transform="translate(1265,263)"/>
<path d="M0 0 C2 1 2 1 2 1 Z " fill="#F2CC00" transform="translate(1262,261)"/>
<path d="M0 0 C2 1 2 1 2 1 Z " fill="#FEDB00" transform="translate(1254,257)"/>
<path d="M0 0 C2 1 2 1 2 1 Z " fill="#FFC700" transform="translate(1096,256)"/>
<path d="M0 0 C2 1 2 1 2 1 Z " fill="#F2B000" transform="translate(1250,255)"/>
<path d="M0 0 C2 1 2 1 2 1 Z " fill="#FFC300" transform="translate(1099,254)"/>
<path d="M0 0 C2 1 2 1 2 1 Z " fill="#FEBF00" transform="translate(1238,250)"/>
<path d="M0 0 C2 1 2 1 2 1 Z " fill="#FEDB00" transform="translate(1236,249)"/>
<path d="M0 0 C2 1 2 1 2 1 Z " fill="#FFDA00" transform="translate(1113,248)"/>
<path d="M0 0 C2 1 2 1 2 1 Z " fill="#FEC300" transform="translate(1116,247)"/>
<path d="M0 0 C2 1 2 1 2 1 Z " fill="#FFD000" transform="translate(1220,244)"/>
<path d="" fill="#080808" transform="translate(0,0)"/>
<path d="" fill="#190D03" transform="translate(0,0)"/>
<path d="" fill="#FFD900" transform="translate(0,0)"/>
<path d="" fill="#FFC700" transform="translate(0,0)"/>
<path d="" fill="#080808" transform="translate(0,0)"/>
<path d="" fill="#030307" transform="translate(0,0)"/>
<path d="" fill="#080808" transform="translate(0,0)"/>
<path d="" fill="#090909" transform="translate(0,0)"/>
<path d="" fill="#080808" transform="translate(0,0)"/>
<path d="" fill="#030307" transform="translate(0,0)"/>
<path d="" fill="#020203" transform="translate(0,0)"/>
<path d="" fill="#090909" transform="translate(0,0)"/>
<path d="" fill="#CE0708" transform="translate(0,0)"/>
<path d="" fill="#090909" transform="translate(0,0)"/>
<path d="" fill="#FFBF00" transform="translate(0,0)"/>
<path d="" fill="#FFBF00" transform="translate(0,0)"/>
<path d="" fill="#BE170E" transform="translate(0,0)"/>
<path d="" fill="#CF1012" transform="translate(0,0)"/>
<path d="" fill="#FFCF00" transform="translate(0,0)"/>
<path d="" fill="#FFC700" transform="translate(0,0)"/>
<path d="" fill="#C71514" transform="translate(0,0)"/>
<path d="" fill="#080808" transform="translate(0,0)"/>
<path d="" fill="#030307" transform="translate(0,0)"/>
<path d="" fill="#030307" transform="translate(0,0)"/>
<path d="" fill="#C31212" transform="translate(0,0)"/>
<path d="" fill="#080808" transform="translate(0,0)"/>
<path d="" fill="#030307" transform="translate(0,0)"/>
<path d="" fill="#C71514" transform="translate(0,0)"/>
<path d="" fill="#030307" transform="translate(0,0)"/>
<path d="" fill="#030307" transform="translate(0,0)"/>
<path d="" fill="#190D03" transform="translate(0,0)"/>
<path d="" fill="#030307" transform="translate(0,0)"/>
<path d="" fill="#FFD900" transform="translate(0,0)"/>
<path d="" fill="#FDB700" transform="translate(0,0)"/>
<path d="" fill="#080808" transform="translate(0,0)"/>
<path d="" fill="#190D03" transform="translate(0,0)"/>
<path d="" fill="#020203" transform="translate(0,0)"/>
<path d="" fill="#080808" transform="translate(0,0)"/>
<path d="" fill="#FFC700" transform="translate(0,0)"/>
<path d="" fill="#030307" transform="translate(0,0)"/>
<path d="" fill="#030307" transform="translate(0,0)"/>
<path d="" fill="#431E03" transform="translate(0,0)"/>
<path d="" fill="#080808" transform="translate(0,0)"/>
<path d="" fill="#FFBF00" transform="translate(0,0)"/>
<path d="" fill="#FFBF00" transform="translate(0,0)"/>
<path d="" fill="#080808" transform="translate(0,0)"/>
<path d="" fill="#030307" transform="translate(0,0)"/>
<path d="" fill="#FFC700" transform="translate(0,0)"/>
<path d="" fill="#030307" transform="translate(0,0)"/>
<path d="" fill="#FFBF00" transform="translate(0,0)"/>
<path d="" fill="#C71514" transform="translate(0,0)"/>
<path d="" fill="#FFBF00" transform="translate(0,0)"/>
<path d="" fill="#FEBF00" transform="translate(0,0)"/>
<path d="" fill="#C41010" transform="translate(0,0)"/>
<path d="" fill="#110B07" transform="translate(0,0)"/>
<path d="" fill="#030307" transform="translate(0,0)"/>
<path d="" fill="#FFBF00" transform="translate(0,0)"/>
<path d="" fill="#BE170E" transform="translate(0,0)"/>
<path d="" fill="#030307" transform="translate(0,0)"/>
<path d="" fill="#030307" transform="translate(0,0)"/>
<path d="" fill="#080808" transform="translate(0,0)"/>
<path d="" fill="#110B07" transform="translate(0,0)"/>
<path d="" fill="#FFBF00" transform="translate(0,0)"/>
<path d="" fill="#FFBF00" transform="translate(0,0)"/>
<path d="" fill="#080808" transform="translate(0,0)"/>
<path d="" fill="#030307" transform="translate(0,0)"/>
<path d="" fill="#110B07" transform="translate(0,0)"/>
<path d="" fill="#030307" transform="translate(0,0)"/>
<path d="" fill="#080808" transform="translate(0,0)"/>
<path d="" fill="#080808" transform="translate(0,0)"/>
<path d="" fill="#FFFF00" transform="translate(0,0)"/>
<path d="" fill="#030307" transform="translate(0,0)"/>
<path d="" fill="#030307" transform="translate(0,0)"/>
<path d="" fill="#030307" transform="translate(0,0)"/>
<path d="" fill="#DC9100" transform="translate(0,0)"/>
<path d="" fill="#FFEE00" transform="translate(0,0)"/>
<path d="" fill="#030307" transform="translate(0,0)"/>
<path d="" fill="#FFFF00" transform="translate(0,0)"/>
<path d="" fill="#FFC700" transform="translate(0,0)"/>
<path d="" fill="#080808" transform="translate(0,0)"/>
<path d="" fill="#FFFF00" transform="translate(0,0)"/>
<path d="" fill="#C80F0F" transform="translate(0,0)"/>
<path d="" fill="#080808" transform="translate(0,0)"/>
<path d="" fill="#090909" transform="translate(0,0)"/>
<path d="" fill="#080808" transform="translate(0,0)"/>
<path d="" fill="#FDB700" transform="translate(0,0)"/>
<path d="" fill="#F4AE00" transform="translate(0,0)"/>
<path d="" fill="#BE170E" transform="translate(0,0)"/>
<path d="" fill="#080808" transform="translate(0,0)"/>
<path d="" fill="#552602" transform="translate(0,0)"/>
<path d="" fill="#080808" transform="translate(0,0)"/>
<path d="" fill="#080808" transform="translate(0,0)"/>
<path d="" fill="#080808" transform="translate(0,0)"/>
<path d="" fill="#080808" transform="translate(0,0)"/>
<path d="" fill="#080808" transform="translate(0,0)"/>
<path d="" fill="#FFBF00" transform="translate(0,0)"/>
<path d="" fill="#030307" transform="translate(0,0)"/>
<path d="" fill="#080808" transform="translate(0,0)"/>
<path d="" fill="#FFBF00" transform="translate(0,0)"/>
<path d="" fill="#FFBF00" transform="translate(0,0)"/>
<path d="" fill="#D60315" transform="translate(0,0)"/>
<path d="" fill="#030307" transform="translate(0,0)"/>
<path d="" fill="#080808" transform="translate(0,0)"/>
<path d="" fill="#030307" transform="translate(0,0)"/>
<path d="" fill="#E59A00" transform="translate(0,0)"/>
<path d="" fill="#D60315" transform="translate(0,0)"/>
<path d="" fill="#090909" transform="translate(0,0)"/>
<path d="" fill="#030307" transform="translate(0,0)"/>
<path d="" fill="#FFE300" transform="translate(0,0)"/>
<path d="" fill="#FFBF00" transform="translate(0,0)"/>
<path d="" fill="#FFFF00" transform="translate(0,0)"/>
<path d="" fill="#D60315" transform="translate(0,0)"/>
<path d="" fill="#030307" transform="translate(0,0)"/>
<path d="" fill="#190D03" transform="translate(0,0)"/>
<path d="" fill="#080808" transform="translate(0,0)"/>
<path d="" fill="#030307" transform="translate(0,0)"/>
<path d="" fill="#FFFF00" transform="translate(0,0)"/>
<path d="" fill="#F2001B" transform="translate(0,0)"/>
<path d="" fill="#090909" transform="translate(0,0)"/>
<path d="" fill="#080808" transform="translate(0,0)"/>
<path d="" fill="#030307" transform="translate(0,0)"/>
<path d="" fill="#030307" transform="translate(0,0)"/>
<path d="" fill="#FFFF00" transform="translate(0,0)"/>
<path d="" fill="#F2001B" transform="translate(0,0)"/>
<path d="" fill="#080808" transform="translate(0,0)"/>
<path d="" fill="#020203" transform="translate(0,0)"/>
<path d="" fill="#030307" transform="translate(0,0)"/>
<path d="" fill="#030307" transform="translate(0,0)"/>
<path d="" fill="#080808" transform="translate(0,0)"/>
<path d="" fill="#020203" transform="translate(0,0)"/>
<path d="" fill="#110B07" transform="translate(0,0)"/>
<path d="" fill="#FFE300" transform="translate(0,0)"/>
<path d="" fill="#FFC700" transform="translate(0,0)"/>
<path d="" fill="#080808" transform="translate(0,0)"/>
<path d="" fill="#080808" transform="translate(0,0)"/>
<path d="" fill="#030307" transform="translate(0,0)"/>
<path d="" fill="#080808" transform="translate(0,0)"/>
<path d="" fill="#020203" transform="translate(0,0)"/>
<path d="" fill="#030307" transform="translate(0,0)"/>
<path d="" fill="#080808" transform="translate(0,0)"/>
<path d="" fill="#FFFF00" transform="translate(0,0)"/>
<path d="" fill="#FFC700" transform="translate(0,0)"/>
<path d="" fill="#080808" transform="translate(0,0)"/>
<path d="" fill="#371E09" transform="translate(0,0)"/>
<path d="" fill="#030307" transform="translate(0,0)"/>
<path d="" fill="#080808" transform="translate(0,0)"/>
<path d="" fill="#110B07" transform="translate(0,0)"/>
<path d="" fill="#030307" transform="translate(0,0)"/>
<path d="" fill="#EDA500" transform="translate(0,0)"/>
<path d="" fill="#FFFF00" transform="translate(0,0)"/>
<path d="" fill="#FDB700" transform="translate(0,0)"/>
<path d="" fill="#FFBF00" transform="translate(0,0)"/>
<path d="" fill="#CE0708" transform="translate(0,0)"/>
<path d="" fill="#190D03" transform="translate(0,0)"/>
<path d="" fill="#030307" transform="translate(0,0)"/>
<path d="" fill="#FFBF00" transform="translate(0,0)"/>
<path d="" fill="#030307" transform="translate(0,0)"/>
<path d="" fill="#080808" transform="translate(0,0)"/>
<path d="" fill="#030307" transform="translate(0,0)"/>
<path d="" fill="#FFEE00" transform="translate(0,0)"/>
<path d="" fill="#EDA500" transform="translate(0,0)"/>
<path d="" fill="#FFE300" transform="translate(0,0)"/>
<path d="" fill="#FFBF00" transform="translate(0,0)"/>
<path d="" fill="#110B07" transform="translate(0,0)"/>
<path d="" fill="#080808" transform="translate(0,0)"/>
<path d="" fill="#FFE300" transform="translate(0,0)"/>
<path d="" fill="#FFBF00" transform="translate(0,0)"/>
<path d="" fill="#E20017" transform="translate(0,0)"/>
<path d="" fill="#020203" transform="translate(0,0)"/>
<path d="" fill="#110B07" transform="translate(0,0)"/>
<path d="" fill="#FFBF00" transform="translate(0,0)"/>
<path d="" fill="#FFBF00" transform="translate(0,0)"/>
<path d="" fill="#FFBF00" transform="translate(0,0)"/>
<path d="" fill="#BE170E" transform="translate(0,0)"/>
<path d="" fill="#030307" transform="translate(0,0)"/>
<path d="" fill="#030307" transform="translate(0,0)"/>
<path d="" fill="#020203" transform="translate(0,0)"/>
<path d="" fill="#030307" transform="translate(0,0)"/>
<path d="" fill="#080808" transform="translate(0,0)"/>
<path d="" fill="#FFBF00" transform="translate(0,0)"/>
<path d="" fill="#FFBF00" transform="translate(0,0)"/>
<path d="" fill="#431E03" transform="translate(0,0)"/>
<path d="" fill="#020203" transform="translate(0,0)"/>
<path d="" fill="#221205" transform="translate(0,0)"/>
<path d="" fill="#190D03" transform="translate(0,0)"/>
<path d="" fill="#FFE300" transform="translate(0,0)"/>
<path d="" fill="#FFC700" transform="translate(0,0)"/>
<path d="" fill="#FFC700" transform="translate(0,0)"/>
<path d="" fill="#CE0708" transform="translate(0,0)"/>
<path d="" fill="#030307" transform="translate(0,0)"/>
<path d="" fill="#020203" transform="translate(0,0)"/>
<path d="" fill="#080808" transform="translate(0,0)"/>
<path d="" fill="#030307" transform="translate(0,0)"/>
<path d="" fill="#FFFF00" transform="translate(0,0)"/>
<path d="" fill="#FFC700" transform="translate(0,0)"/>
<path d="" fill="#C41010" transform="translate(0,0)"/>
<path d="" fill="#030307" transform="translate(0,0)"/>
<path d="" fill="#190D03" transform="translate(0,0)"/>
<path d="" fill="#080808" transform="translate(0,0)"/>
<path d="" fill="#080808" transform="translate(0,0)"/>
<path d="" fill="#030307" transform="translate(0,0)"/>
<path d="" fill="#030307" transform="translate(0,0)"/>
<path d="" fill="#030307" transform="translate(0,0)"/>
<path d="" fill="#FFBF00" transform="translate(0,0)"/>
<path d="" fill="#030307" transform="translate(0,0)"/>
<path d="" fill="#080808" transform="translate(0,0)"/>
<path d="" fill="#090909" transform="translate(0,0)"/>
<path d="" fill="#030307" transform="translate(0,0)"/>
<path d="" fill="#FFCF00" transform="translate(0,0)"/>
<path d="" fill="#FFE300" transform="translate(0,0)"/>
<path d="" fill="#FD001F" transform="translate(0,0)"/>
<path d="" fill="#080808" transform="translate(0,0)"/>
<path d="" fill="#080808" transform="translate(0,0)"/>
<path d="" fill="#030307" transform="translate(0,0)"/>
<path d="" fill="#110B07" transform="translate(0,0)"/>
<path d="" fill="#FFE300" transform="translate(0,0)"/>
<path d="" fill="#FFFF00" transform="translate(0,0)"/>
<path d="" fill="#F4AE00" transform="translate(0,0)"/>
<path d="" fill="#E20017" transform="translate(0,0)"/>
<path d="" fill="#080808" transform="translate(0,0)"/>
<path d="" fill="#080808" transform="translate(0,0)"/>
<path d="" fill="#030307" transform="translate(0,0)"/>
<path d="" fill="#030307" transform="translate(0,0)"/>
<path d="" fill="#F4AE00" transform="translate(0,0)"/>
<path d="" fill="#FFFF00" transform="translate(0,0)"/>
<path d="" fill="#FFBF00" transform="translate(0,0)"/>
<path d="" fill="#BE170E" transform="translate(0,0)"/>
<path d="" fill="#080808" transform="translate(0,0)"/>
<path d="" fill="#FFBF00" transform="translate(0,0)"/>
<path d="" fill="#FDB700" transform="translate(0,0)"/>
<path d="" fill="#FFBF00" transform="translate(0,0)"/>
<path d="" fill="#CF1012" transform="translate(0,0)"/>
<path d="" fill="#080808" transform="translate(0,0)"/>
<path d="" fill="#FFBF00" transform="translate(0,0)"/>
<path d="" fill="#FFCF00" transform="translate(0,0)"/>
<path d="" fill="#080808" transform="translate(0,0)"/>
<path d="" fill="#030307" transform="translate(0,0)"/>
<path d="" fill="#FFE300" transform="translate(0,0)"/>
<path d="" fill="#FFBF00" transform="translate(0,0)"/>
<path d="" fill="#110B07" transform="translate(0,0)"/>
<path d="" fill="#080808" transform="translate(0,0)"/>
<path d="" fill="#EDA500" transform="translate(0,0)"/>
<path d="" fill="#FFBF00" transform="translate(0,0)"/>
<path d="" fill="#FFBF00" transform="translate(0,0)"/>
<path d="" fill="#FFBF00" transform="translate(0,0)"/>
<path d="" fill="#FD001F" transform="translate(0,0)"/>
<path d="" fill="#030307" transform="translate(0,0)"/>
<path d="" fill="#030307" transform="translate(0,0)"/>
<path d="" fill="#080808" transform="translate(0,0)"/>
<path d="" fill="#F4AE00" transform="translate(0,0)"/>
<path d="" fill="#FFBF00" transform="translate(0,0)"/>
<path d="" fill="#FFBF00" transform="translate(0,0)"/>
<path d="" fill="#030307" transform="translate(0,0)"/>
<path d="" fill="#110B07" transform="translate(0,0)"/>
<path d="" fill="#110B07" transform="translate(0,0)"/>
<path d="" fill="#FFC700" transform="translate(0,0)"/>
<path d="" fill="#FFBF00" transform="translate(0,0)"/>
<path d="" fill="#BE170E" transform="translate(0,0)"/>
<path d="" fill="#090909" transform="translate(0,0)"/>
<path d="" fill="#020203" transform="translate(0,0)"/>
<path d="" fill="#FFC700" transform="translate(0,0)"/>
<path d="" fill="#C31212" transform="translate(0,0)"/>
<path d="" fill="#090909" transform="translate(0,0)"/>
<path d="" fill="#F4AE00" transform="translate(0,0)"/>
<path d="" fill="#FFBF00" transform="translate(0,0)"/>
<path d="" fill="#030307" transform="translate(0,0)"/>
<path d="" fill="#FFEE00" transform="translate(0,0)"/>
<path d="" fill="#FFBF00" transform="translate(0,0)"/>
<path d="" fill="#FFFF00" transform="translate(0,0)"/>
<path d="" fill="#080808" transform="translate(0,0)"/>
<path d="" fill="#030307" transform="translate(0,0)"/>
<path d="" fill="#080808" transform="translate(0,0)"/>
<path d="" fill="#C31212" transform="translate(0,0)"/>
<path d="" fill="#030307" transform="translate(0,0)"/>
<path d="" fill="#110B07" transform="translate(0,0)"/>
<path d="" fill="#F4AE00" transform="translate(0,0)"/>
<path d="" fill="#FFBF00" transform="translate(0,0)"/>
<path d="" fill="#BE170E" transform="translate(0,0)"/>
<path d="" fill="#552602" transform="translate(0,0)"/>
<path d="" fill="#030307" transform="translate(0,0)"/>
<path d="" fill="#FFBF00" transform="translate(0,0)"/>
<path d="" fill="#D60315" transform="translate(0,0)"/>
<path d="" fill="#020203" transform="translate(0,0)"/>
<path d="" fill="#FFBF00" transform="translate(0,0)"/>
<path d="" fill="#FFD900" transform="translate(0,0)"/>
<path d="" fill="#030307" transform="translate(0,0)"/>
<path d="" fill="#FFD500" transform="translate(0,0)"/>
<path d="" fill="#FFC700" transform="translate(0,0)"/>
<path d="" fill="#C31212" transform="translate(0,0)"/>
<path d="" fill="#030307" transform="translate(0,0)"/>
<path d="" fill="#030307" transform="translate(0,0)"/>
<path d="" fill="#FFBF00" transform="translate(0,0)"/>
<path d="" fill="#FFC700" transform="translate(0,0)"/>
<path d="" fill="#BE170E" transform="translate(0,0)"/>
<path d="" fill="#FFBF00" transform="translate(0,0)"/>
<path d="" fill="#FFBF00" transform="translate(0,0)"/>
<path d="" fill="#F4AE00" transform="translate(0,0)"/>
<path d="" fill="#110B07" transform="translate(0,0)"/>
<path d="" fill="#FDB700" transform="translate(0,0)"/>
<path d="" fill="#FFC700" transform="translate(0,0)"/>
<path d="" fill="#371E09" transform="translate(0,0)"/>
<path d="" fill="#190D03" transform="translate(0,0)"/>
<path d="" fill="#FFBF00" transform="translate(0,0)"/>
<path d="" fill="#FFFF00" transform="translate(0,0)"/>
<path d="" fill="#080808" transform="translate(0,0)"/>
<path d="" fill="#FFBF00" transform="translate(0,0)"/>
<path d="" fill="#FFFF00" transform="translate(0,0)"/>
<path d="" fill="#C31212" transform="translate(0,0)"/>
<path d="" fill="#030307" transform="translate(0,0)"/>
<path d="" fill="#FFBF00" transform="translate(0,0)"/>
<path d="" fill="#FFC700" transform="translate(0,0)"/>
<path d="" fill="#030307" transform="translate(0,0)"/>
<path d="" fill="#030307" transform="translate(0,0)"/>
<path d="" fill="#FFBF00" transform="translate(0,0)"/>
<path d="" fill="#F4AE00" transform="translate(0,0)"/>
<path d="" fill="#371E09" transform="translate(0,0)"/>
<path d="" fill="#110B07" transform="translate(0,0)"/>
<path d="" fill="#080808" transform="translate(0,0)"/>
<path d="" fill="#FFEE00" transform="translate(0,0)"/>
<path d="" fill="#F4AE00" transform="translate(0,0)"/>
<path d="" fill="#030307" transform="translate(0,0)"/>
<path d="" fill="#FFBF00" transform="translate(0,0)"/>
<path d="" fill="#030307" transform="translate(0,0)"/>
<path d="" fill="#FFBF00" transform="translate(0,0)"/>
<path d="" fill="#C80F0F" transform="translate(0,0)"/>
<path d="" fill="#110B07" transform="translate(0,0)"/>
<path d="" fill="#080808" transform="translate(0,0)"/>
<path d="" fill="#BE170E" transform="translate(0,0)"/>
<path d="" fill="#110B07" transform="translate(0,0)"/>
<path d="" fill="#C71514" transform="translate(0,0)"/>
<path d="" fill="#030307" transform="translate(0,0)"/>
<path d="" fill="#FFCF00" transform="translate(0,0)"/>
<path d="" fill="#D60315" transform="translate(0,0)"/>
<path d="" fill="#FFBF00" transform="translate(0,0)"/>
<path d="" fill="#FFBF00" transform="translate(0,0)"/>
<path d="" fill="#F2001B" transform="translate(0,0)"/>
<path d="" fill="#FFBF00" transform="translate(0,0)"/>
<path d="" fill="#E20017" transform="translate(0,0)"/>
<path d="" fill="#030307" transform="translate(0,0)"/>
<path d="" fill="#FFBF00" transform="translate(0,0)"/>
<path d="" fill="#CE0708" transform="translate(0,0)"/>
<path d="" fill="#080808" transform="translate(0,0)"/>
<path d="" fill="#110B07" transform="translate(0,0)"/>
<path d="" fill="#FFE300" transform="translate(0,0)"/>
<path d="" fill="#FFC700" transform="translate(0,0)"/>
<path d="" fill="#C80F0F" transform="translate(0,0)"/>
<path d="" fill="#FFBF00" transform="translate(0,0)"/>
<path d="" fill="#C41010" transform="translate(0,0)"/>
<path d="" fill="#FFBF00" transform="translate(0,0)"/>
<path d="" fill="#C41010" transform="translate(0,0)"/>
<path d="" fill="#090909" transform="translate(0,0)"/>
<path d="" fill="#E20017" transform="translate(0,0)"/>
<path d="" fill="#190D03" transform="translate(0,0)"/>
<path d="" fill="#FFBF00" transform="translate(0,0)"/>
<path d="" fill="#F2001B" transform="translate(0,0)"/>
<path d="" fill="#030307" transform="translate(0,0)"/>
<path d="" fill="#030307" transform="translate(0,0)"/>
<path d="" fill="#E20017" transform="translate(0,0)"/>
<path d="" fill="#190D03" transform="translate(0,0)"/>
<path d="" fill="#FFBF00" transform="translate(0,0)"/>
<path d="" fill="#BE170E" transform="translate(0,0)"/>
<path d="" fill="#FFFF00" transform="translate(0,0)"/>
<path d="" fill="#FFC700" transform="translate(0,0)"/>
<path d="" fill="#FFC700" transform="translate(0,0)"/>
<path d="" fill="#B51F08" transform="translate(0,0)"/>
<path d="" fill="#030307" transform="translate(0,0)"/>
<path d="" fill="#E20017" transform="translate(0,0)"/>
<path d="" fill="#080808" transform="translate(0,0)"/>
<path d="" fill="#F4AE00" transform="translate(0,0)"/>
<path d="" fill="#CD0713" transform="translate(0,0)"/>
<path d="" fill="#080808" transform="translate(0,0)"/>
<path d="" fill="#FEBF00" transform="translate(0,0)"/>
<path d="" fill="#FFEE00" transform="translate(0,0)"/>
<path d="" fill="#BE170E" transform="translate(0,0)"/>
<path d="" fill="#221205" transform="translate(0,0)"/>
<path d="" fill="#090909" transform="translate(0,0)"/>
<path d="" fill="#C31212" transform="translate(0,0)"/>
<path d="" fill="#030307" transform="translate(0,0)"/>
<path d="" fill="#030307" transform="translate(0,0)"/>
<path d="" fill="#C71514" transform="translate(0,0)"/>
<path d="" fill="#030307" transform="translate(0,0)"/>
<path d="" fill="#B51F08" transform="translate(0,0)"/>
<path d="" fill="#110B07" transform="translate(0,0)"/>
<path d="" fill="#080808" transform="translate(0,0)"/>
<path d="" fill="#B51F08" transform="translate(0,0)"/>
<path d="" fill="#030307" transform="translate(0,0)"/>
<path d="" fill="#FFCF00" transform="translate(0,0)"/>
<path d="" fill="#C80F0F" transform="translate(0,0)"/>
<path d="" fill="#D60315" transform="translate(0,0)"/>
<path d="" fill="#F2001B" transform="translate(0,0)"/>
<path d="" fill="#030307" transform="translate(0,0)"/>
<path d="" fill="#090909" transform="translate(0,0)"/>
<path d="" fill="#C80F0F" transform="translate(0,0)"/>
<path d="" fill="#190D03" transform="translate(0,0)"/>
<path d="" fill="#080808" transform="translate(0,0)"/>
<path d="" fill="#C80F0F" transform="translate(0,0)"/>
<path d="" fill="#030307" transform="translate(0,0)"/>
<path d="" fill="#C80F0F" transform="translate(0,0)"/>
<path d="" fill="#D61115" transform="translate(0,0)"/>
<path d="" fill="#030307" transform="translate(0,0)"/>
<path d="" fill="#CD0713" transform="translate(0,0)"/>
<path d="" fill="#030307" transform="translate(0,0)"/>
<path d="" fill="#FFCF00" transform="translate(0,0)"/>
<path d="" fill="#090909" transform="translate(0,0)"/>
<path d="" fill="#C80F0F" transform="translate(0,0)"/>
<path d="" fill="#020203" transform="translate(0,0)"/>
<path d="" fill="#C31212" transform="translate(0,0)"/>
<path d="" fill="#D60315" transform="translate(0,0)"/>
<path d="" fill="#030307" transform="translate(0,0)"/>
<path d="" fill="#FFC700" transform="translate(0,0)"/>
<path d="" fill="#C80F0F" transform="translate(0,0)"/>
<path d="" fill="#BE170E" transform="translate(0,0)"/>
<path d="" fill="#080808" transform="translate(0,0)"/>
<path d="" fill="#C80F0F" transform="translate(0,0)"/>
<path d="" fill="#C80F0F" transform="translate(0,0)"/>
<path d="" fill="#080808" transform="translate(0,0)"/>
<path d="" fill="#C41010" transform="translate(0,0)"/>
<path d="" fill="#030307" transform="translate(0,0)"/>
<path d="" fill="#030307" transform="translate(0,0)"/>
<path d="" fill="#030307" transform="translate(0,0)"/>
<path d="" fill="#CF1012" transform="translate(0,0)"/>
<path d="" fill="#030307" transform="translate(0,0)"/>
<path d="" fill="#C80F0F" transform="translate(0,0)"/>
<path d="" fill="#C71514" transform="translate(0,0)"/>
<path d="" fill="#080808" transform="translate(0,0)"/>
<path d="" fill="#C41010" transform="translate(0,0)"/>
<path d="" fill="#C41010" transform="translate(0,0)"/>
<path d="" fill="#030307" transform="translate(0,0)"/>
<path d="" fill="#080808" transform="translate(0,0)"/>
<path d="" fill="#BE170E" transform="translate(0,0)"/>
<path d="" fill="#C31212" transform="translate(0,0)"/>
<path d="" fill="#030307" transform="translate(0,0)"/>
<path d="" fill="#110B07" transform="translate(0,0)"/>
<path d="" fill="#CD0713" transform="translate(0,0)"/>
<path d="" fill="#C31212" transform="translate(0,0)"/>
<path d="" fill="#221205" transform="translate(0,0)"/>
<path d="" fill="#C31212" transform="translate(0,0)"/>
<path d="" fill="#080808" transform="translate(0,0)"/>
<path d="" fill="#E20017" transform="translate(0,0)"/>
<path d="" fill="#030307" transform="translate(0,0)"/>
<path d="" fill="#030307" transform="translate(0,0)"/>
<path d="" fill="#CD0713" transform="translate(0,0)"/>
<path d="" fill="#030307" transform="translate(0,0)"/>
<path d="" fill="#C41010" transform="translate(0,0)"/>
<path d="" fill="#080808" transform="translate(0,0)"/>
<path d="" fill="#C80F0F" transform="translate(0,0)"/>
<path d="" fill="#080808" transform="translate(0,0)"/>
<path d="" fill="#BE170E" transform="translate(0,0)"/>
<path d="" fill="#030307" transform="translate(0,0)"/>
<path d="" fill="#030307" transform="translate(0,0)"/>
<path d="" fill="#C41010" transform="translate(0,0)"/>
<path d="" fill="#C41010" transform="translate(0,0)"/>
<path d="" fill="#C80F0F" transform="translate(0,0)"/>
<path d="" fill="#030307" transform="translate(0,0)"/>
<path d="" fill="#FFFF00" transform="translate(0,0)"/>
<path d="" fill="#CD0713" transform="translate(0,0)"/>
<path d="" fill="#E20017" transform="translate(0,0)"/>
<path d="" fill="#CF1012" transform="translate(0,0)"/>
<path d="" fill="#CD0713" transform="translate(0,0)"/>
<path d="" fill="#BE170E" transform="translate(0,0)"/>
<path d="" fill="#CD0713" transform="translate(0,0)"/>
<path d="" fill="#080808" transform="translate(0,0)"/>
<path d="" fill="#FD001F" transform="translate(0,0)"/>
<path d="" fill="#CD0713" transform="translate(0,0)"/>
<path d="" fill="#CD0713" transform="translate(0,0)"/>
<path d="" fill="#030307" transform="translate(0,0)"/>
<path d="" fill="#080808" transform="translate(0,0)"/>
<path d="" fill="#C71514" transform="translate(0,0)"/>
<path d="" fill="#CD0713" transform="translate(0,0)"/>
<path d="" fill="#030307" transform="translate(0,0)"/>
<path d="" fill="#080808" transform="translate(0,0)"/>
<path d="" fill="#B51F08" transform="translate(0,0)"/>
<path d="" fill="#030307" transform="translate(0,0)"/>
<path d="" fill="#D60315" transform="translate(0,0)"/>
<path d="" fill="#C31212" transform="translate(0,0)"/>
<path d="" fill="#030307" transform="translate(0,0)"/>
<path d="" fill="#C41010" transform="translate(0,0)"/>
<path d="" fill="#090909" transform="translate(0,0)"/>
<path d="" fill="#BC100F" transform="translate(0,0)"/>
<path d="" fill="#080808" transform="translate(0,0)"/>
<path d="" fill="#090909" transform="translate(0,0)"/>
<path d="" fill="#C31212" transform="translate(0,0)"/>
<path d="" fill="#080808" transform="translate(0,0)"/>
<path d="" fill="#080808" transform="translate(0,0)"/>
<path d="" fill="#030307" transform="translate(0,0)"/>
<path d="" fill="#030307" transform="translate(0,0)"/>
<path d="" fill="#080808" transform="translate(0,0)"/>
<path d="" fill="#E20017" transform="translate(0,0)"/>
<path d="" fill="#110B07" transform="translate(0,0)"/>
<path d="" fill="#BE170E" transform="translate(0,0)"/>
<path d="" fill="#020203" transform="translate(0,0)"/>
<path d="" fill="#D60315" transform="translate(0,0)"/>
<path d="" fill="#CF1012" transform="translate(0,0)"/>
<path d="" fill="#E20017" transform="translate(0,0)"/>
<path d="" fill="#080808" transform="translate(0,0)"/>
<path d="" fill="#080808" transform="translate(0,0)"/>
<path d="" fill="#CD0713" transform="translate(0,0)"/>
<path d="" fill="#080808" transform="translate(0,0)"/>
<path d="" fill="#CD0713" transform="translate(0,0)"/>
<path d="" fill="#BE170E" transform="translate(0,0)"/>
<path d="" fill="#080808" transform="translate(0,0)"/>
<path d="" fill="#030307" transform="translate(0,0)"/>
<path d="" fill="#C41010" transform="translate(0,0)"/>
<path d="" fill="#090909" transform="translate(0,0)"/>
<path d="" fill="#C80F0F" transform="translate(0,0)"/>
<path d="" fill="#030307" transform="translate(0,0)"/>
<path d="" fill="#221205" transform="translate(0,0)"/>
<path d="" fill="#CE0708" transform="translate(0,0)"/>
<path d="" fill="#090909" transform="translate(0,0)"/>
<path d="" fill="#030307" transform="translate(0,0)"/>
<path d="" fill="#CD0713" transform="translate(0,0)"/>
<path d="" fill="#020203" transform="translate(0,0)"/>
<path d="" fill="#030307" transform="translate(0,0)"/>
<path d="" fill="#D61115" transform="translate(0,0)"/>
<path d="" fill="#030307" transform="translate(0,0)"/>
<path d="" fill="#030307" transform="translate(0,0)"/>
<path d="" fill="#C41010" transform="translate(0,0)"/>
<path d="" fill="#C41010" transform="translate(0,0)"/>
<path d="" fill="#020203" transform="translate(0,0)"/>
<path d="" fill="#BE170E" transform="translate(0,0)"/>
<path d="" fill="#030307" transform="translate(0,0)"/>
<path d="" fill="#C41010" transform="translate(0,0)"/>
<path d="" fill="#431E03" transform="translate(0,0)"/>
<path d="" fill="#020203" transform="translate(0,0)"/>
<path d="" fill="#221205" transform="translate(0,0)"/>
<path d="" fill="#221205" transform="translate(0,0)"/>
<path d="" fill="#BE170E" transform="translate(0,0)"/>
<path d="" fill="#C31212" transform="translate(0,0)"/>
<path d="" fill="#020203" transform="translate(0,0)"/>
<path d="" fill="#CF1012" transform="translate(0,0)"/>
<path d="" fill="#030307" transform="translate(0,0)"/>
<path d="" fill="#D61115" transform="translate(0,0)"/>
<path d="" fill="#BE170E" transform="translate(0,0)"/>
<path d="" fill="#030307" transform="translate(0,0)"/>
<path d="" fill="#110B07" transform="translate(0,0)"/>
<path d="" fill="#090909" transform="translate(0,0)"/>
<path d="" fill="#C71514" transform="translate(0,0)"/>
<path d="" fill="#030307" transform="translate(0,0)"/>
<path d="" fill="#C31212" transform="translate(0,0)"/>
<path d="" fill="#020203" transform="translate(0,0)"/>
<path d="" fill="#BE170E" transform="translate(0,0)"/>
<path d="" fill="#C31212" transform="translate(0,0)"/>
<path d="" fill="#221205" transform="translate(0,0)"/>
<path d="" fill="#CD0713" transform="translate(0,0)"/>
<path d="" fill="#C41010" transform="translate(0,0)"/>
<path d="" fill="#190D03" transform="translate(0,0)"/>
<path d="" fill="#C80F0F" transform="translate(0,0)"/>
<path d="" fill="#030307" transform="translate(0,0)"/>
<path d="" fill="#C41010" transform="translate(0,0)"/>
<path d="" fill="#D60315" transform="translate(0,0)"/>
<path d="" fill="#030307" transform="translate(0,0)"/>
<path d="" fill="#030307" transform="translate(0,0)"/>
<path d="" fill="#030307" transform="translate(0,0)"/>
<path d="" fill="#C71514" transform="translate(0,0)"/>
<path d="" fill="#CD0713" transform="translate(0,0)"/>
<path d="" fill="#030307" transform="translate(0,0)"/>
<path d="" fill="#020203" transform="translate(0,0)"/>
<path d="" fill="#BE170E" transform="translate(0,0)"/>
<path d="" fill="#371E09" transform="translate(0,0)"/>
<path d="" fill="#080808" transform="translate(0,0)"/>
<path d="" fill="#030307" transform="translate(0,0)"/>
<path d="" fill="#020203" transform="translate(0,0)"/>
<path d="" fill="#080808" transform="translate(0,0)"/>
<path d="" fill="#F2001B" transform="translate(0,0)"/>
<path d="" fill="#C31212" transform="translate(0,0)"/>
<path d="" fill="#030307" transform="translate(0,0)"/>
<path d="" fill="#080808" transform="translate(0,0)"/>
<path d="" fill="#030307" transform="translate(0,0)"/>
<path d="" fill="#030307" transform="translate(0,0)"/>
<path d="" fill="#CD0713" transform="translate(0,0)"/>
<path d="" fill="#C80F0F" transform="translate(0,0)"/>
<path d="" fill="#080808" transform="translate(0,0)"/>
<path d="" fill="#030307" transform="translate(0,0)"/>
<path d="" fill="#C41010" transform="translate(0,0)"/>
<path d="" fill="#C31212" transform="translate(0,0)"/>
<path d="" fill="#080808" transform="translate(0,0)"/>
<path d="" fill="#431E03" transform="translate(0,0)"/>
<path d="" fill="#221205" transform="translate(0,0)"/>
<path d="" fill="#C80F0F" transform="translate(0,0)"/>
<path d="" fill="#030307" transform="translate(0,0)"/>
<path d="" fill="#C80F0F" transform="translate(0,0)"/>
<path d="" fill="#CE0708" transform="translate(0,0)"/>
<path d="" fill="#030307" transform="translate(0,0)"/>
<path d="" fill="#030307" transform="translate(0,0)"/>
<path d="" fill="#030307" transform="translate(0,0)"/>
<path d="" fill="#080808" transform="translate(0,0)"/>
<path d="" fill="#030307" transform="translate(0,0)"/>
<path d="" fill="#FFBF00" transform="translate(0,0)"/>
<path d="" fill="#BE170E" transform="translate(0,0)"/>
<path d="" fill="#E20017" transform="translate(0,0)"/>
<path d="" fill="#030307" transform="translate(0,0)"/>
<path d="" fill="#080808" transform="translate(0,0)"/>
<path d="" fill="#221205" transform="translate(0,0)"/>
<path d="" fill="#221205" transform="translate(0,0)"/>
<path d="" fill="#080808" transform="translate(0,0)"/>
<path d="" fill="#020203" transform="translate(0,0)"/>
<path d="" fill="#020203" transform="translate(0,0)"/>
<path d="" fill="#CE0708" transform="translate(0,0)"/>
<path d="" fill="#020203" transform="translate(0,0)"/>
<path d="" fill="#030307" transform="translate(0,0)"/>
<path d="" fill="#020203" transform="translate(0,0)"/>
<path d="" fill="#080808" transform="translate(0,0)"/>
<path d="" fill="#C31212" transform="translate(0,0)"/>
<path d="" fill="#080808" transform="translate(0,0)"/>
<path d="" fill="#221205" transform="translate(0,0)"/>
<path d="" fill="#371E09" transform="translate(0,0)"/>
<path d="" fill="#030307" transform="translate(0,0)"/>
<path d="" fill="#030307" transform="translate(0,0)"/>
<path d="" fill="#C80F0F" transform="translate(0,0)"/>
<path d="" fill="#030307" transform="translate(0,0)"/>
<path d="" fill="#020203" transform="translate(0,0)"/>
<path d="" fill="#030307" transform="translate(0,0)"/>
<path d="" fill="#221205" transform="translate(0,0)"/>
<path d="" fill="#D60315" transform="translate(0,0)"/>
<path d="" fill="#030307" transform="translate(0,0)"/>
<path d="" fill="#030307" transform="translate(0,0)"/>
<path d="" fill="#030307" transform="translate(0,0)"/>
<path d="" fill="#CD0713" transform="translate(0,0)"/>
<path d="" fill="#080808" transform="translate(0,0)"/>
<path d="" fill="#080808" transform="translate(0,0)"/>
<path d="" fill="#080808" transform="translate(0,0)"/>
<path d="" fill="#C41010" transform="translate(0,0)"/>
<path d="" fill="#BE170E" transform="translate(0,0)"/>
<path d="" fill="#090909" transform="translate(0,0)"/>
<path d="" fill="#080808" transform="translate(0,0)"/>
<path d="" fill="#090909" transform="translate(0,0)"/>
<path d="" fill="#110B07" transform="translate(0,0)"/>
<path d="" fill="#110B07" transform="translate(0,0)"/>
<path d="" fill="#080808" transform="translate(0,0)"/>
<path d="" fill="#080808" transform="translate(0,0)"/>
<path d="" fill="#030307" transform="translate(0,0)"/>
<path d="" fill="#080808" transform="translate(0,0)"/>
<path d="" fill="#030307" transform="translate(0,0)"/>
<path d="" fill="#C41010" transform="translate(0,0)"/>
<path d="" fill="#030307" transform="translate(0,0)"/>
<path d="" fill="#030307" transform="translate(0,0)"/>
<path d="" fill="#D60315" transform="translate(0,0)"/>
<path d="" fill="#030307" transform="translate(0,0)"/>
<path d="" fill="#030307" transform="translate(0,0)"/>
<path d="" fill="#B51F08" transform="translate(0,0)"/>
<path d="" fill="#CD0713" transform="translate(0,0)"/>
<path d="" fill="#030307" transform="translate(0,0)"/>
<path d="" fill="#080808" transform="translate(0,0)"/>
<path d="" fill="#BE170E" transform="translate(0,0)"/>
<path d="" fill="#080808" transform="translate(0,0)"/>
<path d="" fill="#C41010" transform="translate(0,0)"/>
<path d="" fill="#080808" transform="translate(0,0)"/>
<path d="" fill="#080808" transform="translate(0,0)"/>
<path d="" fill="#C41010" transform="translate(0,0)"/>
<path d="" fill="#030307" transform="translate(0,0)"/>
<path d="" fill="#030307" transform="translate(0,0)"/>
<path d="" fill="#FFBF00" transform="translate(0,0)"/>
<path d="" fill="#C31212" transform="translate(0,0)"/>
<path d="" fill="#030307" transform="translate(0,0)"/>
<path d="" fill="#080808" transform="translate(0,0)"/>
<path d="" fill="#030307" transform="translate(0,0)"/>
<path d="" fill="#FFBF00" transform="translate(0,0)"/>
<path d="" fill="#030307" transform="translate(0,0)"/>
<path d="" fill="#030307" transform="translate(0,0)"/>
<path d="" fill="#FFBF00" transform="translate(0,0)"/>
<path d="" fill="#FFC700" transform="translate(0,0)"/>
<path d="" fill="#FD001F" transform="translate(0,0)"/>
<path d="" fill="#080808" transform="translate(0,0)"/>
<path d="" fill="#E20017" transform="translate(0,0)"/>
<path d="" fill="#090909" transform="translate(0,0)"/>
<path d="" fill="#080808" transform="translate(0,0)"/>
<path d="" fill="#FFBF00" transform="translate(0,0)"/>
<path d="" fill="#BE170E" transform="translate(0,0)"/>
<path d="" fill="#090909" transform="translate(0,0)"/>
<path d="" fill="#110B07" transform="translate(0,0)"/>
<path d="" fill="#030307" transform="translate(0,0)"/>
<path d="" fill="#FFFF00" transform="translate(0,0)"/>
<path d="" fill="#030307" transform="translate(0,0)"/>
<path d="" fill="#080808" transform="translate(0,0)"/>
<path d="" fill="#030307" transform="translate(0,0)"/>
<path d="" fill="#080808" transform="translate(0,0)"/>
<path d="" fill="#090909" transform="translate(0,0)"/>
<path d="" fill="#C71514" transform="translate(0,0)"/>
<path d="" fill="#190D03" transform="translate(0,0)"/>
<path d="" fill="#080808" transform="translate(0,0)"/>
<path d="" fill="#080808" transform="translate(0,0)"/>
<path d="" fill="#C31212" transform="translate(0,0)"/>
<path d="" fill="#C41010" transform="translate(0,0)"/>
<path d="" fill="#080808" transform="translate(0,0)"/>
<path d="" fill="#030307" transform="translate(0,0)"/>
<path d="" fill="#FFBF00" transform="translate(0,0)"/>
<path d="" fill="#BE170E" transform="translate(0,0)"/>
<path d="" fill="#E59A00" transform="translate(0,0)"/>
<path d="" fill="#C41010" transform="translate(0,0)"/>
<path d="" fill="#030307" transform="translate(0,0)"/>
<path d="" fill="#431E03" transform="translate(0,0)"/>
<path d="" fill="#F4AE00" transform="translate(0,0)"/>
<path d="" fill="#C80F0F" transform="translate(0,0)"/>
<path d="" fill="#030307" transform="translate(0,0)"/>
<path d="" fill="#090909" transform="translate(0,0)"/>
<path d="" fill="#221205" transform="translate(0,0)"/>
<path d="" fill="#FFE300" transform="translate(0,0)"/>
<path d="" fill="#C41010" transform="translate(0,0)"/>
<path d="" fill="#090909" transform="translate(0,0)"/>
<path d="" fill="#190D03" transform="translate(0,0)"/>
<path d="" fill="#090909" transform="translate(0,0)"/>
<path d="" fill="#C71514" transform="translate(0,0)"/>
<path d="" fill="#080808" transform="translate(0,0)"/>
<path d="" fill="#080808" transform="translate(0,0)"/>
<path d="" fill="#080808" transform="translate(0,0)"/>
<path d="" fill="#080808" transform="translate(0,0)"/>
<path d="" fill="#030307" transform="translate(0,0)"/>
<path d="" fill="#EDA500" transform="translate(0,0)"/>
<path d="" fill="#C71514" transform="translate(0,0)"/>
<path d="" fill="#030307" transform="translate(0,0)"/>
<path d="" fill="#030307" transform="translate(0,0)"/>
<path d="" fill="#030307" transform="translate(0,0)"/>
<path d="" fill="#FFBF00" transform="translate(0,0)"/>
<path d="" fill="#FD001F" transform="translate(0,0)"/>
<path d="" fill="#030307" transform="translate(0,0)"/>
<path d="" fill="#190D03" transform="translate(0,0)"/>
<path d="" fill="#FFBF00" transform="translate(0,0)"/>
<path d="" fill="#080808" transform="translate(0,0)"/>
<path d="" fill="#090909" transform="translate(0,0)"/>
<path d="" fill="#C41010" transform="translate(0,0)"/>
<path d="" fill="#030307" transform="translate(0,0)"/>
<path d="" fill="#E59A00" transform="translate(0,0)"/>
<path d="" fill="#C71514" transform="translate(0,0)"/>
<path d="" fill="#CF1012" transform="translate(0,0)"/>
<path d="" fill="#090909" transform="translate(0,0)"/>
<path d="" fill="#F4AE00" transform="translate(0,0)"/>
<path d="" fill="#EDA500" transform="translate(0,0)"/>
<path d="" fill="#C71514" transform="translate(0,0)"/>
<path d="" fill="#FFFF00" transform="translate(0,0)"/>
<path d="" fill="#DC9100" transform="translate(0,0)"/>
<path d="" fill="#FFBF00" transform="translate(0,0)"/>
<path d="" fill="#FFC700" transform="translate(0,0)"/>
<path d="" fill="#D60315" transform="translate(0,0)"/>
<path d="" fill="#F4AE00" transform="translate(0,0)"/>
<path d="" fill="#FFBF00" transform="translate(0,0)"/>
<path d="" fill="#FFBF00" transform="translate(0,0)"/>
<path d="" fill="#FFFF00" transform="translate(0,0)"/>
<path d="" fill="#E59A00" transform="translate(0,0)"/>
<path d="" fill="#B51F08" transform="translate(0,0)"/>
<path d="" fill="#FFEE00" transform="translate(0,0)"/>
<path d="" fill="#FFE300" transform="translate(0,0)"/>
<path d="" fill="#C41010" transform="translate(0,0)"/>
<path d="" fill="#FFE300" transform="translate(0,0)"/>
<path d="" fill="#CF1012" transform="translate(0,0)"/>
<path d="" fill="#FFBF00" transform="translate(0,0)"/>
<path d="" fill="#FFBF00" transform="translate(0,0)"/>
<path d="" fill="#EDA500" transform="translate(0,0)"/>
<path d="" fill="#FEBF00" transform="translate(0,0)"/>
<path d="" fill="#FFBF00" transform="translate(0,0)"/>
<path d="" fill="#FFCF00" transform="translate(0,0)"/>
<path d="" fill="#FFBF00" transform="translate(0,0)"/>
<path d="" fill="#FFBF00" transform="translate(0,0)"/>
<path d="" fill="#FFFF00" transform="translate(0,0)"/>
<path d="" fill="#FFBF00" transform="translate(0,0)"/>
<path d="" fill="#FFBF00" transform="translate(0,0)"/>
<path d="" fill="#B51F08" transform="translate(0,0)"/>
<path d="" fill="#EDA500" transform="translate(0,0)"/>
<path d="" fill="#C41010" transform="translate(0,0)"/>
<path d="" fill="#C41010" transform="translate(0,0)"/>
<path d="" fill="#FFBF00" transform="translate(0,0)"/>
<path d="" fill="#F4AE00" transform="translate(0,0)"/>
<path d="" fill="#FFC700" transform="translate(0,0)"/>
<path d="" fill="#BE170E" transform="translate(0,0)"/>
<path d="" fill="#FFBF00" transform="translate(0,0)"/>
<path d="" fill="#FFFF00" transform="translate(0,0)"/>
<path d="" fill="#FFD500" transform="translate(0,0)"/>
<path d="" fill="#FFBF00" transform="translate(0,0)"/>
<path d="" fill="#FFBF00" transform="translate(0,0)"/>
<path d="" fill="#FFFF00" transform="translate(0,0)"/>
<path d="" fill="#FFFF00" transform="translate(0,0)"/>
<path d="" fill="#CF1012" transform="translate(0,0)"/>
<path d="" fill="#FFBF00" transform="translate(0,0)"/>
<path d="" fill="#FDB700" transform="translate(0,0)"/>
<path d="" fill="#FFD500" transform="translate(0,0)"/>
<path d="" fill="#CD0713" transform="translate(0,0)"/>
<path d="" fill="#FFBF00" transform="translate(0,0)"/>
<path d="" fill="#FFC700" transform="translate(0,0)"/>
<path d="" fill="#DC9100" transform="translate(0,0)"/>
<path d="" fill="#FFEE00" transform="translate(0,0)"/>
<path d="" fill="#CE0708" transform="translate(0,0)"/>
<path d="" fill="#CE0708" transform="translate(0,0)"/>
<path d="" fill="#FFBF00" transform="translate(0,0)"/>
<path d="" fill="#C41010" transform="translate(0,0)"/>
<path d="" fill="#FFC700" transform="translate(0,0)"/>
<path d="" fill="#FFBF00" transform="translate(0,0)"/>
<path d="" fill="#C41010" transform="translate(0,0)"/>
<path d="" fill="#FFFF00" transform="translate(0,0)"/>
<path d="" fill="#FFBF00" transform="translate(0,0)"/>
<path d="" fill="#FFBF00" transform="translate(0,0)"/>
<path d="" fill="#FFBF00" transform="translate(0,0)"/>
<path d="" fill="#FDB700" transform="translate(0,0)"/>
<path d="" fill="#FFBF00" transform="translate(0,0)"/>
<path d="" fill="#FFBF00" transform="translate(0,0)"/>
<path d="" fill="#FFBF00" transform="translate(0,0)"/>
<path d="" fill="#FFCF00" transform="translate(0,0)"/>
<path d="" fill="#CE0708" transform="translate(0,0)"/>
<path d="" fill="#C80F0F" transform="translate(0,0)"/>
<path d="" fill="#FFFF00" transform="translate(0,0)"/>
<path d="" fill="#E59A00" transform="translate(0,0)"/>
<path d="" fill="#BE170E" transform="translate(0,0)"/>
<path d="" fill="#FFEE00" transform="translate(0,0)"/>
<path d="" fill="#FFFF00" transform="translate(0,0)"/>
<path d="" fill="#FFBF00" transform="translate(0,0)"/>
<path d="" fill="#C80F0F" transform="translate(0,0)"/>
<path d="" fill="#FFE300" transform="translate(0,0)"/>
<path d="" fill="#FFC700" transform="translate(0,0)"/>
<path d="" fill="#FDB700" transform="translate(0,0)"/>
<path d="" fill="#FFBF00" transform="translate(0,0)"/>
<path d="" fill="#FFFF00" transform="translate(0,0)"/>
<path d="" fill="#F4AE00" transform="translate(0,0)"/>
<path d="" fill="#FFEE00" transform="translate(0,0)"/>
<path d="" fill="#FFE300" transform="translate(0,0)"/>
<path d="" fill="#FFD900" transform="translate(0,0)"/>
<path d="" fill="#FFD500" transform="translate(0,0)"/>
<path d="" fill="#FDB700" transform="translate(0,0)"/>
<path d="" fill="#D60315" transform="translate(0,0)"/>
<path d="" fill="#E59A00" transform="translate(0,0)"/>
<path d="" fill="#EDA500" transform="translate(0,0)"/>
<path d="" fill="#D60315" transform="translate(0,0)"/>
<path d="" fill="#FFCF00" transform="translate(0,0)"/>
<path d="" fill="#FEBF00" transform="translate(0,0)"/>
<path d="" fill="#EDA500" transform="translate(0,0)"/>
<path d="" fill="#FFBF00" transform="translate(0,0)"/>
<path d="" fill="#FFBF00" transform="translate(0,0)"/>
<path d="" fill="#602D00" transform="translate(0,0)"/>
<path d="" fill="#FFBF00" transform="translate(0,0)"/>
<path d="" fill="#FFBF00" transform="translate(0,0)"/>
<path d="" fill="#FFBF00" transform="translate(0,0)"/>
<path d="" fill="#FFBF00" transform="translate(0,0)"/>
<path d="" fill="#FFBF00" transform="translate(0,0)"/>
<path d="" fill="#FDB700" transform="translate(0,0)"/>
<path d="" fill="#E20017" transform="translate(0,0)"/>
<path d="" fill="#FFC700" transform="translate(0,0)"/>
<path d="" fill="#A32D05" transform="translate(0,0)"/>
<path d="" fill="#FFC700" transform="translate(0,0)"/>
<path d="" fill="#BE170E" transform="translate(0,0)"/>
<path d="" fill="#F4AE00" transform="translate(0,0)"/>
<path d="" fill="#FFBF00" transform="translate(0,0)"/>
<path d="" fill="#C41010" transform="translate(0,0)"/>
<path d="" fill="#E59A00" transform="translate(0,0)"/>
<path d="" fill="#C41010" transform="translate(0,0)"/>
<path d="" fill="#FFFF00" transform="translate(0,0)"/>
<path d="" fill="#FFFF00" transform="translate(0,0)"/>
<path d="" fill="#C80F0F" transform="translate(0,0)"/>
<path d="" fill="#F4AE00" transform="translate(0,0)"/>
<path d="" fill="#FFCF00" transform="translate(0,0)"/>
<path d="" fill="#CD0713" transform="translate(0,0)"/>
<path d="" fill="#C80F0F" transform="translate(0,0)"/>
<path d="" fill="#FFC700" transform="translate(0,0)"/>
<path d="" fill="#CF1012" transform="translate(0,0)"/>
<path d="" fill="#FFE300" transform="translate(0,0)"/>
<path d="" fill="#FDB700" transform="translate(0,0)"/>
<path d="" fill="#C41010" transform="translate(0,0)"/>
<path d="" fill="#FFD500" transform="translate(0,0)"/>
<path d="" fill="#C31212" transform="translate(0,0)"/>
<path d="" fill="#FFFF00" transform="translate(0,0)"/>
<path d="" fill="#FFD500" transform="translate(0,0)"/>
<path d="" fill="#CF1012" transform="translate(0,0)"/>
<path d="" fill="#FFEE00" transform="translate(0,0)"/>
<path d="" fill="#FFC700" transform="translate(0,0)"/>
<path d="" fill="#FFFF00" transform="translate(0,0)"/>
<path d="" fill="#BE170E" transform="translate(0,0)"/>
<path d="" fill="#CF1012" transform="translate(0,0)"/>
<path d="" fill="#C80F0F" transform="translate(0,0)"/>
<path d="" fill="#FFBF00" transform="translate(0,0)"/>
<path d="" fill="#C41010" transform="translate(0,0)"/>
<path d="" fill="#FFD500" transform="translate(0,0)"/>
<path d="" fill="#BE170E" transform="translate(0,0)"/>
<path d="" fill="#FFC700" transform="translate(0,0)"/>
<path d="" fill="#CD0713" transform="translate(0,0)"/>
<path d="" fill="#FFBF00" transform="translate(0,0)"/>
<path d="" fill="#FFC700" transform="translate(0,0)"/>
<path d="" fill="#FFC700" transform="translate(0,0)"/>
<path d="" fill="#FFBF00" transform="translate(0,0)"/>
<path d="" fill="#C41010" transform="translate(0,0)"/>
<path d="" fill="#FFC700" transform="translate(0,0)"/>
<path d="" fill="#C80F0F" transform="translate(0,0)"/>
<path d="" fill="#C31212" transform="translate(0,0)"/>
<path d="" fill="#C31212" transform="translate(0,0)"/>
<path d="" fill="#FFC700" transform="translate(0,0)"/>
<path d="" fill="#FFC700" transform="translate(0,0)"/>
<path d="" fill="#FFBF00" transform="translate(0,0)"/>
<path d="" fill="#FFFF00" transform="translate(0,0)"/>
</svg>
