<?xml version="1.0" encoding="UTF-8"?>
<svg version="1.1" xmlns="http://www.w3.org/2000/svg" width="225" height="225">
<path d="M0 0 C74.25 0 148.5 0 225 0 C225 74.25 225 148.5 225 225 C150.75 225 76.5 225 0 225 C0 150.75 0 76.5 0 0 Z " fill="#8F3FAF" transform="translate(0,0)"/>
<path d="M0 0 C0.82628906 0.00829834 1.65257812 0.01659668 2.50390625 0.02514648 C16.05359797 0.39523429 27.35233209 5.48481604 37.4375 14.5 C48.36915166 26.14458546 51.44398936 39.70560594 51.12890625 55.1796875 C50.48051771 68.18928979 43.40060847 79.62681878 34.15625 88.515625 C20.81626795 99.17028599 6.22535484 100.99006946 -10.25 99.4375 C-14.7123899 98.36560634 -18.32773788 96.79334365 -22.25 94.4375 C-23.05308594 93.97988281 -23.85617188 93.52226562 -24.68359375 93.05078125 C-36.87507022 85.54675273 -44.66255477 74.33038932 -48.25 60.4375 C-49.95035179 42.75384143 -46.80608939 29.48852898 -35.6640625 15.4375 C-26.55226488 5.4811943 -13.37163388 -0.17543363 0 0 Z " fill="#FBFCFE" transform="translate(111.25,61.5625)"/>
<path d="M0 0 C0.82628906 0.00829834 1.65257812 0.01659668 2.50390625 0.02514648 C16.05359797 0.39523429 27.35233209 5.48481604 37.4375 14.5 C48.36915166 26.14458546 51.44398936 39.70560594 51.12890625 55.1796875 C50.48051771 68.18928979 43.40060847 79.62681878 34.15625 88.515625 C20.81626795 99.17028599 6.22535484 100.99006946 -10.25 99.4375 C-14.7123899 98.36560634 -18.32773788 96.79334365 -22.25 94.4375 C-23.05308594 93.97988281 -23.85617188 93.52226562 -24.68359375 93.05078125 C-36.87507022 85.54675273 -44.66255477 74.33038932 -48.25 60.4375 C-49.95035179 42.75384143 -46.80608939 29.48852898 -35.6640625 15.4375 C-26.55226488 5.4811943 -13.37163388 -0.17543363 0 0 Z M-30.5 23.625 C-38.70738571 33.29038437 -41.18815036 44.04387032 -40.4765625 56.44921875 C-39.16556806 67.95432512 -32.15385041 77.57505755 -23.53515625 84.83203125 C-13.44668005 91.91983248 -3.26417675 93.29307327 8.75 92.4375 C21.14563969 89.71574724 31.2335419 81.9822808 38.06640625 71.3984375 C43.55857092 61.22475978 44.11639653 49.51301677 41.39453125 38.41015625 C40.74924905 36.21541875 40.74924905 36.21541875 39.125 33.5625 C37.63711755 30.18094897 37.70069468 28.50151893 37.875 24.875 C37.95377634 21.02021109 37.8970022 19.6960211 35.9375 16.25 C31.89677672 13.95233382 29.21787489 14.29010898 24.66796875 14.5234375 C20.6599499 14.40539678 17.63582589 13.08824486 14.0390625 11.41015625 C-1.86945803 4.65039241 -19.2679179 11.86805425 -30.5 23.625 Z " fill="#FBFBFD" transform="translate(111.25,61.5625)"/>
<path d="M0 0 C4.95 0 9.9 0 15 0 C15 1.32 15 2.64 15 4 C14.34 4 13.68 4 13 4 C13.73352519 7.2307198 13.73352519 7.2307198 16.75 8.8125 C23.29358139 13.21683362 23.29358139 13.21683362 25 17 C25.86731917 22.9203961 25.89366582 28.11337216 23.3125 33.5625 C16.45244236 40.79337157 16.45244236 40.79337157 11.171875 41.23828125 C-0.2710162 41.48647181 -0.2710162 41.48647181 -5 37 C-9.9233929 31.41128374 -10.5256738 27.73890648 -10.4765625 20.34765625 C-9.83146769 15.81612959 -8.19405261 13.58856923 -4.95703125 10.45703125 C-2.43775532 8.58140266 -0.07736006 7.6004605 3 7 C3 6.01 3 5.02 3 4 C2.01 4 1.02 4 0 4 C0 2.68 0 1.36 0 0 Z " fill="#F9FBFE" transform="translate(105,98)"/>
<path d="M0 0 C4.30569164 1.40882683 8.01215189 2.04006006 12.53515625 1.72265625 C15.97265625 1.97265625 15.97265625 1.97265625 18.91015625 3.78515625 C21.55078584 7.86612926 21.12868334 10.39395543 20.88671875 15.125 C21.00262572 18.96573557 22.32360789 21.60998691 24.015625 25 C27.93497472 33.07865964 26.54383948 43.97896724 24.01171875 52.2734375 C19.6006041 63.7323857 12.48673862 70.98347968 1.81640625 76.7109375 C-7.84050161 80.99552711 -18.83113813 81.75200744 -28.90234375 78.34765625 C-40.33095518 73.48837998 -49.07898232 66.1893275 -53.96484375 54.59765625 C-58.0214944 43.95410505 -58.82676768 33.15161497 -54.28125 22.4609375 C-48.19883685 10.39085284 -39.77732761 2.65099678 -27.02734375 -2.02734375 C-17.96119758 -4.85598135 -8.71889091 -3.07531045 0 0 Z M-44.83984375 12.66015625 C-52.1828242 21.65226942 -54.76327925 31.60654125 -54.02734375 42.97265625 C-52.34786256 53.47653015 -47.61416259 62.6812392 -39.30859375 69.4375 C-29.59345485 75.97525614 -19.01734566 78.57510372 -7.44140625 76.51171875 C3.72450983 73.5177034 12.54314874 67.40502469 18.4765625 57.44921875 C23.20264045 48.4817888 24.91370283 37.9457051 22.1484375 28.01171875 C20.71045491 24.36597851 19.15010305 21.23882645 16.97265625 17.97265625 C15.87953125 18.01390625 14.78640625 18.05515625 13.66015625 18.09765625 C9.97265625 17.97265625 9.97265625 17.97265625 7.03515625 15.91015625 C4.51721789 12.32400162 4.55196295 10.2637279 4.97265625 5.97265625 C-11.32841411 -4.21551273 -31.52381167 -1.40526292 -44.83984375 12.66015625 Z " fill="#508DF8" transform="translate(128.02734375,74.02734375)"/>
<path d="M0 0 C8 0 8 0 10.3125 2.1875 C10.869375 3.115625 11.42625 4.04375 12 5 C12.5775 5.928125 13.155 6.85625 13.75 7.8125 C14.1625 8.534375 14.575 9.25625 15 10 C15.33 6.7 15.66 3.4 16 0 C18.97 0 21.94 0 25 0 C25 9.9 25 19.8 25 30 C17 30 17 30 14.6875 28.03125 C13.8521875 26.77828125 13.8521875 26.77828125 13 25.5 C12.4225 24.6646875 11.845 23.829375 11.25 22.96875 C10.8375 22.3190625 10.425 21.669375 10 21 C9.67 23.97 9.34 26.94 9 30 C6.03 30 3.06 30 0 30 C0 20.1 0 10.2 0 0 Z " fill="#FDFCFE" transform="translate(91,16)"/>
<path d="M0 0 C8 0 8 0 10.3125 2.1875 C10.869375 3.115625 11.42625 4.04375 12 5 C12.5775 5.928125 13.155 6.85625 13.75 7.8125 C14.1625 8.534375 14.575 9.25625 15 10 C15.33 6.7 15.66 3.4 16 0 C18.97 0 21.94 0 25 0 C25 9.9 25 19.8 25 30 C17 30 17 30 14.6875 27.8125 C14.130625 26.884375 13.57375 25.95625 13 25 C12.4225 24.071875 11.845 23.14375 11.25 22.1875 C10.63125 21.1046875 10.63125 21.1046875 10 20 C9.67 23.3 9.34 26.6 9 30 C6.03 30 3.06 30 0 30 C0 20.1 0 10.2 0 0 Z " fill="#FDFCFD" transform="translate(138,178)"/>
<path d="M0 0 C0.54785156 0.32355469 1.09570312 0.64710938 1.66015625 0.98046875 C0.53563898 3.95240725 -0.56278166 6.31487562 -2.33984375 8.98046875 C-4.21484375 9.203125 -4.21484375 9.203125 -6.33984375 9.04296875 C-8.42223268 8.85125868 -8.42223268 8.85125868 -10.33984375 8.98046875 C-12.73549303 10.93014154 -12.73549303 10.93014154 -12.52734375 14.54296875 C-12.73272181 17.8101057 -12.73272181 17.8101057 -11.33984375 18.98046875 C-8.66925524 19.12162036 -6.01552137 19.02293982 -3.33984375 18.98046875 C-3.99984375 18.65046875 -4.65984375 18.32046875 -5.33984375 17.98046875 C-5.33984375 16.00046875 -5.33984375 14.02046875 -5.33984375 11.98046875 C-1.37984375 11.98046875 2.58015625 11.98046875 6.66015625 11.98046875 C7.49907378 21.80778834 7.49907378 21.80778834 5.20703125 25.01171875 C0.3953747 29.1359958 -3.77892125 30.34327294 -10.05859375 30.26171875 C-14.83963861 29.67227486 -17.58945553 26.83226078 -20.65234375 23.35546875 C-23.78843356 18.94171273 -24.0948516 15.30793989 -23.33984375 9.98046875 C-21.67214477 5.96691933 -19.36591302 2.94618101 -16.21484375 -0.01953125 C-11.14403485 -1.78329087 -4.98977052 -2.1741738 0 0 Z " fill="#FBF9FC" transform="translate(192.33984375,179.01953125)"/>
<path d="M0 0 C3.3 0 6.6 0 10 0 C10.33 6.93 10.66 13.86 11 21 C12.32 21 13.64 21 15 21 C15.33 14.07 15.66 7.14 16 0 C18.97 0 21.94 0 25 0 C25.14547545 4.06212212 25.23413226 8.12357287 25.3125 12.1875 C25.35439453 13.33798828 25.39628906 14.48847656 25.43945312 15.67382812 C25.56027032 24.01021478 25.56027032 24.01021478 23.93505859 26.88134766 C20.44585061 30.44231313 17.49868157 31.1888025 12.6875 31.3125 C8.9431604 31.27329226 7.27179884 31.14976671 3.9375 29.3125 C0.62877884 25.36338119 -0.25485313 21.78994275 -0.1953125 16.69921875 C-0.18886719 15.72275391 -0.18242188 14.74628906 -0.17578125 13.74023438 C-0.15902344 12.73283203 -0.14226563 11.72542969 -0.125 10.6875 C-0.11597656 9.66076172 -0.10695312 8.63402344 -0.09765625 7.57617188 C-0.07416331 5.05068073 -0.03829451 2.52531008 0 0 Z " fill="#FBF9FC" transform="translate(59,16)"/>
<path d="M0 0 C1.07765625 0.03609375 2.1553125 0.0721875 3.265625 0.109375 C4.49539062 0.17898437 4.49539062 0.17898437 5.75 0.25 C5.75 3.22 5.75 6.19 5.75 9.25 C4.1 9.25 2.45 9.25 0.75 9.25 C1.513125 9.971875 2.27625 10.69375 3.0625 11.4375 C8.68952851 17.32625077 8.68952851 17.32625077 8.8125 21.23828125 C8.546717 24.26710003 8.15255707 26.68276049 6.375 29.1875 C2.84503748 31.49555242 -0.35329308 31.3564162 -4.4375 31.3125 C-6.06751953 31.29896484 -6.06751953 31.29896484 -7.73046875 31.28515625 C-8.56191406 31.27355469 -9.39335938 31.26195312 -10.25 31.25 C-10.25 27.95 -10.25 24.65 -10.25 21.25 C-7.61 21.58 -4.97 21.91 -2.25 22.25 C-2.25 21.26 -2.25 20.27 -2.25 19.25 C-2.8275 19.0025 -3.405 18.755 -4 18.5 C-6.78881023 16.95066098 -8.37022742 15.86825467 -10.25 13.25 C-10.8193058 10.15866951 -10.98366428 7.31412729 -10.25 4.25 C-7.25257061 0.11069275 -4.97229903 -0.21618691 0 0 Z " fill="#FAF8FB" transform="translate(85.25,177.75)"/>
<path d="M0 0 C5.61 0 11.22 0 17 0 C17 2.64 17 5.28 17 8 C14.36 8 11.72 8 9 8 C9 9.32 9 10.64 9 12 C11.64 12 14.28 12 17 12 C17 14.31 17 16.62 17 19 C14.36 19 11.72 19 9 19 C9 20.32 9 21.64 9 23 C11.64 23 14.28 23 17 23 C17 25.31 17 27.62 17 30 C11.39 30 5.78 30 0 30 C0 20.1 0 10.2 0 0 Z " fill="#FDFDFE" transform="translate(52,178)"/>
<path d="M0 0 C6.93 0 13.86 0 21 0 C21 2.64 21 5.28 21 8 C19.35 8 17.7 8 16 8 C16 15.59 16 23.18 16 31 C12.7 31 9.4 31 6 31 C6 23.41 6 15.82 6 8 C4.02 8 2.04 8 0 8 C0 5.36 0 2.72 0 0 Z " fill="#F9F5FA" transform="translate(138,16)"/>
<path d="M0 0 C6.93 0 13.86 0 21 0 C21 2.64 21 5.28 21 8 C19.35 8 17.7 8 16 8 C16 15.26 16 22.52 16 30 C12.7 30 9.4 30 6 30 C6 22.74 6 15.48 6 8 C4.02 8 2.04 8 0 8 C0 5.36 0 2.72 0 0 Z " fill="#FBF9FC" transform="translate(95,178)"/>
<path d="M0 0 C6.93 0 13.86 0 21 0 C21 2.64 21 5.28 21 8 C19.02 8 17.04 8 15 8 C15 15.26 15 22.52 15 30 C11.7 30 8.4 30 5 30 C5 22.74 5 15.48 5 8 C3.35 8 1.7 8 0 8 C0 5.36 0 2.72 0 0 Z " fill="#FBFAFC" transform="translate(26,178)"/>
<path d="M0 0 C4.95 0 9.9 0 15 0 C15 1.32 15 2.64 15 4 C14.34 4 13.68 4 13 4 C13.73352519 7.2307198 13.73352519 7.2307198 16.75 8.8125 C23.29358139 13.21683362 23.29358139 13.21683362 25 17 C25.86731917 22.9203961 25.89366582 28.11337216 23.3125 33.5625 C16.45244236 40.79337157 16.45244236 40.79337157 11.171875 41.23828125 C-0.2710162 41.48647181 -0.2710162 41.48647181 -5 37 C-9.9233929 31.41128374 -10.5256738 27.73890648 -10.4765625 20.34765625 C-9.83146769 15.81612959 -8.19405261 13.58856923 -4.95703125 10.45703125 C-2.43775532 8.58140266 -0.07736006 7.6004605 3 7 C3 6.01 3 5.02 3 4 C2.01 4 1.02 4 0 4 C0 2.68 0 1.36 0 0 Z M6 4 C6 5.98 6 7.96 6 10 C5.113125 10.0825 4.22625 10.165 3.3125 10.25 C-0.49179956 11.11135084 -2.22253264 12.29968451 -5 15 C-7.72292642 19.46521849 -7.65073421 23.91463266 -7 29 C-4.83605984 33.40802625 -2.61803133 36.23139226 2 38 C7.37264334 38.66541913 11.60848549 38.69575726 16.5 36.25 C19.67918669 33.38873198 21.74792218 31.50826561 22.46875 27.1953125 C22.69016519 20.33321207 22.69016519 20.33321207 19.75 14.375 C15.78839043 10.95360992 14.28458305 10 9 10 C9 8.02 9 6.04 9 4 C8.01 4 7.02 4 6 4 Z " fill="#4F8CF8" transform="translate(105,98)"/>
<path d="M0 0 C3.63 0 7.26 0 11 0 C11 9.9 11 19.8 11 30 C7.37 30 3.74 30 0 30 C0 20.1 0 10.2 0 0 Z " fill="#F6F1F8" transform="translate(121,178)"/>
<path d="M0 0 C1.15822266 -0.01740234 1.15822266 -0.01740234 2.33984375 -0.03515625 C8.01672583 -0.0056404 8.01672583 -0.0056404 10.21289062 1.72412109 C11.5 3.375 11.5 3.375 12 6.1875 C11.30722549 10.60393747 9.60637827 12.19466034 6.5 15.375 C3.01556578 17.11721711 -0.69887045 16.96175154 -4.5 16.375 C-7.57469523 14.67248281 -9.90613254 12.56273492 -11.5 9.375 C-11.9593943 3.97711702 -11.9593943 3.97711702 -10.22851562 1.70849609 C-7.24229528 -0.59528011 -3.61452185 -0.05430834 0 0 Z " fill="#4B8AF8" transform="translate(112.5,116.625)"/>
<path d="M0 0 C3.3 0 6.6 0 10 0 C10 9.9 10 19.8 10 30 C6.7 30 3.4 30 0 30 C0 20.1 0 10.2 0 0 Z " fill="#FCFBFD" transform="translate(123,16)"/>
<path d="M0 0 C0.721875 0.5775 1.44375 1.155 2.1875 1.75 C1.98125 2.843125 1.775 3.93625 1.5625 5.0625 C0.78403475 8.8338401 0.78403475 8.8338401 3.1875 11.75 C5.23753955 12.94232613 5.23753955 12.94232613 7.1875 13.75 C4.2175 14.245 4.2175 14.245 1.1875 14.75 C-1.78800031 11.6815153 -2.77724513 10.28763669 -3.0625 5.9375 C-2.98 4.885625 -2.8975 3.83375 -2.8125 2.75 C-4.39449631 2.10089846 -5.97815724 1.45585306 -7.5625 0.8125 C-8.44421875 0.45285156 -9.3259375 0.09320313 -10.234375 -0.27734375 C-19.35583314 -3.71862114 -28.88609438 -3.02763247 -37.8125 0.75 C-42.594499 3.24317897 -47.12357158 5.76453393 -50.8125 9.75 C-51.8025 9.42 -52.7925 9.09 -53.8125 8.75 C-48.50594759 1.10232152 -40.49523858 -3.05623572 -31.75390625 -5.92578125 C-20.9702898 -7.72666689 -9.24071176 -6.07370726 0 0 Z " fill="#508DF8" transform="translate(134.8125,77.25)"/>
<path d="M0 0 C2.9375 1.75 2.9375 1.75 5 5 C5.56696134 9.05512346 5.7161201 12.95988908 5 17 C4.01 17.66 3.02 18.32 2 19 C1.67 18.34 1.34 17.68 1 17 C-1.31 17 -3.62 17 -6 17 C-6 16.01 -6 15.02 -6 14 C-6.515625 13.4225 -7.03125 12.845 -7.5625 12.25 C-9.635447 9.0053873 -8.61450997 6.6870598 -8 3 C-8.66 2.34 -9.32 1.68 -10 1 C-6.36217368 -0.21260877 -3.82264001 -0.39544552 0 0 Z " fill="#548FF8" transform="translate(144,76)"/>
<path d="M0 0 C4.95 0 9.9 0 15 0 C15 1.32 15 2.64 15 4 C14.34 4 13.68 4 13 4 C13.73352519 7.2307198 13.73352519 7.2307198 16.75 8.8125 C20.45895715 11.30891347 22.70912848 13.13415431 25 17 C24.81713432 20.49012204 24.03319068 23.67009883 23 27 C22.67 27 22.34 27 22 27 C21.97421875 26.40832031 21.9484375 25.81664063 21.921875 25.20703125 C21.5481521 20.00039182 21.11891705 16.59085076 17 13 C14.36059423 11.75347375 11.79654166 10.88557153 9 10 C9 8.02 9 6.04 9 4 C8.01 3.67 7.02 3.34 6 3 C7.7015625 2.7834375 7.7015625 2.7834375 9.4375 2.5625 C12.80777201 2.38828522 12.80777201 2.38828522 14 1 C9.71 1 5.42 1 1 1 C1.33 1.99 1.66 2.98 2 4 C1.34 4 0.68 4 0 4 C0 2.68 0 1.36 0 0 Z " fill="#4C8BF8" transform="translate(105,98)"/>
<path d="M0 0 C2.5625 0.3125 2.5625 0.3125 4.375 1.5 C5.98775784 3.96157776 5.9959014 5.42315736 5.5625 8.3125 C4.375 10.125 4.375 10.125 2.5625 11.3125 C0.0625 11.75 0.0625 11.75 -2.4375 11.3125 C-4.3125 9.625 -4.3125 9.625 -5.4375 7.3125 C-5.14609088 3.23277231 -4.43505664 0.56859701 0 0 Z " fill="#F5F8FE" transform="translate(140.4375,78.6875)"/>
<path d="M0 0 C0.33 0 0.66 0 1 0 C1.62329486 9.73032529 1.62329486 9.73032529 -0.6875 14.4375 C-3.48347883 17.53574681 -6.24961469 20.12480734 -10 22 C-11.87379605 22.07033769 -13.75001102 22.0843022 -15.625 22.0625 C-16.62789063 22.05347656 -17.63078125 22.04445312 -18.6640625 22.03515625 C-19.43492188 22.02355469 -20.20578125 22.01195312 -21 22 C-21 21.34 -21 20.68 -21 20 C-20.34773438 19.90203125 -19.69546875 19.8040625 -19.0234375 19.703125 C-13.51346698 18.76041618 -9.31462249 17.78844902 -5 14 C-2.19484656 9.59190173 -1.13002421 5.0416465 0 0 Z " fill="#4788F8" transform="translate(129,117)"/>
<path d="M0 0 C0.625 2.875 0.625 2.875 1 6 C-1 8 -1 8 -4 8.25 C-7 8 -7 8 -9 6 C-8.75 2.9375 -8.75 2.9375 -8 0 C-5.13822943 -1.43088528 -3.06624227 -0.59991697 0 0 Z " fill="#4F8CF8" transform="translate(128,85)"/>
<path d="M0 0 C4.95 0 9.9 0 15 0 C15 1.32 15 2.64 15 4 C14.34 4 13.68 4 13 4 C12.67 4.99 12.34 5.98 12 7 C12 6.01 12 5.02 12 4 C11.34 4 10.68 4 10 4 C10 5.98 10 7.96 10 10 C9.67 10 9.34 10 9 10 C9 8.02 9 6.04 9 4 C8.01 3.67 7.02 3.34 6 3 C7.7015625 2.7834375 7.7015625 2.7834375 9.4375 2.5625 C12.80777201 2.38828522 12.80777201 2.38828522 14 1 C9.71 1 5.42 1 1 1 C1.33 1.99 1.66 2.98 2 4 C1.34 4 0.68 4 0 4 C0 2.68 0 1.36 0 0 Z " fill="#ADC6FB" transform="translate(105,98)"/>
<path d="M0 0 C4.29 0 8.58 0 13 0 C12.67 0.66 12.34 1.32 12 2 C10.329375 2.2165625 10.329375 2.2165625 8.625 2.4375 C5.06882192 2.98932074 4.06625391 3.20448001 2 6 C1.34 4.02 0.68 2.04 0 0 Z " fill="#4285F8" transform="translate(106,99)"/>
<path d="M0 0 C0.33 0.66 0.66 1.32 1 2 C2.32 1.67 3.64 1.34 5 1 C5 2.32 5 3.64 5 5 C3.02 5.99 3.02 5.99 1 7 C0.34 6.34 -0.32 5.68 -1 5 C-0.625 2.375 -0.625 2.375 0 0 Z " fill="#89B1FA" transform="translate(120,86)"/>
<path d="M0 0 C1.32 0 2.64 0 4 0 C3.88648483 1.81325551 3.75887039 3.62563357 3.625 5.4375 C3.55539063 6.44683594 3.48578125 7.45617187 3.4140625 8.49609375 C3.27742188 9.32238281 3.14078125 10.14867188 3 11 C2.01 11.495 2.01 11.495 1 12 C0.67 8.04 0.34 4.08 0 0 Z " fill="#5F96F8" transform="translate(95,115)"/>
<path d="M0 0 C5.94 0.99 5.94 0.99 12 2 C12 2.33 12 2.66 12 3 C9.36 3 6.72 3 4 3 C4 3.66 4 4.32 4 5 C2.68 4.67 1.36 4.34 0 4 C0 2.68 0 1.36 0 0 Z " fill="#6298F8" transform="translate(104,134)"/>
<path d="M0 0 C-1.04874998 2.62187494 -1.64931313 3.79371361 -4.125 5.25 C-4.74375 5.4975 -5.3625 5.745 -6 6 C-6 3 -6 3 -4.6875 1.3125 C-3 0 -3 0 0 0 Z " fill="#4587F7" transform="translate(88,81)"/>
<path d="M0 0 C0.66 0.33 1.32 0.66 2 1 C2.125 3.875 2.125 3.875 2 7 C1.34 7.66 0.68 8.32 0 9 C-1.36623674 6.26752652 -1.128426 4.01801098 -1 1 C-0.67 0.67 -0.34 0.34 0 0 Z " fill="#4888F8" transform="translate(147,80)"/>
<path d="M0 0 C1.32 0.33 2.64 0.66 4 1 C3.34 4.3 2.68 7.6 2 11 C1.67 11 1.34 11 1 11 C0.67 7.37 0.34 3.74 0 0 Z " fill="#699CF9" transform="translate(126,114)"/>
<path d="M0 0 C0 1.65 0 3.3 0 5 C-0.33 4.01 -0.66 3.02 -1 2 C-1.66 2 -2.32 2 -3 2 C-3 3.98 -3 5.96 -3 8 C-3.33 8 -3.66 8 -4 8 C-4 6.02 -4 4.04 -4 2 C-4.99 1.67 -5.98 1.34 -7 1 C-4 0 -4 0 0 0 Z " fill="#7EA9F9" transform="translate(118,100)"/>
<path d="M0 0 C0.99 0 1.98 0 3 0 C3 1.65 3 3.3 3 5 C1.68 4.67 0.36 4.34 -1 4 C-0.67 2.68 -0.34 1.36 0 0 Z " fill="#6198F9" transform="translate(113,91)"/>
<path d="M0 0 C1.65 0.99 3.3 1.98 5 3 C4.01 3.99 3.02 4.98 2 6 C1.34 5.34 0.68 4.68 0 4 C0 2.68 0 1.36 0 0 Z " fill="#5C94F8" transform="translate(143,76)"/>
</svg>
